<svg xmlns="http://www.w3.org/2000/svg" viewBox="0 0 100 100">
    <path d="M76.702 40.467c0-4.79-10.745-7.375-20.854-7.375-4.225 0-8.558.453-12.174 1.327.614-1 .997-2.36 1.076-4.32.17-4.27-.983-8.89-3.246-13.04-2.35-4.31-5.627-7.78-9.228-9.79-3.648-2.03-7.376-2.31-10.204-.77-2.87 1.56-4.596 4.76-4.863 9-.26 4.11.89 8.75 3.24 13.05 1.99 3.65 4.99 6.84 9.16 9.74 1.95 1.35 3.44 1.99 4.7 1.99.25 0 .47-.03.69-.08-.01.07-.02.15-.02.22L34.92 43v43.71c.03.35.973 8.5 20.684 8.5 19.675 0 21.07-8.05 21.12-8.39l.007-43.8-.04-2.55zm-1.65-.625c-.23.14-.47.276-.713.407-1.74-2.55-8.6-4.1-18.5-4.1-9.57 0-16.81 1.75-18.59 4.42-.32-.17-.55-.32-.71-.44.58-2.69 8.33-5.55 19.29-5.55 10.54 0 18.12 2.64 19.2 5.25zm-44.578-2.764c-3.98-2.773-6.826-5.793-8.705-9.232-2.22-4.058-3.31-8.404-3.07-12.238.23-3.708 1.68-6.472 4.08-7.783.99-.54 2.1-.814 3.32-.814 1.69 0 3.57.55 5.44 1.59 3.35 1.87 6.42 5.14 8.64 9.19 2.13 3.91 3.22 8.26 3.06 12.26-.16 3.89-1.41 4.76-4.23 5.81-1.04.39-1.76 1.02-2.39 1.6-.14.11-.26.23-.38.35-.7.64-1.2 1.01-1.95 1.01-.92 0-2.18-.56-3.84-1.72zm44.77 49.563c-.144.59-2.147 7.08-19.626 7.08-18.164 0-19.183-7.06-19.188-7.06v-8.67c2.69 1.18 9.502 3.61 19.812 3.61 10.308 0 16.564-2.45 19-3.64v8.69zm0-10.38c-1.526.83-7.864 3.84-19 3.84-10.882 0-17.863-2.84-19.813-3.75V53.99c2.69 1.172 9.51 3.6 19.82 3.6s16.57-2.45 19-3.64v22.31zm0-24c-1.526.83-7.864 3.84-19 3.84-10.882 0-17.863-2.84-19.813-3.75v-9.32l.03-1.17c2.26 1.28 7.98 3.53 20.21 3.53.5 0 11.76-.14 18.55-3.9l.03 1.55v9.23z"/>
    <path d="M35.522 36.78c-4.25 0-9-3.67-12.104-9.355-4.098-7.502-3.838-15.274.59-17.693.846-.462 1.796-.696 2.825-.696 4.218 0 9.194 3.923 12.383 9.762 4.045 7.405 3.746 14.82-.695 17.245-.9.49-1.9.738-2.99.738zm-8.69-26.245c-.774 0-1.482.173-2.105.513-3.567 1.95-3.564 9.12.007 15.658 2.802 5.13 7.137 8.575 10.788 8.575.836 0 1.603-.18 2.28-.55 3.63-1.98 3.672-8.66.097-15.21-2.89-5.28-7.44-8.98-11.07-8.98z"/>
    <path d="M35.618 33.625c-2.807 0-6.36-3.054-8.843-7.598-3.045-5.576-3.228-11.146-.415-12.683.48-.262 1.02-.395 1.604-.395 2.807 0 6.36 3.05 8.843 7.59 1.406 2.57 2.26 5.26 2.4 7.57.153 2.51-.552 4.32-1.985 5.1-.48.26-1.02.39-1.604.39zM27.964 14.45c-.33 0-.628.07-.885.21-1.75.957-1.77 5.565 1.01 10.65 2.44 4.474 5.63 6.816 7.52 6.816.33 0 .63-.07.88-.21.88-.482 1.32-1.83 1.2-3.7-.13-2.096-.92-4.563-2.22-6.95-2.45-4.475-5.64-6.816-7.53-6.816z"/>
    <path d="M38.638 65.634c-.024-.087-.047-.19-.047-.26 0-.338.29-.39.63-.18.29.176.51.484.59.78.44 1.59.66 2.37 1.09 3.91.44-1.142.66-1.726 1.1-2.917.1-.252.31-.378.62-.295l.1.025c.31.08.52.313.62.623.44 1.426.66 2.13 1.1 3.515.44-1.297.66-1.955 1.1-3.29.08-.232.28-.42.58-.424.33 0 .6.24.6.57 0 .07-.02.17-.04.24-.62 1.76-.92 2.62-1.54 4.31-.11.3-.34.48-.63.44l-.12-.01c-.29-.03-.51-.25-.62-.58-.43-1.33-.65-2.01-1.08-3.39-.43 1.15-.65 1.71-1.08 2.81-.11.27-.33.37-.62.25l-.13-.05c-.29-.13-.52-.44-.63-.8-.61-2.04-.92-3.09-1.54-5.24z"/>
    <path d="M47.61 67.638c0-.338.268-.63.606-.678.338-.047.605.174.605.512v1.618c.9-.15 1.34-.253 2.23-.487v-1.618c0-.338.27-.674.61-.77.34-.094.61.092.61.43v4.382c0 .338-.26.685-.6.78s-.6-.102-.6-.44v-1.65c-.89.235-1.33.338-2.23.488v1.65c0 .337-.26.65-.6.697-.34.047-.6-.194-.6-.53v-4.384z"/>
    <path d="M53.34 68.515V68.5c0-1.564 1.233-3.25 2.93-3.84 1.695-.59 2.912.286 2.912 1.85v.015c0 1.563-1.233 3.237-2.93 3.827-1.695.59-2.912-.274-2.912-1.837zm4.58-1.562v-.016c0-.942-.692-1.495-1.666-1.156-.974.34-1.65 1.34-1.65 2.29v.02c0 .95.69 1.49 1.665 1.16.97-.34 1.65-1.33 1.65-2.28z"/>
    <path d="M60.02 66.286v-.016c0-1.563 1.232-3.245 2.928-3.558 1.696-.313 2.914.955 2.914 2.518v.016c0 1.563-1.233 2.84-2.93 3.155-1.696.32-2.913-.55-2.913-2.11zm4.578-.95v-.016c0-.942-.69-1.67-1.665-1.49-.974.18-1.65 1.135-1.65 2.077v.016c0 .943.692 1.54 1.666 1.36.97-.18 1.64-1.005 1.64-1.947z"/>
    <path d="M66.942 63.123c0-.338.267-.59.605-.556.656.07.985.124 1.64.283 1.313.32 2.106 1.5 2.106 2.623v.016c0 1.27-.99 1.46-2.222 1.18-.36-.09-.55-.12-.91-.18v1.09c0 .34-.26.56-.6.52-.34-.04-.6-.32-.6-.66v-4.33zm2.167 2.482c.6.143.95-.093.95-.564v-.01c0-.54-.38-.96-.98-1.1-.38-.09-.56-.12-.94-.18v1.68c.38.06.57.1.96.19z"/>
    <path d="M72.104 64.35c-.024-.24.256-.43.468-.305.196.115.295.176.49.302.213.136.463.65.44.86l-.34 2.726c-.023.196-.164.237-.36.116s-.338-.34-.36-.56l-.338-3.14zm.7 4.217c.392.24.682.737.682 1.114v.02c0 .38-.29.46-.683.22-.393-.24-.683-.68-.683-1.06v-.01c0-.37.29-.51.683-.27z"/>
</svg>
