<svg xmlns="http://www.w3.org/2000/svg" viewBox="0 0 100 100">
    <path d="M67.457 81.655c-.636 0-1.152-.516-1.152-1.152 0-.423.23-.794.57-.994.344-.35 1.294-1.73 1.35-3.34.043-1.29-.49-2.5-1.582-3.59-1.496-1.5-2.233-3.14-2.192-4.87.07-2.77 2.15-4.68 2.24-4.76.47-.43 1.2-.39 1.63.07.43.47.4 1.19-.07 1.62-.01.01-1.45 1.36-1.48 3.13-.02 1.07.49 2.14 1.52 3.17 3.05 3.04 2.36 6.25 1.68 7.89-.04.11-1.18 2.81-2.49 2.81z"/>
    <path d="M73.983 81.655c-.636 0-1.152-.516-1.152-1.152 0-.423.23-.794.57-.994.35-.35 1.3-1.73 1.35-3.34.05-1.29-.48-2.5-1.58-3.59-1.49-1.5-2.23-3.14-2.19-4.87.07-2.77 2.15-4.68 2.23-4.76.48-.43 1.2-.39 1.63.07.43.47.4 1.19-.07 1.62-.01.01-1.44 1.36-1.48 3.13-.02 1.07.49 2.14 1.52 3.17 3.04 3.04 2.36 6.25 1.68 7.89-.04.11-1.18 2.81-2.49 2.81z"/>
    <path d="M76.857 50.057l-23.61-44.34c-.225-.423-.75-.58-1.17-.358-.42.22-.58.74-.356 1.16l23.65 44.41c.64.98 2.07 3.92 1.13 5.64-.6 1.1-2.16 1.66-4.62 1.66H50.19c-.043 0-.094 0-.135.01-.006 0-.735.1-1.247-.35-.42-.37-.634-1.03-.634-1.97 0-1.32 2.123-3.27 4.03-3.27.478 0 .865-.39.865-.87s-.39-.87-.87-.87c-2.75 0-5.76 2.61-5.76 4.99 0 1.48.42 2.59 1.25 3.3.75.64 1.63.75 2.16.75.17 0 .3-.01.39-.02h5.8c.27 2.09 1.17 7.94 3.07 11.44-5.94.85-30.69 3.6-35.58-8.97-.17-.45-.67-.67-1.11-.5-.45.17-.67.67-.5 1.12C24.44 69.53 32 73.29 43.78 73.89c1.167.06 2.32.083 3.447.083 3.886 0 7.42-.307 9.895-.595l2.58 11.73c.01.03.72 2.86-1.033 5.13-1.59 2.05-4.67 3.09-9.17 3.09-.48 0-.87.39-.87.863s.39.86.86.86c5.07 0 8.62-1.27 10.55-3.78 2.26-2.95 1.36-6.46 1.33-6.57l-2.51-11.53c1.14-.16 1.82-.28 1.85-.28.29-.05.54-.26.65-.54.11-.28.06-.59-.12-.83-2.07-2.72-3.12-9.14-3.45-11.57h14.09c3.14 0 5.21-.86 6.14-2.57 1.62-2.97-1.08-7.22-1.16-7.34z"/>
</svg>
