<svg xmlns="http://www.w3.org/2000/svg" viewBox="0 0 100 100">
    <circle cx="81.308" cy="32.018" r=".926"/>
    <path d="M92.416 31.29c-3.147-1.665-7.12-2.684-9.797-3.235.44-4.507-.66-5.49-1.16-5.7-.26-.103-.55-.06-.76.116-.54.46-.96 1.17-1.28 1.9-.77-2.01-1.72-2.39-1.97-2.46-.26-.06-.54.01-.72.21-1.95 2.08-1.92 5.15-1.78 6.56-1.49-.22-4.67-.18-8.08 3.15-.24.24-.29.61-.12.9.03.06.26.43.68.79-.68.54-2.08 1.3-4.68 1.32-.22 0-.43.1-.57.27-.14.17-.19.39-.15.61.03.14.15.68.46 1.16-.83.86-3.02 2.7-6.57 2.7-.23 0-.44.1-.57.28-.14.18-.2.4-.15.62.04.17.28 1.15.84 2-1.28.08-2.72.13-4.36.13-4.96 0-10.68-.44-17.01-1.31-.44-.06-.87-.09-1.29-.09-2.49 0-4.69 1.06-6.48 2.94-.75-1.11-2.36-2.73-5.47-2.73-2.51 0-5.21 1.02-7.24 2.73-1.78 1.5-3.95 4.29-4.17 9.02-.33 7-.67 14.24-4.74 15.69-.33.12-.53.45-.48.8.05.34.33.61.68.63 0 0 .2.01.55.01 1.29 0 3.98-.17 5.93-1.42-.13.3-.32.61-.59.88-.23.24-.27.6-.11.88.13.23.38.37.63.37.06 0 .12-.01.18-.02.25-.07 6.17-1.69 6.41-10.31 0-.08-.05-8.69 2.98-11.74.81-.81 1.75-1.12 2.87-.94-1.47 3.09-2.31 7.08-2.31 11.67 0 9.46 5.46 14.56 10.6 14.56.97 0 1.93-.18 2.84-.55.44-.18.84-.4 1.22-.65.64.12 1.26.19 1.85.19 1.65 0 3.06-.48 4.21-1.44 2.41-2.01 2.94-5.54 3.05-7.17 1.76.26 3.65.39 5.67.39 5.11 0 9.97-.83 13.26-1.56.25.56.71 1.3 1.57 1.78.53.3 1.14.45 1.8.45.65 0 1.37-.14 2.14-.43 1.72 1.22 3.67 1.04 3.72 1.03 1.28-.01 2.3-.48 3.03-1.42 2.14-2.74.93-8.71.64-9.96l5.61-15.65c.88.05 1.72.08 2.51.08 7.52 0 8.74-2.22 8.93-2.89 1.02-2.34-1.06-4.32-2.34-5.06zm-11.332-6.97c.15.58.26 1.635.09 3.458-.39-.07-.725-.125-.978-.164-.026-.195-.057-.372-.086-.554.13-.618.47-1.862.974-2.74zm-17 12.963c.115-.158.163-.355.132-.55s-.138-.364-.298-.478c-.01-.01-.023-.018-.034-.03 4.006-.354 5.29-2.408 5.348-2.503.112-.186.135-.412.065-.617-.07-.206-.23-.37-.43-.446-.176-.07-.326-.17-.45-.27 2.502-2.21 4.727-2.43 5.946-2.33-2.44 3.52-7.346 9.94-10.295 11.05-.024.01-1.8.75-6.08 1.17-.036-.03-.065-.06-.107-.08-.37-.16-.7-.72-.92-1.25 4.69-.4 7.03-3.55 7.13-3.69zm-43.59 10.552c-3.457 3.49-3.41 12.413-3.405 12.764-.13 4.5-1.97 6.79-3.45 7.91.2-.97.06-1.75.05-1.8-.06-.3-.3-.53-.59-.59-.31-.06-.6.08-.76.34-.82 1.36-2.66 1.92-4.18 2.15 2.79-3.08 3.09-9.34 3.38-15.43.35-7.59 6.14-10.35 9.93-10.35 2.87 0 4.08 1.71 4.47 2.45-.3.4-.57.82-.84 1.27-1.8-.43-3.37 0-4.62 1.27zM41.872 70.59c-.948.79-2.165 1.147-3.62 1.08 2.242-2.568 2.606-6.425 2.636-8.32 1.095.382 2.29.67 3.53.914-.08 1.316-.482 4.61-2.545 6.326zm25.225-6.715c-.396-.216-.655-.546-.824-.843.873-.214 1.577-.404 2.048-.538.23.59.51 1.08.82 1.498-.82.204-1.51.17-2.04-.117zm15.773-26.2c-.344-.024-.627.177-.738.484l-5.87 16.36c-.05.13-.056.28-.02.42.446 1.79 1.258 6.89-.326 8.92-.45.57-1.072.85-1.973.86-.015 0-.098.01-.23.01-.99 0-3.375-.33-4.213-3.35-.053-.19-.18-.36-.356-.45s-.38-.12-.57-.06c-.08.02-8.302 2.57-17.032 2.57-4.34 0-8.085-.63-11.13-1.86-.234-.1-.5-.06-.704.08-.204.15-.318.39-.3.64.005.08.49 7.95-4.418 9.91-.736.29-1.51.44-2.3.44-4.49 0-9.133-4.9-9.133-13.1 0-4.75.925-8.8 2.51-11.76l.015-.02 1.284-1.98c1.63-2.04 3.698-3.22 6.064-3.22.355 0 .72.03 1.086.08 6.396.88 12.186 1.33 17.21 1.33 9.28 0 12.794-1.52 12.9-1.57 4.4-1.66 11.472-12.34 11.77-12.8.106-.16.144-.36.108-.54-.008-.04-.62-3.31.89-5.51.42.51 1.094 1.76 1.418 4.7.036.33.297.6.63.64.074.01 7.392 1 12.268 3.59.102.06 2.493 1.48 1.692 3.22-.024.06-.03.06-.04.12-.002 0-.05.12-.214.28-3.768-1.32-9.053-.85-9.28-.82-.402.03-.697.39-.66.79.038.4.382.7.8.66.043 0 3.918-.35 7.21.35-1.125.33-2.822.59-5.383.59-.916 0-1.912-.03-2.962-.1z"/>
</svg>
