<svg xmlns="http://www.w3.org/2000/svg" viewBox="0 0 100 100">
    <path d="M80.586 34.858H48.353v1.69H18.83c-.215.008-5.795-.075-9.814 3.783-2.53 2.43-3.856 5.85-3.94 10.16-.098 4.89 1.167 8.71 3.76 11.35 2.388 2.44 5.933 3.78 9.976 3.78l29.54.05v-.84V67H78.79s16.17-.644 16.17-16.063c0 0 .633-16.064-14.374-16.064zM18.814 63.92c-3.587 0-6.703-1.162-8.77-3.27-2.263-2.308-3.366-5.717-3.278-10.134.244-12.35 11.538-12.275 12.048-12.276h29.54v25.734l-29.54-.053z"/>
    <circle cx="44.311" cy="58.805" r="2.21"/>
    <circle cx="44.311" cy="52.041" r="2.21"/>
    <circle cx="44.311" cy="45.277" r="2.21"/>
    <circle cx="37.548" cy="57.114" r="2.21"/>
    <circle cx="37.548" cy="50.35" r="2.21"/>
    <circle cx="37.548" cy="43.586" r="2.21"/>
    <circle cx="30.784" cy="58.805" r="2.21"/>
    <circle cx="30.784" cy="52.041" r="2.21"/>
    <circle cx="30.784" cy="45.277" r="2.21"/>
    <circle cx="24.02" cy="57.114" r="2.21"/>
    <circle cx="24.02" cy="50.35" r="2.21"/>
    <circle cx="24.02" cy="43.586" r="2.21"/>
    <circle cx="17.256" cy="58.805" r="2.21"/>
    <circle cx="17.256" cy="52.041" r="2.21"/>
    <circle cx="17.256" cy="45.277" r="2.21"/>
    <circle cx="10.493" cy="50.35" r="2.21"/>
</svg>
