<svg xmlns="http://www.w3.org/2000/svg" viewBox="0 0 100 100">
    <path d="M32.973 93.296c-.392 0-.718-.306-.738-.7-.01-.184-.198-4.528 2.07-8.455.204-.35.657-.47 1.01-.27.353.21.473.66.27 1.01-2.045 3.54-1.877 7.61-1.875 7.65.02.41-.294.76-.702.78h-.035z"/>
    <path d="M29.564 90.472c-.02 0-.04 0-.062-.003-.407-.04-.71-.39-.675-.8.04-.5.452-4.88 2.33-6.52.306-.27.772-.24 1.042.07.26.3.23.77-.07 1.04-1.22 1.06-1.74 4.35-1.83 5.52-.04.38-.36.68-.74.68z"/>
    <path d="M60.736 47.03l-.435-.015c-1.02-.077-1.85-.43-2.46-1.053-1.05-1.063-1.06-2.518-1.06-2.58V40.43h1.48v2.957c0 .35.13 2.052 2.27 2.16.71-.035 1.26-.246 1.64-.628.62-.63.63-1.52.63-1.53v-2.96h1.48v2.95c0 .05 0 1.51-1.06 2.57-.62.62-1.45.97-2.47 1.05v.01z"/>
    <path d="M43.294 47.03l-.435-.015c-1.02-.077-1.85-.43-2.47-1.053-1.06-1.063-1.06-2.518-1.06-2.58V40.43h1.48v2.957c0 .35.12 2.052 2.26 2.16.71-.035 1.26-.246 1.63-.628.62-.63.63-1.52.63-1.53v-2.96h1.48v2.95c0 .05-.01 1.51-1.06 2.57-.62.62-1.45.97-2.47 1.05v.01z"/>
    <path d="M51.72 54.812l-.195-.003c-2.96-.1-3.85-2.24-3.888-2.33l1.373-.55c.02.05.607 1.36 2.613 1.4 2.006-.04 2.592-1.35 2.616-1.41l1.36.55c-.04.09-.93 2.23-3.89 2.33z"/>
    <path d="M79.047 44.853c-.314-1.092-.853-1.764-1.6-2-.275-.085-.54-.098-.785-.07.305-5.08-1.586-9.708-3.584-11.973-.834-.945-1.68-1.45-2.443-1.46h-.04c-.51 0-.966.12-1.372.31.085-.28.15-.565.16-.856.023-.743-.25-1.422-.792-1.963-2.32-2.32-20.91-10.91-34.77 1.5-.08.08-7.31 6.69-5.33 14.77-.38-.22-1.03-.47-1.74-.25-.75.24-1.28.91-1.6 2-.52 1.81.71 6.94 2.66 8.49.45.35.92.53 1.39.53.16 0 .31-.02.47-.06.92 4.22 3.02 7.99 5.9 11-1.44 1.14-3.31 3.71-2.3 7.3.07.24.18.48.33.73-8.33 5.34-7.94 14.35-7.92 14.74.03.4.35.7.74.7h.05c.41-.02.72-.37.7-.78-.02-.35-.35-8.65 7.39-13.5 1.55 1.51 4.33 3.01 7.8 4.14.15.05.32.1.47.15-2.5 2.65-9.19 10.55-6.04 16.33.14.25.39.39.65.39.12 0 .24-.03.36-.09.36-.2.49-.64.3-1-2.9-5.33 4.77-13.55 6.36-15.16 2.79.72 5.88 1.17 9.06 1.17 5.72 0 11.71-1.43 16.59-5.29.15-.12.25-.29.27-.49l.94-7.49c.01-.11 0-.22-.04-.33-.02-.07-.52-1.45-1.92-2.15 2.56-2.88 4.4-6.41 5.25-10.31.15.04.3.06.45.06.48 0 .95-.18 1.39-.53 1.96-1.55 3.18-6.68 2.66-8.49zm-13.313-6.948H55.29c-.755.012-1.88.507-1.88 1.822 0 .077-.01.21-.018.388-.015.275-.033.643-.046 1.067h-3.098c-.012-.424-.03-.792-.046-1.067-.01-.178-.017-.31-.017-.388 0-1.316-1.125-1.81-1.893-1.822H37.848c-.756.012-1.882.507-1.882 1.822 0 .077-.008.21-.017.388-.02.217-.03.49-.04.8h-2.88c3.73-4.605 11.21-8.676 20.46-7.28 6.95 1.05 11.63-.237 13.02-.7 2.41 2.175 4.33 4.89 5.56 7.98h-4.39c-.01-.312-.03-.584-.04-.8-.01-.18-.02-.312-.02-.39 0-1.313-1.13-1.81-1.89-1.82zm-1.6 11.49c-.91.96-2.094 1.438-3.616 1.46-1.522-.022-2.705-.5-3.616-1.46-1.59-1.678-2.274-4.773-2.036-9.2.012-.215.02-.375.02-.467 0-.08 0-.325.415-.344h10.42c.44.02.44.265.44.345 0 .09.01.25.02.46.24 4.42-.44 7.52-2.03 9.2zm-17.442 0c-.91.96-2.094 1.438-3.616 1.46-1.522-.022-2.705-.5-3.616-1.46-1.59-1.678-2.274-4.773-2.036-9.2.012-.215.02-.375.02-.467 0-.08 0-.325.415-.344h10.41c.43.02.43.265.43.345 0 .09.01.25.02.46.24 4.42-.45 7.52-2.04 9.2zM28.718 52.18c-1.45-1.15-2.538-5.588-2.155-6.918.16-.558.386-.92.62-.996.237-.076.595.117.773.255.317.22 1.164.96 1.328 1.72-.102.88-.16 1.77-.16 2.67 0 1.17.09 2.32.258 3.44-.16.07-.36.08-.664-.16zm41.045 14.444l-.87 6.99c-7.817 5.99-18.595 5.54-26.127 3.092C37.94 75.138 35.044 73 34.678 71.7c-.96-3.41 1.267-5.35 1.946-5.85 4.088 3.74 9.516 6.037 15.48 6.037 6.282 0 11.973-2.54 16.124-6.638.033.01.06.04.095.05.855.27 1.292 1.01 1.44 1.32zm-17.66 3.785C40.247 70.41 30.6 60.76 30.6 48.9c0-1.774.226-3.495.634-5.145.207-.453.46-.91.746-1.367h3.917c.04 2.44.46 5.87 2.49 8.017 1.165 1.227 2.704 1.873 4.58 1.92l.22.003v-.003c1.874-.045 3.414-.69 4.578-1.92 1.958-2.066 2.42-5.332 2.487-7.75h3.092c.067 2.418.528 5.684 2.487 7.75 1.17 1.23 2.71 1.875 4.58 1.92l.22.005v-.003c1.88-.048 3.42-.69 4.58-1.92 2.03-2.147 2.45-5.58 2.49-8.018h4.9c.43 1.36.74 2.77.89 4.24.08.75.12 1.51.12 2.26 0 11.85-9.64 21.5-21.5 21.5zm23.37-18.23c-.295.23-.49.23-.647.17.17-1.13.26-2.28.26-3.45 0-.81-.043-1.63-.127-2.42-.01-.1-.04-.19-.05-.29.18-.75 1-1.47 1.36-1.72.13-.11.49-.3.73-.23.23.07.46.44.62.99.38 1.33-.71 5.76-2.16 6.91z"/>
    <path d="M51.233 18.662c-7.808 0-22.574-1.017-22.574-4.865s14.76-4.865 22.57-4.865S73.8 9.95 73.8 13.797s-14.766 4.865-22.574 4.865zm0-8.252c-13.65 0-21.096 2.238-21.096 3.387s7.446 3.387 21.096 3.387 21.096-2.238 21.096-3.387-7.45-3.387-21.1-3.387z"/>
    <path d="M77.245 8.886c-.283 0-.553-.163-.675-.44-.166-.372.002-.81.375-.974l4.246-1.89c.38-.166.81.003.98.376.17.373 0 .81-.37.975l-4.24 1.89c-.09.043-.2.063-.3.063z"/>
    <path d="M81.49 20.485c-.1 0-.202-.02-.3-.064l-4.246-1.88c-.373-.16-.54-.6-.375-.97.16-.37.6-.54.97-.37l4.24 1.89c.37.17.54.6.37.98-.12.28-.39.44-.68.44z"/>
    <path d="M82.964 13.826h-4.246c-.408 0-.74-.33-.74-.74 0-.407.332-.738.74-.738h4.246c.408 0 .74.33.74.74-.002.407-.333.738-.74.738z"/>
    <path d="M21.37 20.485c-.282 0-.552-.163-.674-.44-.166-.372.002-.81.375-.974l4.25-1.88c.37-.17.81 0 .98.38.17.38 0 .81-.37.98l-4.24 1.89c-.09.05-.2.07-.3.07z"/>
    <path d="M25.616 8.886c-.1 0-.202-.02-.3-.064l-4.246-1.89c-.373-.165-.54-.6-.375-.974.166-.374.602-.543.975-.375l4.246 1.89c.373.165.54.6.375.974-.12.276-.39.44-.67.44z"/>
    <path d="M24.143 13.656h-4.246c-.408 0-.74-.33-.74-.74 0-.407.332-.738.74-.738h4.246c.408 0 .74.33.74.74 0 .407-.332.738-.74.738z"/>
</svg>
