<svg xmlns="http://www.w3.org/2000/svg" viewBox="0 0 100 100">
    <path d="M52.438 95.216l-.27-.002c-15.192 0-25.868-4.02-31.712-11.944-8.243-11.18-3.825-25.886-3.633-26.507.09-.295.354-.504.662-.526.31-.03.598.146.73.424 1.286 2.69 3.194 4.05 5.672 4.05.46 0 .877-.05 1.225-.11-3.554-4.62-4.51-11-2.76-18.56 1.392-6.01 3.96-10.58 4.068-10.77.155-.27.463-.42.776-.37.31.06.556.3.614.61.4 2.15 1.444 2.75 2.338 2.84l-.043-.44c-.318-3.21-.852-8.59 10.212-12.83 11.31-4.33 8.207-14.72 8.07-15.16-.073-.23-.03-.48.116-.67.146-.19.38-.3.617-.3 8.56.2 13.152 9.57 14.803 13.84 1.76-2.81 5.965-4.33 6.185-4.41.307-.11.648-.01.846.25.198.26.208.61.023.88-5.395 7.85-.54 18.82 1.088 22.01 1.744-2.26 2.443-6.07 2.45-6.11.058-.32.312-.56.632-.61.32-.04.632.12.778.41 4.04 8.05 2.125 18.08.252 24.2 3.002-2.9 6.562-4.47 6.766-4.56.284-.12.616-.06.833.16.217.22.276.56.148.84-3.75 8.28-3.67 20.89-3.67 21.01-.626 21.76-25.032 22.39-27.816 22.39zM17.826 58.963c-.886 4.19-2.344 15.04 3.845 23.426 5.55 7.51 15.82 11.32 30.52 11.32h.25c2.63 0 25.73-.59 26.32-20.91 0-.47-.07-11.29 3.03-19.71-2.09 1.19-5.51 3.53-7.19 6.75-.34.84-.58 1.35-.58 1.35-.17.36-.59.52-.96.37-.37-.15-.55-.57-.42-.94.17-.5.39-.99.64-1.48 1.45-3.58 5.74-15.6 2.18-25.32-.53 1.73-1.49 4.09-3.03 5.5-.16.15-.39.22-.61.18-.22-.03-.42-.17-.53-.36-.32-.55-7.35-12.68-2.72-22.44-1.75.97-3.74 2.52-3.87 4.36-.02.36-.3.65-.67.69-.35.04-.7-.19-.8-.54-.04-.14-4.06-13.59-13.11-14.74.95 4.5.07 12.4-9.24 15.97-9.99 3.82-9.55 8.31-9.25 11.28.05.48.09.92.09 1.3 0 .34-.24.65-.58.73-.05.01-.31.07-.71.07-.8 0-2.49-.26-3.48-2.25-2.19 4.63-7.61 18.3.07 26.91.17.18.23.43.18.66-.06.23-.22.43-.44.52-.11.04-5.38 2.24-8.9-2.74z"/>
    <circle cx="50.983" cy="29.978" r="5.445"/>
    <path d="M50.94 37h-6.173S39 36.76 39 45.12v15.35s-.444 1.85 2.065 1.845c0 0 1.935.19 1.935-1.91V45h1v41.19s0 2.787 2.743 2.787S50 87.82 50 85.847V63h2v23.19s-.25 2.813 2.856 2.797c0 0 3.06.43 3.144-3.154C58.06 83.263 58 45 58 45h1v15.468s-.068 1.715 2.075 1.715c0 0 1.925.17 1.925-2.122V41.95S62.28 37 57.028 37H50.94z"/>
</svg>
