<svg xmlns="http://www.w3.org/2000/svg" viewBox="0 0 100 100">
    <path d="M50 4.91c-24.735 0-44.786 20.05-44.786 44.786S25.264 94.482 50 94.482c24.735 0 44.786-20.05 44.786-44.786S74.736 4.91 50 4.91zM38.92 53.64c-.393 0-.71.317-.71.71v4.938c-.88.676-1.833 1.257-2.85 1.73V57.2c0-.394-.318-.712-.712-.712-.394 0-.712.318-.712.712v4.396c-.913.317-1.865.546-2.848.684v-3.656c0-.394-.32-.712-.712-.712s-.712.318-.712.712v3.786c-.233.01-.463.035-.7.035-.73 0-1.444-.07-2.148-.17V57.2c0-.394-.32-.712-.712-.712s-.712.318-.712.712v4.806c-.992-.24-1.943-.575-2.848-1v-5.23c0-.394-.318-.712-.712-.712-.394 0-.712.318-.712.712v4.47c-1.034-.627-1.995-1.36-2.848-2.207v-5.12c0-.4-.318-.72-.712-.72s-.712.32-.712.71v3.46c-1.918-2.54-3.07-5.7-3.07-9.13l.002-.03h7.177c.158 4.56 3.898 8.22 8.5 8.22 4.604 0 8.344-3.66 8.502-8.22h6.19v.03c0 4.22-1.73 8.05-4.52 10.8v-3.71c0-.4-.32-.72-.71-.72zm21.37 19.627c-3.31 3.02-6.457 4.03-9.185 4.03-5.44 0-9.213-4.013-9.27-4.074-.265-.29-.245-.74.044-1.005.28-.266.73-.247 1 .042.3.332 7.59 8.033 16.44-.044.29-.266.74-.245 1 .046.26.29.24.74-.05 1.005zM83.07 53.64c-.393 0-.71.317-.71.71v3.71c-.855.845-1.815 1.576-2.85 2.2V57.2c0-.394-.317-.712-.71-.712-.395 0-.713.318-.713.712v3.82c-.905.42-1.857.754-2.85.992v-3.388c0-.394-.317-.712-.71-.712s-.713.318-.713.712v3.656c-.696.098-1.4.166-2.123.166-.24 0-.48-.025-.72-.037V57.2c0-.394-.32-.712-.71-.712-.39 0-.71.318-.71.712v5.077c-.98-.14-1.93-.37-2.85-.69v-5.81c0-.395-.32-.713-.71-.713s-.71.318-.71.712v5.23c-1.01-.475-1.97-1.057-2.84-1.736v-6.342c0-.394-.32-.712-.71-.712s-.71.318-.71.712v5.11c-2.77-2.75-4.49-6.563-4.49-10.778v-.028h7.17c.16 4.564 3.9 8.22 8.5 8.22 4.61 0 8.35-3.655 8.51-8.22h6.19v.028c0 3.445-1.16 6.612-3.09 9.16v-2.067c0-.396-.32-.714-.71-.714z"/>
</svg>
