<svg xmlns="http://www.w3.org/2000/svg" viewBox="0 0 100 100">
    <path d="M52.787 34.053c-1.404-.305-2.765-.46-4.046-.46-6.22 0-9.08 3.522-9.81 4.6-.1.15-.15.236-.15.236-.11.19-.15.43-.09.66.45 1.84 1.31 3.27 2.35 4.4-.13.17-.22.48-.26.99v6.18c0 .98.8 1.79 1.79 1.79s1.79-.81 1.79-1.79V46c.41.21.82.404 1.22.565v6.246c0 .99.8 1.79 1.79 1.79.44 0 .83-.16 1.14-.42v5.37c0 .99.8 1.79 1.79 1.79s1.79-.8 1.79-1.79V47.79c.55-.01 1.06-.063 1.54-.133v9.21c0 .99.8 1.79 1.79 1.79s1.79-.8 1.79-1.79V46.794c0-.13-.01-.248-.02-.354 2.37-1.423 3.16-3.475 3.21-3.607.03-.084.05-.174.05-.263.24-5.275-4.88-7.876-7.63-8.517zM50.06 45.888c-.07-.006-6.065-.558-8.693-4.93 4.826 2.792 9.656 3.445 13.097 3.445 1.03 0 1.932-.06 2.677-.135-1.26 1.077-3.44 2.084-7.08 1.62zm-7.737-6.453c3.14-.383 9.658-.594 15.35 2.96-2.64.347-9.034.656-15.35-2.96zm-.5-1.75c1.3-1.08 3.517-2.302 6.918-2.302 1.16 0 2.39.14 3.66.415.23.055 5.02 1.24 6.05 4.97-6.32-3.87-13.37-3.528-16.62-3.083z"/>
    <path d="M95.173 41.678c-.15-.374-.523-.606-.928-.56l-14.613 1.588 9.722-15.123c.228-.356.177-.823-.123-1.12-.3-.298-.77-.342-1.12-.11L72.52 36.66l3.38-12.078c.083-.3.005-.62-.207-.85-.21-.227-.52-.33-.83-.268l-3.45.69C60.5 19.367 51.518 18.992 49.01 18.992c-.293 0-.46.006-.463.006-15.968 0-26.196 5.533-31.964 10.174-6.287 5.057-8.743 10.075-8.845 10.284-2.13 4.41-2.884 10.97-2.915 11.247-.054.484.29.923.773.987l10.147 1.327c-.618.6-.942 1.313-1.08 1.95-3.373.09-5.7.158-5.77.16-.25.007-.487.12-.65.307-.165.19-.242.438-.214.687.05.52 1.86 12.63 41.04 17.45l4.78 4.5c.21.2.5.29.8.23.28-.06.52-.26.64-.53l1.34-3.22 4.27 4.39c.22.23.55.33.85.25.3-.07.55-.3.64-.61l1.45-4.81 6.92 6.41c.17.16.38.24.61.24.12 0 .24-.02.36-.07.32-.14.54-.46.54-.82v-8.44l5.35 1.48c.3.09.62.01.84-.2.22-.21.33-.52.27-.82L77.4 64.6l9.19-1.77c.37-.07.66-.37.71-.74s-.13-.746-.46-.927l-5.91-3.217 9.78-4.197c.38-.17.6-.58.523-.99-.078-.42-.428-.72-.847-.73l-7.41-.28 11.87-9c.324-.24.44-.67.294-1.04zm-75.97 11.794l8.945 1.17c-3.944.083-8.137.187-11.6.278.273-.608.96-1.31 2.655-1.448zm60.733-1.665c-.302.228-.426.62-.312.982.113.36.44.61.82.62l5.94.22-7.826 3.35c-.314.13-.524.43-.54.78-.016.34.164.66.466.82l5.34 2.9-7.616 1.46c-.484.09-.802.56-.71 1.04l1.222 6.42-5.1-1.4c-.26-.08-.55-.02-.77.15-.22.17-.35.43-.35.71v7.57l-6.47-5.99c-.17-.16-.38-.24-.61-.24-.07 0-.15.01-.23.03-.293.08-.53.31-.62.6l-1.43 4.73-4.16-4.27c-.21-.21-.51-.31-.81-.25-.29.05-.54.25-.652.53l-1.365 3.28-4.054-3.81c-.14-.13-.32-.22-.51-.24-31.17-3.79-37.98-12.12-39.41-14.95 5.58-.16 28.34-.75 30.8-.56.48.03.9-.32.95-.8.05-.48-.3-.91-.77-.97l-34.45-4.5c.27-1.92 1.07-6.57 2.63-9.8.09-.2 9.69-19.45 39.23-19.45.01 0 .15-.01.42-.01 1.73 0 10.95.25 21.94 5.12.17.07.35.09.54.06l2.29-.46-3.64 12.99c-.1.36.03.74.33.96.3.22.71.23 1.02.02l14.05-9.29-8.44 13.12c-.19.29-.19.66-.01.95.18.29.51.45.85.41l13.27-1.44-11.29 8.56z"/>
    <path d="M12.045 49.086c-.052 0-.105-.007-.158-.022-.317-.087-.504-.415-.417-.733l1.044-3.79c.087-.32.413-.5.734-.41.317.09.504.42.417.74l-1.045 3.79c-.072.27-.312.44-.574.44z"/>
</svg>
