<svg xmlns="http://www.w3.org/2000/svg" viewBox="0 0 100 100">
    <path d="M71.135 48.352c.832-.48 1.294-.864 1.312-.88 5.92-4.36 4.39-14.33 1.87-18.686-3.944-6.814-3.392-19.71-3.386-19.84.016-.326-.178-.627-.482-.747-2.263-.897-4.006.386-4.08.44-.203.155-.317.4-.303.656.55 9.685-1.27 16.713-5.413 20.887-2.62 2.64-5.6 3.474-7.373 3.737-.185-.544.052-1.48.223-1.9.16-.39-.026-.84-.416-1-.395-.162-.838.023-1 .413-.04.094-.183.462-.29.95-.108-.52-.264-.915-.304-1.013-.163-.39-.61-.576-1-.413-.39.16-.576.61-.416 1 .183.446.442 1.482.183 2.002-1.86-.226-5.287-1.05-8.203-4.017-4.13-4.202-5.912-11.146-5.298-20.64.015-.258-.098-.507-.304-.662-.073-.054-1.812-1.338-4.08-.44-.304.12-.498.42-.482.747.006.13.56 13.02-3.385 19.84-2.522 4.354-4.053 14.324 1.827 18.652.05.04.845.7 2.23 1.37.734 2.44 5.428 19.216-1.475 27.978-.165.21-.21.488-.117.738.092.25.307.435.568.487.122.024 12.286 2.588 16.108 13.307.263.734.804 1.318 1.46 1.59.078.035 1.343.607 2.887.607.814 0 1.707-.16 2.544-.64.704-.402 1.174-.926 1.4-1.557 3.813-10.698 15.985-13.282 16.108-13.307.26-.053.476-.238.567-.487.092-.25.048-.53-.117-.738-7.412-9.408-1.442-28.095-1.38-28.282.016-.05.01-.102.017-.154zm-.527 28.443c-3.285.928-12.674 4.364-16.114 14.01-.1.282-.334.525-.716.744-1.73.99-4.007-.023-4.055-.044-.283-.117-.512-.372-.63-.7-3.438-9.647-12.827-13.083-16.113-14.01 5.798-8.643 2.668-22.626 1.396-27.252.32.105.65.206 1.002.295.998.25 2.197.438 3.558.438 2.535 0 5.632-.648 9.042-2.73.36-.22.476-.69.255-1.052-.22-.362-.692-.476-1.053-.255-6.018 3.674-10.894 2.596-13.595 1.373-.033-.02-.067-.033-.103-.048-1.316-.61-2.093-1.242-2.196-1.328-5.185-3.82-3.725-12.754-1.452-16.684 3.715-6.42 3.68-17.38 3.61-20.08.766-.16 1.395.037 1.756.204-.553 9.726 1.393 16.91 5.787 21.363 4.622 4.683 10.226 4.554 10.686 4.53.492.02 5.654.12 10.04-4.282 4.41-4.424 6.397-11.693 5.907-21.61.36-.168.99-.365 1.76-.207-.07 2.702-.106 13.663 3.61 20.083 2.272 3.93 3.732 12.865-1.492 16.715-.27.23-6.76 5.524-15.855-.027-.36-.22-.833-.105-1.053.256-.22.36-.106.833.255 1.053 3.41 2.08 6.507 2.728 9.042 2.728 1.36 0 2.56-.187 3.56-.44.684-.172 1.296-.385 1.854-.607-1.203 4.262-4.632 18.712 1.308 27.565z"/>
</svg>
