<svg xmlns="http://www.w3.org/2000/svg" viewBox="0 0 100 100">
    <path d="M50.155 94c-.53 0-.958-.43-.958-.958s.43-.958.958-.958c39.03 0 39.75-33.09 39.762-34.5V9.604H50.155c-.53 0-.958-.43-.958-.958 0-.53.43-.958.958-.958h40.72c.53 0 .958.43.958.958V57.59c-.002.372-.72 36.41-41.678 36.41z"/>
    <path d="M50.155 94C9.195 94 8.48 57.962 8.475 57.598V8.646c0-.53.43-.958.96-.958h40.72c.53 0 .957.43.957.958 0 .53-.43.958-.958.958h-39.76V57.59c.01 1.403.732 34.494 39.76 34.494.53 0 .96.43.96.958s-.43.958-.96.958z"/>
    <path d="M85.765 49.638c-.026-.51-.447-.91-.957-.91h-8.912l3.72-2.663c.207-.15.346-.372.387-.623.042-.25-.018-.507-.166-.714L65.333 24.474c-.31-.43-.908-.53-1.337-.222l-10.8 7.733-18.67-6.25c-.5-.166-1.045.104-1.213.605L25.82 48.73H16.3c-.53 0-.957.428-.957.957 0 9.103 2.59 38.804 35.922 38.804 10.323 0 18.558-3.154 24.475-9.377C86.547 67.748 85.8 50.373 85.765 49.64zm-21.432-23.27L77.72 45.066l-5.116 3.664H54.11l4.644-13.873c.168-.502-.103-1.045-.604-1.213l-2.71-.907 8.893-6.368zM51.33 51l-1.996 5.965-18.874-6.318h20.617l.253.354zm.732-2.27l-6.425-8.972 7.88-5.642 3.115 1.043-4.542 13.57h-.028zm1.408 1.917h16.458l-10.903 7.807-5.566-7.774.01-.033zm-18.643-22.79l16.447 5.506-7.53 5.393c-.43.31-.53.907-.223 1.337l6.186 8.636H27.84l6.987-20.873zM74.344 77.8c-5.54 5.823-13.306 8.775-23.078 8.775-10.126 0-33.546-3.527-34-35.93h8.18c.006.016.005.035.013.05.11.228.31.4.55.482l23.625 7.907c.1.033.2.05.304.05.146 0 .293-.034.427-.1.227-.114.4-.313.48-.554l1.86-5.557 5.317 7.425c.15.207.372.346.623.387.052.008.104.013.156.013.198 0 .394-.062.558-.18l13.86-9.923h10.645c-.008 3.698-.643 17.825-9.522 27.155z"/>
</svg>
