<svg xmlns="http://www.w3.org/2000/svg" viewBox="0 0 100 100">
    <path d="M81.278 48.496l-9.79-29.316c-.124-.374-.413-.67-.783-.805-.373-.134-.782-.093-1.117.114-1.893 1.16-3.614 2.09-5.19 2.84-.117-.77-.552-1.48-1.33-2.13-.556-.47-1.045-.85-1.473-1.19-1.727-1.36-2.134-1.73-2.134-2.95 0-.3-.18-.57-.46-.69-.27-.12-.59-.05-.8.17-.08.08-1.54 1.6-2.18 3.58-.63-1.08-1.34-2.91-1.28-5.66.01-.33-.2-.62-.51-.72-.31-.1-.65.01-.83.28l-1.01 1.48c-.14-1.13-.05-3.2.26-5.26.05-.3-.09-.6-.36-.75-.26-.15-.59-.13-.83.06-2.55 2.03-4.29 8.05-4.36 8.3-.01.05-.84 2.95-.07 6.08-.54-.1-1.1-.16-1.71-.16-7.66 0-19.68 7.49-21.67 8.76l-.43-1.34c-.25-.78-1.07-1.2-1.85-.95s-1.2 1.08-.95 1.86l20.02 62.22c.2.62.78 1.02 1.4 1.02.15 0 .3-.02.45-.07.78-.25 1.2-1.08.95-1.86l-9.28-28.75c.16-.07.3-.17.42-.29.06-.06 5.94-6.1 12.95-6.1 1.24 0 2.45.19 3.61.57 2.39.78 4.94 1.17 7.58 1.17.57 0 .99-.02 1.49-.06.4.45 2.27 2.29 5.73 2.29.65 0 1.32-.06 2-.19 4.14-.79 6.35-3.96 7.07-6.38 3.58-1.84 5.87-3.59 6.07-3.75.43-.33.61-.91.43-1.42zm-4.214-4.467c-1.18.61-2.228 1.2-3.237 1.77-.433.24-.856.48-1.28.71-.232-.95-.335-2.03-.178-3.3l1-.57c.85-.49 1.74-1 2.72-1.52l.96 2.89zm-1.797-5.39c-1.178.61-2.205 1.2-3.183 1.76-1.96 1.12-3.67 2.09-6.02 2.94-.33-.78-.505-1.73-.35-2.86 4.037-1.45 7.204-3.45 8.673-4.48l.88 2.63zm-1.736-5.2c-.9.67-6.12 4.41-12.51 5.69-2.41.48-4.36.6-6.38.44-.37-.66-.82-1.27-1.34-1.78-.2-.21-.52-.27-.78-.16-.27.11-.45.37-.46.66-.01.24-.06.59-.16.9-.5-.09-1.01-.2-1.55-.32-.5-.74-.95-1.76-1.2-3.01 2.04.69 4.14 1.05 6.33 1.05 5.22 0 10.93-1.99 17.26-5.96l.83 2.47zM55.58 45.05c.266-.803.268-1.795.053-2.83 1.835.05 3.697-.11 5.9-.55l1.424-.416c-.705.834-1.476 2-1.986 3.473-2.09.4-3.82.45-5.39.323zm5.13 5.55c-3.32.392-5.925-.166-8.45-.72-2.052-.45-4.18-.92-6.6-.85-4.73.122-10.64 3.727-13.1 5.37l-.7-2.218c2.4-1.792 9.15-6.17 13.37-6.086 1.986.026 3.668.386 5.45.767 2.778.594 5.65 1.198 9.744.58-.056.966.024 2.02.283 3.157zM71.044 26l.824 2.467c-9.01 5.792-16.24 7.28-22.738 4.68-.06-.024-.12-.044-.178-.066.034-.53.092-1.08.21-1.66.06-.28-.058-.58-.296-.75-.237-.17-.553-.18-.804-.03-.073.05-.966.59-1.88 1.69-.95-.13-1.672-.07-2.194.07l-.726-2.62c.633-.21 2.025-.53 3.64-.01.368.12.752.27 1.16.42 1.743.65 4.004 1.49 7.118 1.49 3.806 0 8.9-1.28 15.86-5.65zM44.73 34.88c-.01.025-.018.053-.028.08l-.02-.074.048-.007zm3.76-18.592c.33-1.15 1.234-3.77 2.385-5.703-.162 2.21-.04 4.54 1.082 5.062.328.152.716.045.92-.253l.488-.713c.507 3.93 2.505 5.69 2.604 5.78.21.19.52.23.78.11.26-.12.43-.38.43-.67 0-1.15.59-2.3 1.13-3.12.42.89 1.22 1.52 2.36 2.41.42.33.9.71 1.44 1.16.58.49.87.98.84 1.47-.04.69-.66 1.34-1.06 1.68-1.58-.1-3.26 1.81-3.49 2.07-.91 1.28-2 1.93-3.26 1.93-1.31 0-2.36-.69-2.36-.69-.04-.02-.07-.04-.1-.05-6.34-3-4.31-10.13-4.22-10.44zm-3.204 8.085c1.374 0 2.425.3 3.108.88.038.034.166.13.34.25.79.966 1.853 1.846 3.297 2.538.28.18 1.54.92 3.14.92 1.22 0 2.98-.44 4.43-2.49.54-.62 1.57-1.5 2.19-1.5.05 0 .09.01.12.02.21.06.44.03.62-.09.08-.05.39-.27.74-.62 1.18-.45 2.13-.74 6.3-2.72l.66 1.97c-11.95 7.7-17.54 5.64-21.24 4.27-.44-.16-.86-.31-1.25-.44-2.2-.72-4.09-.35-5.13-.02l-.68-2.45c1.2-.28 2.35-.46 3.39-.46zm-3.743 10.74c.308 1.338.94 2.776 1.513 3.55.416.564.838.838 1.287.838.77 0 1.207-.68 1.3-2.04.14-2.01 1.022-3.45 1.823-4.36-.172 3.2.875 5.75 1.976 7.1.45.55 1.15 1.21 1.936 1.21.08 0 .155 0 .228-.02.82-.14 1.288-.74 1.554-1.37.973 1.55 1.45 3.58.986 4.72-.203.5-.553.73-1.135.73-.52 0-1.17-.18-1.93-.55-1.75-.83-3.54-1.25-5.31-1.25-3.23 0-5.29 1.4-5.4 1.48 0 0-.2.13-.41.13-.4 0-.76-.72-.95-1.89-.49-3.12 1.29-6.38 2.55-8.24zm-4.083 7.64c.016.275.035.55.08.827.127.817.332 1.412.572 1.87-3.017 1.4-5.74 3.203-7.074 4.14l-.827-2.61c1.95-1.344 4.61-2.932 7.25-4.228zM58.87 53.77c-.015.057-.18.773-.098 1.656-.088 0-.175.004-.263.004-2.37 0-4.65-.35-6.78-1.044-1.42-.46-2.9-.695-4.41-.695-5.85 0-10.84 3.46-13.26 5.48l-.7-2.19c1.67-1.16 7.87-5.24 12.35-5.36 2.12-.05 3.99.36 5.98.8 2.2.49 4.62 1 7.57.9-.2.1-.36.26-.41.47zm1.17-.4c-.064-.05-.14-.07-.215-.095.457-.028.928-.075 1.412-.137.094.65.092 1.022.07 1.215-.3-.165-.754-.552-.95-.718-.12-.104-.23-.195-.318-.265zm7.396 5.234c-.587.113-1.163.17-1.715.17-3.11 0-4.61-1.773-4.67-1.845-.03-.04-.06-.07-.09-.1-.44-.38-.63-.91-.7-1.4.42.28.83.47 1.24.47.38 0 .72-.17.95-.46.4-.52.65-1.46-.23-4.87-1.08-4.23.7-7.11 2.01-8.56.35 3.46 3.23 5.15 3.37 5.23.24.13.53.13.76-.01.23-.14.37-.4.35-.67-.09-2.02 1.22-3.19 2.26-3.79-.56 3.84.9 6.27 1.9 7.94.4.66.77 1.29.74 1.61-.14 1.34-1.57 5.39-6.14 6.27zm7.127-7.82c-.14-.26-.293-.526-.466-.815-.19-.32-.392-.67-.59-1.04.526-.29 1.05-.58 1.59-.89.88-.5 1.804-1.01 2.796-1.54l.636 1.9c-.81.56-2.1 1.36-3.97 2.36z"/>
</svg>
