<svg xmlns="http://www.w3.org/2000/svg" viewBox="0 0 100 100">
    <circle cx="57.074" cy="25.705" r="1.911"/>
    <circle cx="42.647" cy="25.705" r="1.911"/>
    <path d="M40.78 34.792h17.96c.735 0 1.33-.596 1.33-1.33s-.596-1.33-1.33-1.33H40.78c-.736 0-1.33.596-1.33 1.33s.595 1.33 1.33 1.33z"/>
    <path d="M42.894 52.962c-.373.246-.598.664-.598 1.11v5.3c0 .447.223.862.594 1.11.22.146.478.22.736.22.175 0 .35-.033.516-.103l5.72-2.41 5.606 2.4c.41.17.883.13 1.256-.11s.598-.67.598-1.11v-5.2c0-.45-.223-.86-.594-1.11-.372-.25-.842-.29-1.252-.12L49.87 55.3l-5.72-2.45c-.41-.178-.88-.136-1.25.11z"/>
    <path d="M64.37 43.32c2.944-3.413 4.73-7.853 4.73-12.704 0-10.746-8.742-19.488-19.488-19.488S30.125 19.87 30.125 30.615c0 4.883 1.81 9.348 4.788 12.772-1.92.926-11.07 5.97-11.07 17.948V82.73c0 .417.196.81.526 1.06.21.166 5.43 4.075 14.3 6.054 2.81.628 6.19 1.092 10.04 1.092 7.28 0 16.24-1.666 26.16-7.036.43-.233.69-.68.69-1.17V61.335c0-12.29-9.64-17.282-11.21-18.014zm-3.713 3.338c.405 4.348.81 14.697-3.708 19.98-1.84 2.145-4.25 3.19-7.37 3.198-3.13-.007-5.54-1.054-7.37-3.198-4.54-5.302-4.11-15.705-3.71-20.025 3.15 2.196 6.98 3.49 11.1 3.49 4.1 0 7.9-1.275 11.04-3.445zm-11.045-32.87c9.278 0 16.827 7.55 16.827 16.827S58.89 47.44 49.61 47.44s-16.827-7.547-16.827-16.825 7.55-16.827 16.827-16.827z"/>
</svg>
