<svg xmlns="http://www.w3.org/2000/svg" viewBox="0 0 100 100">
    <circle cx="53.053" cy="25.557" r="1.883"/>
    <circle cx="38.837" cy="25.557" r="1.883"/>
    <path d="M36.997 34.51h17.696c.724 0 1.31-.587 1.31-1.31s-.586-1.312-1.31-1.312H36.997c-.724 0-1.31.587-1.31 1.31s.587 1.312 1.31 1.312z"/>
    <path d="M51.422 59.933c.405.174.87.132 1.238-.11.368-.243.59-.654.59-1.094V53.6c0-.44-.22-.85-.587-1.092-.366-.242-.83-.285-1.233-.115l-5.523 2.323L40.27 52.3c-.408-.174-.87-.132-1.24.11-.37.243-.59.654-.59 1.094v5.222c0 .44.22.85.586 1.092.218.145.47.22.725.22.18 0 .35-.035.51-.103l5.64-2.37 5.53 2.366z"/>
    <path d="M71.284 75.947V60.663c0-12.11-9.494-17.028-11.043-17.75 2.91-3.364 4.67-7.738 4.67-12.518 0-10.588-8.61-19.2-19.2-19.2s-19.21 8.61-19.21 19.2c0 4.81 1.79 9.21 4.72 12.583-1.89.91-10.9 5.88-10.9 17.683v21.08c0 .41.2.8.52 1.05.22.17 5.36 4.02 14.1 5.97 2.78.62 6.11 1.08 9.9 1.08 2.83 0 5.92-.26 9.22-.89 2.92.6 6.24.9 9.54.9 9.46 0 19.03-2.48 19.03-7.23 0-3.42-4.99-5.67-11.32-6.65zM45.7 13.815c9.143 0 16.58 7.438 16.58 16.58s-7.438 16.58-16.58 16.58c-9.14 0-16.578-7.438-16.578-16.58s7.437-16.58 16.58-16.58zm-22.768 67.24v-20.39c0-11.137 9.256-15.26 9.65-15.43.204-.086.37-.223.5-.385 3.377 2.95 7.79 4.746 12.62 4.746 4.882 0 9.342-1.835 12.734-4.848.136.208.332.38.578.487.394.17 9.65 4.293 9.65 15.428V75.62c-1.664-.163-3.38-.245-5.095-.245-9.46 0-19.04 2.483-19.04 7.23 0 1.816 1.4 3.3 3.66 4.44-13.63.983-23.03-4.513-25.27-5.99zm40.637 6.158c-11.53 0-16.42-3.296-16.42-4.608s4.88-4.608 16.41-4.608 16.41 3.296 16.41 4.608-4.89 4.608-16.42 4.608z"/>
</svg>
