<svg xmlns="http://www.w3.org/2000/svg" viewBox="0 0 100 100">
    <path d="M75.547 95.966c-.058 0-.117-.006-.176-.02-.44-.096-.71-.53-.62-.97C81.19 65.72 72.3 44 72.21 43.783c-.08-.193-.085-.41-.01-.606l8.84-23.257c.16-.42.632-.63 1.052-.472.42.16.633.632.473 1.053l-8.728 22.97c1.074 2.79 8.638 24 2.506 51.87-.084.38-.42.64-.796.64z"/>
    <path d="M30.205 44.786l-4.82-4.82c-.318-.318-.834-.318-1.153 0-.32.32-.32.836 0 1.155l3.536 3.54H12.105c-.45 0-.816.37-.816.82s.36.82.81.82h15.44l-3.42 3.43c-.32.32-.32.84 0 1.16.16.16.37.24.57.24s.41-.08.57-.24l4.93-4.93c.32-.32.32-.83 0-1.15z"/>
    <path d="M46.856 33.87c.247-.072.446-.257.537-.498L57.457 6.444c.158-.422-.057-.893-.48-1.05s-.892.056-1.05.48l-9.93 26.566c-1.842.674-9.39 3.962-9.93 12.747-.518 8.39 4.43 12.143 7.82 13.237.043.023.078.055.126.07.023.007.158.047.36.098.79 3.304 5.004 22.202 1.293 34.464-.13.43.113.887.545 1.017.08.024.16.035.24.035.35 0 .68-.227.78-.58 3.68-12.15 0-29.898-1.11-34.66.2.014.41.024.62.024.76 0 1.59-.106 2.34-.427.42-.177.61-.657.43-1.072-.18-.415-.66-.606-1.07-.43-1 .432-2.29.312-3.11.162-.04-.015-.08-.034-.12-.043-2.81-.527-7.99-3.67-7.49-11.796.54-8.797 8.81-11.313 9.16-11.416z"/>
    <path d="M57.72 58.176c-.178-.414-.658-.605-1.072-.43-.98.42-2.22.317-3.04.173-.02-.01-.038-.02-.06-.02-3.364-.64-8.936-3.01-8.447-11.81.49-8.75 9.31-10.6 9.68-10.67.44-.09.73-.52.65-.96-.08-.44-.51-.73-.95-.65-.1.02-10.43 2.15-10.99 12.18-.52 9.4 5.31 12.34 8.75 13.26.01 0 .01 0 .02.01.03.01.21.06.5.13.79 3.31 5 22.2 1.29 34.46-.13.43.12.88.55 1.01.08.02.16.03.24.03.35 0 .68-.23.78-.58 3.69-12.17-.01-29.96-1.11-34.68.16.01.32.01.49.01.76 0 1.59-.11 2.34-.43.42-.18.61-.66.43-1.07z"/>
</svg>
