<svg xmlns="http://www.w3.org/2000/svg" viewBox="0 0 100 100">
    <path d="M65.934 84.2c-.9-.865-2.217-.858-2.42-.85h-3.8c-2.187 0-6.26 0-6.26-1.483 0-1.58.343-2.14.474-2.295 3.52-.22 6.228-1.455 8.053-3.676 3.16-3.84 2.41-9.176 2.37-9.42l-6.18-37.682c-.48-3.156-3.22-18.897-9.65-18.897-2.75 0-5.06 3.283-7.07 10.036-1.37 4.594-2.1 9.106-2.13 9.293L33.35 65.93c-.036.244-.844 5.987 2.45 9.997 1.812 2.204 4.465 3.43 7.89 3.645.132.156.475.716.475 2.295 0 1.484-4.076 1.484-6.265 1.484l-4.33.01c-.256-.01-1.57-.01-2.47.85-.5.48-.766 1.12-.766 1.86 0 2.76 2.345 2.76 3.12 2.76h30.13c.77 0 3.115 0 3.115-2.75 0-.73-.27-1.38-.77-1.86zm-1.767 2.07c-.166.022-.44.022-.587.022H33.452c-.148 0-.42 0-.587-.022-.007-.05-.012-.12-.012-.212 0-.027.002-.046 0-.052.094-.073.406-.15.666-.138h4.38c3.49 0 8.78 0 8.78-4.002 0-4.26-2.1-4.736-2.52-4.79-.04-.003-.07-.006-.1-.007-2.81-.14-4.93-1.06-6.32-2.74-2.59-3.14-1.92-7.99-1.92-8.02l5.96-36.69c1.33-8.31 4.35-17.21 6.72-17.21 3.12 0 6.12 10 7.16 16.77l6.19 37.68c0 .04.61 4.48-1.84 7.44-1.4 1.69-3.58 2.62-6.48 2.76l-.1.01c-.42.05-2.52.53-2.52 4.79 0 4 5.28 4 8.78 4h3.85c.17-.01.54.06.61.12v.07c0 .09-.01.16-.01.21z"/>
</svg>
