<svg xmlns="http://www.w3.org/2000/svg" viewBox="0 0 100 100">
    <path d="M29.616 47.293c10.798 0 19.596-8.785 19.61-19.585.01-5.24-2.024-10.167-5.723-13.877-3.7-3.71-8.62-5.756-13.89-5.763-10.8 0-19.597 8.785-19.613 19.584-.008 5.24 2.025 10.168 5.724 13.88 3.7 3.71 8.62 5.757 13.86 5.764h.032zm-16.18-19.638c.012-8.908 7.27-16.155 16.2-16.155 4.323.006 8.383 1.695 11.434 4.756 3.05 3.06 4.728 7.126 4.722 11.447-.013 8.91-7.27 16.156-16.178 16.155v1.717l-.024-1.717c-4.322-.006-8.382-1.695-11.433-4.756-3.052-3.06-4.73-7.125-4.722-11.447z"/>
    <path d="M71.57 61.92c10.473 0 19.073-8.203 19.577-18.672.52-10.802-7.845-20.014-18.648-20.534-10.9-.525-20.017 7.86-20.536 18.648-.52 10.802 7.845 20.014 18.648 20.534.32.015.64.023.957.023zM55.395 41.526c.416-8.636 7.508-15.402 16.146-15.402.265 0 .53.006.794.02 8.91.428 15.81 8.027 15.383 16.937-.43 8.9-7.96 15.808-16.938 15.384-8.91-.43-15.81-8.027-15.384-16.938z"/>
    <path d="M36.954 51.52c-10.8 0-19.597 8.787-19.613 19.586-.006 5.24 2.027 10.167 5.726 13.877 3.7 3.71 8.62 5.758 13.86 5.765h.03c10.8 0 19.597-8.785 19.613-19.585.007-5.24-2.026-10.167-5.725-13.877-3.7-3.71-8.62-5.757-13.89-5.765zm0 35.794v1.717l-.023-1.715c-4.32-.006-8.38-1.695-11.43-4.756-3.05-3.06-4.73-7.127-4.723-11.448.013-8.907 7.27-16.154 16.203-16.154 4.32.006 8.38 1.695 11.432 4.756s4.728 7.126 4.722 11.447c-.013 8.91-7.27 16.156-16.18 16.155z"/>
    <path d="M47.436 62.736l-6.953 1.09c-.937.148-1.577 1.027-1.43 1.964.147.937 1.026 1.577 1.963 1.43l2.08-.326-4.432 4.418-3.446-3.457c-.32-.323-.758-.504-1.213-.505h-.003c-.454 0-.89.18-1.212.5l-8.41 8.387c-.673.67-.674 1.757-.005 2.428.335.337.776.505 1.216.505.44 0 .88-.167 1.214-.5L34 71.495l3.445 3.457c.67.672 1.757.674 2.428.004l5.632-5.616-.14 1.465c-.092.944.6 1.783 1.544 1.874.055.003.11.006.166.006.874 0 1.622-.665 1.707-1.553l.63-6.537c.05-.528-.147-1.05-.533-1.414-.386-.364-.92-.53-1.444-.447z"/>
    <path d="M20.586 26.628c-.478 0-.952.08-1.407.235-2.267.776-3.478 3.25-2.703 5.514.6 1.756 2.252 2.935 4.107 2.935.478 0 .95-.08 1.407-.235 2.266-.776 3.477-3.25 2.7-5.514-.6-1.755-2.25-2.935-4.105-2.935zm.664 6.284c-.216.074-.44.11-.665.11-.877 0-1.657-.557-1.94-1.387-.368-1.07.205-2.24 1.275-2.606.216-.076.44-.113.665-.113.877 0 1.657.558 1.94 1.388.368 1.07-.204 2.24-1.275 2.606z"/>
    <path d="M71.464 47.61c.66 0 1.307-.122 1.924-.365 2.702-1.062 4.037-4.124 2.976-6.826-.797-2.03-2.722-3.343-4.902-3.343-.66 0-1.307.123-1.924.366-1.31.514-2.34 1.507-2.902 2.797-.562 1.29-.588 2.72-.074 4.03.798 2.03 2.722 3.34 4.902 3.34zm-2.38-6.303c.278-.635.785-1.125 1.43-1.378.306-.12.625-.183.95-.183 1.074 0 2.022.646 2.415 1.647.52 1.33-.137 2.84-1.468 3.363-.305.12-.624.18-.947.18-1.075 0-2.023-.646-2.416-1.646-.256-.643-.243-1.35.034-1.984z"/>
    <path d="M37.042 28.57c.606.305 1.258.46 1.913.46.46 0 .92-.077 1.366-.23 1.97-.675 3.155-2.68 2.814-4.767-.054-.333-.253-.625-.542-.798-.288-.173-.64-.21-.958-.1l-2.706.926c-.598.207-.917.858-.712 1.456.205.598.855.916 1.454.712l.85-.292c-.228.317-.55.565-.94.698-.494.17-1.028.13-1.504-.11-.485-.245-.85-.668-1.03-1.19-.367-1.07.175-2.23 1.206-2.583.466-.16.975-.133 1.43.075.576.26 1.254.006 1.516-.57.26-.575.006-1.253-.57-1.515-.99-.45-2.097-.505-3.118-.156-2.226.762-3.406 3.225-2.63 5.49.373 1.094 1.142 1.98 2.164 2.495z"/>
    <path d="M27.94 29.387l1.852 1.748c.003.003.008.005.01.01.036.03.075.058.114.086.023.018.044.037.068.05.033.02.07.036.104.053.033.016.065.034.1.047.026.01.056.014.085.022.045.012.09.026.135.033.005 0 .01.003.014.003.053.007.106.01.158.01h.018c.026 0 .05-.006.077-.008.046-.004.09-.008.136-.017.028-.005.054-.014.08-.022.04-.01.083-.022.123-.04.027-.01.054-.024.08-.04.037-.017.074-.036.11-.06.024-.015.048-.033.072-.052.035-.027.07-.056.1-.087l.037-.03c.01-.01.015-.02.024-.03.03-.034.058-.07.084-.11.016-.022.032-.044.046-.07.022-.035.04-.075.057-.115.013-.027.026-.052.036-.08.012-.037.02-.076.03-.115.01-.033.017-.064.022-.097l.002-.014.343-2.488.995 2.13c.268.574.948.822 1.522.554.573-.267.82-.95.553-1.522L32.49 23.49c-.215-.46-.707-.724-1.208-.648-.502.076-.894.473-.963.975l-.57 4.127-3.07-2.9c-.37-.348-.926-.412-1.365-.155-.44.254-.656.77-.534 1.262l1.497 6.037c.13.52.596.87 1.11.87.09 0 .184-.01.276-.035.614-.152.988-.773.836-1.387l-.56-2.253z"/>
    <path d="M78.598 43.134c.13.33.386.594.71.735.17.072.35.11.532.11.166 0 .333-.033.49-.095l4.5-1.775c.685-.27 1.022-1.045.75-1.732-.27-.686-1.045-1.022-1.732-.752L80.59 40.91l-2.282-5.787c-.27-.686-1.046-1.023-1.733-.752-.686.273-1.023 1.048-.752 1.735l2.775 7.03z"/>
    <path d="M66.234 46.6l-3.26 1.28-2.274-5.79c-.27-.687-1.045-1.025-1.732-.755-.686.27-1.024 1.045-.755 1.732l2.763 7.034c.13.33.385.596.71.738.17.074.352.11.534.11.166 0 .33-.03.488-.09l4.502-1.77c.686-.27 1.024-1.044.755-1.73-.27-.688-1.045-1.026-1.73-.756z"/>
</svg>
