<svg xmlns="http://www.w3.org/2000/svg" viewBox="0 0 100 100">
    <path d="M94.02 11.858c-.302-.386-.736-.63-1.22-.69L42.82 5.15c-.038-.005-.183-.014-.22-.014-.927 0-1.71.694-1.82 1.615l-1.018 8.44-32.68 11.93c-.46.17-.828.51-1.034.95-.207.45-.228.95-.06 1.41l23.48 64.32c.264.72.957 1.21 1.726 1.21.214 0 .425-.03.627-.11l37.9-13.83 14.46 1.74c.04.01.19.02.22.02.93 0 1.71-.69 1.82-1.61l8.19-67.98c.06-.48-.07-.96-.38-1.35zm-62.806 81.26L7.722 28.878l31.793-11.635-6.926 57.49c-.13 1.004.59 1.92 1.6 2.04l31.42 3.785-34.4 12.557z"/>
</svg>
