<svg xmlns="http://www.w3.org/2000/svg" viewBox="0 0 100 100">
    <path d="M50.15 11.188c-21.807 0-39.55 17.742-39.55 39.55S28.342 90.29 50.15 90.29s39.552-17.742 39.552-39.55-17.742-39.552-39.55-39.552zm0 76.766c-20.52 0-37.214-16.695-37.214-37.215S29.63 13.52 50.15 13.52s37.217 16.7 37.217 37.22S70.672 87.953 50.15 87.953z"/>
    <path d="M50.42 41.628c-5.1 0-9.248 4.148-9.248 9.247s4.148 9.247 9.247 9.247 9.24-4.148 9.24-9.247-4.15-9.247-9.25-9.247zm0 16.158c-3.812 0-6.912-3.1-6.912-6.91 0-3.812 3.1-6.912 6.91-6.912 3.812 0 6.912 3.1 6.912 6.91 0 3.812-3.1 6.912-6.91 6.912z"/>
    <path d="M50.41 38.548c-6.802 0-12.336 5.534-12.336 12.336S43.608 63.22 50.41 63.22s12.336-5.534 12.336-12.336-5.534-12.336-12.336-12.336zm0 23.503c-6.158 0-11.168-5.01-11.168-11.16s5.01-11.17 11.168-11.17 11.168 5.01 11.168 11.17-5.01 11.16-11.168 11.16z"/>
    <path d="M51.805 37.212l.05.002c.3 0 .555-.23.58-.535l1.752-20.73c.027-.32-.21-.61-.533-.63-.317-.03-.604.21-.63.53L51.27 36.58c-.027.323.21.605.533.632z"/>
    <path d="M66.206 18.932c-.293-.13-.64 0-.77.295L57.06 37.95c-.13.293 0 .64.295.77.077.034.158.05.238.05.223 0 .436-.128.533-.345l8.372-18.72c.132-.296 0-.64-.294-.773z"/>
    <path d="M44.356 63.583c-.29-.142-.64-.022-.78.267L34.43 82.53c-.144.29-.024.638.265.78.083.04.17.06.256.06.22 0 .43-.12.53-.327l9.15-18.68c.15-.288.03-.638-.26-.78z"/>
    <path d="M49.893 65.142c-.316-.04-.61.19-.65.51l-2.436 20.364c-.038.32.19.61.51.65.023.002.047.003.07.003.29 0 .543-.22.58-.52l2.436-20.37c.04-.32-.19-.61-.51-.65z"/>
</svg>
