<svg xmlns="http://www.w3.org/2000/svg" viewBox="0 0 100 100">
    <circle cx="49.72" cy="30.754" r="6.019"/>
    <path d="M60.596 19.322s-.067.002-.174.01"/>
    <path d="M74.77 8.7l.09-.31c.22-.026.714-.15.73-.75 0 0-.478.138-.656-.065-.02-.122-.056-.254-.115-.398.14-.14.28-.424-.05-.917 0 0-.23.253-.49.184-.09-.085-.19-.168-.3-.25-.01-.008-.01-.012-.01-.007-.03-.02-.07-.038-.1-.057-.01-.15-.12-.566-1-.914 0 0 .14.365-.12.4-.08-.024-.13-.055-.22-.078 0 0-.18-.058-.45-.107-.19-.16-.6-.43-1.37-.43 0 0 .37.29.25.43-.12.02-.23.04-.34.08-.03.01-.04.01-.02.01l-.04.02c-.24-.07-.82-.18-1.34.23 0 0 .61.1.57.33-.03.04-.06.08-.08.13l-.01.01c-.09.08-.08.08-.02.04-.03.04-.04.1-.06.14-.21-.01-.79 0-1.02.58 0 0 .65-.07.67.23l-.14.36c-.21-.01-.79.02-.98.61 0 0 .58-.07.67.18l-.15.39c-.15-.01-.8-.03-1.01.61 0 0 .68-.09.68.25l-.14.34c-.08-.01-.83-.07-1.05.61 0 0 .79-.11.67.32l-.01.02-.07.19c-.12-.01-.81-.05-1.03.61 0 0 .73-.09.68.29l-.1.27c-.16-.01-.8-.02-1.01.61 0 0 .65-.08.68.23l-.13.34c-.09-.01-.82-.07-1.04.61 0 0 .79-.11.67.32v.01l-.09.23c-.18-.01-.79 0-.99.61 0 0 .61-.08.68.19l-.17.45c-.22 0-.78.04-.97.61 0 0 .55-.07.66.16l-.14.37c-.17-.01-.8-.01-1 .61 0 0 .64-.08.68.22l-.14.38c-.21-.01-.78.02-.97.61 0 0 .58-.08.67.17l-.14.37c-.08-.01-.82-.06-1 .64 0 0 .59-.1.68.16l-.1.25-.05.14c-.14 0-.8 0-.94.67 0 0 .52-.09.66.13-.06.16-.11.34-.17.53-.24.01-.75.1-.86.66 0 0 .49-.09.64.11-.04.15-.08.31-.11.47-.07 0-.8.01-.84.74 0 0 .38-.09.59.04-.05.07-.11.14-.17.23L60 32.21c-.825 2.03-2.6 5.81-4.57 6.67H44.71c-2.905-.57-5.51-8.1-5.51-8.1l.06.28-2.547-6.98c-.062-.09-.12-.17-.176-.24.203-.13.587-.03.587-.03-.04-.72-.77-.74-.84-.74-.035-.15-.07-.31-.11-.47.157-.19.647-.1.647-.1-.11-.56-.62-.65-.86-.66-.05-.19-.11-.37-.16-.53.14-.23.67-.13.67-.13-.14-.67-.8-.67-.94-.67l-.05-.14-.1-.25c.1-.27.69-.17.69-.17-.18-.7-.92-.65-1-.64l-.14-.38c.1-.25.67-.17.67-.17-.19-.59-.76-.62-.97-.61l-.14-.38c.05-.3.68-.214.68-.214-.2-.62-.82-.62-1-.6l-.14-.37c.11-.235.67-.16.67-.16-.18-.577-.74-.62-.96-.61l-.17-.45c.07-.276.68-.19.68-.19-.2-.61-.8-.62-.99-.61l-.09-.23c-.11-.43.68-.32.68-.32-.22-.674-.95-.62-1.04-.61l-.13-.33c.03-.315.68-.23.68-.23-.2-.63-.84-.62-1-.61l-.1-.27c-.06-.384.68-.29.68-.29-.22-.655-.91-.62-1.03-.605l-.07-.18v-.02c-.11-.43.68-.32.68-.32-.22-.68-.96-.62-1.04-.61l-.13-.34c0-.34.68-.25.68-.25-.21-.64-.86-.62-1.01-.61l-.15-.39c.09-.25.67-.17.67-.17-.19-.59-.77-.62-.98-.61l-.14-.36c.02-.3.67-.23.67-.23-.22-.58-.8-.59-1.01-.58-.02-.04-.03-.09-.06-.13.06.04.07.04-.01-.04V6.2c-.03-.04-.05-.08-.08-.12-.04-.225.57-.33.57-.33-.52-.402-1.1-.294-1.33-.224-.01 0-.02-.01-.04-.016.02-.007.01-.01-.01-.01-.11-.04-.23-.06-.34-.08C28.63 5.288 29 5 29 5c-.77.004-1.183.27-1.37.44-.27.05-.45.11-.45.11-.08.023-.134.054-.21.08-.26-.037-.12-.4-.12-.4-.875.35-.984.762-.994.912l-.09.06c0-.006 0 0-.01.006-.113.08-.21.17-.3.25-.25.07-.48-.18-.48-.18-.33.49-.19.776-.04.917-.06.14-.098.28-.118.4-.18.2-.66.06-.66.06.02.6.51.722.73.75l.094.31c.026.373-.685.263-.685.263.17.61.76.64.955.63l.045.15c-.007 0 0 .03.01.08.09.437-.69.31-.69.31.18.65.84.64.983.635l.114.39c-.07.28-.68.19-.68.19.16.58.71.63.93.63l.107.35c-.05.303-.68.21-.68.21.17.59.73.632.94.63l.1.3c-.01.34-.68.24-.68.24.17.614.76.64.95.633l.13.42c-.04.31-.68.217-.68.217.17.62.77.64.96.637l.08.25c.06.41-.69.29-.69.29.19.68.9.64 1 .636l.01.01.12.31c-.01.337-.68.235-.68.235.2.7.95.64 1.02.63l.13.34c-.04.32-.68.22-.68.22.19.7.95.64 1.02.63l.1.27c.06.4-.68.29-.68.29.2.72 1.04.63 1.04.63l-.05-.15.21.51c-.09.27-.68.17-.68.17.18.68.89.64 1 .64l.13.34c.03.38-.69.27-.69.27.2.73 1.04.63 1.04.63l-.03-.09.15.36c.1.37-.66.32-.66.32.24.5.74.55 1 .54l.14.34c-.1.22-.65.19-.65.19.22.47.67.54.94.55l.02.04.55 1c-1.19 1.19-.97 4.96-.96 5.21l-.11.21c-.59.99-.04 1.3-.04 1.3s2.35 2.34 2.64 2.62c.29.28.48.09.48.09s2.54 2.38 3.89 3.78c.15.15.28.27.41.39l1.92 4.25 2.64 4.97.16.75v43.3s0 2.79 2.62 3.06c.53.1.94.04.94.04 3.43.02 3.07-3.09 3.07-3.09V67.62h2.21V92.9s-.39 3.11 3.04 3.092c0 0 .4.052.91-.034 2.67-.232 2.67-3.058 2.67-3.058V49.574l.12-.754 2.41-4.932 2.04-4.402c.09-.088.18-.167.29-.275 1.35-1.4 3.89-3.77 3.89-3.77s.19.19.48-.09 2.64-2.62 2.64-2.62.55-.3-.05-1.29l-.11-.2c.01-.25.23-4.02-.96-5.21l.55-1 .01-.04c.27 0 .72-.08.94-.54 0 0-.55.04-.65-.18l.14-.34c.26.01.77-.04 1-.54 0 0-.75.05-.65-.32l.14-.36-.03.1s.84.1 1.04-.63c0 0-.72.11-.69-.27.04-.11.09-.22.13-.33.1.01.81.05 1-.63 0 0-.59.09-.68-.17l.2-.51-.05.15s.84.1 1.04-.63c0 0-.74.12-.69-.28l.11-.27c.06.01.82.07 1.01-.63 0 0-.64.1-.68-.21l.12-.36c.06.01.82.06 1.01-.63 0 0-.66.1-.68-.24l.12-.31s.01 0 .01-.01c.11.01.82.05 1-.63 0 0-.75.12-.68-.29l.08-.25c.19.01.79-.02.96-.63 0 0-.64.1-.68-.21l.13-.42c.19.01.79-.02.96-.63 0 0-.68.11-.69-.24l.09-.3c.21.01.78-.04.95-.63 0 0-.64.1-.68-.21l.1-.34c.22 0 .78-.05.94-.63 0 0-.62.1-.69-.19l.12-.39c.15.01.808.02.987-.63 0 0-.78.12-.69-.31.02-.05.02-.08.02-.08l.04-.15c.19.01.78-.02.95-.63-.004 0-.715.11-.69-.27z"/>
</svg>
