<svg xmlns="http://www.w3.org/2000/svg" viewBox="0 0 100 100">
    <path d="M94.817 28.462c-.278-3.138-2.475-5.214-3.17-5.8-.046-.054-.084-.113-.136-.164-.28-.283-2.854-2.76-6.464-2.683-2.247.05-4.298 1.075-6.096 3.043L68.87 33.896l-.06.07c-1.012 1.217-2.036 3.65-1.256 6.49l-2.365.998c-.76-1.046-1.9-2.21-3.523-2.91-2.063-.894-4.354-.822-6.81.215l-13.77 5.81c-.03.012-.057.025-.085.04-.053.024-4.433 2.2-3.93 7.58l-6.783 2.863c-.283-.28-.52-.483-.683-.613-.045-.053-.085-.11-.137-.16-.288-.277-2.932-2.706-6.52-2.547-2.245.098-4.274 1.164-6.03 3.17L7.075 66.15l-.06.07c-1.502 1.886-2.973 6.59 1.935 11.118.02.02.036.042.057.06.042.037.085.07.127.107.038.033.072.067.11.1.02.02.044.03.065.048 2.24 1.863 4.355 2.52 6.165 2.52 2.338 0 4.168-1.09 5.11-2.07.02-.022.042-.045.062-.07l5.464-6.24c1.724 1.506 3.587 1.874 4.995 1.874 1.323 0 2.245-.325 2.27-.334l.086-.034 13.77-5.813c2.585-1.09 4.285-2.738 5.056-4.897.42-1.176.492-2.323.407-3.335l3.904-1.648c2.072 3.02 4.708 3.66 6.56 3.66 1.322 0 2.244-.325 2.268-.334.03-.01.058-.022.087-.034l13.77-5.814c2.584-1.09 4.284-2.738 5.055-4.897.922-2.584.187-5.04-.276-6.18l8.21-8.99c1.892-2.07 2.75-4.276 2.546-6.56zm-21.38 13.882l.398-.167c1.413-.597 2.598-.675 3.62-.24.75.318 1.326.874 1.746 1.412-.59.482-2.646 1.735-5.76-1.007zM63.13 49.152c-.382 1.04-1.33 1.89-2.822 2.518l-1.67.705c-.674-3.02 1.055-4.18 1.49-4.414l3.06-1.29c.168.693.26 1.61-.06 2.483zm-20.41-.898l13.705-5.785c1.413-.6 2.598-.677 3.62-.24.493.207.91.52 1.258.863l-2.805 1.184c-.03.012-.057.025-.085.038-.06.03-5.54 2.748-3.53 9.643l-3.29 1.388c-.47-1.038-1.838-3.518-4.567-4.7-1.8-.78-3.772-.823-5.876-.134.285-1.45 1.257-2.09 1.57-2.26zm-.837 6.282c1.368-.557 2.52-.626 3.52-.2 1.383.586 2.185 1.984 2.475 2.58l-1.263.534c-.583.178-2.98.646-4.732-2.914zM28.9 60.613c.12 1.11-.362 2.296-1.435 3.522l-.808.923c-.85-3.233.97-4.456 1.42-4.698l.71-.3c.05.18.09.362.112.553zM17.672 75.318c-.463.43-2.55 1.997-5.892-.85-3.296-2.967-1.96-5.258-1.63-5.72l9.8-11.192c1.01-1.154 2.042-1.742 3.153-1.798 1.288-.068 2.458.598 3.093 1.047-.965.552-5.707 3.698-2.957 10.734.01.03.015.065.03.1.017.042.04.08.056.123.023.056.04.11.065.165.03.072.07.14.108.207.052.115.104.236.158.346l-5.985 6.836zm30.814-14.06c-.38 1.04-1.33 1.888-2.82 2.518l-13.715 5.79c-.24.078-1.693.475-3.175-.817l1.717-1.963c1.847-2.11 2.657-4.335 2.407-6.614-.067-.605-.208-1.165-.39-1.686l5.66-2.39c2.154 4.577 5.405 5.462 7.576 5.462 1.324 0 2.245-.326 2.27-.335.03-.01.058-.022.087-.034l.462-.194c-.022.087-.047.175-.08.26zM80.54 48.86c-.382 1.04-1.33 1.888-2.822 2.518l-13.694 5.78c-.462.14-2.06.464-3.577-1.175l1.427-.602c2.584-1.09 4.285-2.736 5.055-4.895.744-2.09.404-4.1.003-5.395l2.544-1.075c.306.368.65.737 1.035 1.106.02.02.034.044.055.063.04.037.08.07.122.107.037.034.07.07.11.104.02.02.044.03.065.05 2.266 1.963 4.425 2.648 6.27 2.648 1.412 0 2.64-.4 3.594-.93.05.536.017 1.127-.19 1.698zm8.758-16.552l-7.35 8.05c-.715-.8-1.657-1.582-2.87-2.107-2.063-.892-4.354-.82-6.81.218l-.935.395c-.156-1.216.366-2.045.558-2.3l10.033-10.987c1.034-1.133 2.077-1.7 3.19-1.732 1.77-.053 3.28 1.256 3.523 1.48.107.14.226.273.373.386.015.012 1.637 1.33 1.795 3.108.1 1.112-.407 2.287-1.506 3.49z"/>
</svg>
