<svg xmlns="http://www.w3.org/2000/svg" viewBox="0 0 100 100">
    <path d="M87.11 40.726c-.086-.29-.24-.56-.463-.785L63.575 16.87c-.322-.322-.75-.513-1.206-.537-.05-.002-1.08-.055-2.85-.055-3.81 0-11.49.25-20.11 1.922-10.54 2.045-19.31 5.56-26.06 10.442l-.05.036c-.08.057-.15.12-.22.186l-.02.022c-.07.07-.13.145-.19.224l-.06.082c-.04.066-.08.133-.11.203-.02.03-.03.06-.05.092-.04.1-.08.2-.1.305l-.01.033c-.02.1-.03.2-.03.3l-.01.044v43.06c0 .92.68 1.7 1.59 1.82l71.11 9.7c.08.01.16.01.25.01.44 0 .87-.16 1.21-.46.4-.35.63-.86.63-1.39V41.6c0-.32-.09-.617-.23-.878zM59.52 19.96c.843 0 1.51.013 1.963.025L80.05 38.553l-60.602-9.46c14.715-8.427 34.08-9.133 40.072-9.133zM16.228 71.63V32.32l67.43 10.524v37.99l-67.43-9.205z"/>
    <path d="M70.92 45.554c-2.786 0-5.053 2.268-5.053 5.055s2.267 5.05 5.054 5.05 5.06-2.27 5.06-5.06-2.26-5.06-5.05-5.06zm0 6.426c-.755 0-1.37-.615-1.37-1.37 0-.757.615-1.373 1.37-1.373s1.372.615 1.372 1.372c0 .75-.615 1.37-1.37 1.37z"/>
    <path d="M55.198 55.672c-4.37 0-7.925 3.555-7.925 7.925s3.555 7.925 7.925 7.925 7.925-3.555 7.925-7.925-3.555-7.925-7.925-7.925zm0 12.168c-2.34 0-4.243-1.903-4.243-4.243s1.903-4.243 4.243-4.243c2.34 0 4.243 1.903 4.243 4.243s-1.9 4.243-4.24 4.243z"/>
    <path d="M28.332 41.52c-4.295 0-7.79 3.495-7.79 7.79s3.495 7.79 7.79 7.79 7.79-3.495 7.79-7.79-3.495-7.79-7.79-7.79zm0 11.896c-2.264 0-4.106-1.842-4.106-4.106s1.842-4.106 4.106-4.106 4.106 1.842 4.106 4.106-1.842 4.106-4.106 4.106z"/>
    <path d="M43.235 38.787c-2.712 0-4.918 2.206-4.918 4.917 0 2.712 2.206 4.918 4.918 4.918s4.918-2.206 4.918-4.918c0-2.71-2.207-4.917-4.918-4.917zm0 6.152c-.68 0-1.235-.56-1.235-1.24 0-.68.554-1.24 1.235-1.24s1.235.55 1.235 1.23c0 .68-.554 1.23-1.235 1.23z"/>
</svg>
