<svg xmlns="http://www.w3.org/2000/svg" viewBox="0 0 100 100">
    <circle cx="63.065" cy="12.765" r="7.308"/>
    <circle cx="25.722" cy="48.006" r="4.53"/>
    <path d="M88.55 53.41c1.056-.365.73-.974.73-.974s-1.25-5.376-2.232-7.43c-.907-1.895-1.827-2.152-1.827-2.152l-1.15-.568s.06-.54.44-1.84-.11-2.22-.11-2.22-6.22-12.56-7.63-14.455c-1.4-1.89-3.25-2.54-3.25-2.54l-4.33-1.84-5.45 2.69-1.9 2.78s-2.7 6.31-3.64 10.17c-.93 3.86-2.76 4.79-3.9 5.32-1.13.53-5.8 1.38-5.8 1.38v.01c-.58.06-1.08.47-1.17 1.07-1.04 6.69-3.47 11.39-7.22 13.97-2.72 1.88-5.61 2.21-7.42 2.18l-1.28-3.1s-1.92-2.87-3.88-2.77c-2.16.11-3.04.72-3.04.72s-2.66 1.8-4.51 6.85l-1.13 3.15-4.93 5.44 1.35 1.78 6.2-5.29s.65-.69.72-.11c.07.58-.29 2.5-.29 2.5l-3.15 9.61 1.37.73-4.06 14.64 2.18 1.02 5.72-14.57 2.35.04 6.41 13.81 2.06-.58-4.16-13.55 2.4-.72-1.67-6.88 4.5-1.08-.44-4.93-1.68-4.09c2.15-.11 5.01-.7 7.79-2.59 3.58-2.44 6.09-6.43 7.53-11.84l.01.11s6.46-1.38 7.96-1.95c1.5-.56 2.91-.94 3.41-2.07.56-1.24.98-.24.98-.24s.57 1.87 1.83 4.88c1.26 3.01.49 4.22.49 4.22s-2.63 8.32-3.4 10.27-1.75 6.58-1.75 6.58l-.48 6.54-.82 19.32 6.42.32 1.83-18.6s1.99-6.7 2.64-7.84 1.14.16 1.14.16l2.69 7.8 2.03 3.82 9.34 15.27 5.24-3.41L78.5 73.27l.77-16.48c.005.002 8.247-3 9.3-3.367z"/>
</svg>
