<svg xmlns="http://www.w3.org/2000/svg" viewBox="0 0 100 100">
    <path d="M88.9 58.704c.187-.084.308-.27.308-.476v-3.466c0-.372-.187-.645-.39-.822v-1.024c.027-.064.042-.134.042-.208v-2.39c0-.29-.234-.523-.522-.523h-.39c-.052-.144-.15-.274-.29-.36l-2.15-1.32c-.075-.044-.156-.075-.24-.09l-1.2-.217c-.733-.438-4.596-2.6-9.356-2.6H64.79c-.017-.012-.032-.027-.05-.038-1.397-.91-3.105-.95-3.21-.953l-3.77.11c.54-17.062-5.778-18.175-6.05-18.214-.05-.007-.1-.01-.15-.005L18.873 28.5c-.202.015-.388.117-.51.28-.12.163-.163.37-.118.568l4.38 19.156c-2.613.25-6.39.608-7.623.7-1.888.138-2.617 1.734-2.738 2.56-.018.124.01.25.078.358l.466.722c-.344.032-.775.06-1.23.06-1.416 0-1.657 2.564-1.693 3.732-.062.264-.262 1.265.02 2.2.127.417.63.71 1.33.918l-.04.006.803 5.677-.606-.036c-.142 0-.284.05-.39.15-.104.1-.163.24-.163.38v1.83c0 .28.21.5.48.52l69.41 4.96h.03c.1 0 .2-.03.29-.08l7.91-5.3c.14-.09.23-.26.23-.43v-2.35c0-.19-.11-.37-.28-.46-.12-.06-.25-.08-.38-.04v-5.69l.34-.15zM61.976 46.602h10.868c.065.103.154.19.27.25.02.01 1.88.976 3.257 2.656H57.82c.147-.208.302-.404.47-.58 1.318-1.39 2.633-2.036 3.69-2.326zm16.214 2.732c-.066.002-.13.016-.195.037-.793-1.19-1.828-2.12-2.68-2.75 2.595.11 4.894.9 6.38 1.55l-3.505 1.17zm-20.976 1.214l.024.002h19.945c.113.073.242.115.376.115.07 0 .14-.016.22-.04l1.28 1.818-22.46-.336c.17-.55.37-1.075.6-1.56zm-.89 2.6l23.277.347v1.29l-23.52-.418c.08-.41.16-.817.26-1.22zm24.205 3.69v-1.105c.06-.022.11-.05.17-.087l7.07-2.582v.96l-7.24 2.816zm6.92-6h.36v1.098l-6.83 2.49v-1.11c0-.013-.01-.024-.01-.037l6.46-2.44zM55.91 55.41l23.228.413v1.26l-23.35-.653c.033-.333.074-.674.12-1.02zm-.31 5.29c-.01-.552-.01-1.76.095-3.23l23.663.66c.118.11.274.18.446.187v3.066L55.6 60.7zm25.55-2.984l7.014-2.726v2.9l-6.97 3.135v-3.072c0-.083-.016-.163-.043-.237zm3.74-8.345l1.335.82-5.567 2.1-1.53-2.16 3.905-1.3c.262.15.407.23.414.24.075.05.16.08.247.1l1.197.22zM19.783 29.83l31.777-2.324c.538.16 5.29 2.024 4.803 16.864l-2.835.082-2.448-14.43c-.045-.266-.28-.452-.55-.434L23.03 31.5c-.15.01-.29.086-.38.207-.09.12-.125.276-.092.424l3.39 15.56c-.156.1-.25.15-.255.15-.168.09-.283.24-.335.41h-.004c-.026 0-.052 0-.077.01l-1.254.12-4.24-18.54zM31.88 53.36c-.036-.06-.085-.113-.147-.155-.007-.005-.673-.473-2.415-2.513-.78-.914-1.547-1.483-2.197-1.84.06-.094.09-.204.07-.318.58-.4 1.35-1.016 2.01-1.81.73-.872 2.87-.846 3.56-.768.03.003.04.01.08.004l13.66-.03c-2.25 1.543-4 4.125-5.05 7.51-1.28.157-6.67.57-9.56-.08zm.99-8.792c-.503-.053-3.455-.288-4.744 1.266-.396.477-.847.883-1.252 1.203L23.707 32.5l26.426-1.838 2.345 13.82-1.592.047-18.015.04zm-17.79 5.678c1.875-.138 9.564-.886 10.25-.953.238.028 1.646.26 3.195 2.076.62.72 1.108 1.26 1.49 1.65-1.235-.09-2.415.07-3.49.22-1.386.19-2.58.36-3.594-.01-2.23-.83-5.42-.49-6.05-.41-1.28-.34-2.42-.23-2.99-.14 0-.08-.03-.17-.08-.24l-.46-.72c.11-.42.51-1.4 1.75-1.5zm-4.17 6.6c.01-.04.016-.08.017-.123.037-1.39.39-2.687.652-2.773 1.11 0 2.08-.152 2.12-.16l.05-.01c.01-.004 1.37-.347 2.94.085.06.02.14.024.21.014.03-.01 3.46-.48 5.65.33 1.26.47 2.64.27 4.1.06 1.48-.21 3.02-.43 4.6 0 1.78.49 4.55.51 6.56.44.95-.04 4.07-.16 4.37-.47.1-.1.13-.18.2-.43 1.21-3.99 3.43-6.78 6.28-7.92l2.21-.01 9.63-.28c-1.02.44-2.15 1.16-3.26 2.33-3.03 3.19-3.1 10.78-3.07 12.68l-29.3-1.16-9.55-.33c-2.07-.03-4.13-.34-4.45-.66-.22-.77.01-1.65.01-1.66zm1.73 3.19c.857.113 1.806.16 2.68.172l9.54.326 29.857 1.186c.063.02.128.032.197.032h.03c.047-.003.094-.01.14-.02l24.712.696.29 7.38-31.223-2.014-28.45-1.847-6.997-.42-.778-5.49zm-.757 6.442l8.464.51 28.448 1.847 31.305 2.02v1.278l-68.218-4.87v-.784zm76.282.645l-6.674 4.475v-1.26l6.68-4.323v1.11zm-.823-1.818l-5.89 3.817-.274-6.942 5.988-2.693v5.818h.177z"/>
    <path d="M72.19 68.008c.457 0 .84-.355.868-.817.03-.47-.336-.89-.815-.92l-4.298-.26.094-2.24c.01-.28-.22-.53-.5-.54-.29-.01-.54.21-.55.5l-.1 2.22-16.62-1.01.06-1.78c.01-.28-.22-.53-.5-.54-.29-.01-.53.22-.54.5l-.07 1.76-14.83-.9.07-1.64c.01-.29-.21-.53-.5-.54-.28-.01-.53.21-.54.5l-.07 1.63-12.78-.77.11-1.44c.02-.28-.19-.53-.48-.56-.3-.02-.54.19-.56.48l-.12 1.46-3.27-.19c-.49-.02-.89.34-.92.82-.03.48.33.89.81.92l55.96 3.39h.05z"/>
    <path d="M54.49 44.187c.02 0 .04-.002.06-.005.188-.032.316-.21.285-.4l-2.347-13.997c-.032-.19-.21-.317-.4-.285-.19.032-.317.21-.286.4l2.347 13.997c.02.17.17.29.34.29z"/>
    <path d="M48.718 32.672L26 34.164c-.1.007-.194.057-.255.138-.06.08-.084.184-.062.283l2.115 9.765c.035.163.18.274.34.274.024 0 .05-.003.074-.008.187-.04.307-.226.266-.414l-2.03-9.37 22.003-1.446 1.73 10.08c.04.188.22.317.4.283.19-.04.32-.22.29-.41l-1.78-10.39c-.03-.18-.19-.3-.36-.29z"/>
</svg>
