<svg xmlns="http://www.w3.org/2000/svg" viewBox="0 0 100 100">
    <path d="M93.964 56.347c.09-.04.147-.13.147-.227v-1.652c0-.177-.08-.308-.18-.392v-.488c.02-.03.02-.064.02-.1v-1.14c0-.136-.11-.248-.25-.248h-.18c-.02-.07-.07-.13-.13-.172l-1.03-.628c-.03-.022-.07-.036-.11-.044l-.57-.103c-.35-.21-2.19-1.24-4.46-1.24H32.45l-.024-.018c-.665-.434-1.48-.453-1.53-.454l-1.796.06c.256-8.13-2.755-8.66-2.885-8.68h-.07L10.56 41.95c-.096.008-.185.057-.242.135-.057.078-.078.177-.056.27l2.088 9.132c-1.246.12-3.046.29-3.634.333-.9.065-1.247.826-1.305 1.22-.01.06.01.12.04.17l.22.344c-.16.015-.37.028-.58.028-.67 0-.79 1.222-.8 1.78-.03.125-.12.602.01 1.047.06.2.3.34.64.43h-.02l.39 2.7-.29-.02c-.06-.01-.13.02-.18.06-.05.04-.08.11-.08.18v.87c0 .13.11.24.24.25l83.1 2.37h.01c.05 0 .1-.02.14-.04L94 60.7c.07-.047.11-.125.11-.208v-1.12c0-.09-.05-.174-.13-.217-.056-.03-.12-.036-.18-.02V56.42l.164-.073zm-62.86-5.77H86.31c.03.05.074.092.13.12.01.005.895.465 1.552 1.266h-58.87c.07-.1.144-.193.223-.276.63-.663 1.256-.97 1.76-1.11zM88.86 51.88c-.033.003-.064.01-.095.02-.378-.57-.87-1.01-1.278-1.313 1.237.052 2.333.43 3.04.74l-1.67.555zm-60.027.58H88.38c.053.037.114.057.178.057.035 0 .07-.008.105-.02l.617.875-60.733-.17c.08-.262.177-.51.287-.74zm-.423 1.24l61.122.17v.616L28.29 54.28c.035-.194.075-.39.12-.58zm61.564 1.76v-.526c.03-.01.057-.023.08-.04l3.373-1.232v.457l-3.453 1.34zm3.3-2.86h.173v.524l-3.253 1.19v-.53c0-.007 0-.013-.002-.02l3.083-1.162zm-65.062 2.177l61.098.205v.6l-61.156-.327c.017-.156.036-.316.058-.48zm-.147 2.516c-.004-.267-.005-.84.046-1.54l61.32.33c.06.05.13.08.21.083v1.47l-61.56-.342zM90.27 55.88l3.343-1.3v1.383l-3.322 1.493V55.99c0-.04 0-.078-.02-.114zm1.783-3.978l.636.39-2.66 1-.73-1.033 1.86-.62c.12.06.19.11.19.11.03.02.07.03.12.04l.57.1zm-81.063-9.32l15.146-1.108c.275.082 2.524.98 2.292 8.038l-1.35.04-1.168-6.88c-.02-.126-.133-.215-.262-.206l-13.108.912c-.072.003-.138.04-.182.097-.043.058-.06.132-.044.202l1.615 7.414c-.08.05-.12.07-.13.08-.08.05-.14.12-.16.2h-.04l-.6.06-2.02-8.84zM16.76 53.8c-.018-.03-.04-.055-.07-.075-.004-.002-.322-.225-1.152-1.198-.372-.436-.737-.707-1.047-.878.03-.05.04-.1.04-.16.28-.19.64-.49.96-.87.35-.42 1.37-.4 1.7-.37h.04l6.52-.02c-1.07.73-1.91 1.96-2.41 3.58-.61.07-3.18.27-4.56-.04zm.472-4.192c-.24-.025-1.647-.137-2.262.603-.19.23-.404.43-.597.58l-1.51-6.93 12.597-.87 1.118 6.59-.76.03-8.585.02zm-8.48 2.707c.893-.066 4.558-.422 4.885-.454.113.02.784.13 1.523.99.295.35.528.6.71.79-.59-.04-1.15.04-1.664.11-.66.1-1.23.18-1.713 0-1.066-.39-2.584-.23-2.887-.19-.614-.16-1.155-.11-1.427-.06-.01-.04-.02-.08-.04-.11l-.22-.34c.05-.2.24-.67.83-.71zM6.76 55.46c.006-.02.01-.04.01-.058.017-.663.185-1.28.31-1.322.532 0 .993-.073 1.013-.076.008 0 .016-.003.024-.005.006-.01.655-.17 1.404.04.04.01.07.01.11 0 .02 0 1.65-.23 2.7.16.6.22 1.26.13 1.96.03.71-.1 1.44-.21 2.2 0 1.41.38 5 .2 5.22-.01.05-.05.06-.09.1-.21.58-1.9 1.64-3.23 3-3.78h1.06l4.59-.14c-.48.2-1.02.55-1.55 1.11-1.44 1.52-1.48 5.14-1.46 6.04l-13.99-.54-4.55-.16c-.99-.02-1.97-.16-2.12-.32-.1-.37.01-.79.01-.79zm2.104 1.603l4.546.155 14.232.565c.03.01.062.015.095.015h.014c.03 0 .06-.006.08-.013l61.8.343.14 3.52-64.6-1.53-17.2-.53-.37-2.607c.41.06.87.08 1.28.09zm-1.64 2.99l.422.024 17.497.54 64.626 1.528v.616L7.22 60.42v-.364zm86.39.307l-3.182 2.133v-.6l3.18-2.062v.53zm-.393-.868l-2.8 1.82-.13-3.31 2.86-1.284v2.773h.09z"/>
    <path d="M9.29 59.166l28.14.593c.04.06.112.1.195.11h.01c.083 0 .157-.04.202-.11l12.942.27-.01.04c-.01.14.1.25.24.26h.01c.13 0 .24-.11.25-.24v-.05l12.1.25-.01.07c-.01.13.1.25.24.25h.01c.13 0 .24-.11.24-.24v-.08l16.47.34-.01.19c-.01.14.1.25.23.26h.01c.13 0 .24-.11.25-.24l.01-.21 5.15.11H86c.224 0 .408-.18.413-.41.005-.23-.177-.42-.405-.42l-5.123-.11.012-.26c.007-.14-.1-.26-.236-.26-.13-.01-.25.1-.26.23l-.01.26-16.48-.35.01-.19c.01-.14-.1-.25-.24-.26-.14 0-.25.1-.25.24v.2l-12.09-.25.01-.07c.01-.14-.1-.25-.23-.26-.14-.01-.25.1-.26.24v.07l-12.91-.26.01-.25c.01-.14-.1-.25-.23-.26-.14-.01-.25.1-.26.24l-.01.26-12.06-.25.02-.43c0-.14-.1-.26-.24-.26-.14-.01-.26.1-.26.23l-.02.44-13.48-.28.05-.6c.01-.13-.09-.25-.23-.26-.14-.02-.26.09-.27.22l-.05.63-1.58-.03c-.22 0-.42.18-.42.41-.01.23.18.41.41.42z"/>
    <path d="M27.536 49.427c.01 0 .018 0 .028-.002.09-.015.15-.1.136-.19l-1.12-6.673c-.014-.09-.1-.15-.19-.136-.09.015-.15.1-.136.19l1.12 6.673c.012.08.083.13.162.13z"/>
    <path d="M23.79 43.938l-9.836.71c-.048.004-.092.03-.12.067-.03.038-.04.087-.03.134l1.008 4.65c.017.08.085.13.162.13.012 0 .023 0 .035-.01.08-.02.14-.11.12-.2l-.97-4.47 9.49-.69.82 4.8c.01.09.1.15.19.13.09-.02.15-.1.13-.19l-.85-4.96c-.01-.09-.09-.15-.17-.14z"/>
    <circle cx="27.903" cy="50.858" r=".186"/>
    <circle cx="26.231" cy="51.521" r=".186"/>
    <circle cx="26.977" cy="52.633" r=".186"/>
    <circle cx="25.935" cy="53.736" r=".186"/>
    <circle cx="26.417" cy="55.435" r=".186"/>
    <circle cx="24.671" cy="51.044" r=".186"/>
    <circle cx="25.044" cy="52.509" r=".186"/>
    <circle cx="24.002" cy="53.612" r=".186"/>
    <circle cx="24.94" cy="56.413" r=".186"/>
    <circle cx="24.147" cy="55.062" r=".186"/>
    <circle cx="22.524" cy="54.089" r=".186"/>
    <circle cx="23.29" cy="52.322" r=".186"/>
    <circle cx="22.524" cy="56.205" r=".186"/>
    <circle cx="21.128" cy="55.062" r=".186"/>
    <circle cx="19.505" cy="56.205" r=".186"/>
    <circle cx="18.358" cy="55.062" r=".186"/>
    <circle cx="16.735" cy="56.205" r=".186"/>
    <circle cx="15.886" cy="54.897" r=".186"/>
    <circle cx="14.264" cy="56.04" r=".186"/>
    <circle cx="13.246" cy="54.897" r=".186"/>
    <circle cx="11.624" cy="56.04" r=".186"/>
    <circle cx="10.345" cy="54.731" r=".186"/>
    <circle cx="8.723" cy="55.874" r=".186"/>
</svg>
