<svg xmlns="http://www.w3.org/2000/svg" viewBox="0 0 100 100">
    <path d="M48.937 27.735c-.436 0-.83-.297-.937-.74-.085-.357-2.053-8.802 1.752-14.533 1.737-2.616 4.384-4.233 7.87-4.807.522-.087 1.022.27 1.108.796.086.528-.27 1.024-.796 1.11-2.935.483-5.148 1.82-6.576 3.97-3.345 5.038-1.502 12.937-1.482 13.017.124.517-.195 1.04-.713 1.163-.076.017-.152.025-.226.025z"/>
    <path d="M54.615 24.788c-.508 0-.933-.396-.962-.91-.01-.21-.256-5.183 2.668-7.856 1.49-1.36 3.488-1.872 5.94-1.51.526.076.89.567.813 1.093-.077.527-.56.893-1.094.814-1.845-.27-3.31.07-4.35 1.02-2.25 2.05-2.05 6.287-2.05 6.33.03.53-.38.986-.91 1.015l-.054.002z"/>
    <path d="M43.257 27.36c-.452 0-.856-.32-.946-.78-.12-.618-2.815-15.178 7.43-19.504.494-.206 1.057.023 1.265.514.207.49-.023 1.056-.514 1.263-8.82 3.725-6.312 17.223-6.285 17.36.1.522-.24 1.028-.763 1.13-.06.01-.123.017-.183.017z"/>
    <path d="M59.536 26.252c-.026 0-.053 0-.08-.003-.53-.045-.924-.51-.882-1.04.013-.165.35-4.092 2.622-5.922.95-.765 2.08-1.064 3.352-.89.528.07.897.558.825 1.085s-.56.89-1.086.825c-.736-.102-1.352.055-1.88.478-1.348 1.083-1.836 3.67-1.91 4.577-.043.505-.465.887-.96.887z"/>
    <path d="M37.685 26.502c-.42 0-.805-.275-.926-.698-.085-.29-2.003-7.12.544-11.303.97-1.59 2.44-2.594 4.37-2.98.52-.105 1.03.234 1.136.757.106.522-.233 1.03-.756 1.135-1.4.28-2.414.966-3.102 2.095-2.112 3.468-.357 9.705-.34 9.767.147.512-.15 1.046-.66 1.193-.09.025-.178.037-.267.037z"/>
    <path d="M80.52 41.733c-.69-.925-1.613-1.48-2.675-1.607-.187-.02-.38-.017-.57-.01-.02-.148-.04-.28-.06-.435-.434-3.25-1.09-8.163-4.67-13.15-2.057-2.864-4.09-4.413-6.046-4.602-1.6-.15-2.53.67-2.633.765-.387.365-.406.976-.04 1.364.366.388.975.406 1.363.04.004-.003.396-.325 1.124-.25.775.075 2.412.67 4.665 3.807 3.297 4.594 3.89 9.038 4.323 12.282.03.228.06.43.09.644-.115.05-.228.11-.34.172-.586-12.797-9.737-13.414-9.834-13.42-.54-.022-.98.382-1.01.91-.03.53.38.985.91 1.017.336.02 8.256.64 8.035 13.296-.01.532.415.972.947.98h.018c.302 0 .56-.147.737-.364.09-.037.177-.088.256-.153.866-.723 1.757-1.07 2.506-.98.527.06.983.344 1.35.84 1.2 1.616.12 8.303-.995 9.7-.922 1.15-1.89.7-2.156.54-.3-.193-.68-.204-.99-.03-.31.173-.5.503-.496.86.064 3.732-.163 7.425-.45 10.496-.013.064-.02.125-.02.19-.412 4.317-.94 7.345-.937 7.345-5.478 18.36-27.187 19.947-28.9 20.043-16.263-3.3-21.214-20.735-21.612-22.244l-.008-24.65c-.015-.12-1.516-12.212 2.173-16.684.782-.947 1.724-1.444 2.88-1.518.336-.022.637-.218.793-.516.014-.027 1.196-2.24 3.625-4.27-.033 1.958.356 3.785.674 4.932.012.078.034.156.066.232.158.37.53.61.915.61.102 0 .205-.017.306-.053.48-.17.714-.796.575-1.286-.45-1.585-1.668-6.962 1.528-9.624.41-.34.465-.95.124-1.358-.34-.41-.95-.465-1.358-.124-1.344 1.12-2.094 2.538-2.483 4.018-3.02 1.987-4.79 4.537-5.42 5.57-1.464.217-2.713.942-3.718 2.16-4.218 5.116-2.666 17.628-2.605 18.035V69.9c0 .076.01.15.026.225.05.202 5.016 20.2 23.254 23.815.062.012.125.018.188.018h.033c.246-.01 24.713-1.063 30.814-21.53.01-.053.556-3.167.98-7.59 1.832-3.685 2.36-8.74 2.465-9.988.422-.232.84-.574 1.233-1.063 1.465-1.83 2.927-9.516 1.04-12.054z"/>
</svg>
