<svg xmlns="http://www.w3.org/2000/svg" viewBox="0 0 100 100">
    <path d="M80.254 77.104c-.1-.774-.474-1.16-.77-1.35-.18-.113-.362-.177-.532-.21-.386-.717-1.266-1.832-3.1-2.18-2.395-.455-5.304-.776-8.835.212-.226-.22-.47-.43-.724-.627-.04-.05-.094-.08-.145-.12-1.53-1.16-3.353-1.9-3.86-2.1-4.914-3.87-6.71-8.83-6.97-9.62V50.24c.026-1.083.03-2.3 0-3.672V26.93c0-8.862-5.687-11.26-8.674-11.905v-.038c0-.95-.75-1.497-1.496-1.533h-5.265c-.686 0-1.064.28-1.26.516-.258.307-.325.68-.3.96v.368c-6.083 1.424-9.302 5.548-9.302 11.97v29.5c-.28 1.312-2.98 13.89-1.42 18.345-.09.438-.28 1.37-.4 1.825-.1.395-.3 1.13 4.75 7.91.02.026.04.052.07.076.17.178 1.17 1.067 4.25 1.067h8.33c.24 0 .47-.1.63-.27.16-.17.24-.41.22-.65l-.41-4.08c1.79.55 5.08 1.63 6.56 2.56 2.27 1.43 4.81 2.66 10.87 2.13 6.19-.54 11.01-2.27 16.05-5.75.2-.12 1.97-1.2 1.77-2.81zm-26.628-16.04c-1.023 2.1-.255 5.785-.06 6.615-.025.26-.17 1.09-1.016 1.65-.936.62-3.407 1.3-9.432-1.11-8.513-3.42-10.95-6.82-11.872-8.64.396.02.823-.02 1.25-.23 1.092-.55 1.695-1.91 1.794-4.06.073-1.6 0-3.42-.075-5.35-.036-.93-.074-1.88-.098-2.84.33.78.776 1.38 1.368 1.68.955.49 1.614.18 1.924-.05.07-.06.13-.11.19-.18-.09 1.29-.39 2.6-1.06 3.78-3.61 6.31-.79 8.66-.19 9.07.63.43 1.16.58 1.6.58.37 0 .67-.12.9-.26.98-.6 1.39-2.12 1.27-4.92.38.4.77.76 1.14.95.31.16.68.11.94-.12s.35-.6.24-.93c-.01-.03-.62-1.76-.78-4.75.31.32.7.58 1.16.75.9.34 1.8-.05 2.39-1.04.8-1.35 1.18-4.02 1.05-6.82.4 1.53.71 3.33.82 5.42.28 5.36 1.11 6.49 1.89 6.89.38.19.8.2 1.2.02.21.65.58 1.27 1.24 1.63.36.24.97.38 1.6.06.18-.1.38-.23.57-.44V61zm-13.612-45.92h4.938V26.36h-.544c-.328-.572-.95-1.164-1.964-1.164-1.045 0-1.66.582-1.98 1.152h-.45V15.145zm-9.304 41.72V27.267c0-5.48 2.564-8.916 7.612-10.233v10.16c0 .466.38.845.846.845h1.87c.397 0 .744-.3.83-.68.048-.22.187-.48.575-.48.416 0 .55.39.58.5.086.38.428.66.824.66h1.95c.467 0 .846-.38.846-.85V16.76c2.927.726 6.982 3.016 6.982 10.168v23.22c-.153 6.102-1.133 7.105-1.32 7.24l-.027-.016c-.565-.29-.65-1.553-.603-2.304.028-.154.04-.3.032-.43-.024-.433-.375-.78-.81-.796-.434-.027-.814.3-.872.732-.006.046-.018.143-.03.277-.052.2-.19.49-.32.67-.226-.4-.68-1.66-.87-5.3-.522-9.99-5.193-13.82-5.392-13.97-.36-.28-.88-.23-1.175.12-.295.35-.256.88.088 1.18 2.315 2.05 2.797 8.99 1.872 12.27-.3 1.07-.64 1.35-.763 1.35-1.863-.69-1.51-4.9-1.24-6.32.087-.46-.214-.9-.672-.99-.465-.09-.902.22-.99.68l-.003.02c-.78 4.1-.65 7.4-.35 9.63-.163-.23-.312-.46-.438-.66-.21-.34-.628-.48-1-.35-.373.13-.604.51-.557.9.686 5.63-.176 6.23-.213 6.25-.024.02-.235.02-.672-.28-.854-.58-1.666-2.66.71-6.82 2.88-5.04.165-11.74.05-12.02-.165-.4-.6-.61-1.016-.49-.414.12-.672.53-.6.96.437 2.57.418 5.36.02 5.72 0 0-.066 0-.21-.08-1.382-.7-1.6-6.63-1.01-11.72.05-.43-.243-.84-.675-.92-.44-.08-.86.18-.98.6-1.45 5.08-1.25 10.23-1.07 14.78.07 1.89.14 3.68.07 5.2-.1 2.03-.63 2.51-.86 2.62-.38.2-.95-.06-1.19-.2l.12-.59c.01-.06.02-.12.02-.18zm-.754 3.9c1.174 2.107 4.054 5.63 12.533 9.03 3.03 1.22 5.57 1.83 7.58 1.83 1.41 0 2.57-.304 3.46-.91 1.73-1.18 1.73-3.04 1.73-3.12 0-.066-.01-.13-.03-.195-.21-.83-.4-2.04-.43-3.18.79 1.55 2.06 3.58 3.97 5.59l-1.52 2.74c-.23.41-.08.92.33 1.15.13.07.27.1.4.1.3 0 .59-.16.74-.44l1.29-2.34c.15.14.31.28.47.41l-1.7 3.17c-.22.41-.07.92.34 1.14.13.07.26.1.4.1.3 0 .59-.16.74-.45l1.61-3.01c.16.07.38.16.62.27L60.92 76c-.2.42-.02.925.4 1.125.12.055.24.08.36.08.32 0 .62-.177.77-.483l1.56-3.29c.196.113.39.24.585.365l-1.26 3.04c-.18.43.03.93.46 1.11.103.04.212.06.32.06.332 0 .647-.197.78-.52l1.06-2.568.13.13c.22.25.57.35.89.25 3.393-1.06 6.102-.78 8.523-.32 1.17.22 1.695.9 1.91 1.29-8.59 6.27-17.95 5.42-19.75 5.18-1.74-.23-2.71-.75-4.47-1.68-1.26-.67-2.83-1.51-5.245-2.53-4.76-2.02-8.41-2.08-11.94-2.14-.88-.02-1.78-.04-2.678-.08-3.75-.2-4.29-2.37-4.31-2.48-.033-.17-.123-.3-.233-.42-.14-3.15.51-7.84 1.145-11.42zM77.582 78.49c-4.907 3.377-9.338 4.967-15.293 5.49-5.55.49-7.73-.56-9.82-1.875-2.28-1.43-7.96-3.045-8.2-3.113-.27-.073-.56-.014-.78.167-.22.18-.33.45-.3.73l.44 4.41h-7.39c-2.12 0-2.9-.47-3.01-.53-1.09-1.46-2.24-3.09-3.09-4.38 1.38.34 3.56.63 6.96.63.98 0 2.07-.03 3.26-.08.46-.02.83-.42.8-.89-.02-.47-.41-.83-.89-.81-9.14.4-11.11-.97-11.23-1.06-.06-.06-.12-.09-.18-.13.12-.5.26-1.17.34-1.56.88.62 2.16 1.14 4.03 1.24.93.05 1.84.06 2.73.08 3.53.06 6.86.12 11.32 2.01 2.35.99 3.88 1.81 5.11 2.46 1.81.96 3 1.59 5.04 1.86.52.07 1.64.18 3.17.18 4.1 0 11.18-.85 17.82-5.7-.18.3-.56.62-.89.82z"/>
</svg>
