<svg xmlns="http://www.w3.org/2000/svg" viewBox="0 0 100 100">
    <path d="M78.04 53.053C75.875 42.728 68.493 41.43 66.027 41.29 62.77 29.105 52.25 28.14 49.047 28.14c-.49 0-.815.023-.925.032-.665.02-7.7.38-13.753 7.03-6.78 7.445-9.56 19.56-8.26 36.012.02.348.22.66.53.83.3.17.67.177.98.02l3.79-1.926 2.5 1.835c.18.134.4.203.61.203.16 0 .32-.036.46-.11l3.53-1.754 2.91 1.72c.3.177.67.193.99.04l3.8-1.836 3.11 1.8c.3.173.66.186.97.036l3.83-1.85 3.51 1.835c.3.16.66.16.97 0l3.67-1.918 4.42 1.88c.39.16.84.08 1.14-.22.3-.3.39-.75.23-1.14l-1.56-3.81c-1.68-3.75-.45-8.24.1-9.5 1.06-2.26 6.03-3.06 9.97-3.06h.37c.34 0 .62-.13.83-.38.2-.25.28-.57.22-.89zm-13.3 3.444c-.707 1.608-2.104 6.758-.12 11.185l.583 1.424-2.538-1.08c-.29-.124-.616-.11-.893.034l-3.624 1.894-3.495-1.825c-.152-.08-.318-.12-.484-.12-.16 0-.32.03-.46.1l-3.8 1.83-3.12-1.8c-.3-.18-.67-.19-.98-.04l-3.8 1.83-2.92-1.73c-.3-.18-.68-.2-1-.04l-3.47 1.72-2.51-1.84c-.32-.24-.74-.27-1.09-.09l-2.96 1.5c-.96-15.02 1.66-26.06 7.79-32.84 5.6-6.18 12.25-6.39 12.32-6.39.02 0 .05 0 .08-.01.02-.01.3-.03.77-.03 2.88 0 12.49.89 15.14 12.33.12.5.6.85 1.09.81.02 0 .1-.01.23-.01 6.13 0 8.82 4.99 9.9 8.06-2.94-.87-10.11-2.33-16.26 1.65-.49.31-.63.96-.31 1.44.2.31.53.47.88.47.19 0 .39-.05.56-.17 3.62-2.34 7.76-2.51 10.88-2.13-2.69.53-5.4 1.61-6.43 3.79z"/>
    <path d="M54.77 42.67l1.987-1.986c.408-.408.408-1.07 0-1.478-.408-.408-1.07-.408-1.478 0l-1.99 1.986-1.99-1.986c-.41-.408-1.07-.408-1.48 0-.41.408-.41 1.07 0 1.478l1.98 1.986-2.05 2.05c-.41.407-.41 1.068 0 1.477.2.204.47.306.74.306.26 0 .53-.102.74-.306l2.05-2.05 2.05 2.05c.2.204.47.306.74.306s.53-.102.74-.306c.4-.408.4-1.07 0-1.478l-2.05-2.05z"/>
    <path d="M35.154 76.822c-.52-.25-1.145-.03-1.395.49l-3.17 6.58c-.25.52-.03 1.144.49 1.395.14.07.3.103.45.103.39 0 .76-.218.94-.593l3.16-6.58c.25-.52.03-1.144-.49-1.395z"/>
    <path d="M63.365 77.31c-.25-.52-.873-.738-1.395-.487-.52.25-.74.875-.488 1.395l3.165 6.58c.18.375.553.593.942.593.15 0 .3-.03.45-.1.52-.25.74-.87.49-1.39l-3.17-6.58z"/>
    <path d="M48.89 77.173c-.577 0-1.045.468-1.045 1.045v7.186c0 .577.468 1.045 1.045 1.045s1.045-.47 1.045-1.05v-7.19c0-.58-.468-1.05-1.045-1.05z"/>
    <path d="M33.76 24.3c.18.374.553.593.942.593.152 0 .306-.033.452-.103.52-.25.74-.875.488-1.395l-3.165-6.58c-.25-.52-.873-.74-1.395-.49-.52.25-.74.875-.488 1.395l3.166 6.58z"/>
    <path d="M61.97 24.79c.147.07.302.103.453.103.39 0 .763-.218.942-.592l3.165-6.58c.25-.52.03-1.14-.488-1.39-.52-.25-1.145-.03-1.395.49l-3.165 6.58c-.25.52-.03 1.15.49 1.4z"/>
    <path d="M48.89 24.438c.577 0 1.045-.468 1.045-1.045v-7.186c0-.577-.468-1.045-1.045-1.045s-1.045.468-1.045 1.045v7.186c0 .577.468 1.045 1.045 1.045z"/>
</svg>
