<svg xmlns="http://www.w3.org/2000/svg" viewBox="0 0 100 100">
    <path d="M72.535 26.935c0-.02-.002-.038-.004-.058 0-.085-.02-.17-.04-.25 0-.022-.01-.04-.02-.062-.02-.073-.05-.145-.08-.213 0-.013-.01-.027-.02-.04-.04-.08-.09-.154-.15-.225l-.01-.025-12-14.516.04-3.343c.01-.485-.21-.945-.6-1.24-.39-.297-.89-.395-1.35-.267l-17.31 4.767c-.67.185-1.14.795-1.14 1.49v3.414L25.11 27.242c-.003.004-.007.01-.012.013l-.014.008c-.03.018-.04.04-.06.06-.06.05-.12.105-.17.164-.03.03-.05.06-.07.093-.05.06-.09.118-.12.182-.02.036-.04.072-.05.11-.03.064-.05.13-.07.196-.01.04-.028.08-.03.12-.02.072-.028.145-.03.22 0 .026-.01.052-.01.078v55.847c0 .68.443 1.28 1.093 1.478l27.054 8.28c.03.01.06.02.09.02l.09.02c.09.02.18.03.27.03.1 0 .19-.01.28-.03l.09-.02c.06-.01.12-.03.18-.05l.09-.03c.06-.02.11-.06.17-.09l.07-.04.02-.01 17.91-12.75c.41-.29.65-.76.65-1.26V27.05c0-.037 0-.073-.01-.11zm-3.997-.438L53.66 33.524l-9.858-15.47 14.308-4.19 10.428 12.633zm-27.56-7.122l8.697 13.645-20.11-5.217 11.414-8.428zm1.96-5.244l14.19-3.9-.01.71-14.18 4.15v-.95zM27.582 30.49l23.962 6.21v53.82l-23.962-7.33V30.482zM69.45 79.07L54.636 89.614v-53.13l14.814-6.998v49.582z"/>
    <path d="M39.99 44.157c-5.634 0-10.218 5.933-10.218 13.225s4.584 13.225 10.22 13.225S50.21 64.674 50.21 57.382s-4.584-13.225-10.22-13.225zm0 3.092c3.523 0 6.455 3.65 7.026 8.43l-1.38 1.9-1.84-2.25c-.298-.37-.747-.59-1.216-.57-.47 0-.913.22-1.2.59l-1.424 1.84-1.447-2.13c-.27-.39-.69-.64-1.16-.68-.47-.04-.93.13-1.25.47l-1.82 1.93-1.2-1.89c.77-4.4 3.58-7.67 6.91-7.67zm0 20.26c-3.132 0-5.797-2.89-6.75-6.89.194.11.414.19.646.21.472.04.942-.13 1.27-.48l1.87-1.97 1.47 2.16c.3.44.785.68 1.28.68l.02-.01c.517.05 1.05-.15 1.394-.59l1.44-1.86 1.883 2.3c.294.36.734.57 1.196.57h.04c.28-.01.54-.1.77-.24-1.1 3.58-3.62 6.09-6.54 6.09z"/>
</svg>
