<svg xmlns="http://www.w3.org/2000/svg" viewBox="0 0 100 100">
    <path d="M51.153 94.633h-.02c-.357-.01-.654-.274-.707-.627L46.86 69.86 31.214 87.81c-.236.273-.635.332-.94.143-.305-.19-.43-.57-.293-.904l8.78-21.35-21.91 8.61c-.34.13-.73-.01-.9-.33-.18-.32-.09-.73.2-.95l17.49-13.21-18.01.94c-.35.01-.65-.2-.74-.53-.09-.33.05-.68.35-.84l14.42-8.05-16.11-3.32c-.35-.07-.6-.39-.58-.75.01-.36.28-.66.64-.71l16.98-2.36L17.24 28c-.22-.27-.227-.658-.007-.928.22-.272.6-.35.91-.188l19.49 10.16-4.95-19.91c-.083-.342.088-.697.41-.844.316-.147.7-.045.905.245l11.286 16 4.2-26.715c.057-.358.366-.62.727-.62h.03c.37.013.67.303.7.673L53 30.608l6.19-19.992c.112-.36.488-.576.85-.502.37.077.622.423.58.8l-2.535 23.01 15.623-17.347c.244-.27.647-.32.95-.122.302.2.414.59.263.92L64.04 41.01l22.01-11.785c.316-.17.716-.084.934.208.218.29.19.698-.067.956L69.25 48.21l21.048.245c.365.004.67.276.72.638.048.36-.178.704-.53.803l-23.756 6.72 20.997 16.1c.29.226.37.635.18.954-.19.32-.58.45-.93.305L64.2 64.248l4.038 15.615c.056.102.085.218.085.34 0 .408-.318.712-.743.734-.203.015-.376-.068-.52-.207L56.64 70.64l-4.77 23.405c-.07.343-.37.588-.72.588zm-3.8-27.19c.07 0 .14.01.208.03.28.08.48.314.52.598l3.19 21.59 4.21-20.62c.06-.26.25-.47.51-.55.26-.08.54-.01.73.18l9.51 9.21-3.8-14.69c-.07-.27.02-.55.24-.74.22-.18.51-.23.77-.12l18.8 8.03L64.69 56.9c-.22-.17-.327-.448-.274-.72.05-.274.252-.494.52-.57l20.28-5.737-17.71-.206c-.293-.003-.56-.183-.67-.456-.112-.27-.05-.58.16-.79l15.44-15.58-19.63 10.51c-.28.15-.62.11-.85-.11-.23-.21-.296-.55-.165-.84l9.78-21.23L57.66 36.6c-.215.237-.558.307-.848.18-.29-.132-.466-.435-.43-.752l1.94-17.638-5.035 16.265c-.104.337-.434.547-.78.513-.35-.038-.624-.318-.653-.67L49.98 12.08l-3.536 22.472c-.047.295-.268.533-.56.6-.29.068-.594-.047-.766-.29l-10.07-14.28 4.398 17.688c.07.28-.032.576-.258.754-.227.178-.537.208-.794.074l-17.747-9.25L32.52 44.32c.168.206.212.486.116.733-.097.247-.32.423-.583.46L18.005 47.46l13.863 2.86c.3.06.53.302.578.605.047.303-.1.604-.368.753l-13.386 7.47 17.254-.905c.322-.018.618.18.73.482.11.303.01.643-.25.838l-15.13 11.423 18.523-7.28c.27-.106.58-.043.79.167.2.21.27.523.15.795l-7.74 18.82L46.8 67.695c.142-.163.345-.252.554-.252z"/>
    <path d="M87.014 65.41c-.123 0-.25-.03-.366-.09l-12.09-6.327c-.388-.202-.538-.68-.336-1.067.205-.387.687-.536 1.067-.333l12.09 6.327c.38.202.53.68.33 1.067-.14.268-.42.423-.7.423z"/>
    <path d="M74.554 29.942c-.216 0-.43-.088-.587-.26-.292-.324-.267-.824.057-1.117l5.844-5.282c.323-.293.823-.268 1.116.056.292.32.267.82-.057 1.11l-5.844 5.28c-.15.13-.34.2-.53.2z"/>
    <path d="M62.672 90.317c-.343 0-.66-.225-.76-.57l-2.666-9.212c-.12-.42.12-.857.54-.98.412-.118.857.12.98.54l2.666 9.212c.12.42-.12.857-.54.98-.073.02-.147.03-.22.03z"/>
    <path d="M29.567 29.672c-.204 0-.406-.078-.56-.234l-9.69-9.766c-.31-.31-.307-.81.002-1.118.31-.308.81-.305 1.11.005l9.69 9.76c.31.31.3.81 0 1.12-.16.15-.36.23-.56.23z"/>
    <path d="M41.33 91.55c-.073 0-.147-.01-.22-.033-.42-.122-.662-.56-.54-.98l3.115-10.688c.123-.42.556-.67.98-.54.42.12.66.56.54.98L42.09 90.98c-.102.346-.417.57-.76.57z"/>
    <path d="M30.632 22.282c-.255 0-.505-.123-.658-.352l-4.385-6.576c-.25-.363-.15-.854.21-1.096.36-.242.85-.146 1.09.22l4.38 6.575c.24.363.14.854-.22 1.096-.14.09-.29.13-.44.13z"/>
    <path d="M39.716 49.756c-.732 1.097-2.487.805-3.365 0-.87-.805.75-1.836 3.37-2.487.6-.15.73 1.39 0 2.48z"/>
    <path d="M45.907 40.85c.28-.525 1.49.02 2.25.43.76.408 1.15 1.164.87 1.687-.282.523-1.126.616-1.887.208-.762-.41-1.514-1.803-1.233-2.326z"/>
    <path d="M41.496 51.585c-.487-5.12 4-5.9 4-5.9s.438-.32 3.706.78c4.118 1.382 1.024 4.925 0 7.607-1.024 2.683-7.218 2.634-7.706-2.487z"/>
    <path d="M51.282 63.192c-1.676.146-3.494-2.195-1.933-4.243 1.56-2.05 3.8-.59 3.8-.59 1.31-.2 1.56.53 1.61 2.16.04 1.63-1.81 2.52-3.48 2.66z"/>
    <path d="M51.635 53.294c0-.594.48-1.075 1.076-1.075.6 0 1.08.48 1.08 1.07 0 .59-.87 1.5-1.46 1.5s-.68-.91-.68-1.51z"/>
    <path d="M55.005 46.513c-1.002.66-3.316.44-3.853-1.26-.536-1.7 1.512-3.324 1.512-3.324s2.195-1.2 3.463 1.13c0 0 .878 2.13-1.122 3.45z"/>
    <path d="M61.785 53.048c-1.414 1.22-4.194-2.146-3.61-4.39.586-2.242 2.44-1.267 2.44-1.267 4.047.98 2.584 4.44 1.17 5.66z"/>
</svg>
