<svg xmlns="http://www.w3.org/2000/svg" viewBox="0 0 100 100">
    <ellipse cx="71.267" cy="36.023" rx="1.15" ry="1.314"/>
    <ellipse cx="87.92" cy="37.092" rx="1.042" ry="1.19"/>
    <ellipse cx="68.853" cy="36.597" rx="1.061" ry="1.213"/>
    <ellipse cx="90.083" cy="37.458" rx=".962" ry="1.099"/>
    <path d="M37.333 45.292c-.102 0-.203-.02-.3-.062-.236-.103-.403-.32-.442-.577-.032-.23-.8-5.68 2.597-9.562.033-.037.07-.07.11-.102.277-.21 6.803-5.162 8.485-6.17.206-.125.46-.142.68-.048.222.093.385.288.44.522.015.068 1.498 6.912-4.546 11.235-3.62 2.59-6.566 4.613-6.596 4.633-.127.087-.276.132-.425.132zm2.933-9.158c-1.99 2.317-2.28 5.354-2.268 7.036 1.177-.817 3.194-2.227 5.482-3.863 3.85-2.754 4.186-6.654 4.087-8.553-2.276 1.576-6.723 4.94-7.3 5.38z"/>
    <path fill="none" d="M48.186 49.7l.015-.023-.013.024z"/>
    <path fill="none" d="M47.577 50.874l.09-.215c-.03.07-.062.137-.09.213z"/>
    <path fill="none" d="M47.777 50.42c.063-.13.128-.256.196-.376-.07.116-.132.243-.196.375z"/>
    <path d="M93.6 42.714c-.02-.037-.03-.078-.058-.112-.878-1.09-1.017-2.618-1.038-3.037.575-1.808.148-2.768-.36-3.912-.334-.75-.507-1.74-.573-2.195v-.012c0-.008 0-.017-.003-.025-.018-.123-.027-.206-.027-.21-.005-.033-.023-.06-.03-.093-1.356-7.237-3.097-14.148-3.114-14.218-.04-.163-.135-.306-.267-.408-.56-.434-1.265-.816-2.073-1.154-.51-1.73-1.62-3.74-2.078-4.123-.688-.57-13.834-2.794-18.728-1.697-1.102.248-1.99.72-2.724 1.3-.03.016-.063.02-.09.04L43.185 26.655l-27.16 22.372c.156-2.415 1.816-7.064 11.362-10.637.328-.123.527-.457.48-.804-.048-.347-.33-.615-.678-.646C8.11 35.286 5.38 44.656 5.273 45.056c-.106.398.13.806.526.915.4.11.81-.124.923-.52.006-.02.63-2.144 3.384-4.055 2.276-1.58 6.434-3.29 13.743-3.136-9.212 4.396-9.56 9.88-9.3 11.984.095.93.676 1.35.676 1.35.23.067.478.023.67-.124 4.79-3.695 8.15-2.985 9.563-2.374-2.61 2.852-3.828 5.588-3.617 8.143.247 2.982 2.376 4.552 2.466 4.617.032.024.066.045.103.063 2.74 1.37 5.4 1.56 7.902.554 4.23-1.693 6.89-6.33 8.048-8.8 3.04 8.078-5.576 15.68-5.67 15.76-.3.26-.345.708-.102 1.023s.69.387 1.018.162c5.876-4.01 11.328-2.803 13.61-1.99-.693.674-1.136 1.46-1.318 2.343-.44 2.138.84 4.036.896 4.116.074.106.175.193.292.25 4.11 1.982 7.624-2.835 9.072-5.247.69 1.595.828 3.092.41 4.464-.853 2.81-3.784 4.25-3.814 4.264-.353.17-.516.584-.374.948s.54.557.914.446c4.662-1.402 7.58-.832 9.302.02-2.275.284-3.874 2.462-5.334 4.452-1.78 2.426-3.62 4.935-6.642 4.935-.414 0-.75.337-.75.75s.336.75.75.75c3.78 0 5.943-2.946 7.85-5.546 2.3-3.133 3.734-4.83 6.54-3.295.296.162.662.107.897-.134.234-.24.28-.61.11-.9-.076-.134-1.24-2.05-4.267-2.937 5.53-2.225 10.02-7.17 10.262-7.438.23-.255.255-.632.065-.917-.19-.285-.548-.404-.87-.292-1.735.607-3.432.915-5.042.915-1.628 0-2.876-.32-3.706-.622l5.35-4.555 4.193-3.62s4.037 5.256 8.057 2.87c3.414-2.024 3.062-9.31 2.875-10l2.188-.124s4.562-3 5.062-3.875c.43-.75 1.042-1.967 1.603-3.916.01-.01.024-.018.034-.03.567-.575.572-1.288.57-1.312.087-1.51-.356-2.283-.794-2.68zm-3.644-9.463c.055.173.084.4.073.53-.206-.01-.777-.13-2.06-.95-2.64-1.69-7.32-2.046-10.788-2.046-3.725 0-7.506.422-9.01.83-2.11.573-3.183.436-4.064-.73-.777-1.025-1.51-4.993-1.32-9.044.127-2.71 2.08-2.99 2.272-3.012 1.24-.066 2.51-.1 3.773-.1 7.26 0 13.188 1.105 15.55 1.757 2.323.642 3.23 2.63 3.36 2.943l2.21 9.823zM66.783 12.798c5.123-.53 14.855 1.27 16.28 1.64.227.318.757 1.22 1.188 2.276-5.15-1.52-12.93-1.798-18.427-1.768.023-.574.182-1.548.96-2.148zm-2.144.503c-.237.624-.305 1.227-.32 1.66-.833.02-1.55.216-2.16.516.564-.87 1.357-1.69 2.48-2.177zM51.144 64.29c-2.428 0-4.334-3.675-4.396-8.208-.024-1.705.17-3.153.52-4.34.04-.053.072-.114.09-.184.06-.25.136-.473.215-.685l.09-.215c.036-.084.073-.162.11-.24.063-.13.128-.255.196-.375.07-.12.14-.24.214-.343l.015-.024c.53-.744 1.07-1.036 1.135-1.072.05-.03 1.202-.768 2.46-.21 1.034.46 2.415 1.95 3.126 6.433.02.13.095.25.2.326.088.062.19.095.295.095.027 0 .055 0 .08-.006l.022-.003c.015.277.023.56.023.844.002 4.532-1.966 8.207-4.394 8.207zm4.68-10.116c-.65-3.672-1.875-5.925-3.637-6.7s-3.338.25-3.353.265c-.065.033-1.454.77-2.215 2.847-2.525 4.988.18 11.83.18 11.83l-4.768 4.06c-1.1.16-2.26.44-3.46.897 2.722-3.568 5.897-9.668 2.412-15.907-.143-.257-.425-.406-.716-.382-.293.024-.545.217-.645.494-.026.073-2.73 7.445-7.867 9.5-2.068.83-4.295.67-6.61-.47-.258-.205-1.636-1.396-1.81-3.495-.19-2.31 1.107-4.89 3.86-7.67.15-.153.23-.362.215-.576-.012-.215-.116-.41-.285-.544-.142-.11-2.683-2.012-6.893-.824l23.863-19.658 15.87-11.37c-.46 1.21-.6 2.204-.627 2.415-.063.296-.476 2.325-.475 4.644-.206-.232-.292-.644-.366-1.35-.078-.73-.205-1.953-1.403-1.953-.314 0-.652.1-1.065.31-2.19 1.123-4.693 3.883-4.8 4-.153.17-.22.4-.182.628l4.605 27.06c.023.14.085.268.178.373l1.22 1.373-1.224.2zm1.955-1.64l-.682-.77-4.505-26.484c.662-.697 2.546-2.597 4.123-3.406.09-.046.162-.078.22-.1.03.162.055.392.072.562.09.85.263 2.518 1.93 2.882.25 3.66 1.4 18.446 4.02 22.897l-5.177 4.42zM68.17 72.08c.894 0 1.81-.084 2.737-.253-2.696 2.437-7.742 6.263-12.55 6.047.672-.76 1.293-1.71 1.648-2.867.15-.487.237-.985.277-1.49l2.897-2.466c.89.42 2.586 1.03 4.99 1.03zm-3.573-24.196c-.022-.04-.035-.083-.065-.12-2.38-2.834-3.795-17.76-4.138-23.272-.157-2.64.41-5.28.41-5.28.032-.11.815-2.713 3.582-2.755 11.397-.176 19.59.938 22.618 3.066l.188.766c-.623-.515-1.414-.98-2.41-1.255-3.02-.834-9.01-1.81-15.947-1.81-1.29 0-2.586.034-3.877.103-1.2.104-3.514 1.163-3.667 4.438-.193 4.16.52 8.56 1.623 10.02 1.248 1.65 2.872 2.028 5.654 1.273 1.156-.314 4.693-.778 8.616-.778 4.615 0 8.158.642 9.978 1.808 1.266.812 2.186 1.19 2.895 1.19.127 0 .248-.013.363-.038.1.354.22.72.372 1.06.466 1.05.7 1.576.248 2.916-.024.078-.038.16-.038.24 0 .07.015 1.298.536 2.61-4.69-.844-10.617-1.326-16.54-1.326-3.79 0-8.73.226-10.174.863-1.992.878-.948 4.07-.81 4.468.316.78.775 1.147 1.19 1.314l-.605.5zm28.3-2.54c-.01.2-.143.537-.93.537-.37 0-.82-.076-1.34-.227-2.85-.828-7.42-1.322-12.228-1.322-5.24 0-9.78.583-12.146 1.56-.028.012-.07.034-.098.05-.038.02-.16.075-.283.075-.066 0-.267 0-.46-.47-.276-.798-.51-2.338.013-2.568.828-.365 4.38-.735 9.57-.735 6.37 0 12.757.56 17.524 1.534.128.042.442.4.376 1.57z"/>
</svg>
