<svg xmlns="http://www.w3.org/2000/svg" viewBox="0 0 100 100">
    <circle cx="60.313" cy="42.961" r="2.573"/>
    <path d="M76.834 38.666c-.745-2.363-4.277-11.364-15.652-15.31l-2.088-15.29s-4.29.432-10.057.315c-2.62-2.996-5.57-4.148-8.203-3.112-3.78 1.485-5.764 6.868-5.182 14.048.135 1.66.49 3.6.934 5.546-14.226 8.184-19.802 28.442-19.87 28.7-5.08 19.165-3.307 36.262-3.29 36.433.015.13.058.258.127.37 1.898 3.13 4.062 4.715 6.43 4.715 2.93 0 5.284-2.476 6.438-3.972 1.867 2.467 3.89 3.715 6.022 3.714 2.967 0 5.26-2.44 6.396-3.95 1.812 2.447 3.848 3.685 6.066 3.685 3.13 0 5.67-2.516 6.856-3.938 2.084 2.345 4.268 3.533 6.503 3.532 3.047 0 5.29-2.21 6.343-3.503 1.655 1.517 3.538 2.285 5.61 2.285 3.984 0 7.178-2.882 7.313-3.005.362-.332.392-.892.066-1.26-6.255-7.095-2.18-25.47-.648-32.387.383-1.724.567-2.572.59-3.025.618-.807 5.35-2.126 10.462-2.91.44-.066.765-.444.765-.89 0-7.65-9.477-10.248-11.93-10.792zM37.45 19.17c-.51-6.26 1.08-11.06 4.044-12.224 1.5-.59 3.23-.1 4.93 1.346-1.08-.052-2.19-.125-3.32-.225l-2.42 14.88c-.84.304-1.652.657-2.444 1.042-.378-1.714-.675-3.39-.79-4.82zm38.29 33.99c-.003.266-.28 1.52-.55 2.734-1.686 7.598-5.56 25.08.46 33.23-1.023.743-3.108 2.01-5.433 2.01-1.87 0-3.566-.832-5.043-2.47-.188-.21-.46-.322-.748-.295-.282.024-.536.18-.686.42-.022.035-2.27 3.56-5.477 3.56-1.92.002-3.88-1.254-5.824-3.73-.18-.227-.46-.36-.744-.343-.288.01-.554.16-.715.4-.026.04-2.774 4.078-6.076 4.078-1.874 0-3.658-1.334-5.304-3.966-.168-.27-.512-.426-.78-.424-.317.006-.607.178-.765.452-.024.042-2.457 4.202-5.613 4.202-1.776 0-3.548-1.337-5.266-3.974-.17-.26-.475-.41-.772-.41-.31.006-.596.17-.756.437-.702 1.17-3.09 4.205-5.664 4.205-1.657 0-3.266-1.236-4.784-3.674-.18-1.942-1.443-17.838 3.257-35.58.065-.244 5.343-19.39 18.57-27.337.163.643.33 1.28.5 1.895.227 2.01-.876 5.716-1.35 7.04l1.698.607c.098-.276.57-1.625.958-3.25.447 1.406.773 2.35.815 2.47l1.702-.594c-.01-.03-.338-.977-.8-2.435 1.45.724 2.93.93 3.038.943l.234-1.787c-1.008-.134-3.734-.85-4.236-2.53l-.048.014c-.074-.258-.147-.524-.22-.79-.015-.108-.026-.22-.046-.322l-.043.008c-.194-.706-.386-1.434-.568-2.17.998-.502 2.034-.944 3.117-1.307 3.015.844 10.956 2.602 18.666.496 12.187 4.07 14.672 14.132 14.794 14.664.08.353.366.624.722.687.106.02 10.213 1.895 10.958 8.368-7.42 1.195-11.18 2.697-11.18 4.464z"/>
</svg>
