<svg xmlns="http://www.w3.org/2000/svg" viewBox="0 0 100 100">
    <path d="M48.65 8.672c-.328.527-7.962 13.027-1.96 23.6 5.28 9.3 10.163 20.887 10.944 22.766L48.647 87.5c-.04.15-.04.304.002.452.08.29 2.15 7.078 13.93 7.078h7.44c.37 0 .7-.248.8-.607.05-.18 1.21-4.447-1.37-5.857-1.68-.914-6.19-2.595-7.98-3.25l8.56-28.52c.03-.115.04-.237.02-.356l-1.68-11.786 7.96 11.94-2.75 34.486c-.01.128.01.256.05.375.06.16 1.57 3.858 4.51 3.857.06 0 .13-.002.19-.005.07-.004.14-.017.21-.04l16.65-5.363c.31-.102.54-.383.57-.713.14-1.56-.39-4.82-3.49-6.03-.08-.03-.16-.04-.24-.05l-6.09-.48 5.92-28.68c.03-.15.02-.31-.04-.46L79.91 21.92l2.71-10.66c.056-.223.016-.464-.11-.66-.13-.194-.333-.33-.56-.364-4.977-.822-29.94-4.793-32.86-2.31m29.068 85.72c-1.527 0-2.61-2.045-2.895-2.646l2.758-34.57c.02-.19-.03-.37-.13-.53L67.81 40.78c-.055-.18-.15-.34-.295-.44l-4.05-6.08c-.25-.38-.77-.49-1.15-.23-.38.25-.48.77-.23 1.15l4.17 6.25 2.15 15.05-8.73 29.09c-.12.423.1.873.52 1.022.07.024 6.53 2.35 8.49 3.416.96.525.886 2.27.7 3.34H62.6c-9.468 0-11.847-4.63-12.263-5.67l8.99-32.48c.05-.18.04-.368-.03-.54-.053-.13-5.36-13.02-11.145-23.215-5.51-9.706 1.798-21.84 1.87-21.96.07-.115.157-.177.168-.3 1.54-1.29 16.596.263 30.61 2.54L78.24 21.76c-.04.166-.03.34.03.5l11.935 31.59-6.055 29.36c-.05.233.006.476.15.667.142.19.36.31.6.33l6.902.544c1.954.83 2.285 2.8 2.33 3.75L78.16 93.65z"/>
    <path d="M15.842 36.96c-1.41 0-2.724-.565-3.702-1.59-.76-.797-1.25-1.812-1.396-2.86-1.927-.624-4.713-2.44-4.483-5.973.24-3.65 2.42-5.05 3.53-5.53.08-1.47.6-5.08 3.81-6.12.55-.177 1.1-.267 1.64-.267 1.7 0 2.98.865 3.79 1.642.78-1.553 2.35-3.27 5.04-3.27.37 0 .77.034 1.16.1.36.015 1.6.152 2.67 1.24.92.94 1.43 2.3 1.5 4.046l11.06 3.16c.34.094.58.387.61.733.03.35-.16.68-.48.82l-9.96 4.68c.21 1.65-.18 4.31-2.82 5.92-1.11.68-2.32 1.03-3.59 1.03-1.32 0-2.42-.38-3.08-.68-.8.96-2.61 2.76-4.89 2.92-.12.01-.25.02-.37.02zm-.62-20.676c-.365 0-.742.062-1.123.186-2.78.9-2.67 5.055-2.67 5.097.01.4-.26.753-.65.842-.1.02-2.64.69-2.87 4.23-.23 3.5 3.62 4.37 3.78 4.4.38.08.65.42.65.81 0 .84.35 1.7.98 2.35.72.75 1.7 1.14 2.75 1.06 2.24-.16 4.07-2.76 4.09-2.79.25-.37.76-.47 1.14-.23.01 0 1.23.77 2.86.77.96 0 1.87-.26 2.72-.78 2.73-1.67 1.97-4.63 1.94-4.76-.11-.39.08-.8.45-.98l8.53-4-9.52-2.72c-.37-.11-.61-.44-.61-.82.03-1.6-.32-2.78-1.03-3.5-.7-.72-1.56-.75-1.57-.75-.05 0-.1-.01-.14-.01-.32-.06-.64-.09-.94-.09-3.15 0-3.9 3.27-3.93 3.41-.07.33-.34.59-.68.64-.33.05-.67-.1-.85-.39-.01-.01-1.3-2.04-3.37-2.04z"/>
    <path d="M37.98 15.586c-.177 0-.355-.056-.507-.173L31 10.42c-.365-.282-.432-.805-.152-1.168.28-.364.8-.434 1.167-.15l6.474 4.993c.36.28.43.804.15 1.167-.17.212-.41.324-.66.324z"/>
    <path d="M40.756 11.517c-.287 0-.566-.148-.72-.413l-2.59-4.44c-.23-.396-.097-.906.3-1.138.4-.232.908-.096 1.138.3l2.59 4.44c.23.396.097.906-.3 1.138-.13.076-.276.113-.418.113z"/>
    <path d="M33.357 36.302c-.25 0-.496-.112-.66-.324-.28-.364-.214-.887.15-1.167l6.476-4.99c.365-.28.888-.21 1.167.15.28.37.214.89-.15 1.17l-6.476 5c-.15.12-.33.18-.507.18z"/>
    <path d="M40.014 39.817c-.142 0-.286-.036-.418-.113-.397-.232-.53-.74-.3-1.14l2.59-4.438c.23-.397.74-.533 1.14-.3.396.232.53.74.298 1.14l-2.59 4.438c-.154.265-.434.413-.72.413z"/>
</svg>
