<svg xmlns="http://www.w3.org/2000/svg" viewBox="0 0 100 100">
    <path d="M87.628 39.924H72.655l-2.02-14.638c-.044-.32-.222-.608-.49-.79-.27-.182-.6-.24-.916-.163L58.29 27.04c-.613.153-.987.772-.835 1.385.152.612.772.986 1.384.835l9.7-2.403 1.8 13.067H52.83c-.63 0-1.142.51-1.142 1.143 0 .63.512 1.143 1.143 1.143h1.91l5.3 35.07c.09.558.57.97 1.13.97h18.85c.57 0 1.05-.414 1.13-.974l5.2-35.066h1.28c.63 0 1.14-.51 1.14-1.143-.01-.632-.52-1.143-1.15-1.143zm-28.35 17.02c1.27-1.164 4.872-3.853 7.775-3.755 1.082.04 1.97.46 2.715 1.28 2.154 2.37 4.445 3.57 6.822 3.57.234 0 .468-.01.702-.04 1.666-.17 3.29-.95 4.735-2.21l-.34 2.29c-1.366 1.42-3.692 2.25-6.117 2.16-2.52-.09-4.73-1.14-6.062-2.88-.7-.92-1.678-1.45-2.83-1.54-2.48-.2-5.376 1.7-7.104 3.05l-.296-1.96zm24.734-14.527l-1.344 9.067c-1.49 2.464-3.58 4.054-5.6 4.253-1.863.185-3.755-.758-5.606-2.8-1.163-1.282-2.616-1.966-4.32-2.032-3.196-.13-6.505 2.035-8.262 3.4l-1.797-11.888h26.93zm-4.974 33.548H62.153l-2.18-14.42c1.327-1.18 4.474-3.59 6.525-3.42.507.042.888.248 1.195.65 1.75 2.286 4.593 3.662 7.797 3.774h.417c1.914 0 3.77-.47 5.31-1.29l-2.18 14.69z"/>
    <path d="M13.01 57.727h38.864c.304 0 .596-.12.81-.337.214-.216.334-.508.333-.812 0-.172-.314-17.172-19.765-17.435l-.508-.003c-20.637 0-20.877 17.27-20.877 17.445 0 .303.12.594.335.808.213.214.504.334.807.334zm19.733-16.302l.477.003c14.537.196 17.007 10.486 17.426 14.013H14.234c.42-3.55 2.977-14.01 18.51-14.01z"/>
    <path d="M51.896 63.716h-39.58c-1.262 0-2.285 1.023-2.285 2.286s1.03 2.286 2.29 2.286H51.9c1.26 0 2.284-1.023 2.284-2.286s-1.023-2.286-2.286-2.286z"/>
    <path d="M51.205 69.958H12.873c-.63 0-1.143.51-1.143 1.143 0 5.1 3.12 6.91 5.79 6.91h29.102c1.844 0 3.294-.58 4.308-1.74 1.813-2.07 1.425-5.18 1.408-5.31-.076-.57-.56-.99-1.133-.99zm-2 4.804c-.57.645-1.414.96-2.583.96h-28.94c-.024 0-.058 0-.08.002l-.08.002c-.95 0-3.03-.365-3.437-3.482h36.002c-.045.756-.237 1.788-.882 2.518z"/>
    <path d="M53.15 59.01c-1.532 0-2.335.34-3.044.64-.607.255-1.087.458-2.155.458-1.06 0-1.54-.202-2.15-.46-.71-.298-1.51-.638-3.04-.638s-2.33.34-3.04.64c-.6.255-1.08.458-2.15.458-1.06 0-1.54-.202-2.15-.46-.71-.298-1.51-.638-3.04-.638s-2.33.34-3.04.64c-.6.255-1.08.458-2.15.458s-1.54-.202-2.15-.46c-.71-.298-1.51-.638-3.04-.638s-2.33.34-3.04.64c-.6.255-1.08.458-2.15.458s-1.54-.202-2.15-.46c-.71-.298-1.51-.638-3.04-.638-.63 0-1.14.51-1.14 1.143s.51 1.143 1.14 1.143c1.07 0 1.55.202 2.15.46.71.298 1.52.638 3.04.638s2.34-.34 3.05-.64c.61-.255 1.09-.458 2.16-.458s1.55.202 2.15.46c.71.298 1.51.638 3.04.638s2.33-.34 3.04-.64c.61-.255 1.09-.458 2.16-.458s1.55.202 2.15.46c.71.298 1.51.638 3.04.638s2.34-.34 3.05-.64c.6-.255 1.08-.458 2.15-.458 1.07 0 1.55.202 2.16.46.71.298 1.51.638 3.04.638s2.34-.34 3.05-.64c.61-.255 1.09-.458 2.16-.458.63 0 1.14-.51 1.14-1.143s-.52-1.143-1.15-1.143z"/>
</svg>
