<svg xmlns="http://www.w3.org/2000/svg" viewBox="0 0 100 100">
    <path d="M85.05 10.768c-.337-.31-.654-.6-.942-.872-1.782-1.67-4.578-1.58-6.25.202-1.67 1.78-1.578 4.58.203 6.25l1 .924c5.87 5.404 6.97 7.566 6.87 8.393 0 0-.03.057-.13.166-1.98 2.02-5.98-.77-7.15-1.67-.83-.63-2.26-2.06-3.77-3.57C69.37 15.11 62.53 8.3 55.66 8.3h-.06c-2.622.015-4.996 1.03-6.864 2.937-2.222 2.268-3.296 5.007-3.107 7.92.34 5.26 4.77 9.203 5.82 10.067C66.29 43.02 65.49 46.44 65.44 46.58c0 0-.03.063-.15.19-.182.185-.283.243-.28.248-.4.058-2.77-.12-11.73-8.208-8.86-8.007-14.86-8.104-18.33-6.777-3.22 1.23-5.37 4.125-5.75 7.74-.63 5.93 4.3 11.346 6.12 13.13-1.503 4.752-4.54 8.87-5.61 10.226-6.246-2.71-10.79-4.03-13.88-4.03-1.993 0-2.99.55-3.65.92-.14.07-.264.15-.384.19-2.556 1.03-3.456 5.13-3.55 5.59L5.6 78.91c-.008.07-.168 1.79 1.425 3.03 1.256.98 14.82 10.11 15.43 10.52 1.427.86 2.954 1.3 4.54 1.3 6.775 0 12.804-7.884 15.074-10.853l.42-.55c2.21-2.82 2.8-7.22 2.1-8.7-.7-1.477-3.49-2.14-4.05-2.26-.22-.05-.45 0-.64.122l-1.86 1.26c3.79-7.32 6.13-15.19 6.95-23.43.36-3.66-2.84-5.2-2.95-5.26-.06-.03-.64-.32-1.45-.32-.35 0-.79.06-1.24.24-.85-1.25-1.48-2.53-1.4-3.33.03-.26.1-.39.1-.4.44-.24 3.5-.13 9.27 5.07C52.49 50.02 59 55.9 65.03 55.9c2.28 0 4.5-.842 6.547-2.914 1.82-1.853 2.76-4.178 2.71-6.725-.12-5.64-5.19-12.7-16.94-23.62-.08-.07-.18-.15-.26-.22-1.07-.86-2.58-2.67-2.65-3.84-.01-.16-.03-.5.6-1.15.27-.27.42-.28.61-.28 3.2 0 9.79 6.57 12.96 9.72 1.79 1.79 3.35 3.34 4.64 4.33 6.92 5.3 14.13 5.62 18.83.86 1.8-1.83 2.72-4.11 2.66-6.58-.15-5.87-5.9-11.17-9.71-14.68zM40.47 45.465c.053-.005.102-.024.156-.024.405 0 .702.14.717.15.093.05 2.273 1.13 2.026 3.6-.92 9.16-3.75 17.84-8.42 25.8-.2.34-.14.76.15 1.03.28.27.71.3 1.03.08l4.41-2.98c1.11.29 2.35.84 2.55 1.27.39.85-.04 4.58-1.91 6.97l-.44.57c-2.14 2.79-7.8 10.2-13.76 10.2-1.28 0-2.52-.35-3.65-1.03C18.46 87.8 9 81.4 8.03 80.64c-.823-.64-.8-1.47-.805-1.47L9.86 66.14c.193-.947 1.075-3.79 2.55-4.387.174-.07.356-.17.56-.282.572-.31 1.283-.71 2.85-.71 2.907 0 7.547 1.39 13.792 4.14.332.15.724.06.962-.22.2-.23 4.135-4.87 6.126-10.7.4-1.17.73-2.39.926-3.64.477-3.04 1.484-4.74 2.84-4.87z"/>
</svg>
