<svg xmlns="http://www.w3.org/2000/svg" viewBox="0 0 100 100">
    <path d="M85.25 60.32c-.71-.843-1.833-1.26-3.64-1.352-2.28-.117-9.623-.69-13.93-1.03l-1.638-6.743c2.22-1.44 4.95-2.2 7.844-2.103.306.01.61-.118.818-.352.207-.233.298-.547.25-.854l-.537-3.423c-.076-.68-2.015-16.703-16.097-22.214-4.225-1.66-8.556-2.5-12.87-2.5-10.88 0-18.114 5.22-18.735 5.69-.87.57-12.378 8.47-11.852 26.41.043.62 1.13 15.33 7.625 19.44l1.265.8c6.315 4.03 14.966 9.56 24.664 9.56 4.94 0 9.2-2.08 11.69-5.7 1.22-1.78 1.945-3.83 2.16-5.94.587-.07 1.066-.19 1.382-.37.49-.28.88-.7 1.29-1.16.5-.55 1.1-1.2 2.02-1.72l2.62 10.81c.13.46 1.56 4.54 11.3 5.42.08.01.21.02.36.02.4 0 1-.09 1.57-.5.46-.34 1.04-1 1.18-2.25.06-.52.31-2.84.62-5.62.51-4.63 1.15-10.38 1.28-11.45.09-.8.13-1.98-.67-2.93zm-3.782 1.43c1.388.07 1.64.352 1.65.364 0 0 .11.14.03.8l-.052.45c-2.237-.045-7.25-.147-11.728-.248-.886-.02-1.678.036-2.398.144l-.6-2.473c4.375.344 10.912.85 13.098.963zm-21.99 2.86c.343.89.567 1.804.68 2.72-1.358-.032-3.115-.158-4.712-.333l-6.664-4.864 5.686-7.093.06-.08c.086-.127.188-.245.286-.365.05-.005.102-.006.153-.017 2.135-.46 3.32.2 3.68.46.236.47.49.902.752 1.302-.96 2.7-.95 5.586.08 8.27zm1.3-11.406c-.41-.428-1.198-.956-2.313-1.277 2.09-.996 4.084-1.423 4.134-1.433l.38-.086.1.434c-.8.717-1.51 1.52-2.12 2.408-.03.04-.05.082-.08.123-.04-.055-.07-.12-.12-.17zm1.92 1.23c.296-.43.62-.838.968-1.223l1.09 4.5h-.03c-.43-.24-1.55-.97-2.595-2.33.18-.31.36-.62.57-.93zM58.383 74.79c-2.124 3.09-5.664 4.793-9.967 4.793-9.088 0-17.44-5.335-23.54-9.23l-1.27-.81c-5.604-3.55-6.65-17.684-6.658-17.785-.497-16.976 10.818-24.504 10.93-24.577.023-.01.046-.03.068-.04.07-.05 7.093-5.28 17.502-5.28 4.054 0 8.127.79 12.11 2.35 12.89 5.04 14.762 20.35 14.787 20.54l.187 1.2c-1.054.1-4.494.47-10.52 1.84-.28.06-6.863 1.45-9.748 5.57l-5.48 6.84c-.736-1.81-2.515-3.1-4.592-3.1-2.733 0-4.956 2.22-4.956 4.96S39.46 67 42.192 67c2.005 0 3.732-1.2 4.51-2.917l7.4 5.4c.193.14.42.23.66.258 1.73.2 3.7.38 5.388.4-.213 1.66-.804 3.27-1.767 4.67zM45.06 62.024c0 1.58-1.287 2.866-2.867 2.866s-2.866-1.285-2.866-2.865c0-1.58 1.286-2.866 2.866-2.866s2.866 1.28 2.866 2.86zm17.815 4.62c-.2.22-.475.525-.527.564-.027.01-.065.017-.1.026-.126-1.137-.394-2.272-.818-3.375-.686-1.79-.804-3.69-.41-5.54 1.396 1.39 2.654 1.97 2.738 2.01.146.06.302.1.462.12l1.23.1.84 3.47c-1.734.77-2.745 1.88-3.415 2.62zm18.37 13.347c-.016.13-.038.22-.056.27h-.01c-7.37-.66-8.79-3.16-8.93-3.44l-2.62-10.84c.5-.06 1.05-.09 1.67-.08 4.31.1 9.13.2 11.48.25l-.92 8.25-.63 5.61z"/>
    <path d="M44.203 43.975c0-5.273-4.275-9.548-9.548-9.548s-9.548 4.275-9.548 9.548 4.275 9.548 9.548 9.548 9.548-4.275 9.548-9.548zm-14.73-1.883c0-.656.533-1.187 1.188-1.187.66 0 1.19.532 1.19 1.187s-.53 1.187-1.19 1.187c-.65 0-1.18-.54-1.18-1.19zm9.042 6.383c-.083.032-.168.048-.252.048-.278 0-.54-.168-.648-.442-.014-.03-.866-2.11-2.667-2.11-.014 0-.026 0-.04-.01-.014 0-.026.01-.04.01-1.95 0-3.013 2.16-3.024 2.18-.12.25-.37.4-.628.4-.1 0-.205-.02-.302-.07-.346-.16-.492-.58-.324-.93.058-.12 1.464-2.96 4.278-2.96.014 0 .026.01.04.01h.04c2.766 0 3.916 2.88 3.964 3 .14.36-.038.76-.397.9zm.22-5.196c-.657 0-1.188-.54-1.188-1.19s.532-1.19 1.187-1.19c.656 0 1.188.53 1.188 1.18s-.532 1.18-1.188 1.18z"/>
</svg>
