<svg xmlns="http://www.w3.org/2000/svg" viewBox="0 0 100 100">
    <path d="M91.286 26.904c-.53-1.7-2.28-2.25-2.403-2.286-5.627-1.378-9.73-.224-12.096.9-12.87-13.778-31.902-13.02-34.494-12.845-6.627-3.597-12.346-.08-12.59.074-.376.237-.525.712-.354 1.122.17.41.614.634 1.046.534.202-.047.342-.06.433-.06.096 0 .145.013.143.012.065.095.068.415.004.763C24.24 17.47 8.527 27.657 9.33 49.51c.51 13.887 3.63 21.89 6.163 26.166-.02.048-.05.088-.063.14-1.748 7.692-.214 12.526-.148 12.73.12.364.455.615.84.626h.026c.374 0 .71-.227.847-.577 4.803-12.212 16.69-14.914 16.81-14.94.312-.067.566-.293.67-.595.104-.302.042-.636-.164-.88-2.813-3.35-6.696-3.466-9.532-3.55-.49-.014-.945-.03-1.353-.058-.146-2.19-.295-10.423 4.92-17.257.952-1.25 2.084-2.245 3.334-3.04.025-.015.052-.026.077-.044 5.428-3.395 13.045-3.005 17.972-2.75l.532.027c1.36.07 2.067.22 2.424.34l-2.625 3.557c-.39.59-3.774 5.877-2.38 9.36.363.908 1.228 2.09 3.28 2.56 6.722 1.546 13.525-8.304 15.245-12.066.656-1.433.805-1.51 4.936-.262 1.264.382 2.836.858 4.796 1.364 2.647.685 4.56.508 5.846-.536 1.918-1.557 1.782-4.557 1.672-6.967-.028-.627-.056-1.223-.044-1.748.054-2.297-.38-3.797-.768-4.678 4.718-1.898 6.953-4.478 7.077-4.625 1.475-1.86 2-3.51 1.566-4.903zm-10.65 21.503c-.795.645-2.223.707-4.242.187-1.924-.497-3.476-.967-4.723-1.344-3.948-1.195-5.75-1.742-7.12 1.247-1.284 2.81-7.594 12.34-13.18 11.05-1.046-.24-1.698-.718-1.996-1.46-.885-2.207 1.295-6.293 2.182-7.642l2.59-3.51c.183-.163.347-.382.46-.632.426.155.842.347 1.132.577.167.132.366.196.564.196.27 0 .535-.12.715-.346.312-.395.245-.967-.15-1.28-1.234-.974-3.375-1.343-3.615-1.383-.056-.01-.108.005-.162.006-.677-.2-1.567-.328-2.734-.387l-.53-.027c-3.536-.184-8.852-.447-13.792.857 3.08-2.747 6.7-6.138 7.307-7.404.46-.962.357-1.904-.282-2.583-.967-1.027-3.03-1.217-4.906-.452-.673.274-1.704.982-3.01 1.88-2.023 1.388-6.234 4.282-7.46 3.685-.25-.122-.328-.57-.35-.925-.264-4.238.876-11.617 11.488-13.43 9.818-1.678 12.79 5.727 14.264 12.4.02.362.168 1.24 1.072 1.87 1.585 1.11 4.474.764 8.834-1.056 8.78-3.665 12.613-.897 13.16.044.04.07.09.136.15.194.304.297.927.615 1.697.54 1.012-.1 2-.846 2.944-2.19.29.626.7 1.89.652 3.975-.013.562.015 1.2.046 1.873.09 2 .203 4.49-1.002 5.47zm7.678-17.758c-.028.032-2.9 3.326-9.02 4.99-.486.132-.772.632-.64 1.118.016.06.048.108.074.16-.43.415-.735.52-.876.544-.12.017-.202-.002-.246-.015-1.167-1.674-5.794-4.602-15.32-.627-4.94 2.06-6.58 1.573-7.055 1.266-.304-.196-.328-.45-.33-.47.004-.08-.003-.16-.02-.237-1.515-6.904-4.856-15.854-16.37-13.89-12.462 2.13-13.24 11.437-12.997 15.34.095 1.518.798 2.17 1.372 2.45 2.02.984 5.26-1.057 9.29-3.823 1.117-.768 2.173-1.493 2.664-1.694 1.337-.545 2.56-.34 2.892.015.045.047.15.16-.034.547-.623 1.303-7.077 7.086-11.03 10.452-1.407.892-2.69 2.014-3.77 3.43-5.144 6.743-5.45 14.55-5.33 17.717-1.14-1.062-2.287-3.616-2.832-5.44-.145-.48-.654-.757-1.134-.61-.482.144-.756.65-.612 1.133.19.635 1.93 6.222 4.704 7.114.82.264 1.845.295 3.033.33 2.246.066 4.96.147 7.132 1.866-3.276 1.078-10.858 4.39-15.323 12.908-.168-1.762-.194-4.31.36-7.445 1.07 1.418 1.847 2.046 1.95 2.125.165.128.36.19.556.19.272 0 .542-.122.72-.354.31-.397.236-.97-.162-1.276-.08-.062-7.977-6.422-8.807-29.022-.784-21.25 14.785-30.842 20.85-32.745.273-.086.49-.296.586-.566.102-.29.54-1.674-.034-2.676 2.003-.66 5.386-1.16 9.085.94.165.094.355.132.54.115.198-.022 19.81-1.796 32.966 11.933-.414.278-.652.48-.694.516-.377.33-.415.902-.085 1.28.33.38.905.42 1.283.092.187-.162 4.674-3.933 12.75-1.956.01.003.908.308 1.147 1.073.242.77-.192 1.885-1.233 3.2z"/>
</svg>
