<svg xmlns="http://www.w3.org/2000/svg" viewBox="0 0 100 100">
    <circle cx="42.699" cy="13.219" r="1.303"/>
    <path d="M78.185 64.254c-6.807-20.58-27.924-26.418-31.428-27.252-1.628-4.62-5.387-6.356-8.426-7.758-1.37-.632-2.66-1.23-3.57-1.992-.73-.614-1.71-2.955-1.13-4.544.44-1.197 1.72-1.702 3.86-1.46.88.097 1.79.146 2.73.146 5.53 0 10.35-1.678 11.3-2.033.13.01.26.01.39.01 3.05 0 5.26-.79 6.56-2.37 1.59-1.91 1.17-4.23 1.16-4.33-.04-.24-.19-.44-.39-.57-.21-.12-.46-.15-.69-.08-1 .32-2.09.47-3.23.47-1.32 0-2.41-.22-2.97-.35-.59-1.63-3.07-6.53-11.64-6.53-9.53 0-13.6 5.9-14.12 6.71-.8.88-8.18 9.22-4.92 16.71 2.09 4.79 5.67 6.7 8.04 7.97 1.13.6 2.11 1.12 2.37 1.66-.47 2.26-3.49 18.51 5.33 28.6 3.22 3.69 7.57 6.26 12.22 8.05.45 1.19 1.85 5.23 1.39 8.16-2.15 1.06-4.46.5-4.5.49-.45-.12-.91.15-1.03.6-.12.45.15.92.6 1.04.03.01.25.07.61.12.17.24.38.61.37.92 0 .09-.03.19-.12.32-.25.05-.51.08-.77.08h-.07c-.47.01-.85.37-.86.83-.01.47.36.86.83.87h.1c3.43 0 5.9-3.09 6-3.22.05-.06.09-.13.12-.2 1.17-2.8.16-6.93-.59-9.25 2.82.94 5.7 1.62 8.46 2.1.58 2.95.91 6.59-.24 9.1-.79.39-3.54 1.59-6.4 1.2-.47-.06-.89.26-.96.72-.06.47.26.9.73.96.34.05.68.06 1.01.07.11.09.17.18.19.25.08.27-.02.62-.11.86l-.4.19-.02.01c-.3.14-.6.26-.87.37-.43.18-.64.67-.47 1.11.13.33.45.53.79.53.11 0 .21-.02.32-.06.18-.07.48-.2.85-.36 1.17-.08 1.69.28 1.91.56l-.17.22c-.29.37-.22.9.14 1.19.16.13.34.19.53.19.25 0 .5-.11.66-.32.11-.13 2.6-3.3 3.29-5.96.16-.21.28-.43.37-.65 0-.01.01-.01.01-.02 1.41-2.76 1.2-6.63.63-9.82 4.88.73 9.27.89 12.14.89 1.55 0 2.46-.05 2.46-.05.44-.02.78-.38.8-.82.13-4.57-2.43-10.32-3.92-13.27.99.27 1.9.4 2.72.4 1.02 0 1.54-.22 1.64-.26.4-.18.6-.63.46-1.04zm-29.512 21.95c-.023-.152-.06-.3-.103-.44.284-.015.58-.048.888-.096-.238.185-.498.365-.785.536zm7.47 4.152c-.01-.09-.032-.18-.05-.27.248-.03.493-.068.73-.11-.223.127-.45.255-.68.38zm1.255 1.834c-.134-.118-.286-.227-.457-.33.35-.182.69-.38 1.03-.584-.19.323-.38.63-.56.914zm14.527-29.318c-.34-.136-.722-.043-.958.23-.237.274-.275.668-.093.98.046.082 4.45 7.748 4.704 13.492-.392.01-.918.02-1.56.02-2.404 0-7.124-.137-12.508-1-.51-2.21-1.082-3.816-1.142-3.978-.16-.44-.645-.664-1.086-.506-.44.16-.667.647-.506 1.087.012.034.458 1.28.91 3.077-7.515-1.41-15.92-4.292-21.045-10.158-8.71-9.975-4.93-27.17-4.89-27.344.03-.128.03-.26 0-.387-.32-1.33-1.62-2.024-3.27-2.904-2.29-1.22-5.43-2.9-7.28-7.14-2.92-6.72 4.59-14.85 4.67-14.93.04-.04.08-.09.11-.14.15-.24 3.7-5.96 12.72-5.96 8.79 0 10.09 5.47 10.14 5.7.06.3.28.54.57.64.07.03 1.69.56 3.91.56.92 0 1.81-.09 2.66-.27-.06.59-.25 1.35-.82 2.02-1.03 1.23-2.94 1.82-5.74 1.74-.1-.01-.23.02-.33.06-.05.02-5.12 1.98-10.85 1.98-.87 0-1.72-.04-2.54-.13-3.96-.44-5.24 1.47-5.64 2.57-.84 2.32.43 5.41 1.65 6.42 1.09.91 2.48 1.56 3.96 2.24 3.13 1.45 6.36 2.94 7.67 7.19.1.3.34.52.65.58.23.05 22.87 4.67 30.31 25.3-.78.02-2.17-.11-4.32-.98z"/>
    <path d="M69.798 68.815c-.072 0-.146-.01-.22-.03C44.19 62.005 41.245 46.87 41.133 46.23c-.082-.46.226-.9.688-.982.47-.082.9.226.98.686.01.05.72 3.717 4.38 8.13 3.41 4.096 10.13 9.69 22.84 13.086.46.12.72.586.6 1.038-.1.38-.44.63-.82.63z"/>
</svg>
