<svg xmlns="http://www.w3.org/2000/svg" viewBox="0 0 100 100">
    <circle cx="84.747" cy="28.271" r="5.677"/>
    <path d="M86.747 37.235s-6.87-6.02-16.14-5.32c-2.567.193 1.476-4.68 2.327-5.97.902-1.368.29-2.728-.504-3.166-.815-.45-1.774-.707-2.82.282 0 0-6.863 7.867-5.326 10.973 1.537 3.106 6.89 1.456 7.456 2.837s-13.766 8.067-24.334 6.692-24.652-1.17-29.164 1.08c0 0-2.484 1.52-.703 4.194 1.803 2.71 14.48-1.284 17.1 1.28 2.284 2.233 5.706 15.38 19.145 20.12l.922 13.862s.395 2.108 2.952 2.05c2.67-.06 2.61-2.137 2.61-2.137l.154-12.283h.01s6.723-15.51 14.6-20.888c0 0 6.884-4.922 8.152 1.26 1.206 5.877-.61 13.72-.61 13.72s-.196 2.16 2.278 2.438c2.072.234 2.416-1.35 2.596-2.618.16-1.123 4.836-23.99-.703-28.41z"/>
    <path d="M15.84 58.906c-.158 0-.314-.045-.45-.135-.245-.16-.384-.442-.362-.736l.35-4.852-6.21-.723c-.308-.037-.57-.245-.674-.537-.104-.29-.033-.617.183-.84l4.258-4.38-3.028-5.44c-.142-.254-.137-.567.016-.817.15-.25.423-.413.718-.39l6.32.18.65-4.9c.06-.446.477-.76.915-.7.445.06.76.468.7.914l-.747 5.63c-.054.412-.4.74-.83.705l-5.623-.162 2.627 4.718c.176.315.124.706-.126.964l-3.53 3.632 5.346.623c.432.05.75.432.717.866l-.303 4.18 4.61-2.384c.294-.153.648-.11.9.1L25.317 57c.344.29.387.804.097 1.147-.29.344-.803.385-1.148.097l-2.635-2.226-5.417 2.802c-.117.06-.245.09-.373.09z"/>
</svg>
