<svg xmlns="http://www.w3.org/2000/svg" viewBox="0 0 100 100">
    <path d="M88.807 52.483c-.024-.042-.05-.082-.08-.12-1.505-2.02-3.12-2.443-4.21-2.443-1.57 0-2.66.86-2.81.982l-5.82 5.072 10.49-15.242c.326-.38 1.35-1.733 1.215-3.626-.113-1.596-1.004-3.068-2.646-4.375-1.232-.98-2.498-1.47-3.764-1.47-2.608 0-4.174 2.11-4.41 2.46l-.476.65c-.75-.46-1.503-.75-2.25-.87 1.607-3.7 1.977-4.88 2.1-5.43.798-3.51-1.302-5.71-2.575-6.42-.55-.36-1.11-.6-1.69-.75-.03-.38-.11-.78-.25-1.2-.55-1.57-1.85-2.8-3.86-3.66-.97-.42-1.92-.63-2.8-.63-3.66 0-4.96 3.4-5.13 3.86l-.38 1.01c-.97-.81-2.05-1.09-2.48-1.18.36-2.57.57-4.55.53-5.41-.17-3.74-2.88-5.37-4.35-5.73-.63-.2-1.26-.3-1.87-.3-4.3 0-5.78 4.87-5.84 5.07-.01.04-.02.08-.02.12L41.7 31.5c-.05-7.12-.12-14.68-.17-15.87-.196-4.173-3.007-5.66-5.573-5.66-.184 0-.33.01-.422.016-4.84-.1-6.27 3.97-6.35 6.077l-1.1 18.55c-1.24 1.11-1.95 2.58-2.02 4.29-.04.934.11 1.76.27 2.37l-5.54-6.67c-2.32-2.87-4.5-3.47-5.92-3.47s-2.33.574-2.492.69c-.03.02-.06.04-.084.065-2.82 2.31-2.92 4.93-2.51 6.72.38 1.674 1.27 2.88 1.49 3.164L13.5 45c.58 1.104 7.55 14.434 12.067 23.48l-1.49 5.56c-.117.43-.01.886.272 1.224.22.255 3.77 4.354 10.26 7.086 3.66 3.88 9.82 8.31 19.26 9.21.04.01.08.01.13.01.45 0 .88-.23 1.13-.61l2.48-3.835c6.72-1.87 20.5-18.39 22.31-20.59 7.15-7.1 8.38-8.42 8.68-8.794 1.51-1.87.85-4.16.23-5.22zm-16.58-28.51c.19.107 1.826 1.11 1.287 3.483-.103.45-.588 1.916-2.69 6.653l-.06.13c-.524.35-.92.76-1.146 1.08l-4.806 7.24 6.586-18.93.037-.09c.228.08.46.2.696.36.03.02.07.04.1.06zm-15.66-2.23c.35.097 1.11.37 1.555 1.02.082.12.142.257.198.397l-3.436 8.952c.602-3.53 1.207-7.203 1.682-10.368zM28.173 67.707c-4.687-9.416-12.28-23.915-12.357-24.06-.025-.05-.053-.096-.084-.14l-2.296-3.332c-.02-.03-.044-.062-.068-.09-.283-.343-2.64-3.404.528-6.082.11-.058.445-.207.94-.207 1.195 0 2.513.852 3.825 2.478l8.73 10.51c.22.267.54.438.88.478l.29.036c.37.043.74-.066 1.03-.305.29-.237.46-.583.48-.954l1.77-29.87c.17-3.35 2.95-3.52 3.51-3.52h.17c.07 0 .14-.01.2-.01.03 0 .11-.01.22-.01 1.82 0 2.79 1.04 2.88 3.08.1 2.21.26 28.66.26 28.93.01.69.53 1.26 1.22 1.33.69.06 1.32-.4 1.45-1.08l6.3-31.5c.13-.38 1.12-3.09 3.24-3.09.34 0 .71.06 1.09.19.03.01.08.02.11.03.23.05 2.22.62 2.33 3.24.14 2.97-3.57 23.91-5.01 31.72-.12.68.29 1.35.96 1.54.67.18 1.38-.17 1.63-.82l10.02-26.1c.03-.09.72-2.05 2.58-2.05.52 0 1.11.14 1.75.41 1.28.54 2.08 1.23 2.38 2.05.36.99-.11 1.94-.11 1.94-.03.06-.06.13-.08.19l-9.29 26.68c-.13.38-.09.81.13 1.16.22.35.58.58.98.63l.71.09c.51.06 1-.17 1.28-.6l9.13-13.76c.03-.03.58-.75 1.51-.75.59 0 1.26.27 1.98.82.19.21 1.02 1.2.57 2.22-.12.28-.98 1.94-6.26 11.14l-.06.12c-4.1 9.17-12.1 24.36-16.13 26.07-.36.15-.64.46-.75.84l-1.4 4.37c-1.55.23-3.1.35-4.61.35-11.03 0-18.04-6.24-19.85-8.07l1.43-5.32c.09-.32.06-.66-.09-.95zm58.303-11.702c-.23.284-1.644 1.78-8.54 8.624-.03.03-.062.06-.09.1-6.053 7.36-17.183 19.25-21.284 19.8-.39.05-.74.27-.953.6l-2.33 3.61c-5.2-.63-9.25-2.43-12.34-4.54 1.78.33 3.7.52 5.75.52 1.93 0 3.91-.18 5.88-.52.49-.09.9-.44 1.05-.92l1.44-4.59c1.44-.79 4.61-3.38 10.69-14.56 3.28-6.05 5.91-11.86 6.23-12.56 5.89-10.26 6.24-11.08 6.36-11.35.64-1.46.34-2.85-.2-3.9l.83-1.13c.01-.02.88-1.29 2.18-1.29.64 0 1.34.3 2.08.89 1.02.81 1.57 1.62 1.63 2.43.08.96-.57 1.7-.57 1.7-.05.05-.09.1-.13.16L68.96 61.2c-.23.34-.298.76-.18 1.15.12.39.404.71.782.865l.627.253c.47.19 1.01.1 1.39-.237l11.84-10.31s.46-.34 1.06-.34c.67 0 1.34.44 1.99 1.29.12.24.6 1.32-.04 2.11z"/>
</svg>
