<svg xmlns="http://www.w3.org/2000/svg" viewBox="0 0 100 100">
    <path d="M81.72 74.873c-2.035-2.44-8.846-10.418-11.064-10.66-1.41-.156-1.652-.836-1.654-.836-.013-.055-.03-.108-.055-.16l-3.69-7.83.95-.55c.302-.174.46-.52.39-.863-.067-.342-.344-.602-.69-.65-.908-.12-1.81-1.057-2.154-1.494l-.296-.77c-.043-.11-.11-.21-.197-.294l-7.38-7.063c1.86-2.39 3.442-4.664 4.246-6.294.63-.91 2.32-3.27 3.136-4.07l16.11-15.72c.178-.18.268-.42.242-.67-.09-.89-.755-2.58-2.675-2.58h-.01c-.21 0-.4.08-.55.22L51.87 38.07l-1.02.966-1.015-.96L25.32 14.602c-.147-.14-.342-.222-.547-.226h-.057c-1.864 0-2.53 1.68-2.62 2.578-.025.247.064.492.24.665l16.11 15.72c.933.91 2.858 3.66 3.137 4.06.908 1.84 2.747 4.36 4.288 6.34l-7.41 7.01c-.09.08-.15.18-.2.3l-.29.76c-.34.44-1.24 1.37-2.15 1.49-.34.04-.62.3-.69.65-.06.34.09.68.39.86l.95.55-3.69 7.83c-.02.05-.03.07-.05.13-.01.02-.25.71-1.66.86-2.22.24-9.03 8.22-11.03 10.63-.76.82-1.38 2.57.05 3.98.4.39 1.09 1.19 1.89 2.11 3.21 3.69 4.72 5.26 5.71 5.42.09.01.19.02.28.02 1.68 0 2.83-2.33 3.86-4.71.83-1.91 3.82-8.61 4.43-9.99.62-.36 2.11-1.33 2.7-2.62.31-.68.38-1.72.45-2.93.07-1.16.17-2.66.55-3.47.02-.03.03-.07.04-.1.06-.11.12-.2.19-.28.37-.39.71-.92 1.08-1.53.43.28.9.45 1.39.47h.12c1.44 0 2.59-1.08 2.72-1.21 1.15-1.15 1.67-2.31 1.54-3.45-.1-.86-.55-1.49-.94-1.89 1.18-1.05 2.93-2.87 4.82-5 1.4 1.58 3.36 3.74 4.78 5.01-.38.4-.83 1.02-.93 1.88-.13 1.14.39 2.3 1.54 3.46.13.12 1.28 1.2 2.72 1.2h.11c.5-.02.97-.19 1.39-.47.37.61.71 1.14 1.08 1.52.07.07.14.17.19.28.02.03.03.06.04.09.38.8.48 2.31.55 3.46.08 1.21.14 2.26.45 2.93.6 1.3 2.08 2.26 2.7 2.62.61 1.38 3.6 8.08 4.43 9.99 1.04 2.39 2.19 4.71 3.85 4.71.1 0 .19-.01.29-.02 1-.16 2.5-1.73 5.71-5.43.8-.93 1.49-1.72 1.89-2.12 1.43-1.42.81-3.16.08-3.96zM60.962 50.82l-.303.31c-1.08-1.01-3.5-3.296-6.11-5.758.1-.13.21-.257.31-.386l6.09 5.835zm-9.82-3.888l-1.568-1.606c3.2-3.028 6.417-6.08 7.632-7.266.443-.433.813-.638 1.103-.705-1.41 2.498-4.31 6.24-7.17 9.577zM53 39.26l24.247-23.22c.387.108.577.453.67.73l-15.79 15.41c-.805.783-2.153 2.628-2.878 3.648-.19-.067-.41-.117-.66-.126-.85-.03-1.68.373-2.52 1.194-2.38 2.32-12.48 11.84-15.02 14.237l-.3-.302L53 39.26zM23.798 16.77c.09-.275.28-.62.67-.73l24.25 23.222.954.9-.307.29c-1.645-1.562-3.016-2.87-3.72-3.557-.842-.82-1.702-1.232-2.52-1.194-.25.01-.47.06-.66.13-.725-1.02-2.073-2.86-2.876-3.65l-15.8-15.41zm19.61 20.592c.316.077.703.31 1.1.698.697.68 2.05 1.97 3.673 3.513l-1.11 1.054c-1.66-2.137-2.9-3.93-3.65-5.265zM37.76 66.04c-.058.915-.122 1.952-.306 2.354-.41.894-1.748 1.744-2.23 1.997-.16.09-.29.23-.365.39-.04.09-3.62 8.13-4.55 10.26-1.41 3.24-2.09 3.73-2.37 3.73l.01.01c-.73-.25-3.46-3.38-4.76-4.89-.83-.94-1.54-1.76-1.98-2.2-.76-.75-.19-1.51.03-1.75 3.92-4.71 8.86-9.9 9.99-10.08 1.98-.21 2.82-1.3 3.03-1.98l1.41-2.99c.26-.23 1.07-.84 1.88-.41.74.4.84 1.28.85 1.63-.48 1.07-.57 2.53-.66 3.96zm6.557-7.155c-.205.2-.937.775-1.625.74-.23-.01-.442-.094-.643-.247.21-.372.43-.747.66-1.117.21.18.54.34 1.02.34h.13c.36-.02.63-.33.61-.68-.02-.36-.33-.63-.69-.61-.07.01-.22.01-.27-.05-.03-.02-.04-.06-.06-.1.4-.54.84-1.03 1.31-1.41.21.19.55.55.6 1.06.08.77-.54 1.57-1.07 2.1zm-.132-4.745c-1.658 1.1-2.84 3.18-3.79 4.85-.272.478-.535.94-.784 1.336-.25-.492-.65-.973-1.28-1.31-.55-.3-1.11-.383-1.62-.337l1.54-3.28c.18-.39.04-.84-.33-1.05l-.18-.11c.91-.61 1.51-1.41 1.6-1.54.04-.06.08-.12.1-.19l.2-.51.81.83c.16.16.37.24.59.24.2 0 .4-.08.56-.22.07-.06 3.27-3.08 6.81-6.42l1.68 1.72c-2.57 2.92-4.93 5.33-5.89 5.97zm14.847 5.485c-.67.023-1.408-.525-1.623-.732-.54-.534-1.16-1.333-1.07-2.102.05-.5.39-.87.6-1.05.46.37.89.85 1.29 1.39-.06.09-.17.17-.35.18-.36.02-.64.32-.62.68.01.35.3.62.65.62h.03c.44-.02.77-.17 1.03-.38l.69 1.17c-.2.15-.41.24-.64.25zm2.293-.634c-.95-1.67-2.132-3.75-3.79-4.85-.898-.59-2.968-2.7-5.573-5.67.52-.6 1.042-1.21 1.56-1.83 3.478 3.29 6.608 6.23 6.608 6.23.155.15.356.22.556.22.212 0 .424-.08.583-.24l.81-.83.2.52c.02.07.05.13.1.19.09.13.69.93 1.6 1.54l-.19.11c-.37.21-.51.67-.33 1.05L65 58.69c-.52-.045-1.07.037-1.63.337-.63.34-1.028.82-1.28 1.314-.25-.39-.513-.85-.784-1.33zM80.5 77.67c-.44.436-1.15 1.255-1.974 2.2-1.308 1.51-4.03 4.644-4.73 4.885-.207.048-.892-.26-2.39-3.72-.924-2.13-4.508-10.173-4.545-10.254-.07-.16-.2-.3-.36-.39-.44-.23-1.81-1.1-2.23-1.99-.18-.4-.25-1.44-.3-2.35-.09-1.42-.18-2.88-.65-3.96.01-.34.11-1.23.85-1.63.81-.43 1.62.18 1.88.41l1.41 3c.21.68 1.05 1.76 3.03 1.98 1.13.19 6.07 5.38 10.02 10.12.14.15.79.94 0 1.73z"/>
</svg>
