<svg xmlns="http://www.w3.org/2000/svg" viewBox="0 0 100 100">
    <path d="M49.905 90.533c-1.368-.002-2.686-.067-3.98-.194-1.23-.12-2.128-1.217-2.008-2.447.12-1.23 1.22-2.134 2.445-2.01 1.15.113 2.325.17 3.49.173 1.078 0 2.11-.044 3.122-.13 1.235-.1 2.314.81 2.42 2.04.104 1.232-.81 2.315-2.04 2.42-1.14.098-2.298.146-3.45.146zm10.167-1.37c-.982 0-1.882-.65-2.156-1.642-.33-1.19.37-2.422 1.562-2.75 2.12-.585 4.2-1.372 6.18-2.34 1.108-.54 2.448-.083 2.992 1.028.543 1.11.083 2.45-1.028 2.993-2.227 1.09-4.567 1.976-6.954 2.634-.2.055-.4.08-.596.08zm-20.82-.136c-.207 0-.417-.03-.626-.09-2.378-.69-4.705-1.606-6.917-2.723-1.105-.557-1.547-1.903-.99-3.006.557-1.104 1.903-1.546 3.006-.988 1.966.993 4.034 1.808 6.146 2.42 1.187.346 1.87 1.587 1.525 2.773-.283.978-1.177 1.614-2.147 1.614zm33.387-6c-.686 0-1.36-.313-1.8-.904-.737-.992-.53-2.394.462-3.13 1.77-1.314 3.426-2.798 4.925-4.412.84-.903 2.257-.956 3.162-.113.904.84.956 2.257.115 3.162-1.685 1.812-3.547 3.48-5.534 4.957-.4.297-.87.44-1.332.44zm-45.87-.302c-.476 0-.95-.15-1.358-.46-1.967-1.5-3.807-3.192-5.47-5.03-.828-.915-.758-2.33.16-3.16.915-.828 2.33-.758 3.16.158 1.478 1.635 3.115 3.14 4.865 4.476.982.747 1.17 2.152.422 3.134-.44.576-1.108.88-1.78.88zm55.38-9.943c-.41 0-.823-.112-1.195-.348-1.044-.662-1.353-2.045-.69-3.088 1.18-1.863 2.192-3.842 3.008-5.88.458-1.148 1.762-1.705 2.908-1.248 1.148.46 1.707 1.76 1.248 2.908-.918 2.296-2.057 4.522-3.386 6.617-.426.672-1.15 1.04-1.892 1.04zm-64.76-.425c-.75 0-1.484-.378-1.907-1.064-1.3-2.11-2.41-4.353-3.298-6.663-.444-1.153.132-2.448 1.285-2.89 1.153-.445 2.45.13 2.892 1.284.79 2.053 1.776 4.045 2.932 5.92.648 1.053.32 2.43-.73 3.08-.368.225-.773.333-1.173.333zm69.954-12.554c-.144 0-.29-.014-.436-.043-1.213-.24-2.002-1.416-1.763-2.628.425-2.15.653-4.364.678-6.575.014-1.235 1.01-2.222 2.263-2.212 1.236.014 2.226 1.028 2.212 2.263-.03 2.485-.285 4.97-.763 7.39-.21 1.066-1.145 1.805-2.192 1.805zm-74.976-.495c-1.06 0-2-.755-2.2-1.834-.44-2.405-.664-4.874-.664-7.34 0-.336.004-.61.01-.887.027-1.235 1.05-2.244 2.285-2.188 1.235.025 2.215 1.05 2.19 2.284-.007.244-.01.49-.01.735 0 2.25.2 4.445.592 6.584.223 1.215-.58 2.382-1.796 2.605-.138.024-.274.037-.408.037zM87.5 45.823c-1.067 0-2.013-.768-2.2-1.857-.376-2.17-.955-4.315-1.724-6.377-.43-1.16.157-2.45 1.315-2.88 1.16-.433 2.448.16 2.88 1.315.864 2.32 1.516 4.735 1.94 7.177.21 1.218-.607 2.375-1.824 2.586-.13.022-.257.033-.384.033zM12.547 44.56c-.15 0-.304-.016-.458-.047-1.21-.252-1.986-1.436-1.735-2.646.504-2.425 1.24-4.816 2.182-7.107.47-1.142 1.777-1.69 2.92-1.217 1.143.47 1.688 1.78 1.218 2.92-.838 2.036-1.49 4.16-1.94 6.315-.22 1.056-1.15 1.782-2.187 1.782zm70.08-11.838c-.76 0-1.5-.386-1.92-1.084-1.133-1.885-2.45-3.677-3.913-5.327-.82-.923-.735-2.337.19-3.157.924-.82 2.338-.735 3.158.19 1.647 1.855 3.127 3.87 4.403 5.99.637 1.058.295 2.432-.764 3.07-.36.216-.76.32-1.153.32zm-64.763-1.09c-.417 0-.84-.115-1.216-.36-1.037-.672-1.332-2.057-.66-3.094 1.348-2.076 2.895-4.04 4.6-5.837.85-.895 2.266-.932 3.162-.082.895.85.932 2.267.082 3.163-1.516 1.6-2.893 3.347-4.09 5.194-.43.66-1.147 1.02-1.88 1.02zm55.483-9.374c-.48 0-.965-.154-1.374-.473-1.738-1.355-3.61-2.555-5.564-3.568-1.097-.57-1.525-1.92-.956-3.017.568-1.097 1.918-1.524 3.016-.956 2.197 1.14 4.3 2.49 6.255 4.012.975.76 1.15 2.166.39 3.14-.442.566-1.1.862-1.767.862zm-45.857-.772c-.694 0-1.376-.32-1.814-.92-.727-1-.505-2.4.494-3.127 2.006-1.46 4.155-2.738 6.39-3.8 1.115-.53 2.45-.058 2.98 1.06.532 1.114.058 2.45-1.057 2.98-1.986.945-3.897 2.082-5.68 3.38-.397.286-.858.425-1.314.425zm33.444-5.657c-.214 0-.43-.033-.646-.098-2.105-.634-4.284-1.076-6.476-1.314-1.23-.134-2.117-1.238-1.984-2.466.133-1.228 1.237-2.12 2.465-1.983 2.466.267 4.916.764 7.285 1.477 1.183.356 1.853 1.605 1.497 2.788-.293.968-1.18 1.593-2.142 1.593zm-20.823-.35c-.99 0-1.895-.665-2.16-1.668-.317-1.195.395-2.42 1.59-2.735 2.39-.632 4.855-1.045 7.33-1.23 1.226-.09 2.304.834 2.395 2.066.092 1.232-.833 2.306-2.065 2.397-2.2.165-4.392.532-6.516 1.094-.19.05-.383.075-.572.075z"/>
    <path d="M67.688 69.313h-.003l-35.48-.052c-1.235 0-2.236-1.003-2.234-2.24.004-1.234 1.005-2.233 2.24-2.233h.002l35.48.052c1.236 0 2.237 1.004 2.235 2.24 0 1.235-1.003 2.234-2.237 2.234z"/>
    <circle cx="63.622" cy="50.292" r="3.919"/>
    <circle cx="37.08" cy="50.528" r="3.919"/>
</svg>
