<svg xmlns="http://www.w3.org/2000/svg" viewBox="0 0 100 100">
    <path d="M72.64 80.986c-4.89 0-12.798-4.11-14.063-10.552-1.232-6.27-3.35-15.998-3.373-16.095l-.788-2.25c-.003 0-.4-.92-.352-2.04.048-1.09.52-2.58 2.503-3.47.106-.04.386-.13.798-.13.86 0 2.477.39 3.632 3.04l2.775 6.13 5.312-15.67c.03-.1.872-2.67 3.417-2.67.38 0 .78.06 1.19.18.3.05 1.44.32 2.14 1.35.52.75.66 1.7.41 2.82-.17.75-1.5 5.79-2.68 10.2l5.6-11.16c.09-.14 1.36-2.17 3.37-2.17.64 0 1.26.2 1.86.59.72.38 2.07 1.75 1.57 3.95-.29 1.29-2.75 6.68-4.89 11.26l5.55-7.53c.02-.03 1-1.51 2.71-1.51.78 0 1.56.31 2.33.92 1.02.81 1.58 1.72 1.65 2.71.08 1.17-.56 2.01-.75 2.23L85.2 61.81l4.54-3.954c.086-.072.75-.595 1.71-.595.67 0 1.66.27 2.592 1.51.428.72.83 2.12-.094 3.26-.11.14-.45.56-5.59 5.66-1.02 1.25-10.5 12.66-14.614 13.22-.343.04-.71.07-1.09.07zM57.366 47.922c-.167 0-.27.03-.272.03-.99.447-1.527 1.165-1.57 2.17-.035.778.246 1.43.248 1.437l.834 2.38c.046.18 2.168 9.92 3.403 16.21 1.1 5.63 8.33 9.37 12.63 9.37.31 0 .61-.02.89-.06 3-.41 10.93-9.34 13.73-12.75 4.47-4.45 5.38-5.41 5.53-5.6.51-.64.02-1.53.01-1.54-.42-.55-.89-.86-1.38-.86-.44 0-.77.25-.77.25l-7.59 6.62c-.21.18-.51.23-.76.12l-.4-.17c-.21-.08-.36-.26-.43-.47-.06-.21-.03-.44.1-.63l9.75-14.17c.02-.03.04-.06.07-.09 0 0 .45-.51.4-1.19-.05-.56-.42-1.12-1.1-1.66-.5-.4-.98-.6-1.42-.6-.91 0-1.51.87-1.52.88L77.66 61.33c-.22.307-.64.39-.968.196-.323-.195-.444-.603-.28-.943 2.11-4.36 7.666-16.075 8.07-17.85.38-1.684-.87-2.37-.885-2.38-.41-.276-.77-.396-1.11-.396-1.18 0-2.08 1.4-2.09 1.412l-8.748 17.5c-.17.33-.56.48-.91.35s-.55-.51-.45-.87c.04-.16 4.22-15.72 4.51-17.04.16-.71.1-1.27-.18-1.68-.41-.6-1.2-.74-1.21-.74l-.11-.03c-.28-.08-.55-.13-.8-.13-1.49 0-2.03 1.64-2.03 1.66l-5.84 17.28c-.07.19-.21.34-.39.43-.18.08-.39.09-.58.01l-.17-.07c-.17-.07-.32-.21-.39-.38l-3.44-7.58c-.83-1.89-1.8-2.18-2.3-2.18z"/>
    <path d="M26.866 80.98c-.44 0-.86-.03-1.254-.09-4.103-.63-13.384-12.207-14.428-13.525-5.004-5.14-5.333-5.563-5.44-5.702-.904-1.157-.477-2.552-.083-3.194.99-1.28 1.96-1.53 2.62-1.53.99 0 1.66.55 1.73.61l4.49 4.05-7.15-10.79c-.19-.23-.81-1.08-.71-2.25.09-.99.66-1.89 1.7-2.68.76-.58 1.53-.88 2.3-.88 1.74 0 2.72 1.52 2.76 1.59l5.39 7.59c-2.06-4.62-4.42-10.05-4.69-11.35-.46-2.22.91-3.56 1.7-3.96.53-.34 1.15-.53 1.76-.53 2.04 0 3.3 2.07 3.35 2.16l5.43 11.31c-1.1-4.44-2.34-9.51-2.5-10.26-.23-1.13-.08-2.07.46-2.82.72-1.01 1.87-1.26 2.17-1.31.39-.11.77-.16 1.13-.16 2.59 0 3.4 2.63 3.44 2.74l5.03 15.75 2.85-6.05c1.18-2.59 2.79-2.97 3.63-2.97.44 0 .74.1.8.12 3.07 1.43 2.7 4.3 2.09 5.62l-.83 2.25c0 .02-2.29 9.7-3.63 15.95-1.37 6.39-9.12 10.3-14.08 10.3zM6.862 59.298c.007 0-.462.835.032 1.47.146.186 1.04 1.167 5.385 5.636 2.59 3.28 10.53 12.582 13.55 13.045 4.12.63 12.38-3.03 13.68-9.08 1.34-6.27 3.64-15.97 3.66-16.06l.88-2.4c.13-.31 1.09-2.58-1.29-3.71 0 0-.1-.02-.25-.02-.5 0-1.47.27-2.31 2.12l-3.57 7.53c-.08.17-.22.3-.4.37l-.17.06c-.19.07-.4.06-.58-.03-.19-.09-.32-.25-.38-.44l-5.54-17.35c-.03-.08-.55-1.71-2.05-1.71-.24 0-.5.04-.77.11-.04.01-.07.02-.11.02-.01 0-.81.12-1.23.72-.29.4-.36.96-.21 1.66.27 1.32 4.17 16.96 4.21 17.12.09.36-.11.73-.46.86-.36.13-.75-.04-.91-.37L19.58 41.2c-.006 0-.88-1.396-2.066-1.396-.335 0-.683.116-1.037.34-.184.1-1.326.765-.986 2.395.37 1.78 5.72 13.59 7.75 17.98.16.34.03.75-.29.93-.33.18-.74.09-.96-.21L12.16 47.4c-.024-.04-.62-.94-1.543-.94-.434 0-.907.196-1.404.577-.7.536-1.08 1.09-1.128 1.65-.06.67.377 1.18.38 1.185.026.028.05.057.07.09l9.502 14.344c.122.185.154.415.087.625-.07.21-.23.38-.44.46l-.41.16c-.26.1-.55.05-.75-.13l-7.48-6.76c-.01 0-.34-.25-.77-.25-.48 0-.96.3-1.42.9z"/>
    <path d="M54.79 39.28c-.083 0-.166-.013-.247-.04-.397-.137-.61-.57-.474-.967l4.51-13.216c.13-.398.57-.608.96-.474.39.136.61.568.47.966L55.5 38.76c-.106.314-.4.513-.72.513z"/>
    <path d="M49.457 39c-.42 0-.76-.772-.76-1.192l-.044-21.606c0-.42.34-1.202.76-1.202s.76.563.76.982l.044 21.71c0 .42-.338 1.308-.76 1.308z"/>
    <path d="M59.308 40.706c-.165 0-.33-.053-.472-.164-.33-.26-.385-.74-.124-1.07l5.42-6.845c.26-.328.738-.385 1.07-.124.328.26.384.74.123 1.07l-5.42 6.845c-.15.19-.373.288-.597.288z"/>
    <path d="M43.43 39.28c-.316 0-.61-.198-.72-.515L38.19 25.55c-.135-.398.078-.83.475-.967.393-.134.83.076.966.474l4.52 13.216c.14.397-.07.83-.47.966-.08.02-.16.04-.24.04z"/>
    <path d="M38.91 40.706c-.224 0-.446-.1-.596-.288l-5.42-6.846c-.26-.33-.205-.808.124-1.07.33-.26.81-.202 1.07.125l5.42 6.846c.26.33.204.808-.125 1.07-.14.11-.307.163-.472.163z"/>
</svg>
