<svg xmlns="http://www.w3.org/2000/svg" viewBox="0 0 100 100">
    <path d="M71.744 25.16c-.15-.154-.357-.24-.573-.24H52.49V6.55c0-.266-.132-.515-.352-.665-.22-.15-.502-.18-.748-.08L48.673 6.89c-.305.122-.505.417-.505.745v17.283H28.552c-.214 0-.42.086-.57.238-.15.152-.235.358-.232.572l.58 63.08c.004.284.156.546.403.688.306.176 7.532 4.256 20.603 4.256.202 0 .406 0 .61-.003 13.938-.137 20.21-4.783 20.47-4.98.195-.148.312-.378.317-.623l1.24-62.41c.004-.216-.078-.425-.23-.578zM48.17 38.326l-1.656.97c-.382.223-.51.715-.287 1.097.15.255.418.397.693.397.138 0 .277-.036.405-.11l7.31-4.28c.383-.224.512-.716.288-1.098-.224-.383-.718-.51-1.098-.287l-1.335.78v-5.17h14.3l-.797 43.147c-.46.92-3.853 6.786-15.603 7.14-.14.004-13.936.175-17.2-5.948l-.227-44.34H48.17v7.702zM49.772 8.18l1.112-.444v28.838l-1.112.726V8.18zM69.136 87.7c-1.395.892-7.53 4.332-19.205 4.445-11.296.125-18.306-2.99-20-3.832l-.567-61.79H48.17v2.498H32.155c-.214 0-.418.087-.57.24-.15.15-.234.355-.233.57l.232 45.336c0 .122.03.242.083.352 3.314 6.706 16.203 7.002 18.446 7.002.164 0 .27-.003.313-.004 13.73-.412 16.975-7.934 17.106-8.254.038-.092.058-.19.06-.29l.814-44.134c.004-.215-.08-.423-.23-.577-.15-.152-.357-.24-.573-.24H52.49v-2.495h17.862L69.136 87.7z"/>
</svg>
