<svg xmlns="http://www.w3.org/2000/svg" viewBox="0 0 100 100">
    <path d="M47.516 21.89c-16.3 0-29.56 7.272-29.56 16.21 0 8.94 13.26 16.21 29.56 16.21s29.56-7.27 29.56-16.21c0-8.938-13.26-16.21-29.56-16.21zm.183 1.66c13.6 0 24.66 5.31 24.66 11.833 0 6.524-11.07 11.832-24.67 11.832s-24.66-5.308-24.66-11.832c0-6.523 11.07-11.833 24.67-11.833zm-.19 29.262c-15.48 0-28.06-6.6-28.06-14.71 0-2.56 1.25-4.97 3.46-7.068-.89 1.358-1.38 2.82-1.38 4.35 0 7.475 11.49 13.33 26.16 13.33s26.17-5.854 26.17-13.33c0-1.165-.28-2.29-.81-3.36 1.61 1.854 2.51 3.91 2.51 6.077 0 8.12-12.59 14.72-28.06 14.72z"/>
    <path d="M57.992 32.894c0-3.29-4.45-5.865-10.133-5.865-.76 0-1.5.04-2.21.13-.48-.72-1.67-1.72-3.35-1.05-.92.36-1.29.93-1.44 1.34-.17.45-.13.87-.06 1.19-1.91 1.06-3.09 2.55-3.09 4.24 0 3.29 4.45 5.86 10.13 5.86.77 0 1.52-.06 2.24-.15.46.49 1.6 1.55 2.97 1.55.25 0 .51-.04.77-.12.11-.04 1.13-.39 1.41-1.38.14-.5.06-1.04-.24-1.6 1.84-1.06 2.97-2.53 2.97-4.18zm-15.714-4.928c.083-.218.362-.367.582-.454.395-.157.712-.12.96-.014-.543.133-1.058.294-1.544.477.002-.003 0-.006.002-.01zm8.738 8.788c.344-.27.77-.722.91-1.388.16-.77-.105-1.563-.79-2.363-.487-.567-1.097-1.017-1.73-1.376 3.164.303 5.387 1.555 5.387 2.69 0 .93-1.496 1.936-3.777 2.437zm-1.02-2.775c.25.29.534.71.463 1.07-.06.29-.34.51-.48.6-.18.02-.35.03-.52.03-2.69 0-3.73-2.5-4.04-3.51l.33-.29c.83.17 3.07.73 4.23 2.09zm-1.626 3.08c-.14 0-.277.01-.42.01-3.915 0-6.84-1.46-6.84-2.76 0-.79 1.062-1.62 2.757-2.17.353 1.6 1.697 4.33 4.503 4.91zm5.023 1.55c-.477.15-.984-.07-1.408-.36.596-.15 1.16-.33 1.687-.54.125.22.186.4.15.53-.05.18-.32.33-.43.37zm2.86-4.75c-.405-2.21-3.838-3.82-8.302-3.82-4.66 0-8.19 1.76-8.32 4.12-.25-.41-.39-.84-.39-1.28 0-2.37 3.96-4.37 8.63-4.37 4.68 0 8.64 2 8.64 4.36 0 .33-.09.66-.24.98z"/>
    <path d="M94.355 55.326c-.084-.19-.243-.34-.44-.408L88.41 52.99V42.278c0-.024-.01-.044-.014-.067.002-.1.013-.2.013-.3 0-12.83-18.43-23.27-41.08-23.27S6.25 29.08 6.25 41.91c0 .08.01.158.01.24-.058.106-.1.223-.102.354l-.045 20.69c0 .062.006.123.02.182.057.23 1.455 5.675 7.484 11.156 5.17 4.702 14.84 10.25 31.936 10.91.093.04.195.066.303.066.546 0 1.06-.02 1.594-.03.51.01 1.003.03 1.526.03.11 0 .21-.025.304-.066 33.888-1.304 39.06-21.862 39.11-22.077.012-.056.02-.112.02-.17V61.13l3.794.695c.045.008.09.012.135.012.17 0 .33-.057.47-.165 2.53-2.025 2.12-5.035 1.54-6.344zM47.332 20.133c21.822 0 39.576 9.77 39.576 21.776S69.154 63.68 47.332 63.68 7.756 53.916 7.756 41.91c0-12.008 17.754-21.777 39.576-21.777zM86.908 63.1c-.18.665-1.652 5.564-6.938 10.398-5.096 4.663-14.88 10.18-32.61 10.48-33.14-.603-39.332-19.484-39.74-20.882l.034-15.175c4.69 9.93 20.698 17.27 39.68 17.27 18.85 0 34.763-7.23 39.576-17.06v5.66c-2.53 2.52-1.626 6.18-1.58 6.35.072.28.303.5.59.55l.99.18v2.24zm5.212-2.816l-5.425-.99c-.133-.968-.22-3.26 1.6-4.754l4.787 1.676c.217.716.59 2.617-.962 4.068z"/>
</svg>
