<svg xmlns="http://www.w3.org/2000/svg" viewBox="0 0 100 100">
    <path d="M31.226 14.605c-.002 0-.003-.003-.005-.004l-3.59-3.61c-.37-.37-.88-.57-1.41-.55-.53.03-1.02.27-1.36.67-.3.36-7.4 8.91-11 21.29-3.25 11.18-4.1 27.54 9.7 42.98.08.16.19.3.32.43l.09.09 1.13 1.13c.08.09.17.16.26.22 10.47 9.89 21.06 13.02 30.24 13.04 4.99.01 9.56-.89 13.47-2.13 12.25-3.87 20.47-11.57 20.82-11.9.37-.35.59-.83.59-1.34.01-.51-.19-1-.55-1.36l-58.7-58.95zm36.67 69.937c-14.814 4.69-28.437 1.14-40.51-10.554C16.39 62.378 13.04 48.783 17.43 33.572c2.487-8.62 6.893-15.404 9.048-18.387l57.14 57.402.017.018 2.15 2.16C83 77.04 76.45 81.835 67.898 84.542z"/>
    <path d="M78.47 73.86c-12.4 7.324-28.9 13.413-47.03-4.1-16.087-16.91-10.975-32.98-3.827-46.487.487-.92.136-2.063-.785-2.55-.92-.488-2.063-.137-2.55.784-3.316 6.265-6.763 13.837-7.197 22.498-.48 9.713 3.06 18.85 10.55 27.186.09.15.19.3.32.42l.09.09 1.07 1.07c.08.08.16.15.25.21 9.36 8.84 18.43 11.91 26.7 11.93 9.39.02 17.76-3.9 24.35-7.79.9-.53 1.19-1.69.66-2.58-.53-.89-1.68-1.19-2.58-.66z"/>
    <path d="M44.43 56.715c.367.37.85.555 1.332.556.483.01.966-.18 1.336-.55l6.478-6.44c.74-.73.74-1.93.006-2.67-.735-.74-1.93-.74-2.67 0l-6.477 6.45c-.74.74-.742 1.93-.006 2.67z"/>
    <path d="M54.444 63.134c.144.034.288.05.43.05.857.003 1.634-.583 1.84-1.453l1.867-7.92c.24-1.01-.38-2.03-1.4-2.27-1.01-.24-2.03.39-2.27 1.41l-1.87 7.92c-.24 1.02.39 2.03 1.41 2.27z"/>
    <path d="M39.892 48.137c.142 0 .286-.015.43-.05l7.93-1.83c1.016-.235 1.65-1.25 1.415-2.264-.235-1.015-1.246-1.648-2.263-1.414l-7.93 1.83c-1.015.23-1.648 1.25-1.414 2.26.2.87.975 1.46 1.832 1.46z"/>
</svg>
