<svg xmlns="http://www.w3.org/2000/svg" viewBox="0 0 100 100">
    <path d="M86.83 61.564S80.102 49.45 75.373 43.59c0 0-2.34-9.782-9.634-17.177L54.57 37.688 39.74 52.114l13.09-16.64 9.342-12.136c-4.898-3.568-11.435-5.852-20.085-4.747-26.434 3.38-27.965 27.57-27.965 27.57S9.256 79.36 40.85 93.05c0 0 16.242 6.97 30.143-4.943 0 0 9.966-6.786 8.227-22.947l7.61-3.588z"/>
    <path d="M65.74 26.414L79.367 12.66l1.954.99.96-1.663-8.81-6.847-1.42 1.907 1.62 1.36L62.18 23.34c1.3.947 2.49 1.982 3.568 3.074z"/>
</svg>
