<svg xmlns="http://www.w3.org/2000/svg" viewBox="0 0 100 100">
    <path d="M89.855 41.168l-.003-.01c-.004-.02-.012-.04-.017-.06-.014-.053-.028-.105-.05-.156-.01-.025-.023-.048-.034-.073-.02-.05-.04-.09-.06-.13-.01-.03-.03-.05-.05-.07-.02-.04-.05-.07-.08-.11l-.06-.06c-.03-.03-.06-.06-.1-.09l-.07-.05c-.04-.03-.07-.05-.11-.07l-.08-.04c-.04-.02-.09-.03-.14-.04l-.07-.02c-.07-.02-.15-.03-.23-.03H45.5c-.153 0-.304.03-.446.08L9.944 54.2l-.01.008c-.026.01-.05.026-.076.04-.042.02-.084.04-.123.066-.023.018-.044.036-.067.05-.037.03-.073.06-.106.09l-.06.064-.08.1c-.02.028-.04.054-.05.08-.03.037-.05.075-.07.113l-.036.09c-.017.05-.03.09-.04.13-.01.03-.018.06-.023.08-.01.06-.015.13-.02.19v11.99c0 .67.54 1.21 1.21 1.21h43.19c.153 0 .304-.03.446-.08l35.08-13.94c.46-.18.76-.62.76-1.12V41.39c0-.074-.01-.148-.02-.222zm-44.152 1.436H82.35l-29 11.52H16.706l28.998-11.52zM11.596 56.54h40.778v9.524H11.596V56.54zm43.195 8.952v-9.34l32.67-12.976v9.34L54.79 65.493z"/>
    <path d="M57.288 46.553c.624-.097 1.068-.658 1.02-1.288-.05-.63-.575-1.115-1.206-1.115H46.524c-.16 0-.316.03-.462.092l-14.607 6.044c-.533.22-.836.787-.724 1.353.12.56.61.97 1.19.97h19.24c.34 0 .66-.15.89-.4.23-.25.34-.59.32-.93-.03-.41-.17-3.95 4.93-4.74zm-7.292 3.64H38l8.764-3.626h5.027c-1.11 1.145-1.62 2.487-1.79 3.627z"/>
    <path d="M61.232 45.963h1.832l-7.165 3.23c-.61.274-.88.99-.61 1.6.2.446.64.71 1.1.71.16 0 .33-.034.49-.106l12.29-5.54c.52-.234.8-.8.68-1.356s-.61-.95-1.18-.95h-7.45c-.67 0-1.21.54-1.21 1.21 0 .67.54 1.21 1.21 1.21z"/>
    <path d="M22.885 57.877l-1.477 1.226-1.187-1.31c-.44-.493-1.21-.53-1.7-.082-.49.45-.53 1.22-.08 1.71l1.65 1.82v2.56c0 .67.55 1.21 1.21 1.21.67 0 1.21-.54 1.21-1.21v-2.46l1.93-1.6c.52-.42.59-1.19.16-1.7-.43-.51-1.19-.58-1.7-.16z"/>
    <path d="M44.195 63.62l-.667-4.585c-.075-.512-.467-.92-.977-1.015-.5-.094-1.02.146-1.27.6l-1.51 2.71-1.43-2.69c-.24-.455-.75-.706-1.26-.624-.51.082-.91.48-1 .99l-.79 4.583c-.11.65.33 1.28.99 1.39.66.11 1.29-.33 1.4-.99l.19-1.11.78 1.47c.22.41.64.64 1.07.64l.03-.01h.03c.43 0 .84-.22 1.06-.62l.83-1.48.16 1.06c.1.66.72 1.12 1.37 1.02.66-.1 1.12-.71 1.03-1.37z"/>
    <path d="M32.02 58.05c-.668 0-1.21.542-1.21 1.21v3.086s-.03.162-.137.268c-.142.143-.438.22-.832.22-.32 0-.67-.04-.69-.49V59.26c0-.668-.54-1.21-1.21-1.21s-1.21.542-1.21 1.21v3.076c0 .2.04 1.24.85 2.058.39.392 1.1.86 2.27.86 1.34 0 2.12-.507 2.55-.932.81-.807.85-1.79.85-1.98V59.26c0-.667-.54-1.21-1.21-1.21z"/>
    <path d="M83.073 48.5L58.4 58.084c-.623.242-.93.942-.69 1.564.187.478.644.77 1.128.77.146 0 .294-.026.437-.08l24.672-9.583c.623-.242.93-.942.69-1.564-.242-.62-.945-.93-1.564-.69z"/>
</svg>
