<svg xmlns="http://www.w3.org/2000/svg" viewBox="0 0 100 100">
    <path d="M56.21 65H45.225c-.434 0-.785-.566-.785-1s.35-1 .784-1H56.21c.435 0 .786.566.786 1s-.35 1-.785 1z"/>
    <path d="M88.604 48.22c-.206-4.328-3.778-3.778-3.778-3.778-4.91 1.167-1.614 6.834-1.614 6.834l5.392 7.864 4.773-7.36s3.675-5.29-.446-7.258c0 0-4.56-1.35-4.32 3.697z"/>
    <path d="M11.535 48.22c-.206-4.328-3.778-3.778-3.778-3.778-4.91 1.167-1.614 6.834-1.614 6.834l5.392 7.864 4.773-7.36s3.675-5.29-.446-7.258c0 0-4.568-1.35-4.327 3.697z"/>
    <path d="M75.81 58.257c.137-.06.23-.192.236-.34.208-4.317-.13-7.854-.547-10.402 2.94-2.43 1.46-9.706 1.38-10.075-.42-1.482-1.25-1.793-1.87-1.793-.4 0-.79.132-1.12.306-.42-1.85-.97-3.614-1.62-5.296 1.06-.48 1.54-.83 1.6-.877l.11-.13c1.98-3.793-.91-8.194-1.87-9.64-.1-.15-.18-.268-.23-.35-.16-.272-.5-.596-1.15-.596-.43 0-.88.148-1.19.28-4.5-9.37-18.5-9.98-19.12-10-12.9 0-20.55 8.694-21.89 10.353-.27-.148-.57-.228-.9-.228-.76 0-1.39.41-1.41.42l-.11.11c-4.31 6.39-1.28 12.1-1.25 12.16l.1.17.2.02c.79.1 1.58.19 2.36.29-.36 1.12-.69 2.26-.95 3.45-.38-.24-.88-.47-1.4-.47-.62 0-1.45.31-1.88 1.83-.06.31-1.26 6.16.58 9.14-1.38 5.36.57 12.73.68 13.12 2.1 7.72 2.24 13.36 2.24 13.41 0 .11.05.22.15.29.09.07.2.1.32.08.79-.15 1.33-.46 1.69-.78.4 3.19 2.32 6.72 3.96 9.25 1.31 2.02 4.02 5.62 4.75 5.62.13 0 .28-.08.35-.18.14-.21.04-.45 0-.54-.32-.78-.2-1.86-.01-2.72 1.92 6.56 10.57 9.14 10.96 9.26.04.01.08.01.11.01.1 0 .18-.03.26-.09.1-.09.15-.21.14-.34-.15-1.47.01-2.48.48-3.01.29-.33.7-.48 1.3-.48.11 0 .21 0 .31.01.15.01.21.07.24.12.2.3.08 1.07-.07 1.53-.04.13-.02.27.07.37.09.1.22.16.36.13 4.91-.71 8.37-2.03 10.27-3.93 1.3-1.3 1.86-2.83 2.1-3.99.26.66.54 1.31.63 1.53.08.18.28.28.46.22.19-.06.31-.24.28-.44-.25-1.69 1.56-3.56 3.65-5.73 2.64-2.74 5.93-6.16 6.46-10.71.6-5.25-.11-8.68-.71-10.49.12.09.27.12.41.06zm-32.536-32.95c11.19.007 23.446-1.14 23.587-1.154 2.57-.43 3.24-1.803 3.24-1.803.4-.898.08-1.825-.15-2.308.25-.097.56-.194.83-.194.31 0 .41.114.47.213.06.1.14.22.25.38.89 1.34 3.56 5.4 1.87 8.76-.15.11-.59.37-1.36.72l-.91.38c-3.14 1.22-9.8 2.98-22.06 2.98-6.03 0-12.81-.42-20.18-1.26l-1-.12c-.76-.09-1.53-.18-2.3-.28-.44-.96-2.32-5.74 1.25-11.1.2-.11.83-.32 1.33-.16-1 1.66.19 3.54.25 3.63l.09.13.15.04s5.6 1.16 14.7 1.16zm-13.947-5.292c1.63-1.962 8.967-9.89 21.117-9.89.142.005 14.053.605 18.427 9.553l.36.698c.18.38.42 1.055.15 1.658-.18.412-.59.745-1.2.987l-1.03.29c-.12.03-.24.05-.37.07-.12.01-12.34 1.15-23.49 1.15-4.15 0-7.63-.16-10.41-.46l-1.11-.13c-1.06-.14-2.01-.31-2.83-.5-.22-.4-.79-1.67-.08-2.75l.5-.65zm-5.01 17.697c.3-1.066.754-1.066.903-1.066.53 0 1.172.506 1.375.702l.658.634.18-.896c.297-1.492.69-2.925 1.14-4.31 7.464.853 14.323 1.286 20.428 1.286 12.42 0 19.13-1.75 22.36-3.016.71 1.838 1.3 3.774 1.72 5.818l.16.786.64-.492c.42-.325.84-.512 1.15-.512.15 0 .6 0 .9 1.033.41 1.92.9 6.56-.63 8.6-.39-2-.78-3.14-.81-3.24-.06-.18-.24-.29-.44-.26-.19.03-.33.2-.32.39.15 6.83-5.84 16.49-7.2 18.59-4.15-4.05-15.72-4.1-16.23-4.1-9.1 0-14.35 3.34-15.57 4.21-5.71-5.21-8.15-18.66-8.18-18.79-.02-.15-.13-.27-.27-.31-.14-.05-.29-.01-.39.1-.63.65-1.11 1.45-1.47 2.33-.82-2.3-.41-5.88-.07-7.52zm51.008 30.88c-.494 4.29-3.55 7.463-6.245 10.26-1.66 1.723-3.152 3.27-3.686 4.8-.302-.738-.57-1.42-.603-1.56 0-.21-.18-.435-.39-.435-.1 0-.2.073-.28.15-.07.077-.11.21-.1.317.01.12.1 2.963-2.05 5.12-1.7 1.703-4.81 2.917-9.24 3.612.09-.487.13-1.16-.17-1.61-.18-.283-.48-.446-.84-.472-.12-.008-.24-.014-.36-.014-.82 0-1.44.24-1.89.734-.56.625-.8 1.613-.72 3.01-2.09-.74-9.46-3.775-10.17-9.966-.02-.18-.16-.32-.34-.344-.01-.002-.03-.004-.05-.004-.16 0-.3.095-.36.245-.04.1-.82 2.054-.65 3.775-2.06-2.214-7.42-9.477-7.42-14.627 0-.198-.15-.363-.34-.387-.2-.023-.38.107-.43.3 0 .035-.2.783-1.32 1.147-.08-1.547-.47-6.608-2.24-13.116-.02-.09-1.85-7.007-.8-12.152l.31-1.18c.26-.792.6-1.52 1.05-2.14.1.465.24 1.126.39 1.96 0 0 .29 1.207.47 1.617 1.2 4.612 3.64 11.645 7.63 15.068.15.123.36.125.51.008.05-.043 5.38-4.244 15.34-4.244.13 0 12.43.05 15.99 4.195.08.09.2.15.32.13.12-.01.23-.07.31-.17 4.89-6.84 7.15-15.44 7.15-15.44.12-.54.22-1.07.3-1.59.09.39.18.85.27 1.33l.19 1.11c.36 2.31.64 5.38.52 9.04l-.63-.53c-.14-.12-.36-.12-.5 0s-.18.33-.08.5c.02.03 2.15 3.73 1.25 11.53z"/>
</svg>
