<svg xmlns="http://www.w3.org/2000/svg" viewBox="0 0 100 100">
    <path d="M50.22 42.258c-24.983 0-44.56 5.81-44.63 13.23l-.002.015v.033c-.067 2.326.843 4.484 2.71 6.414 5.937 6.142 21.61 9.808 41.92 9.808 32.908 0 44.632-8.384 44.632-16.23 0-7.44-19.604-13.27-44.63-13.27zm0 1.522c25.786 0 43.11 6.075 43.11 11.75 0 5.674-17.323 11.75-43.11 11.75S7.11 61.205 7.11 55.53s17.32-11.75 43.11-11.75zM9.66 61.156C16.66 65.71 32 68.8 50.22 68.8c17.824 0 32.892-2.958 40.09-7.35-6.02 5.426-20.648 8.787-40.09 8.787-19.31 0-34.77-3.472-40.56-9.08z"/>
    <path d="M50.217 65.525c-18.888 0-38.962-3.544-38.962-10.112S31.33 45.3 50.217 45.3 89.18 48.846 89.18 55.414s-20.076 10.11-38.964 10.11zm0-18.702c-22.064 0-37.44 4.527-37.44 8.59s15.376 8.59 37.44 8.59 37.44-4.527 37.44-8.59-15.376-8.59-37.44-8.59z"/>
    <path d="M55.67 63.147h-8.938c-.28 0-.507-.227-.507-.507s.227-.507.507-.507h8.94c.28 0 .506.227.506.507s-.226.507-.507.507z"/>
    <path d="M55.67 58.266h-8.938c-.28 0-.507-.227-.507-.507s.227-.51.507-.51h8.94c.28 0 .506.22.506.5s-.226.5-.507.5z"/>
    <path d="M55.354 53.51h-8.94c-.28 0-.506-.226-.506-.506s.227-.507.507-.507h8.94c.28 0 .506.227.506.507s-.22.507-.5.507z"/>
    <path d="M67.717 58.266h-8.94c-.28 0-.506-.227-.506-.507s.23-.51.51-.51h8.94c.28 0 .51.22.51.5s-.22.5-.5.5z"/>
    <path d="M67.4 53.51h-8.94c-.28 0-.506-.226-.506-.506s.227-.507.507-.507h8.94c.28 0 .51.227.51.507s-.22.507-.5.507z"/>
    <path d="M79.952 58.266h-8.94c-.28 0-.506-.227-.506-.507s.227-.51.507-.51h8.94c.28 0 .506.22.506.5s-.23.5-.51.5z"/>
    <path d="M79.635 53.51h-8.94c-.28 0-.506-.226-.506-.506s.22-.507.5-.507h8.94c.28 0 .5.227.5.507s-.23.507-.51.507z"/>
    <path d="M55.67 48.693h-8.938c-.28 0-.507-.227-.507-.507s.227-.507.507-.507h8.94c.28 0 .506.22.506.5s-.226.5-.507.5z"/>
    <path d="M48.95 60.675h-8.938c-.28 0-.507-.227-.507-.507s.227-.507.507-.507h8.94c.28 0 .506.23.506.51s-.226.51-.507.51z"/>
    <path d="M61.504 60.675h-8.94c-.28 0-.506-.227-.506-.507s.227-.507.507-.507h8.94c.28 0 .506.23.506.51s-.22.51-.5.51z"/>
    <path d="M48.95 55.984h-8.938c-.28 0-.507-.227-.507-.507s.227-.507.507-.507h8.94c.28 0 .506.227.506.507s-.226.507-.507.507z"/>
    <path d="M61.504 55.984h-8.94c-.28 0-.506-.227-.506-.507s.227-.507.507-.507h8.94c.28 0 .506.227.506.507s-.22.507-.5.507z"/>
    <path d="M48.95 51.03h-8.938c-.28 0-.507-.227-.507-.507s.227-.507.507-.507h8.94c.28 0 .506.227.506.507s-.226.507-.507.507z"/>
    <path d="M42.865 58.266h-8.94c-.28 0-.506-.227-.506-.507s.22-.51.5-.51h8.94c.28 0 .5.22.5.5s-.23.5-.51.5z"/>
    <path d="M42.548 53.51h-8.94c-.28 0-.506-.226-.506-.506s.227-.507.507-.507h8.93c.28 0 .5.227.5.507s-.23.507-.51.507z"/>
    <path d="M30.25 58.266h-8.94c-.28 0-.507-.227-.507-.507s.227-.51.507-.51h8.94c.28 0 .506.22.506.5s-.226.5-.507.5z"/>
    <path d="M29.932 53.51h-8.94c-.28 0-.506-.226-.506-.506s.227-.507.507-.507h8.94c.28 0 .506.227.506.507s-.23.507-.51.507z"/>
    <path d="M36.145 60.675h-8.94c-.28 0-.506-.227-.506-.507s.22-.507.5-.507h8.94c.28 0 .5.23.5.51s-.23.51-.51.51z"/>
    <path d="M36.145 55.984h-8.94c-.28 0-.506-.227-.506-.507s.22-.507.5-.507h8.94c.28 0 .5.227.5.507s-.23.507-.51.507z"/>
    <path d="M23.783 55.984h-8.94c-.28 0-.506-.227-.506-.507s.227-.507.507-.507h8.94c.28 0 .506.227.506.507s-.227.507-.507.507z"/>
    <path d="M36.145 51.03h-8.94c-.28 0-.506-.227-.506-.507s.22-.507.5-.507h8.94c.28 0 .5.227.5.507s-.23.507-.51.507z"/>
    <path d="M61.504 51.03h-8.94c-.28 0-.506-.227-.506-.507s.227-.507.507-.507h8.94c.28 0 .506.227.506.507s-.22.507-.5.507z"/>
    <path d="M73.17 60.675h-8.94c-.28 0-.507-.227-.507-.507s.227-.507.507-.507h8.94c.28 0 .506.23.506.51s-.227.51-.507.51z"/>
    <path d="M73.17 55.984h-8.94c-.28 0-.507-.227-.507-.507s.227-.507.507-.507h8.94c.28 0 .506.227.506.507s-.227.507-.507.507z"/>
    <path d="M84.802 55.984h-8.94c-.28 0-.506-.227-.506-.507s.227-.507.507-.507h8.94c.28 0 .506.227.506.507s-.23.507-.51.507z"/>
    <path d="M73.17 51.03h-8.94c-.28 0-.507-.227-.507-.507s.227-.507.507-.507h8.94c.28 0 .506.227.506.507s-.227.507-.507.507z"/>
</svg>
