<svg xmlns="http://www.w3.org/2000/svg" viewBox="0 0 100 100">
    <path d="M27.262 54.983l-6.498-3.614c-.522-.29-1.147-.34-1.7-.11-.556.22-.982.67-1.163 1.24l-1.67 5.29-4.34-2.59c-.94-.57-2.16-.26-2.73.68-.56.94-.25 2.16.69 2.73l6.5 3.88c.31.18.67.28 1.02.28.24 0 .48-.05.71-.13.57-.22 1.01-.68 1.19-1.26l1.7-5.36 4.37 2.43c.96.53 2.18.18 2.71-.78s.19-2.17-.77-2.71z"/>
    <path d="M23.642 27.953c.495.353 1.125.46 1.708.29l5.404-1.564.407 4.98c.09 1.04.96 1.82 1.98 1.82.06 0 .11 0 .17-.01 1.1-.09 1.91-1.05 1.82-2.15l-.6-7.41c-.05-.6-.36-1.14-.85-1.48-.49-.34-1.11-.44-1.68-.28l-5.33 1.55-.25-5.05c-.05-1.1-.98-1.94-2.08-1.89-1.09.06-1.94.99-1.88 2.09l.38 7.56c.03.6.34 1.16.83 1.52z"/>
    <path d="M12.407 44.083c.273.543.78.932 1.375 1.055.596.123 1.215-.033 1.68-.423l6.973-5.842 3.91 7.21c.36.664 1.042 1.04 1.747 1.042.322 0 .648-.077.95-.24.967-.525 1.325-1.732.8-2.698l-5.07-9.35c-.285-.525-.79-.894-1.376-1.006-.585-.11-1.192.05-1.65.43l-6.91 5.79-3.73-7.42c-.495-.98-1.69-1.38-2.67-.88-.983.5-1.38 1.69-.886 2.67l4.857 9.68z"/>
    <path d="M92.544 34.084C89.977 27.3 85.867 22.657 80.33 20.28c-9.314-3.996-19.253-.067-20.06.266l.006-2.808c.004-1.648-1.33-2.987-2.977-2.99-1.65-.004-2.99 1.33-3 2.977l-.01 4.658v.145c-12.46 2.094-22.13 15.76-22.17 32.29-.04 17.994 11.35 32.66 25.39 32.692 14.04.032 25.5-14.58 25.54-32.576.01-5.738-1.14-11.135-3.17-15.83.81.124 1.6.18 2.36.183 5.41.012 9.34-2.72 9.56-2.877.74-.524 1.03-1.48.71-2.326zM57.54 83.532c-11.85-.027-21.46-12.904-21.425-28.705.036-15.8 9.706-28.634 21.557-28.607 11.85.027 21.462 12.904 21.426 28.706-.037 15.8-9.707 28.633-21.557 28.606zm19.882-49.27c-.028-.01-.057-.016-.085-.027-1.12-1.756-2.384-3.356-3.763-4.78L80.47 31.4c.18.05.36.074.537.074.87.002 1.67-.57 1.918-1.45.298-1.057-.318-2.156-1.375-2.454l-15.875-4.474c3.374-.716 8.426-1.167 13.11.852 4.07 1.755 7.225 5.108 9.393 9.977-2.05.985-6.192 2.352-10.756.338z"/>
</svg>
