<svg xmlns="http://www.w3.org/2000/svg" viewBox="0 0 100 100">
    <path d="M58.306 81.39c1.95-1.53 3.813-3.226 5.552-5.082 5.14-5.485 8.695-11.75 10.606-18.024 4.654 5.82 11.346 6.957 11.682 7.01.107.017.213.025.32.025.84 0 1.61-.53 1.903-1.34 4.41-12.19.19-21.18-4.13-26.58-4.6-5.75-10.18-8.63-10.41-8.75-.27-.14-.56-.21-.84-.22l1.39-1.49c1.15-1.23 1.08-3.15-.14-4.3-1.23-1.15-3.15-1.09-4.3.14l-3.71 3.95c-.09.09-.16.2-.24.3-3.98-2.71-8.82-4.12-14.2-4.12-3.43 0-6.95.59-10.43 1.7.73-1.95 1.06-3.95 1.07-5.73.02-3.93-1.33-7.06-3.6-8.38-1.6-.93-3.47-.86-5.26.19-4.39 2.57-5.02 7.24-4.48 11.42-1.51-1.09-3.2-1.96-4.99-2.25-2.26-.37-4.44.22-6.28 1.71-2.64 2.14-3.27 5.13-1.64 7.81 1.33 2.18 4.12 3.94 7.47 4.71.39.09.78.16 1.18.22-.97.88-1.92 1.8-2.82 2.77C15.22 44.38 10.93 53.22 9.95 62c-1.004 9.01 1.56 16.89 7.228 22.2 4.39 4.11 10.23 6.283 16.896 6.283 7.98 0 16.45-3.18 23.73-8.74l.484-.38zm-22.39-66.723c.172-.1.39-.206.55-.206.048 0 .09.01.124.03.553.32 1.327 1.9 1.313 4.4-.013 2.48-.837 5.55-2.994 7.64-1.21-3.32-2.84-9.61 1-11.86zm-15.8 12.38c-.226-.37-.566-.93.616-1.883.675-.545 1.356-.808 2.107-.808.18 0 .37.016.56.047 2.5.406 5.21 3.134 6.96 5.294-4.75 1.1-9.16-.863-10.25-2.65zm-.15 54.21c-4.71-4.413-6.83-11.084-5.967-18.784.88-7.92 4.79-15.933 11.01-22.565 1.58-1.685 3.27-3.22 5.03-4.607-.78 2.83-1.04 6.03-.77 9.54.09 1.2 1.09 2.11 2.27 2.11h.18c1.25-.09 2.19-1.19 2.1-2.44-.34-4.31.33-7.34 1.03-9.25 6.85 6.39 25.59 25.99 19.31 44.18-6.29 4.48-13.4 7.03-20.08 7.03-5.62 0-10.5-1.79-14.13-5.19zm40.934-7.72c-.344.366-.698.718-1.05 1.07.864-8.84-2.364-18.638-9.548-28.755-4.31-6.07-9.044-10.885-12.012-13.663 2.327.26 5.22 1.41 6.57 5.24.33.93 1.21 1.52 2.15 1.52.252 0 .508-.04.76-.13 1.186-.42 1.81-1.72 1.39-2.91-1.41-3.99-3.994-6.21-6.753-7.34 3.147-1.03 6.325-1.58 9.413-1.58 5.617 0 10.5 1.79 14.125 5.19C75.84 41.45 73.575 60 60.9 73.53zm24.235-12.682c-2.447-.81-7.006-2.963-9.394-8.18.3-1.976.41-3.93.36-5.837l4.18 7.814c.37.683 1.07 1.072 1.79 1.072.32 0 .65-.077.96-.24.99-.527 1.36-1.755.83-2.742L73.33 33.06c1.79 1.13 5.055 3.477 7.84 6.987 4.894 6.18 6.23 13.172 3.97 20.808z"/>
</svg>
