<svg xmlns="http://www.w3.org/2000/svg" viewBox="0 0 100 100">
    <path d="M70.915 42.844c-4.158-4.434-9.635-7.183-15.602-7.886V25.17c0-1.265-1.025-2.29-2.29-2.29-1.265 0-2.29 1.025-2.29 2.29v1.324c-3.958-5.17-11.07-11.142-23.426-13.04-.713-.112-1.438.122-1.953.63-.515.506-.76 1.225-.664 1.94.028.206.73 5.097 4.498 10.34 2.482 3.455 6.697 7.567 13.615 10.202-9.19 3.632-15.726 12.42-16.063 22.94C26.29 73.59 37.38 85.41 51.46 85.86c.28.01.555.015.83.015 13.87 0 25.082-10.865 25.525-24.734.22-6.82-2.23-13.31-6.9-18.29zm-40.758-24.16c12.593 3.1 17.865 11.16 19.762 15.165-13.11-2.6-18.01-10.6-19.77-15.17zM73.24 60.996c-.364 11.384-9.565 20.3-20.947 20.3-.228 0-.455-.003-.684-.01-11.56-.37-20.66-10.073-20.29-21.63.36-11.385 9.56-20.302 20.94-20.302.23 0 .45.004.68.01 5.6.18 10.79 2.53 14.62 6.615 3.83 4.08 5.84 9.41 5.66 15.01z"/>
</svg>
