<svg xmlns="http://www.w3.org/2000/svg" viewBox="0 0 100 100">
    <path d="M76.11 37.514c.378.07.765.104 1.15.104 4.13 0 7.834-3.874 8.806-9.212 1.08-5.927-1.604-11.212-6.11-12.032-.377-.07-.764-.104-1.148-.104-4.132 0-7.836 3.874-8.807 9.212-.49 2.706-.19 5.413.84 7.622 1.12 2.396 3.04 4.003 5.28 4.41zm-2.35-11.348c.692-3.803 3.11-6.076 5.05-6.076.155 0 .31.014.464.042 2.317.422 3.707 3.897 3.035 7.59-.7 3.803-3.11 6.076-5.05 6.076-.16 0-.32-.014-.47-.042-1.37-.25-2.16-1.526-2.5-2.265-.69-1.47-.89-3.41-.54-5.32z"/>
    <path d="M69.19 12.592c-1.267-1.756-3.342-2.722-5.844-2.722-2.32 0-4.77.845-6.896 2.38-4.608 3.322-6.23 8.68-3.695 12.195 1.266 1.756 3.342 2.722 5.843 2.722 2.32 0 4.768-.844 6.895-2.38 4.608-3.322 6.23-8.68 3.696-12.195zm-5.93 9.1c-1.46 1.052-3.16 1.656-4.662 1.656-.72 0-2.032-.148-2.745-1.137-1.24-1.71.057-4.86 2.83-6.86 1.46-1.05 3.16-1.65 4.662-1.65.72 0 2.03.15 2.745 1.14 1.24 1.72-.056 4.87-2.83 6.87z"/>
    <path d="M64.496 32.368c-.022-.095-.054-.187-.09-.278-.015-.034-.024-.07-.04-.103-.056-.12-.124-.238-.207-.346l-.03-.03c-.08-.09-.16-.18-.25-.26-.04-.03-.08-.05-.12-.08-.06-.04-.11-.08-.17-.12-.02-.01-.04-.01-.06-.02-.02 0-.03-.02-.04-.02-.04-.01-.07-.02-.11-.04l-.24-.09-.15-.03-.26-.03h-.15c-.09.01-.18.01-.26.03-.05.01-.1.01-.14.02-.1.03-.2.06-.3.1-.02.01-.05.02-.07.03l-.03.02-.01.01c-.7.33-10.53 5.03-19.36 14.21-12 12.47-16.2 27.25-12.13 42.72.13.51.47.94.93 1.19.28.16.6.24.92.24.19 0 .39-.03.58-.09.41-.13 10.31-3.35 19.24-11.96 8.29-8 17.19-22.3 12.54-44.98-.01-.02-.02-.03-.02-.05zM49.42 74.544c-6.037 5.86-12.71 9.1-15.92 10.435-2.885-13.48 1.017-25.91 11.62-36.97 4.24-4.43 8.802-7.79 12.317-10.05L38.697 70.3c-.53.915-.22 2.084.694 2.61.31.177.64.26.96.26.66 0 1.3-.342 1.66-.953l19.61-33.84c1.72 14.48-2.37 26.627-12.19 36.16z"/>
    <path d="M51.74 26.578c.01-.02.015-.044.026-.065.04-.08.07-.16.097-.245.015-.045.032-.09.043-.134.024-.097.037-.196.045-.297.01-.033.02-.065.02-.1.01-.134 0-.27-.03-.405 0-.016-.01-.03-.01-.047-.02-.106-.05-.213-.09-.317l-.01-.028c0-.008 0-.017-.01-.025-.01-.035-.04-.063-.05-.096-.04-.09-.08-.17-.13-.24l-.09-.12c-.05-.07-.11-.13-.17-.19l-.12-.1c-.06-.05-.13-.1-.2-.14-.04-.03-.09-.06-.13-.08-.08-.04-.16-.07-.25-.1-.03-.01-.06-.03-.09-.04-.2-.06-5.1-1.33-11.72-1.33-10.52 0-24.53 3.17-31.55 18.26-.22.47-.24 1.02-.04 1.51.19.49.58.87 1.06 1.07.23.09 5.8 2.31 13.29 2.31 9.11 0 21.73-3.31 30.16-19.08zm-30.164 15.26h-.002c-4.2 0-7.77-.79-9.862-1.385 6.447-11.62 18.175-14.13 27.107-14.13 1.45 0 2.8.068 4.04.17L20.34 35.5c-.98.39-1.456 1.503-1.065 2.483.3.747 1.016 1.2 1.774 1.2.23 0 .47-.043.7-.136l23.57-9.425c-7.29 9.952-16.71 12.215-23.75 12.215z"/>
    <path d="M92.933 67.593c-.478-8.22-4.08-19.707-18.527-27.736-.023-.013-.048-.018-.072-.03-.07-.036-.145-.065-.22-.092-.052-.02-.103-.04-.157-.053-.084-.022-.17-.033-.258-.044-.05-.005-.09-.016-.14-.018-.13-.006-.27 0-.4.022-.03.004-.05.014-.07.02-.1.02-.2.04-.3.078l-.03.014-.03.007-.1.06c-.09.04-.17.08-.24.13-.05.03-.08.06-.12.09-.07.06-.13.11-.19.18l-.1.12c-.05.07-.1.13-.15.2l-.08.14c-.04.08-.07.16-.1.25-.01.03-.03.06-.04.1-.09.32-2.19 7.91-1.32 17.06 1.18 12.33 7.25 21.49 17.55 26.49.26.13.55.19.83.19.22 0 .45-.04.67-.12.49-.18.88-.56 1.08-1.04.12-.29 2.99-7.16 2.47-15.99zm-5.31 12.514C79.68 75.54 75.147 68.05 74.138 57.81c-.33-3.34-.216-6.486.04-9.08l8.637 22.67c.29.76 1.016 1.23 1.785 1.23.225 0 .455-.04.678-.125.986-.376 1.48-1.48 1.105-2.465l-9.04-23.732c7.26 5.47 11.22 12.632 11.767 21.368.334 5.317-.732 9.932-1.486 12.43z"/>
</svg>
