<svg xmlns="http://www.w3.org/2000/svg" viewBox="0 0 100 100">
    <circle cx="56.028" cy="41.781" r="1.557"/>
    <path d="M50.646 15.404c-19.954 0-36.188 16.234-36.188 36.188S30.692 87.78 50.646 87.78s36.188-16.234 36.188-36.188S70.6 15.404 50.646 15.404zM28.443 77.788c1.264-1.258 4.184-4.635 7.03-11.295l5.087-3.31 3.466 3.91c.32.36.865.412 1.245.114l4.89-3.82 4.57 3.802c.36.29.88.28 1.22-.04l4.13-3.94 5.09 4.37c.06.05.12.07.19.11 1.74 3.55 4.09 7.1 7.29 10.28-5.96 4.97-13.62 7.97-21.98 7.97-8.46 0-16.21-3.08-22.2-8.17zM44.816 37.5l-1.574-2.603 1.768.014h.007c.42 0 .784-.28.885-.69l.548-2.19 2.195 1.16c.44.23.985.07 1.225-.37l1.103-2.01 1.444 1.47c.326.34.852.37 1.217.08l1.433-1.13.173 4.01c-.896-.16-1.717-.2-2.345-.16-3.462 0-6.09 1-8.08 2.45zm8.138-.62c.058-.005 5.757-.317 7.478 4.398.126.345.45.58.816.598.028.002 2.294.128 3.6 1.465-1.306.15-3.03.5-3.815 1.38-.347.39-.515.85-.486 1.34-.03.88-.19 8.96 3.184 17.91l-3.1-2.66c-.35-.3-.88-.29-1.22.03l-4.14 3.94-4.5-3.75c-.33-.27-.8-.28-1.14-.01l-4.79 3.75-3.42-3.86c-.3-.33-.8-.4-1.18-.16l-3.59 2.34c1.5-4.06 2.9-9.11 3.95-15.32.01-.03.39-2.93 2.12-5.77 2.27-3.71 5.7-5.59 10.26-5.59zm21.044 39.89C61.804 64.738 62.364 46.26 62.37 46.07c.002-.04-.003-.064-.007-.104.184-.387 2.037-.874 4.063-.9.295-.003.57-.15.738-.39.168-.242.21-.55.11-.83-1.01-2.82-4.042-3.548-5.347-3.733-1.046-2.354-2.95-3.683-4.84-4.385l-.275-6.376c-.015-.343-.22-.647-.532-.79-.31-.142-.676-.1-.945.113l-2.19 1.73-1.73-1.764c-.203-.2-.493-.3-.776-.26-.29.04-.54.21-.68.47l-1.26 2.3-2.43-1.28c-.25-.13-.54-.13-.8-.02-.26.12-.45.34-.51.62l-.66 2.63-2.68-.02c-.32.01-.64.18-.8.46s-.16.64.01.93l2.57 4.25c-3.9 3.8-4.62 9.22-4.63 9.28-1.25 7.43-3.04 13.14-4.86 17.46-.06.09-.1.18-.12.28-2.81 6.56-5.67 9.81-6.72 10.86-4.35-4.11-7.63-9.33-9.38-15.21h14.63c.33 0 .6-.27.6-.6 0-.34-.27-.61-.61-.61H17.35c-.7-2.73-1.073-5.59-1.073-8.54 0-.42.02-.83.03-1.24h16.01c.34 0 .61-.27.61-.61 0-.33-.27-.61-.61-.61H16.38c1.27-17.81 16.148-31.91 34.268-31.91 18.155 0 33.057 14.16 34.273 32.01H66.74c-.336 0-.608.27-.608.61s.27.61.607.61h18.24c.01.38.03.76.03 1.14 0 2.95-.38 5.81-1.08 8.54H66.74c-.336 0-.608.27-.608.61 0 .34.272.61.608.61h16.85c-1.774 5.98-5.133 11.29-9.592 15.43z"/>
    <path d="M24.626 40.35l-1.447-.623c-.2-.083-.41.004-.5.195-.09.192 0 .41.19.492l1.47.636c.49.214.64.578.46.997-.18.42-.55.56-1.06.34l-1.46-.625c-.19-.084-.41.003-.49.194-.08.192 0 .41.19.492l1.47.633c.92.4 1.61.09 1.97-.75.36-.84.12-1.57-.82-1.98z"/>
    <path d="M27.52 37.556l-2.333-1.38c-.176-.104-.403-.046-.507.13-.103.174-.045.4.13.506l1.514.893-2.367.276c-.165.03-.295.07-.386.23l-.04.07c-.1.18-.04.41.14.52L26 40.17c.177.1.4.043.507-.13.103-.177.045-.404-.13-.51L24.8 38.6l2.455-.288c.165-.02.294-.068.385-.223l.012-.03c.108-.18.05-.41-.13-.51z"/>
    <path d="M26.244 34.74c-.17-.123-.4-.085-.52.083-.123.17-.086.4.083.522l2.198 1.59c.17.123.4.085.52-.083.123-.17.086-.4-.083-.523l-2.198-1.59z"/>
    <path d="M28.123 32.952l.467-.546c.124-.144.106-.363-.04-.487-.143-.13-.362-.11-.486.03l-1.42 1.66c-.123.14-.106.36.04.48.144.12.363.1.486-.04l.467-.55 1.803 1.54c.16.13.392.12.528-.04.135-.16.117-.39-.042-.53l-1.803-1.54z"/>
    <path d="M32.4 31.545L31.28 32.6l-.492-.52.944-.89c.134-.127.144-.336.017-.47-.13-.135-.34-.14-.48-.015l-.95.89-.48-.504 1.1-1.03c.13-.12.14-.33.01-.47-.13-.13-.34-.14-.48-.01l-1.37 1.29c-.16.15-.16.38-.02.53l1.82 1.94c.14.16.37.16.53.02l1.39-1.3c.13-.12.14-.33.01-.47-.13-.13-.34-.14-.47-.01z"/>
    <path d="M35.01 28.214c-.568-.77-1.598-.924-2.457-.29l-.765.565c-.167.12-.202.35-.078.52l1.578 2.13c.124.17.355.2.523.08l.77-.57c.86-.64 1.01-1.67.44-2.44v-.01zm-.835 1.905l-.464.34-1.21-1.65.47-.35c.49-.37 1.08-.27 1.44.21l.01.01c.36.48.27 1.06-.22 1.42z"/>
    <path d="M39.478 26.575c-.267-.53-.725-.577-1.42-.427-.593.13-.756.13-.857-.07v-.008c-.07-.148 0-.333.26-.46.21-.106.46-.138.74-.118.07.004.13-.005.2-.038.18-.087.25-.292.16-.466-.06-.13-.18-.184-.28-.19-.36-.036-.73.03-1.1.216-.62.312-.88.9-.6 1.452l.01.01c.31.603.79.573 1.48.422.58-.125.72-.09.81.078v.01c.09.178-.02.37-.29.507-.29.148-.6.17-.91.118-.06 0-.13 0-.22.04-.17.09-.25.29-.16.47.05.11.15.18.25.19.46.07.92-.01 1.32-.21.66-.33.95-.9.64-1.5v-.01z"/>
    <path d="M41.736 23.508c-.067-.178-.267-.27-.444-.202l-2.04.773c-.178.06-.268.26-.2.44.066.18.266.27.443.2l.67-.26.838 2.22c.074.19.286.29.482.22.195-.08.29-.29.217-.49l-.837-2.22.672-.26c.176-.07.266-.27.2-.45z"/>
    <path d="M45.773 25.096L43.95 22.8c-.126-.16-.294-.23-.49-.18l-.043.012c-.197.05-.314.198-.347.397l-.47 2.89c-.01.06-.015.11-.002.16.05.19.234.3.422.25.15-.04.25-.16.274-.32l.09-.61 1.444-.38.356.46c.105.13.244.2.412.16.192-.05.302-.25.252-.44-.01-.05-.038-.09-.075-.14zm-2.29-.38l.173-1.206.74.97-.912.237z"/>
    <path d="M47.792 21.84l-2.157.328c-.188.03-.317.207-.29.394.03.188.207.318.394.29l.71-.11.35 2.346c.03.206.22.345.42.313.2-.03.34-.22.31-.42l-.36-2.34.71-.1c.18-.03.31-.2.29-.39-.03-.18-.21-.32-.4-.29z"/>
    <path d="M51.352 24.366l-1.538.065-.03-.71 1.295-.05c.18 0 .32-.16.32-.34-.01-.18-.17-.33-.35-.32l-1.3.06-.03-.69 1.51-.06c.18-.01.32-.16.32-.34-.01-.18-.17-.33-.35-.32l-1.88.08c-.21.01-.37.18-.36.39l.11 2.66c.01.21.18.37.39.36l1.9-.08c.18 0 .33-.16.32-.34-.01-.18-.16-.32-.35-.32z"/>
    <path d="M55.758 21.87c-1.04-.14-1.9.544-2.028 1.503v.01c-.13.96.513 1.835 1.552 1.975 1.04.14 1.9-.545 2.028-1.504v-.01c.13-.96-.513-1.836-1.552-1.975zm.777 1.88v.01c-.08.578-.556.995-1.152.915-.596-.08-.956-.62-.878-1.197l.002-.01c.077-.58.554-.995 1.15-.916.596.08.955.62.878 1.198z"/>
    <path d="M60.708 22.984l-1.838-.49c-.202-.054-.403.063-.457.266l-.69 2.597c-.052.202.065.405.266.46.2.053.4-.065.45-.267l.25-.94 1.26.336c.18.05.36-.058.41-.242.05-.184-.06-.368-.24-.417l-1.27-.337.18-.7 1.47.393c.18.05.37-.06.42-.242.05-.18-.06-.36-.24-.41z"/>
    <path d="M64.72 24.46l-.04-.017c-.187-.085-.37-.045-.522.09l-2.192 1.948c-.045.04-.084.08-.107.13-.09.18-.01.38.16.46.14.07.29.04.41-.07l.45-.41 1.36.62-.02.59c-.01.17.06.31.22.39.18.09.39 0 .47-.18.02-.04.02-.09.02-.15l.03-2.93c0-.2-.09-.36-.27-.45zm-.45 2.033l-.856-.39.895-.828-.04 1.218z"/>
    <path d="M68.536 28.21l-.91 1.437c-.108.173-.06.405.113.514.17.12.4.06.51-.11l1.44-2.29c.11-.17.06-.4-.12-.51l-.07-.04c-.13-.08-.25-.08-.39-.02l-1.56.77.02-1.73c0-.13-.05-.26-.19-.34l-.07-.04c-.18-.11-.4-.06-.52.12l-1.45 2.3c-.11.18-.06.4.11.51.17.11.39.06.5-.11l.91-1.43.02 1.19c0 .14.04.26.16.33.11.08.23.07.36.01l1.09-.5z"/>
    <path d="M69.678 31.717c.7.586 1.466.57 2.13-.22l1.01-1.208c.136-.16.116-.4-.045-.53-.16-.14-.392-.12-.526.04l-1.03 1.23c-.348.41-.738.44-1.087.15-.35-.29-.377-.69-.02-1.12l1.015-1.21c.134-.16.115-.4-.045-.53s-.393-.12-.527.05l-1.028 1.23c-.645.76-.546 1.51.153 2.1z"/>
    <path d="M71.566 33.387c.143.152.376.16.53.018l.543-.508.4.436-.18 1.163c-.03.14-.01.277.11.402.12.13.34.166.49.023.08-.08.11-.16.12-.28l.1-.81c.4.19.83.16 1.22-.21.23-.22.36-.47.37-.74.01-.31-.13-.64-.43-.96l-.81-.86c-.14-.15-.38-.16-.53-.01l-1.96 1.83c-.15.14-.16.38-.02.53zm2.27-1.61l.51.544c.248.27.28.55.045.76v.01c-.21.2-.49.18-.74-.09l-.51-.55.72-.67z"/>
    <path d="M73.852 35.993c.13.163.36.19.526.062l2.136-1.676c.165-.13.194-.37.064-.53-.128-.17-.36-.19-.526-.06l-2.136 1.67c-.164.12-.193.36-.064.52z"/>
    <path d="M75.928 35.822c-.82.533-1.064 1.577-.52 2.415.296.456.626.67 1.017.78.086.025.195.023.293-.04.16-.103.203-.322.1-.48-.05-.074-.12-.12-.192-.143-.258-.086-.454-.208-.625-.473-.31-.48-.12-1.09.37-1.4h.01c.49-.32 1.12-.23 1.43.25.15.23.19.46.18.72 0 .07.01.14.06.23.11.17.34.23.51.11.11-.07.16-.18.17-.28.02-.35-.05-.71-.33-1.14-.57-.87-1.63-1.05-2.44-.52l-.01.01z"/>
    <path d="M76.645 39.467c-.175.086-.25.29-.165.463.068.14.202.215.36.208l.61-.03.653 1.346-.382.438c-.11.13-.15.28-.07.436.09.18.3.25.48.162.05-.02.08-.055.12-.1l1.9-2.236c.13-.154.17-.335.08-.52l-.02-.038c-.08-.184-.25-.27-.45-.264l-2.93.105c-.05 0-.11.007-.16.03zm2.737.534l-.805.92-.412-.85 1.217-.07z"/>
    <path d="M21.167 55.06v-.74c.13.034.268.093.404.165.06.03.12.044.17.044.19 0 .34-.15.34-.33 0-.15-.08-.24-.17-.29-.21-.12-.44-.2-.7-.24v-.07c0-.14-.11-.25-.25-.25s-.25.11-.25.25v.06c-.61.06-1.02.42-1.02.95 0 .58.35.84 1.05 1.03v.77c-.22-.05-.42-.14-.62-.27-.06-.04-.13-.07-.19-.07-.19 0-.34.14-.34.33 0 .13.07.23.17.29.29.17.61.29.96.34v.26c0 .14.11.25.25.25s.25-.12.25-.26v-.26c.62-.07 1.03-.42 1.03-.96s-.31-.85-1.05-1.05zm-.457-.126c-.268-.097-.336-.2-.336-.35 0-.156.102-.272.336-.306v.656zm.457 1.526v-.676c.263.093.346.2.346.36 0 .175-.117.282-.346.316z"/>
    <path d="M24.505 55.06v-.74c.13.034.267.093.403.165.053.03.112.044.17.044.185 0 .33-.15.33-.33 0-.15-.082-.24-.174-.29-.21-.12-.442-.2-.705-.24v-.07c0-.14-.12-.25-.26-.25s-.26.11-.26.25v.06c-.61.06-1.02.42-1.02.95 0 .58.34.84 1.04 1.03v.77c-.23-.05-.42-.14-.62-.27-.06-.04-.13-.07-.19-.07-.19 0-.34.14-.34.33 0 .13.06.23.16.29.28.17.61.29.96.34v.26c0 .14.11.25.25.25s.25-.12.25-.26v-.26c.61-.07 1.03-.42 1.03-.96s-.32-.85-1.06-1.05zm-.457-.126c-.267-.097-.336-.2-.336-.35 0-.156.102-.272.336-.306v.656zm.457 1.526v-.676c.263.093.345.2.345.36 0 .175-.116.282-.345.316z"/>
    <path d="M27.843 55.06v-.74c.13.034.267.093.403.165.053.03.112.044.17.044.185 0 .33-.15.33-.33 0-.15-.082-.24-.174-.29-.21-.12-.442-.2-.705-.24v-.07c0-.14-.112-.25-.253-.25s-.253.11-.253.25v.06c-.61.06-1.02.42-1.02.95 0 .58.35.84 1.05 1.03v.77c-.22-.05-.42-.14-.62-.27-.06-.04-.12-.07-.19-.07-.19 0-.33.14-.33.33 0 .13.07.23.17.29.29.17.62.29.96.34v.26c0 .14.12.25.26.25s.26-.12.26-.26v-.26c.61-.07 1.03-.42 1.03-.96s-.31-.85-1.05-1.05zm-.457-.126c-.267-.097-.336-.2-.336-.35 0-.156.102-.272.336-.306v.656zm.457 1.526v-.676c.263.093.345.2.345.36 0 .175-.116.282-.345.316z"/>
    <path d="M70.922 55.55l-.968.793c-.127.102-.195.228-.195.374 0 .224.17.355.4.355h1.85c.18 0 .32-.14.32-.32 0-.182-.15-.327-.33-.327h-1.18l.55-.428c.6-.467.89-.748.89-1.317v-.01c0-.637-.47-1.05-1.17-1.05-.52 0-.84.184-1.11.5-.05.063-.09.15-.09.233 0 .19.15.34.34.34.11 0 .2-.053.25-.107.19-.204.34-.296.55-.296.27 0 .46.156.46.442 0 .284-.17.474-.59.82z"/>
    <path d="M74.352 57.13c.91 0 1.517-.772 1.517-1.76v-.01c0-.986-.61-1.75-1.51-1.75-.91 0-1.52.773-1.52 1.76v.01c0 .988.59 1.75 1.5 1.75zm-.74-1.77c0-.62.292-1.074.74-1.074.447 0 .748.467.748 1.085v.01c0 .62-.286 1.08-.74 1.08s-.747-.46-.747-1.08v-.01z"/>
    <path d="M76.58 54.467c.04 0 .094-.01.133-.02l.263-.068v2.35c0 .2.165.37.37.37.203 0 .368-.17.368-.37v-2.74c0-.21-.165-.37-.37-.37h-.01c-.1 0-.208.02-.35.06l-.48.14c-.15.04-.248.17-.248.32 0 .17.15.32.325.32z"/>
    <path d="M78.698 56.34h1.4v.408c0 .2.157.355.356.355.2 0 .36-.156.36-.355v-.41h.18c.17 0 .305-.13.305-.3s-.14-.307-.31-.307h-.18v-1.76c0-.2-.16-.35-.36-.35-.22 0-.33.09-.47.26L78.5 55.6c-.12.13-.18.253-.18.41 0 .198.162.344.362.344zm1.4-1.67v1.06h-.904l.904-1.06z"/>
</svg>
