<svg xmlns="http://www.w3.org/2000/svg" viewBox="0 0 100 100">
    <path d="M54.002 37.726c2.145.23 7.484.35 9.68.39h.03c.43 0 .832-.167 1.135-.47.302-.304.47-.707.47-1.137v-1.88c0-.21-.09-.4-.243-.53-.165-.14-4.08-3.46-6.88-3.89-2.587-.4-4.234-.68-4.243-.68-.04-.01-.43-.1-.92-.1-1.56 0-2.5.88-2.5 2.37 0 2.23.06 3.37.06 3.43.01.08.2 2.12 3.43 2.46zm-.98-6.902c.335 0 .603.063.65.072 0 0 1.67.288 4.315.69 2.057.313 5.083 2.665 5.953 3.372v1.55c0 .085-.042.14-.067.165-.03.03-.083.067-.16.067v.688l-.005-.688c-2.178-.04-7.468-.16-9.56-.382-2.03-.216-2.193-1.182-2.196-1.185 0-.01-.056-1.16-.056-3.35 0-.52.136-1 1.127-1z"/>
    <path d="M45.67 47.595h.01c.19-.005.338-.163.334-.354-.112-4.2.395-8.68.4-8.72.022-.19-.114-.36-.303-.38-.17-.02-.36.12-.38.3 0 .05-.51 4.57-.4 8.83.01.19.16.34.35.34z"/>
    <path d="M47.3 46.39l16.517.344h.007c.187 0 .34-.15.344-.337.004-.19-.147-.347-.337-.35L47.32 45.7h-.007c-.187 0-.34.15-.344.337-.01.19.14.346.33.35z"/>
    <path d="M15.554 43.953l-5.133-.585c-.18-.018-.36.114-.38.303-.02.19.12.36.31.39l5.14.59h.04c.17 0 .32-.13.34-.3.02-.19-.11-.36-.3-.38z"/>
    <path d="M38.698 46.16l5.162.115h.007c.187 0 .34-.15.344-.337.01-.19-.14-.347-.33-.352l-5.16-.115c-.17.01-.34.15-.35.34 0 .19.15.35.34.35z"/>
    <path d="M75.895 55.478c-3.89 0-7.056 3.166-7.056 7.056S72 69.59 75.89 69.59s7.056-3.162 7.056-7.053c0-3.89-3.165-7.056-7.056-7.056zm.027 13.03c-3.314 0-6-2.688-6-6.002 0-3.314 2.686-6 6-6s6 2.686 6 6c0 3.315-2.686 6-6 6z"/>
    <path d="M90.375 63.672c-.205-.477-.416-.97-.432-1.477-.015-.497.163-.995.336-1.477.19-.535.37-1.04.27-1.47-.1-.407-.47-.773-.87-1.16-.38-.367-.77-.745-.98-1.217-.22-.47-.24-1.01-.27-1.53-.03-.55-.06-1.08-.3-1.42-.26-.36-.76-.56-1.29-.77-.48-.19-.97-.38-1.33-.72-.37-.34-.6-.83-.83-1.3-.24-.5-.47-.98-.83-1.21-.29-.18-.67-.21-1.16-.21l-.62.01c-.4 0-.82-.02-1.21-.16-.47-.18-.87-.53-1.25-.88-.42-.38-.81-.73-1.24-.81-.19-.03-.38 0-.58.05l.02-1.41h6.5c.26.48.38.81.38.82.06.17.18.32.35.4.45.22.92.34 1.38.34 1.29 0 2.1-.86 2.19-.95.76-.83.87-2.05.31-3.34-.1-.22-.19-.4-.29-.53.02-.38.04-1.09.04-2.15 0-1.9-1.11-2.88-1.16-2.93-.04-.04-.09-.07-.14-.09-5.76-2.93-12.81-3.24-15.57-3.24-.3 0-.53.01-.68.01-.98-.6-5.92-3.63-8.65-5.75-3.28-2.55-11.24-3.29-13.77-3.36-.04 0-.08 0-.11.01-.1.02-2.26.36-2.26 4.01 0 1.72-.88 4.74-1.24 5.94-4.49-.27-33.49-1.98-35.01-1.98-.27 0-.67.08-1.04.47-1.37 1.4-1.41 6.33-1.37 8.38.06 2.82 1.52 4.31 1.58 4.37.1.1.23.17.38.19l5.68.92c.28.05.55-.08.7-.32.19-.32.48-.74.85-1.19h7.9l-.02 1.81c-.54-.19-1.05-.36-1.45-.27-.41.1-.78.47-1.16.87-.37.38-.75.76-1.22.98-.48.22-1.02.24-1.54.27-.56.03-1.08.05-1.42.3-.36.26-.56.76-.77 1.29-.19.48-.39.97-.73 1.33-.35.37-.84.6-1.3.82-.51.24-.99.47-1.22.83-.23.37-.22.9-.22 1.47 0 .52.01 1.05-.17 1.52s-.54.87-.89 1.25c-.38.42-.74.81-.81 1.24-.07.42.14.91.36 1.43.21.48.42.97.44 1.48.02.5-.16 1-.33 1.48-.2.54-.38 1.04-.28 1.47.09.41.47.78.87 1.16.38.37.76.75.98 1.22.22.47.24 1.01.27 1.53.03.56.05 1.08.3 1.42.26.36.75.56 1.28.77.47.19.97.39 1.33.73.37.35.6.84.82 1.3.24.51.47.99.83 1.22.29.18.67.21 1.16.21l.62-.01c.4 0 .82.02 1.2.17.47.18.86.54 1.25.89.41.38.81.74 1.24.81.44.07.91-.14 1.42-.36.47-.2.97-.42 1.47-.43.53 0 1.01.17 1.47.34.54.2 1.06.37 1.47.28.41-.09.77-.47 1.16-.87.37-.37.74-.76 1.22-.98s1.01-.24 1.53-.27c.56-.03 1.08-.05 1.42-.29.36-.26.56-.75.77-1.28.19-.48.39-.97.73-1.33.35-.37.83-.6 1.3-.82.51-.24.99-.47 1.21-.83.23-.37.23-.9.22-1.47-.01-.51-.02-1.05.16-1.52s.53-.86.88-1.24c.38-.42.74-.81.81-1.24.07-.42-.14-.91-.36-1.43-.21-.47-.42-.97-.43-1.47-.02-.49.16-.99.33-1.47.19-.54.38-1.04.28-1.47-.02-.09-.06-.17-.1-.25l5.09-1.89h8.35l7.22 1.87c-.36.4-.69.78-.76 1.19-.07.42.14.91.36 1.43.2.48.41.97.43 1.48.01.5-.16 1-.34 1.48-.19.54-.37 1.04-.27 1.47.09.41.47.78.87 1.16.37.37.76.75.98 1.22.21.47.24 1.02.26 1.54.03.56.05 1.08.3 1.42.26.36.75.56 1.28.77.47.19.96.38 1.33.73.37.35.6.84.82 1.3.24.51.46.99.83 1.22.29.18.67.22 1.15.22l.62-.01c.4 0 .82.02 1.2.16.47.17.87.53 1.25.88.42.38.81.74 1.24.81.44.07.91-.14 1.43-.36.48-.21.97-.42 1.48-.43.54 0 1.01.17 1.48.33.54.2 1.06.37 1.47.28.41-.1.77-.47 1.16-.87.37-.38.75-.77 1.22-.98.47-.21 1.01-.24 1.54-.26.55-.02 1.08-.05 1.42-.29.36-.26.55-.76.77-1.29.18-.48.38-.97.72-1.33.35-.37.83-.6 1.3-.82.51-.24.99-.47 1.21-.83.23-.37.22-.9.21-1.47-.008-.52-.016-1.05.162-1.52s.53-.87.88-1.25c.38-.42.74-.81.81-1.24.064-.41-.145-.9-.366-1.42zM76.453 48.414c-.31.117-.628.21-.95.22h-.006c-.147 0-.288-.015-.427-.037.03-.077.052-.16.053-.247l.026-1.873h1.31l-.03 1.883c0 .02.01.035.01.054zm-3.898-.39c-.407.095-.774.47-1.16.87-.366.376-.744.764-1.215.977-.472.22-1.013.24-1.537.27-.234.01-.46.03-.67.06l-2.455-1.41c.536-.87 1.094-1.63 1.666-2.3h6.59l-.024 1.73c-.44-.15-.857-.26-1.195-.18zM34.94 50.152c-.082-.095-.17-.18-.27-.24-.288-.18-.67-.217-1.16-.217l-.62.005c-.4 0-.82-.02-1.205-.165-.47-.178-.866-.537-1.25-.884-.416-.37-.81-.73-1.238-.8-.104-.01-.21-.01-.32 0l.02-1.36h7.12c.76.76 1.34 1.49 1.736 2.06l-2.813 1.62zM26.32 42.5c.41 0 .83.015 1.253.045l-.035 2.555H26.22l.036-2.6h.065zm2.627.215c2.24.4 4.052 1.33 5.472 2.385h-5.51l.03-2.385zm16.798 7.495v4.776l-4.79-4.76 4.79-.016zm1.377-.005l6.84-.023v5.556h-6.84v-5.533zm8.215-.028l6.756-.023-6.756 4.975v-4.96zM73.792 45.1h-5.265c1.782-1.585 3.626-2.37 5.303-2.71l-.038 2.71zm1.415-2.902c.296-.022.586-.037.863-.037.155 0 .305.01.458.02l-.04 2.93H75.17l.04-2.88-.003-.01zm2.657 2.902l.038-2.793c1.498.23 2.743.7 3.47 1.123.854.494 1.51 1.093 2.01 1.67h-5.518zM15.14 46.556l-4.98-.805c-.297-.38-1.01-1.49-1.05-3.27-.005-.26-.007-.51-.01-.76.2.08.43.11.677.08h.026c.657-.08 1.143-.56 1.08-1.07l-.33-2.71c-.028-.24-.18-.45-.418-.6l-.71-.42c.207-1.18.48-1.86.718-1.95 1.568 0 35.12 1.99 35.46 2.01.32.02.597-.17.695-.47.06-.18 1.468-4.49 1.468-6.87 0-2.18.872-2.58 1.042-2.63 2.967.09 10.163.96 12.873 3.07 3.1 2.41 8.72 5.81 8.96 5.96.12.07.25.11.39.1.01 0 .31-.01.83-.01 2.07 0 9.22.22 14.85 3.05.12.13.4.49.55 1.08-.64-.16-1.4-.16-1.9-.08-.92.14-.67.95-.67.95l1.74 2.26s.39.45 1 .45c.04.06.09.12.14.16.2.33.72 1.46.08 2.15 0 .01-.48.5-1.17.5-.17 0-.35-.03-.53-.09-.33-.78-1.41-2.9-3.86-4.32-1.21-.7-3.42-1.45-5.99-1.45-3.47 0-8.35 1.38-12.07 7.85H39.46c-.875-1.51-4.495-6.92-11.77-7.45-.46-.03-.92-.05-1.367-.05-6.646 0-9.906 3.53-11.18 5.43zm3.186-1.456c1.432-1.168 3.545-2.26 6.553-2.53l-.04 2.53h-6.52zm9.193 1.376l-.03 1.842c-.39.16-.79.302-1.2.315h-.01c-.06 0-.12-.01-.18-.013.03-.083.06-.174.06-.27l.02-1.874h1.32zm-.84 23.804c-4.27 0-7.75-3.48-7.75-7.75s3.47-7.746 7.74-7.746 7.74 3.473 7.74 7.743-3.48 7.745-7.75 7.745zm9.63-17.86c-.31-.29-.52-.68-.71-1.07l2.87-1.658c.06.09.14.166.23.218.02.04.05.083.08.118l6.16 6.124-4.69 1.74c-.31-.308-.61-.633-.78-1.024-.22-.47-.24-1.01-.27-1.534-.03-.555-.06-1.08-.3-1.42-.26-.36-.76-.558-1.29-.77-.48-.188-.97-.383-1.33-.723zm29.4.62c-.35.37-.84.6-1.3.82-.51.24-.99.47-1.22.83-.23.37-.22.903-.22 1.468.01.515.01 1.05-.16 1.52-.02.037-.04.07-.05.11L56.3 56.11l8.285-6.102c.03-.02.05-.05.074-.074.02-.008.04-.014.05-.023l2 1.16c-.1.2-.19.42-.28.65-.19.48-.39.97-.73 1.33zm10.17 17.24c-4.27 0-7.75-3.48-7.75-7.75s3.47-7.743 7.74-7.743 7.74 3.473 7.74 7.743-3.48 7.746-7.75 7.746z"/>
    <path d="M26.688 55.478c-3.89 0-7.056 3.166-7.056 7.056s3.166 7.057 7.056 7.057 7.056-3.16 7.056-7.05c0-3.89-3.166-7.05-7.056-7.05zm.027 13.03c-3.314 0-6-2.688-6-6.002 0-3.314 2.686-6 6-6s6 2.686 6 6c0 3.315-2.686 6-6 6z"/>
</svg>
