<svg xmlns="http://www.w3.org/2000/svg" viewBox="0 0 100 100">
    <path d="M93.506 33.36L15.164 19.69c-1.116-.195-2.18.552-2.373 1.668-.132.76.18 1.488.738 1.94l-.85.61c-.91.65-1.13 1.91-.495 2.833l1.81 2.622-2.59 1.853c-.91.652-1.13 1.912-.495 2.834l1.81 2.62-2.59 1.852c-.91.65-1.13 1.912-.495 2.834l1.81 2.62-2.59 1.853c-.91.65-1.13 1.91-.495 2.833l1.81 2.622-2.592 1.855c-.91.652-1.13 1.912-.494 2.833l1.81 2.622L6.3 60.45c-.91.653-1.13 1.913-.494 2.833l.652.946c-.717.217-1.29.813-1.428 1.6-.195 1.117.552 2.18 1.668 2.374l78.34 13.67c.118.02.236.03.354.03.42 0 .832-.13 1.18-.373.444-.312.747-.79.84-1.325l2.29-13.122c.095-.546-.04-1.11-.366-1.558-.326-.45-.825-.748-1.374-.826-.033-.006-3.322-.502-5.075-2.918-1.054-1.452-1.378-3.392-.964-5.767 1.135-6.505 8.594-6.107 8.902-6.086 1.053.075 1.986-.658 2.167-1.695l2.18-12.5c.197-1.117-.55-2.18-1.666-2.374zm-79.31 20.086c.91-.652 1.13-1.912.494-2.833l-1.81-2.62 2.59-1.854c.912-.652 1.132-1.913.496-2.835l-1.81-2.62 2.59-1.853c.91-.65 1.13-1.912.495-2.834l-1.808-2.62 1.364-.977 53.836 9.687L66.36 66.33l-53.827-9.684-.928-1.346 2.59-1.854zm75.05-7.602c-4.17.296-10.144 2.473-11.364 9.467-.616 3.53-.04 6.534 1.715 8.924 1.67 2.276 4.045 3.438 5.74 4.01l-1.612 9.236-71.78-12.526-1.616-2.342 2.448-1.754 54.882 9.874c.12.022.242.033.363.033.417 0 .827-.127 1.174-.37.447-.31.752-.788.847-1.325l4.984-28.282c.196-1.113-.545-2.175-1.657-2.375l-54.97-9.89-1.692-2.45 2.187-1.566L90.78 37.05l-1.535 8.794z"/>
</svg>
