<svg xmlns="http://www.w3.org/2000/svg" viewBox="0 0 100 100">
    <path d="M39.363 28.692c-.563 0-1.1-.323-1.35-.87l-4.737-10.436c-.338-.744-.01-1.622.736-1.96.747-.338 1.622-.008 1.96.736L40.71 26.6c.338.743.01 1.62-.736 1.96-.2.09-.407.132-.61.132z"/>
    <path d="M63.792 28.692c-.204 0-.412-.043-.61-.133-.746-.34-1.075-1.218-.737-1.96l4.738-10.44c.338-.743 1.214-1.074 1.96-.735.745.338 1.074 1.216.736 1.96l-4.74 10.437c-.248.545-.786.87-1.35.87z"/>
    <path d="M51.948 27.284c-.818 0-1.48-.663-1.48-1.48V9.737c0-.818.662-1.48 1.48-1.48s1.48.662 1.48 1.48v16.065c0 .818-.662 1.48-1.48 1.48z"/>
    <path d="M89.174 42.658c-3.92-7.446-26.62-6.74-30.264-5.537-.6-.03-1.143-.023-1.58.043-.61.094-1.105.54-1.325 1.197-.272.813-.622 2.328-.145 3.697-.6.105-1.13.51-1.436 1.142-.567 1.18-1.4 3.604-.6 6.555.042.16.114.297.183.437-.113.07-.214.154-.287.267-.108.165-2.53 3.997-.646 8.352-.162.185-.3.394-.39.633-.53 1.404-1.488 4.944 1.024 7.48.394.4.913.618 1.46.618.03 0 .166-.006.195-.01.794-.077 2.147-.222 3.762-.435.038-.004.075.007.114 0 .083-.018.175-.034.262-.05 1.286-.175 2.723-.395 4.178-.658 4.323-.536 8.827-.654 9.92.432.13.127.198.26.144.54-.935 4.91-1.32 10.05-1.147 15.274.02.625.257 1.235.666 1.717 1.748 2.066 4.17 2.76 5.897 2.978.094.013.19.02.283.02.538 0 1.065-.19 1.478-.544.49-.416.785-1.025.807-1.668l.19-5.51c-.09-7.26.84-11.448 3.1-14.005 1.338-1.513 2.786-2.447 4.462-3.528.682-.44 1.39-.896 2.12-1.412 1.027-.726 1.595-1.954 1.482-3.203-.304-3.343-1.216-9.714-3.906-14.824zm-31.47-3.754c2.024-.234 6.622.802 9.95 1.726.554 1.26.73 2.522.78 3.356v.06c-3.744-1.554-9.105-2.244-10.854-2.436-.396-.9-.074-2.127.124-2.706zm-1.68 5.064c.062-.126.13-.174.128-.176 5.786-.322 12.326 2.113 14.76 3.12.086.036.237.294.204.64-.08.846-.298 1.684-.467 2.236-.088.252-.594.95-.894 1.226-.702-.14-1.352-.264-1.972-.38-1.855-.43-4.164-.843-6.62-.997-1.144-.11-1.94-.134-2.535-.134-.616 0-1.088.03-1.508.054-.49.03-.906.056-1.41.012-.03-.01-.127-.09-.177-.28-.647-2.395.03-4.363.49-5.323zm15.103 10.987c-.05.77-.346 1.387-.607 1.8-.585-.04-1.392-.086-2.33-.117-.43-.023-.88-.04-1.377-.04-.142 0-.29.004-.434.006-.1 0-.19-.003-.29-.003-2.754 0-6.484.2-9.9.997-.658.1-1.208.19-1.603.258-1.077-2.785 0-5.276.448-6.123 1.274-.254 2.68-.383 4.19-.383.868 0 1.732.045 2.578.12 1.322.16 3.076.43 5.43.87 1.806.412 3.19.844 3.816 1.05.06.256.13.746.076 1.566zm-15.94 10.81l-.02.89v-.887c-.07 0-.14-.032-.198-.09-1.79-1.807-1.034-4.522-.626-5.606.03-.08.09-.142.16-.166.63-.215 1.295-.39 1.968-.552 2.51-.384 6.636-.93 9.953-.97.65.003 1.254.016 1.806.035 1.15.07 1.818.225 2.19.36.078.03.157.045.236.05l.48 3.417c.02.138-.042.274-.147.323-1.815.853-4.646 1.528-7.43 2.037-1.84.233-3.41.51-4.288.676-1.907.258-3.444.42-4.085.483zm35.386-6.53c-.71.5-1.395.942-2.058 1.37-1.712 1.103-3.33 2.147-4.83 3.842-3.243 3.666-3.613 9.743-3.546 15.16l-.19 5.47c-.008.2-.118.322-.18.377-.066.054-.204.14-.39.116-1.41-.18-3.385-.733-4.764-2.363-.153-.18-.24-.398-.246-.628-.17-5.096.207-10.104 1.118-14.886.157-.825-.063-1.562-.637-2.132-.692-.69-1.95-1.062-3.463-1.233.118-.05.246-.1.358-.154.818-.384 1.28-1.26 1.152-2.178l-.487-3.463c-.048-.33-.187-.615-.36-.873.377-.61.778-1.494.85-2.594.125-1.92-.29-2.688-.472-2.93-.104-.135-.244-.24-.404-.297-.038-.013-.215-.076-.487-.166.427-.55.74-1.136.81-1.367.195-.635.445-1.6.538-2.593.102-1.083-.43-2.09-1.294-2.448-.393-.165-.902-.366-1.487-.585.082-.25.12-.524.104-.804-.058-.98-.267-2.462-.925-3.964-.21-.484-.603-.836-1.074-.97-.59-.165-1.726-.47-3.066-.785 7.718-.25 20.11.86 22.462 5.325 2.64 5.018 3.474 11.573 3.71 14.158.055.62-.227 1.23-.74 1.59z"/>
    <path d="M46.42 73.262c.107-.166 2.53-3.998.645-8.353.162-.187.3-.396.39-.635.53-1.404 1.487-4.945-1.024-7.48-.392-.4-.91-.618-1.46-.618-.027 0-.164.006-.193.01-.795.077-2.15.222-3.766.435-.036.002-.07-.008-.11 0-.083.016-.175.032-.262.05-1.285.173-2.72.392-4.175.655-4.324.536-8.83.655-9.923-.43-.13-.128-.198-.262-.144-.54.936-4.915 1.322-10.055 1.146-15.275-.02-.625-.257-1.235-.665-1.717-1.748-2.067-4.172-2.76-5.897-2.978-.632-.082-1.276.112-1.762.526-.49.416-.784 1.024-.806 1.668l-.19 5.51c.09 7.26-.838 11.448-3.1 14.006-1.338 1.513-2.786 2.446-4.46 3.526-.684.44-1.39.897-2.122 1.412-1.028.726-1.596 1.954-1.483 3.203.305 3.343 1.217 9.714 3.907 14.824 2.6 4.94 13.462 6.29 21.546 6.29 4.07 0 7.43-.34 8.682-.742.207.01.407.016.598.016.38 0 .72-.022 1.018-.067.61-.094 1.106-.542 1.325-1.198.273-.815.624-2.33.146-3.7.6-.104 1.13-.51 1.434-1.14.567-1.185 1.4-3.61.6-6.56-.042-.157-.114-.296-.183-.435.114-.068.215-.154.288-.266zm-.868-7.395c1.077 2.785 0 5.276-.448 6.123-1.274.255-2.68.384-4.19.384-.86 0-1.718-.045-2.558-.118-1.326-.16-3.087-.43-5.455-.873-1.802-.413-3.183-.843-3.81-1.05-.06-.257-.13-.748-.077-1.568.05-.77.346-1.387.607-1.8.58.04 1.38.085 2.31.116.433.026.888.043 1.394.043.15 0 .307-.004.46-.006.09 0 .172.003.265.003 2.75 0 6.477-.2 9.894-.995.658-.1 1.21-.19 1.607-.258zm-.58-7.912c.068 0 .138.032.197.09 1.785 1.805 1.03 4.52.622 5.605-.03.08-.09.142-.16.166-.632.215-1.295.392-1.968.552-2.505.383-6.62.93-9.93.97-.665-.003-1.28-.016-1.842-.035-1.14-.073-1.804-.227-2.176-.362-.076-.026-.155-.04-.234-.05l-.48-3.416c-.02-.137.042-.272.147-.322 1.81-.85 4.63-1.523 7.41-2.032 1.846-.233 3.424-.51 4.305-.68 1.91-.258 3.456-.42 4.105-.483zm-32.435 22.28c-2.64-5.017-3.474-11.572-3.71-14.157-.056-.62.227-1.23.74-1.59.71-.502 1.395-.944 2.058-1.372 1.71-1.104 3.328-2.146 4.828-3.842 3.245-3.668 3.614-9.744 3.547-15.16l.19-5.47c.006-.2.116-.322.18-.377.064-.054.2-.14.39-.116 1.41.18 3.383.734 4.762 2.365.153.18.238.398.246.628.17 5.09-.205 10.097-1.116 14.884-.157.825.063 1.562.637 2.132.692.69 1.95 1.06 3.46 1.233-.116.05-.244.1-.355.152-.806.378-1.28 1.275-1.152 2.178l.487 3.46c.047.33.187.616.36.875-.377.61-.778 1.494-.85 2.593-.125 1.92.29 2.69.472 2.93.104.136.244.24.404.298.038.014.215.077.487.167-.427.55-.74 1.137-.81 1.367-.194.635-.444 1.6-.538 2.595-.102 1.083.43 2.09 1.294 2.447.393.164.902.366 1.487.585-.082.25-.12.524-.104.804.058.98.267 2.462.925 3.964.21.484.603.836 1.074.97.588.164 1.713.47 3.048.786-7.722.247-20.097-.863-22.445-5.326zm29.897 4.582c-.193.023-.41.032-.643.032-2.214 0-6.296-.925-9.306-1.76-.553-1.26-.728-2.52-.78-3.356 0-.022 0-.042.002-.06 3.74 1.554 9.102 2.243 10.852 2.436.397.9.075 2.128-.123 2.707zm1.68-5.064c-.062.126-.13.174-.128.176-5.93.333-12.864-2.337-14.76-3.12-.086-.038-.237-.296-.205-.64.08-.847.3-1.686.47-2.238.085-.252.59-.95.89-1.226.717.143 1.374.27 2.004.387 1.66.385 3.683.754 5.847.936 2.89.34 3.875.186 4.783.132.49-.03.91-.056 1.41-.012.03.01.127.09.178.278.65 2.397-.026 4.365-.486 5.325z"/>
</svg>
