<svg xmlns="http://www.w3.org/2000/svg" viewBox="0 0 100 100">
    <path d="M88.466 29.745c-.65-.145-1.303.254-1.472.9-.656 2.506-3.548 3.334-3.544 3.334-4.49 1.05-6.096-1.49-8.208-5.81-.8-1.64-1.556-3.19-2.626-4.36-2.862-3.14-7.22-1.93-9.64-.61-.07.03-.135.06-.2.11-.17.1-.334.19-.48.29-.054.03-.1.07-.147.12-1.26.74-4.46 2.08-7.45-1.03-.48-.5-1.27-.51-1.76-.03-.5.47-.51 1.26-.04 1.76 1.94 2.02 4.06 2.71 5.98 2.71 2.11 0 3.97-.84 5.11-1.66 1.09-.62 4.64-2.33 6.77 0 .82.91 1.5 2.3 2.22 3.77 1.8 3.68 4.27 8.73 11.05 7.13.05-.02.45-.13 1.01-.38-.78 1.42-1.82 2.73-3.12 3.46-1.49.83-3.16.85-5.17.06-.04-.01-3.38-1.23-6.02-6.07-1.02-1.87-2.27-2.97-3.72-3.27-1.74-.36-3.01.59-3.15.7-.54.42-.63 1.18-.22 1.72.41.54 1.18.65 1.73.25.02-.02.52-.37 1.15-.23.68.15 1.38.85 2.01 2.01 3.09 5.67 7.2 7.16 7.33 7.21 1.24.49 2.44.74 3.58.74 1.3 0 2.53-.32 3.67-.96 4.81-2.69 6.2-10.16 6.26-10.48.11-.66-.31-1.29-.96-1.44z"/>
    <path d="M63.798 39.2c.655 0 1.204-.513 1.242-1.175.04-.687-.486-1.275-1.172-1.315l-5.903-.337c-.68-.032-1.275.486-1.315 1.172-.04.687.486 1.275 1.172 1.315l1.777.102.01.8c.01.682.56 1.228 1.24 1.228h.02c.69-.01 1.23-.575 1.23-1.263l-.01-.622 1.63.093h.07z"/>
    <path d="M54.78 21.18c.28 0 .563-.094.795-.287l4.256-3.53c.53-.438.61-1.223.17-1.752-.44-.53-1.22-.6-1.75-.16L54 18.98c-.53.44-.603 1.23-.164 1.75.246.3.6.45.96.45z"/>
    <path d="M56.52 21.823c.186.5.66.81 1.166.81.145 0 .292-.026.436-.08l8.614-3.216c.644-.24.97-.958.73-1.603-.24-.644-.958-.97-1.602-.73L57.25 20.22c-.644.24-.97.958-.73 1.603z"/>
    <path d="M70.956 20.988c.183-.045 3.998-.92 6.75 1.863-.75.29-1.492.76-1.85 1.55-.267.59-.04 1.28.52 1.6 1.013.58 3.78 2.47 4.418 4.31.178.52.66.84 1.177.84.14 0 .28-.02.41-.07.65-.22 1-.93.77-1.58-.65-1.87-2.42-3.48-3.79-4.5.2-.03.41-.06.6-.07.44-.02.84-.26 1.04-.65.21-.38.2-.85-.02-1.23-2.92-4.9-8.21-5.06-10.61-4.46-.66.17-1.06.84-.9 1.51.17.67.84 1.08 1.51.92z"/>
    <path d="M80.735 43.343c-.598.34-.808 1.1-.47 1.698.017.03 1.23 2.21 1.366 5.1-.68-.31-1.47-.41-2.31-.07-.6.25-.91.91-.71 1.53.03.09 2.38 7.7.59 14.34-.49-2.3-1.46-4.56-3.38-4.91-.37-.07-.76.04-1.05.29-.29.26-.44.63-.42 1.01.01.16.7 13.29-4.37 20.13.53-3.32.59-8.02-2.02-11.81-.25-.36-.67-.56-1.11-.53-.2.02-2.04.2-3.53 2.05-1.24 1.55-1.84 3.76-1.78 6.58-1.34-1.34-2.85-3.92-2.59-8.58.04-.69-.48-1.27-1.17-1.31-.69-.03-1.27.49-1.31 1.17-.56 9.92 5.85 12.3 6.13 12.39.41.15.87.07 1.21-.21.34-.27.51-.71.44-1.14-.59-4.19.21-6.26.98-7.27.4-.5.83-.8 1.17-.96 3 5.38.26 12.89.23 12.97-.19.5-.04 1.06.37 1.4.23.19.51.29.79.29.23 0 .46-.06.66-.19 6.62-4.08 8.12-14.35 8.41-20.42.22 1.17.36 2.52.38 3.88.01.55.37 1.03.9 1.18.52.15 1.09-.05 1.39-.51 3.93-5.94 2.98-13.96 2.14-18l.02.03c.27.44.78.67 1.29.57.51-.09.9-.49.99-1 .91-4.88-1.39-9-1.49-9.17-.34-.6-1.1-.81-1.7-.47z"/>
    <path d="M22.812 42.617c1.13 0 2.31-.24 3.53-.72.174-.062 4.284-1.562 7.374-7.226.634-1.16 1.33-1.85 2.016-2.01.616-.14 1.11.2 1.154.23.54.41 1.313.32 1.733-.22.42-.54.32-1.32-.22-1.74-.14-.11-1.42-1.05-3.15-.7-1.46.3-2.71 1.4-3.73 3.27-2.61 4.77-5.99 6.06-6.06 6.09-1.97.77-3.64.75-5.12-.08-1.36-.75-2.39-2.08-3.15-3.47.58.26 1 .38 1.06.39 6.75 1.6 9.22-3.45 11.02-7.14.72-1.47 1.4-2.86 2.23-3.77 2.39-2.62 6.67-.07 7.08.18 2.09 1.61 7.07 3.43 11.26-.93.47-.49.46-1.28-.04-1.76-.49-.48-1.28-.46-1.76.03-3.65 3.8-7.56.99-7.99.66l-.08-.06c-2.19-1.44-7.17-3.25-10.32.2-1.07 1.17-1.83 2.72-2.63 4.36-2.11 4.32-3.72 6.87-8.17 5.82-.03-.01-2.91-.8-3.58-3.34-.17-.64-.82-1.04-1.47-.9-.66.15-1.08.78-.96 1.44.06.32 1.44 7.79 6.26 10.48 1.15.64 2.38.96 3.68.96z"/>
    <path d="M46.72 20.893c.233.193.514.287.794.287.358 0 .713-.153.96-.45.438-.53.365-1.315-.165-1.754l-4.26-3.53c-.53-.437-1.32-.366-1.76.165-.44.53-.37 1.32.16 1.76l4.25 3.53z"/>
    <path d="M35.56 19.336l8.614 3.217c.144.054.29.08.435.08.5 0 .98-.31 1.16-.81.24-.646-.09-1.363-.73-1.604L36.43 17c-.642-.24-1.36.088-1.6.73-.242.646.085 1.364.73 1.604z"/>
    <path d="M19.917 31.074c.135.047.272.07.407.07.516 0 1-.325 1.177-.84.64-1.84 3.41-3.73 4.42-4.305.56-.32.79-1.02.52-1.6-.36-.79-1.1-1.27-1.85-1.55 2.75-2.78 6.56-1.91 6.75-1.87.67.16 1.34-.24 1.51-.91.17-.67-.24-1.35-.9-1.51-2.39-.6-7.69-.44-10.61 4.46-.22.37-.23.84-.02 1.23.21.38.6.63 1.04.65.19.01.4.03.6.07-1.37 1.02-3.14 2.63-3.79 4.5-.23.65.12 1.36.77 1.58z"/>
    <path d="M44.54 68.81c-.688.04-1.213.628-1.173 1.315.267 4.676-1.25 7.25-2.588 8.592.06-2.824-.54-5.03-1.79-6.58-1.49-1.845-3.33-2.03-3.54-2.044-.44-.024-.87.172-1.12.536-2.61 3.79-2.55 8.48-2.02 11.81-5.08-6.84-4.39-19.98-4.38-20.13.02-.39-.14-.76-.42-1.01-.29-.26-.68-.37-1.05-.29-1.92.35-2.89 2.61-3.38 4.92-1.79-6.64.56-14.25.59-14.34.19-.62-.12-1.28-.72-1.53-.83-.35-1.62-.25-2.31.07.14-2.86 1.33-5.05 1.36-5.1.34-.6.13-1.36-.47-1.7-.6-.34-1.36-.13-1.7.47-.1.17-2.4 4.29-1.49 9.17.09.5.49.9.99.99.5.09 1.01-.13 1.29-.57 0-.01.01-.02.02-.03-.85 4.04-1.8 12.06 2.13 18 .3.45.86.66 1.39.5.52-.16.89-.63.89-1.18.02-1.36.16-2.72.38-3.89.29 6.07 1.79 16.35 8.41 20.43.2.12.43.18.65.18.28 0 .56-.1.79-.28.41-.34.56-.9.37-1.4-.03-.08-2.78-7.57.22-12.97.35.16.78.45 1.17.96.78 1 1.58 3.07.98 7.27-.06.43.11.86.45 1.13.33.28.79.36 1.2.21.27-.1 6.69-2.47 6.12-12.39-.04-.68-.64-1.2-1.32-1.17z"/>
    <path d="M58.665 54.048c.478-.468.856-.97 1.16-1.477.11.02.225.03.343.03.003 0 .746.01 1.688.31l-.84.29c-.487.17-.745.7-.575 1.19.14.39.5.63.89.63.1 0 .21-.01.31-.05l1.06-.36c0 .6.13 1.25.51 1.89 1.03 1.71 3.62 3.27 3.91 3.44.08.05.17.08.26.11.06.02.36.08.81.08.9 0 3.11-.3 4.36-3.09 1.3-2.9.07-4.49-.8-4.96l-3.27-1.99c-.09-.05-.18-.09-.28-.11-.05-.01-.36-.07-.81-.07-.32 0-.75.04-1.2.15l.17-1.04c.09-.51-.25-.99-.76-1.08-.5-.08-.99.26-1.08.76l-.2 1.2c-1.29-.64-2.5-.87-3.3-.96.03-.38.03-.61.03-.64v-2.83c0-.69-.56-1.24-1.24-1.24s-1.24.56-1.24 1.25v2.87c0 .03.04 2.36-1.59 3.96-.4.39-.87.7-1.41.95v-1.01c0-.68-.56-1.24-1.24-1.24-.69 0-1.24.56-1.24 1.25v1.64c-.57.05-1.17.06-1.82.02h-.1c-.65.04-1.25.03-1.81-.02v-1.65c0-.68-.55-1.24-1.24-1.24s-1.25.56-1.25 1.25v1.02c-.53-.24-1-.55-1.39-.93-.51-.5-.86-1.07-1.1-1.62-.03-.08-.06-.16-.1-.24-.43-1.13-.41-2.12-.41-2.16V45.5c0-.69-.55-1.24-1.24-1.24s-1.24.56-1.24 1.246v2.78c0 .05-.02.55.1 1.27-5.43.605-8.38 3.68-8.51 3.82-.7.75-.67 1.93.08 2.64.36.34.82.505 1.28.505.5 0 1-.19 1.36-.58.03-.03 2.5-2.52 7.03-2.74.07 0 .14-.02.21-.03.23.32.5.64.8.94 1.59 1.55 3.83 2.34 6.66 2.34.28 0 .57-.01.87-.03.29.02.58.03.86.03 2.83 0 5.07-.79 6.65-2.34zm9.503 4.185c-.108 0-.198-.007-.263-.014-.56-.35-1.61-1.07-2.384-1.83.62-1.21 1.31-1.66 1.62-1.8 2.45.84 3.16 2.12 3.27 2.37-.7 1.02-1.57 1.27-2.24 1.27zm-.524-6.493l3.177 1.937c.07.04.5.34.4 1.242-.7-.74-1.87-1.61-3.79-2.21-.14-.05-.29-.06-.44-.03-.16.03-1.31.28-2.4 1.71.07-.67.39-1.23.41-1.26.67-1.17 1.67-1.42 2.39-1.42.12 0 .22 0 .29.01z"/>
    <path d="M41.175 40.587h.018c.68 0 1.235-.546 1.245-1.228l.013-.91 2.03-.12c.69-.04 1.21-.63 1.17-1.32-.04-.69-.62-1.21-1.31-1.17l-6.02.34c-.68.04-1.21.62-1.17 1.31.04.66.59 1.17 1.24 1.17h.07l1.51-.09-.01.73c-.01.68.54 1.25 1.23 1.26z"/>
    <path d="M46.438 65.808l-.272 1.216-.33 1.2c.02.008 2.217.825 2.217 6.973 0 .688.558 1.245 1.245 1.245.688 0 1.246-.558 1.246-1.245 0-8.233-3.686-9.294-4.106-9.39z"/>
    <path d="M56.53 68.24l-.545-2.432c-.42.094-4.107 1.156-4.107 9.39 0 .687.558 1.244 1.245 1.244.688 0 1.245-.558 1.245-1.245 0-6.15 2.196-6.965 2.218-6.973-.036.012-.057.015-.057.015z"/>
</svg>
