<svg xmlns="http://www.w3.org/2000/svg" viewBox="0 0 100 100">
    <path d="M86.82 30.483c-.646-.143-1.286.25-1.454.89-.648 2.47-3.502 3.29-3.5 3.29-4.435 1.04-6.018-1.47-8.103-5.734-.79-1.62-1.536-3.15-2.592-4.3-2.82-3.1-7.13-1.91-9.52-.6-.06.03-.13.06-.19.1-.17.09-.33.19-.47.29-.05.03-.1.08-.15.12-1.27.75-4.39 2.05-7.34-1.02-.47-.49-1.25-.51-1.73-.04-.49.47-.5 1.25-.03 1.74 1.92 2 4.01 2.68 5.91 2.68 2.08 0 3.92-.83 5.05-1.64 1.09-.61 4.59-2.3 6.69 0 .82.89 1.49 2.27 2.2 3.72 1.78 3.63 4.22 8.62 10.91 7.03.06-.01.45-.12 1-.37-.77 1.4-1.79 2.69-3.08 3.41-1.46.82-3.11.84-5.1.06-.03-.01-3.33-1.22-5.94-5.99-1-1.84-2.24-2.93-3.67-3.22-1.72-.36-2.97.58-3.11.69-.53.42-.62 1.19-.21 1.73.42.53 1.2.63 1.73.21.01-.01.5-.35 1.1-.22.69.14 1.38.83 2.02 1.99 3.05 5.59 7.11 7.07 7.24 7.11 1.23.48 2.41.72 3.53.72 1.29 0 2.5-.32 3.63-.95 4.76-2.66 6.13-10.03 6.18-10.35.12-.65-.3-1.28-.95-1.42z"/>
    <path d="M63.69 38.657c.04-.678-.478-1.26-1.156-1.298l-5.828-.34c-.673-.03-1.26.48-1.298 1.16-.04.68.48 1.26 1.157 1.3l1.754.1.01.79c.01.67.55 1.21 1.23 1.21h.01c.68-.01 1.22-.57 1.21-1.25l-.01-.62 1.61.09h.07c.65 0 1.19-.51 1.23-1.16z"/>
    <path d="M53.562 22.027c.276 0 .555-.093.784-.283l4.2-3.484c.524-.433.596-1.21.162-1.73-.433-.524-1.21-.596-1.73-.163l-4.202 3.484c-.523.44-.595 1.21-.16 1.74.242.3.593.45.946.45z"/>
    <path d="M55.28 22.662c.184.494.653.8 1.15.8.144 0 .29-.025.43-.078l8.506-3.177c.636-.238.96-.946.722-1.583-.238-.636-.946-.96-1.582-.722L56 21.08c-.636.237-.96.945-.72 1.582z"/>
    <path d="M69.532 21.837c.18-.044 3.946-.908 6.666 1.84-.743.28-1.474.75-1.828 1.53-.264.58-.04 1.265.514 1.58 1 .566 3.733 2.434 4.36 4.25.177.508.653.827 1.163.827.133 0 .27-.022.402-.068.64-.222.98-.922.76-1.564-.65-1.852-2.39-3.44-3.75-4.45.2-.034.4-.058.59-.067.43-.02.82-.264 1.03-.644.2-.38.19-.84-.03-1.21-2.89-4.83-8.11-4.99-10.48-4.4-.66.17-1.06.83-.9 1.49.16.66.83 1.06 1.48.9z"/>
    <path d="M79.186 43.908c-.59.335-.798 1.085-.463 1.676.015.027 1.213 2.178 1.347 5.03-.678-.31-1.458-.408-2.283-.07-.59.245-.897.9-.704 1.51.03.09 2.353 7.594.585 14.16-.484-2.278-1.443-4.508-3.337-4.86-.37-.072-.75.035-1.03.285-.28.25-.43.61-.41.99.01.15.7 13.12-4.32 19.87.53-3.29.59-7.92-1.99-11.66-.24-.36-.66-.56-1.1-.53-.2.01-2.02.19-3.49 2.02-1.23 1.53-1.82 3.7-1.76 6.49-1.32-1.33-2.82-3.87-2.55-8.48.04-.68-.48-1.26-1.16-1.3-.66-.03-1.25.48-1.29 1.15-.56 9.79 5.78 12.14 6.05 12.23.41.14.86.06 1.19-.21.33-.28.5-.7.44-1.13-.59-4.14.2-6.19.97-7.18.39-.5.82-.79 1.16-.96 2.96 5.31.25 12.73.22 12.8-.18.49-.04 1.05.37 1.38.23.19.5.28.78.28.23 0 .45-.06.65-.18 6.53-4.03 8.02-14.18 8.31-20.17.22 1.15.36 2.49.38 3.83.01.54.37 1.01.89 1.16.52.15 1.08-.05 1.37-.5 3.88-5.87 2.95-13.79 2.11-17.78l.02.03c.27.43.78.65 1.27.56.5-.1.89-.49.99-.99.89-4.82-1.37-8.89-1.47-9.06-.33-.59-1.08-.8-1.67-.46z"/>
    <path d="M70.264 53.944c.17 0 .343-.035.508-.11.618-.28.892-1.01.61-1.628l-2.766-6.096c-.28-.618-1.01-.893-1.628-.612-.618.28-.892 1.01-.61 1.628l2.766 6.096c.206.454.653.722 1.12.722z"/>
    <path d="M64.514 51.56c-.638.232-.966.937-.734 1.576l2.972 8.146c.182.5.653.81 1.155.81.14 0 .282-.026.42-.076.64-.233.967-.938.735-1.577l-2.972-8.15c-.232-.64-.94-.97-1.576-.74z"/>
    <path d="M61.554 56.97c-.677.057-1.18.652-1.123 1.328l.41 4.918c.06.642.6 1.128 1.23 1.128.04 0 .07 0 .11-.004.68-.056 1.18-.65 1.13-1.327l-.41-4.918c-.05-.678-.65-1.183-1.33-1.124z"/>
    <path d="M55.605 58.657h-.014c-.67.008-1.22.564-1.21 1.243l.03 1.998c.01.674.56 1.216 1.23 1.216h.02c.68-.008 1.23-.564 1.22-1.243l-.02-1.99c-.01-.67-.55-1.21-1.23-1.21z"/>
    <path d="M22 43.192c1.115 0 2.28-.238 3.485-.712.17-.06 4.23-1.54 7.28-7.133.626-1.147 1.314-1.835 1.99-1.988.608-.14 1.097.19 1.14.22.533.4 1.295.31 1.71-.22.42-.54.325-1.31-.21-1.73-.138-.11-1.396-1.05-3.11-.69-1.436.29-2.674 1.38-3.68 3.22-2.567 4.71-5.91 5.98-5.98 6-1.938.76-3.592.74-5.054-.08-1.33-.75-2.35-2.06-3.1-3.43.58.25.99.37 1.06.38 6.67 1.57 9.1-3.41 10.88-7.05.71-1.46 1.38-2.83 2.2-3.72 2.37-2.59 6.59-.08 6.99.18 2.07 1.58 6.99 3.38 11.13-.92.47-.49.46-1.27-.03-1.74s-1.27-.46-1.74.03c-3.6 3.75-7.46.98-7.88.65L39 24.4c-2.16-1.42-7.08-3.21-10.19.2-1.06 1.157-1.8 2.684-2.59 4.3-2.08 4.264-3.67 6.78-8.06 5.743-.03-.01-2.89-.827-3.54-3.3-.166-.64-.805-1.036-1.453-.89-.643.14-1.06.77-.944 1.415.06.312 1.43 7.69 6.185 10.343 1.137.63 2.35.95 3.636.95z"/>
    <path d="M45.604 21.743c.23.19.508.283.784.283.353 0 .704-.15.947-.445.433-.52.36-1.29-.16-1.73l-4.202-3.48c-.523-.43-1.298-.36-1.73.16-.434.52-.362 1.3.16 1.73l4.2 3.49z"/>
    <path d="M34.586 20.207l8.504 3.177c.142.053.287.078.43.078.5 0 .968-.306 1.152-.8.238-.636-.086-1.345-.722-1.583l-8.504-3.18c-.635-.24-1.344.08-1.582.72-.238.63.086 1.34.722 1.58z"/>
    <path d="M19.14 31.795c.134.046.27.068.403.068.51 0 .986-.32 1.162-.828.628-1.816 3.36-3.683 4.36-4.25.555-.314.778-1 .515-1.58-.354-.78-1.085-1.247-1.828-1.53 2.716-2.743 6.476-1.884 6.665-1.84.655.16 1.322-.238 1.487-.895.165-.66-.236-1.326-.895-1.49-2.37-.59-7.6-.43-10.48 4.405-.22.37-.23.83-.03 1.21.2.382.59.627 1.02.648.19.01.39.034.59.068-1.36 1.01-3.11 2.6-3.75 4.45-.22.65.12 1.35.76 1.57z"/>
    <path d="M43.45 69.052c-.678.04-1.196.62-1.158 1.298.263 4.617-1.234 7.157-2.555 8.482.062-2.788-.526-4.966-1.76-6.495-1.468-1.823-3.285-2.004-3.487-2.02-.434-.023-.854.17-1.1.53-2.58 3.742-2.52 8.38-1.998 11.662-5.013-6.76-4.328-19.73-4.32-19.88.022-.38-.13-.75-.415-1-.283-.25-.664-.36-1.038-.29-1.9.35-2.86 2.58-3.34 4.85-1.76-6.56.55-14.07.58-14.16.19-.61-.12-1.27-.71-1.51-.83-.34-1.6-.24-2.28.07.14-2.83 1.31-4.98 1.34-5.04.33-.59.12-1.34-.47-1.67-.59-.34-1.34-.13-1.68.46-.1.17-2.37 4.24-1.48 9.05.09.5.48.89.98.98.5.1 1-.13 1.27-.56l.02-.03c-.84 3.99-1.77 11.91 2.11 17.77.3.45.85.65 1.37.5.51-.16.87-.63.88-1.17.01-1.35.16-2.69.37-3.84.29 5.99 1.77 16.14 8.3 20.17.2.12.42.18.64.18.28 0 .56-.1.78-.28.41-.34.56-.89.37-1.38-.03-.08-2.74-7.48.23-12.81.34.16.76.45 1.15.95.76.99 1.55 3.04.96 7.17-.06.43.1.85.44 1.12s.78.35 1.19.21c.27-.09 6.6-2.44 6.04-12.23-.04-.68-.63-1.19-1.3-1.16z"/>
    <path d="M48.13 54.286v-1.623c0-.68-.55-1.23-1.23-1.23-.678 0-1.23.55-1.23 1.23v1c-.523-.245-.988-.548-1.378-.925-1.635-1.583-1.593-3.906-1.592-3.968v-2.792c0-.68-.55-1.23-1.23-1.23s-1.23.55-1.23 1.23v2.747c-.004.137-.096 3.395 2.312 5.753 1.568 1.535 3.775 2.31 6.57 2.31.278 0 .563-.01.852-.025.29.015.574.025.85.025 2.797 0 5.004-.775 6.572-2.31 2.41-2.358 2.317-5.616 2.312-5.708v-2.792c0-.68-.55-1.23-1.23-1.23s-1.23.55-1.23 1.23v2.838c.002.023.04 2.325-1.574 3.905-.394.39-.865.7-1.398.95v-1c0-.68-.55-1.23-1.23-1.23s-1.23.55-1.23 1.23v1.63c-.557.05-1.154.06-1.792.02-.02 0-.038.01-.058.01h-.048c-.633.04-1.23.03-1.787-.02z"/>
    <path d="M32.962 45.498c-.618-.282-1.347-.007-1.628.612l-2.767 6.096c-.28.618-.007 1.347.61 1.628.166.075.338.11.51.11.466 0 .913-.268 1.12-.722l2.766-6.096c.282-.62.008-1.347-.61-1.628z"/>
    <path d="M31.623 62.015c.14.05.282.075.42.075.503 0 .974-.31 1.156-.81l2.97-8.145c.23-.638-.1-1.344-.74-1.577-.64-.232-1.35.095-1.58.734l-2.98 8.146c-.23.64.09 1.344.73 1.577z"/>
    <path d="M38.397 56.97c-.678-.057-1.27.448-1.327 1.124l-.41 4.918c-.056.677.447 1.27 1.123 1.327h.104c.633 0 1.17-.49 1.224-1.13l.41-4.92c.06-.68-.44-1.27-1.12-1.33z"/>
    <path d="M43.243 59.873l-.023 1.998c-.008.68.536 1.24 1.215 1.25h.014c.67 0 1.22-.54 1.22-1.21l.02-2c.01-.68-.54-1.23-1.22-1.24-.68.02-1.24.54-1.25 1.22z"/>
    <path d="M40.147 41.187c.67 0 1.22-.54 1.23-1.212l.012-.895 1.99-.114c.68-.04 1.19-.62 1.15-1.298-.04-.678-.62-1.19-1.3-1.158l-5.95.34c-.68.04-1.2.62-1.16 1.298.03.654.58 1.16 1.22 1.16l.07-.003 1.48-.085-.01.72c-.01.678.53 1.236 1.21 1.246h.01z"/>
    <path d="M45.326 66.088l-.268 1.2-.327 1.185c.03.008 2.19.814 2.19 6.884 0 .68.56 1.23 1.23 1.23s1.23-.55 1.23-1.23c0-8.128-3.64-9.176-4.05-9.27z"/>
    <path d="M55.288 68.488l-.537-2.4c-.41.093-4.05 1.14-4.05 9.27 0 .678.55 1.23 1.23 1.23s1.23-.552 1.23-1.23c0-6.07 2.17-6.878 2.19-6.885-.04.012-.06.015-.06.015z"/>
</svg>
