<svg xmlns="http://www.w3.org/2000/svg" viewBox="0 0 100 100">
    <path d="M43.786 82.453c-3.636 0-6.042-1.88-6.08-1.91-.32-.258-.373-.73-.114-1.053.26-.323.73-.374 1.053-.117.194.154 4.792 3.687 10.877-.256.35-.225.812-.125 1.037.222.224.346.125.81-.223 1.035-2.41 1.562-4.65 2.077-6.552 2.077z"/>
    <path d="M63.117 45.683c-.167 0-.334-.055-.474-.168-.025-.02-2.635-2.104-5.524-1.648-3.578.554-6.55-.634-6.677-.685-.383-.156-.566-.593-.41-.976.154-.384.59-.568.976-.413.024.01 2.73 1.085 5.876.592 3.582-.558 6.58 1.866 6.707 1.97.32.26.366.732.104 1.053-.147.18-.363.275-.58.275z"/>
    <path d="M26.902 45.843c-.205 0-.41-.084-.56-.25-.275-.31-.25-.782.06-1.058.16-.144 3.96-3.505 7.662-2.506 3.162.85 6.486.46 6.52.456.42-.05.785.244.836.653.05.41-.24.784-.652.835-.147.018-3.643.433-7.094-.5-2.918-.786-6.238 2.146-6.27 2.176-.144.13-.323.19-.502.19z"/>
    <path d="M48.094 53.714c-.346 0-.657-.24-.732-.593-1.535-7.163 1.8-9.084 1.942-9.163.364-.198.82-.066 1.018.297.197.36.07.81-.286 1.013-.066.042-2.476 1.618-1.207 7.54.085.406-.173.805-.578.892-.054.01-.107.015-.16.015z"/>
    <path d="M42.27 53.767c-.083 0-.17-.014-.253-.044-.39-.14-.592-.57-.452-.96 1.12-3.12-.104-7.195-.117-7.236-.12-.396.1-.815.496-.937.398-.123.815.1.938.495.058.186 1.388 4.588.096 8.186-.11.308-.4.498-.707.498z"/>
    <path d="M44.292 66.637c-1.363 0-2.39-1.124-2.504-1.252-1.22-1.063-2.105-.96-2.143-.953-.062.008-.146.013-.21.006-.122-.014-1.214-.16-1.85-1.06-.283-.4-.57-1.098-.326-2.154.516-2.244 1.646-3.48 1.694-3.533.283-.302.757-.32 1.06-.037.304.282.32.756.04 1.06-.007.007-.912 1.02-1.335 2.85-.095.41-.066.727.085.944.183.264.542.388.732.43.447-.042 1.737.01 3.308 1.39.252.273.86.81 1.445.81.604 0 1.352-.62 1.565-.837.082-.082 1.84-1.797 4.448-.615.09-.003.243-.024.338-.124.176-.18.22-.645.118-1.244-.375-2.23-1.36-3.29-1.37-3.3-.282-.3-.273-.773.023-1.058.297-.287.767-.28 1.055.014.054.056 1.313 1.37 1.77 4.097.194 1.144.015 2.004-.534 2.556-.68.686-1.6.558-1.706.542-.072-.012-.143-.034-.21-.066-1.7-.83-2.82.215-2.867.26-.115.12-1.282 1.277-2.624 1.277z"/>
    <path d="M56.15 76.29c-.082 0-.167-.014-.25-.043-.39-.138-.595-.567-.456-.958 1.67-4.704-3.003-9.38-3.05-9.428-.295-.29-.3-.766-.008-1.06.29-.296.766-.3 1.06-.01.223.22 5.397 5.405 3.412 10.997-.11.307-.398.5-.707.5z"/>
    <path d="M33.05 78.348c-.245 0-.486-.12-.63-.343-1.077-1.666-1.233-4.43-.408-7.213.77-2.595 3.144-7.162 3.244-7.355.19-.366.645-.51 1.012-.318.367.19.51.643.318 1.01-.024.046-2.408 4.632-3.137 7.09-.695 2.34-.606 4.683.23 5.97.223.35.123.813-.225 1.038-.125.08-.266.118-.405.118z"/>
    <path d="M53.958 75.617c-1.604-1.71-5.562-2.05-7.894-1.202-1.862.675-3.558-.075-3.572-.082-.038-.018-.078-.033-.12-.044-3.372-.91-7.048.77-7.203.84-.377.175-.54.62-.365.997s.62.535.996.364c.018-.007.9-.41 2.135-.692.608.49 2.927 2.17 6.223 2.17 3.2 0 5.607-1.75 6.342-2.35 1.012.184 1.9.53 2.362 1.024.147.157.347.237.547.237.185 0 .37-.067.514-.203.302-.284.316-.76.033-1.06zm-13.67-.097c.546.005 1.1.064 1.642.204.397.167 2.398.916 4.646.1.38-.138.814-.222 1.26-.28-.96.483-2.22.927-3.677.927-1.59 0-2.93-.472-3.873-.95z"/>
    <path d="M51.26 36.972h-.024l-10.264-.32c-.414-.012-.74-.358-.727-.772.013-.413.374-.756.773-.726l10.264.32c.414.012.74.358.727.772-.015.405-.348.726-.75.726z"/>
    <path d="M40.357 34.11c-.25 0-.496-.125-.64-.354-.217-.352-.108-.814.243-1.033.23-.142 5.655-3.443 12.26-1.956.404.09.658.492.567.896-.09.404-.493.654-.896.567-6.01-1.357-11.09 1.735-11.14 1.767-.12.078-.257.114-.392.114z"/>
    <path d="M41.475 29.218c-.268 0-.527-.144-.662-.396-.195-.365-.06-.82.307-1.015 4.692-2.51 10.49-.77 10.733-.694.396.122.617.542.496.937-.124.396-.545.62-.94.497-.053-.017-5.453-1.63-9.583.583-.113.06-.234.088-.353.088z"/>
    <path d="M82.12 30.44c-.516-1.043-1.037-2.11-1.29-3.176l-.002-.013c-.103-.436-.165-.874-.154-1.31.06-2.527-1.432-4.723-2.565-6.2-.05-.108-.248-.504-.746-.96-.147-.194-.27-.365-.336-.48-.07-.126-.13-.245-.19-.365-.496-.97-1.007-1.97-4.987-5.422-1.495-1.298-2.982-2.08-4.32-2.548-.663-.44-3.87-2.506-6.09-2.655-.51-.173-2.77-.902-5.003-1.16-.73-.083-1.398-.226-2.045-.364-1.5-.323-2.922-.627-4.833-.178-1.195.278-2.624.073-4.278-.167-1.587-.227-3.382-.49-5.37-.37-2.328.14-3.212.593-4.33 1.165-.89.455-1.995 1.02-4.317 1.654-1.19.323-2.213.8-3.11 1.347-.362.173-.59.305-.628.327-.113.068-.19.165-.253.27-1.976 1.463-3.2 3.257-3.98 4.413-.247.368-.46.687-.6.837-.126.137-.235.284-.357.424-.104.078-.18.14-.19.15-.098.087-.157.197-.197.312-2.76 3.38-4.2 7.434-4.047 11.567-.41.964-2.384 5.795-2.432 9.364-.013.247-.014.477-.004.68.002.048.022.09.033.135.01.103.01.21.023.31.413 3.202 2.948 7.99 4.462 10.85.308.582.57 1.08.763 1.462.072.143.185.25.316.32-.008 9.31 1.687 17.17 1.704 17.247.055.262 1.372 6.49 4.368 12.23 2.97 5.69 10.233 14.16 18.072 14.16 7.586 0 17.124-12.037 19.558-16.186 1.156-1.97 2.735-4.674 4.27-9.143.37.234.856.4 1.493.4.12 0 .243-.005.373-.017 2.224-.208 5.15-5.756 5.73-10.415.008-.022.022-.04.03-.064.12-.44.266-1.093.437-1.855.39-1.744.905-4.046 1.5-5.498.005-.005.01-.006.016-.01.08-.093.206-.37.34-.767.396-.83.51-1.623.616-2.46.16-1.26.326-2.562 1.567-4.336.76-1.086 1.247-2.073 1.573-3.008.07-.078.13-.166.163-.272.33-1.07.462-2.035.473-2.92.032-.366.06-.732.086-1.102.03-.438.062-.887.107-1.353.158-1.645-.647-3.274-1.425-4.85zM70.76 67.853c-.963.088-1.17-.37-1.204-.47 0-.004-.003-.006-.004-.008.856-2.754 1.68-6.12 2.39-10.27.42 1.053.747 2.348.293 3.07-.22.35-.115.813.236 1.033.14.087.295.123.446.114.233-.014.456-.137.59-.35 1.32-2.102-.72-5.653-.957-6.05-.058-.097-.136-.172-.223-.232.068-.452.138-.888.203-1.357 0-.006-.003-.01-.002-.017 0-.005.003-.008.004-.013.137-1.393.6-3.9 1.266-4.698.187-.225.385-.272.63-.15.413.21.753.85.565 1.62-.273 1.122-.176 1.808-.04 2.757.13.927.31 2.198.284 4.645-.052 5.138-3.498 10.284-4.477 10.376zm9.148-24.772c-.21.304-.39.593-.552.876-.29-1.35-.854-2.684-1.865-3.815-.275-.31-.75-.335-1.06-.06-.307.277-.333.75-.06 1.06 2.547 2.848 1.713 7.35 1.24 8.93-.022.05-.037.1-.064.15-.386.73-.734 1.767-1.043 2.88l-.065-.477c-.128-.9-.19-1.35.013-2.192.376-1.54-.394-2.832-1.35-3.312-.86-.435-1.824-.227-2.454.528-1.158 1.39-1.552 4.97-1.602 5.482-2.04 14.792-5.37 20.466-7.573 24.22-2.666 4.546-11.71 15.444-18.264 15.444-7.12 0-14.05-8.19-16.742-13.352-2.897-5.55-4.217-11.78-4.23-11.85-.02-.085-1.896-8.784-1.65-18.653 0-.05-.017-.094-.025-.142.006-.04.024-.076.024-.118.002-.14.193-14.052 1.842-19.202 1.698-5.303 8.21-12.77 13.405-11.83 2.324.423 3.52.82 4.577 1.168 1.59.527 2.74.907 6.393.973 2.58.05 4.664-.59 6.524-1.15 2.543-.764 4.382-1.318 6.21.137 3.153 2.503 10.842 20.742 6.967 38.715-.085.405.173.804.577.892.054.01.106.017.16.017.345 0 .655-.24.73-.592 3.858-17.895-3.4-36.952-7.498-40.206-2.443-1.94-4.937-1.19-7.577-.398-1.757.527-3.765 1.133-6.066 1.084-3.424-.06-4.43-.393-5.95-.896-1.047-.347-2.352-.778-4.778-1.22-6.23-1.132-13.225 6.982-15.1 12.848-1.49 4.65-1.83 15.554-1.9 18.756-1.48-2.8-3.728-7.14-4.09-9.94-.026-.207-.04-.424-.044-.648.033-.907.33-3.483 2.61-4.018.403-.094.654-.498.56-.9s-.5-.654-.9-.56c-.556.13-1.03.346-1.442.616.612-2.098 1.363-3.896 1.522-4.27.143-.187 1.237-1.51 4.19-2.17.404-.09.658-.492.567-.896-.09-.405-.49-.656-.896-.568-1.733.388-2.937.993-3.746 1.547.22-3.357 1.59-6.603 3.933-9.346.47-.32 1.744-1.036 3.754-1.036.414 0 .75-.336.75-.75s-.336-.75-.75-.75c-.768 0-1.446.09-2.04.226.82-1.164 2.027-2.644 3.82-3.76 1.186-.542 3.962-1.524 6.652-.397.38.16.82-.02.98-.402.16-.38-.02-.82-.4-.98-.49-.203-.975-.345-1.455-.447.65-.273 1.15-.526 1.592-.752 1.073-.55 1.722-.88 3.737-1 1.832-.11 3.55.14 5.064.357 1.73.25 3.366.487 4.834.143 1.587-.372 2.786-.114 4.178.183.682.146 1.385.297 2.188.39 2.317.265 4.76 1.11 4.784 1.12.07.024.145.038.22.04.54.02 1.227.236 1.935.528-.446.03-.726.083-.77.09-.405.086-.666.483-.582.89s.483.666.887.58c.038-.007 4.045-.785 8.13 2.758 2.26 1.96 3.32 3.054 3.9 3.8-.81-.22-1.802-.37-3.026-.383-.423-.005-.755.327-.76.742-.004.414.328.753.742.758 2.68.03 3.992.782 4.586 1.305.07.09.13.17.21.27.912 1.168 2.212 2.842 2.557 4.73-1.006-.993-2.495-2.1-4.56-2.77-.397-.128-.817.088-.944.482-.128.394.087.817.48.945 3.362 1.09 5.002 3.557 5.31 4.064.285 1.227.85 2.387 1.41 3.52.24.487.475.966.678 1.433-1.21-1.387-2.548-2.022-2.577-2.036-.38-.17-.82-.002-.99.374-.17.377-.004.82.37.994.175.08 3.616 1.73 3.59 5.816-.163 1.754-.498 3.333-1.938 5.39z"/>
    <path d="M60.807 48.818c-.03-.11-.822-2.666-4.68-3.088-3.777-.412-6.064 2.562-6.16 2.688-.248.332-.18.802.15 1.05.33.248.803.18 1.05-.15.005-.006.127-.166.354-.395.43.457 1.866 1.798 4.075 1.798 2.464 0 3.93-.914 3.992-.953.045-.03.075-.07.112-.107.115.07.25.117.39.117.067 0 .14-.01.21-.03.396-.115.624-.53.51-.93zm-6.658-1.454c-.173.277-.276.6-.276.95 0 .187.037.365.09.536-.615-.284-1.047-.65-1.26-.86.41-.252.893-.48 1.444-.626zm3.204 1.658c.093-.218.145-.458.145-.71 0-.28-.07-.542-.184-.78.74.262 1.23.616 1.538.943-.023.01-.047.012-.07.026-.007.006-.522.31-1.43.523z"/>
    <path d="M40.53 49.03c-.015-.025-.36-.626-1.014-1.312-.935-.98-2.507-2.15-4.69-2.15-3.61 0-5.5 2.252-5.58 2.348-.262.32-.215.793.105 1.056.2.163.458.194.688.126.053.11.124.214.23.29 1.317.938 2.676 1.277 3.925 1.277 1.906 0 3.56-.79 4.426-1.45.045-.036.073-.083.11-.126.316.38.49.67.5.683.136.242.39.377.65.377.124 0 .252-.03.37-.097.36-.205.485-.663.28-1.023zm-7.92-.118c-.468-.155-.945-.382-1.425-.718.382-.272.903-.566 1.567-.79-.156.27-.252.576-.252.91 0 .21.043.41.11.598zm3.094-1.748c.77.158 1.42.502 1.947.897-.185.134-.78.525-1.62.807.057-.176.095-.36.095-.554 0-.438-.16-.834-.42-1.148z"/>
</svg>
