<svg xmlns="http://www.w3.org/2000/svg" viewBox="0 0 100 100">
    <path d="M50.165 10.895c-18.566 0-34.755 13.18-38.493 31.336-.043.21-.04.42.002.61.02.69.516 1.3 1.223 1.43L32.915 48l-20.677 2.878c-.802.11-1.362.838-1.28 1.636-.01.09-.017.178-.01.27C12.284 73.374 29.51 89.5 50.164 89.5c21.67 0 39.3-17.63 39.3-39.3 0-21.67-17.63-39.3-39.3-39.3zM14.037 53.65l18.532-2.578c-.34 1.212-.43 2.665.38 3.918.61.96 1.67 1.597 3.12 1.896.69.14 1.46.2 2.27.2.98 0 2.02-.087 3.03-.222.35.42 1.1 1.39 1.69 2.706-.04.02-2.79 1.633-4.76 2.23-2.66.81-7.52 5.374-7.46 11.264-.27 1.314-1.27 4.457-3.14 5.29-.09.04-.17.09-.25.144-7.43-5.964-12.5-14.79-13.45-24.848zm36.128 32.846c-7.39 0-14.3-2.243-20.072-6.088 2.8-2.115 3.653-6.41 3.75-6.95.018-.1.026-.2.023-.303-.113-4.425 3.73-8 5.328-8.485 1.673-.51 3.682-1.556 4.718-2.126.005.052.015.102.02.155.063.78.72 1.37 1.492 1.37.04 0 .083 0 .124-.01.825-.07 1.44-.79 1.37-1.62-.212-2.61-1.33-4.79-2.26-6.2 1.506-.36 2.607-.71 2.795-.84.685-.47.865-1.4.4-2.08-.398-.59-1.14-.81-1.774-.56-3.2 1.06-9.69 2.01-10.61.59-.4-.61.06-1.93.49-2.77l6.49-.91c.73-.1 1.27-.72 1.29-1.45.01-.74-.51-1.37-1.23-1.51l-5.93-1.1.02-.6c.02-.58-.29-1.13-.8-1.4-.81-.42-1.2-.75-1.39-.94l4.01-3.68c.25-.24.4-.54.46-.86.81.65 1.56 1.43 1.99 2.32.26.53.79.84 1.35.84.22 0 .44-.05.66-.16.74-.36 1.05-1.26.68-2.01-1.31-2.68-4.15-4.4-5.72-5.19.64-2.39 3.3-4.17 3.34-4.19.69-.45.89-1.38.44-2.08s-1.38-.9-2.08-.44c-.18.12-4.52 2.97-4.83 7.23-.01.09 0 .18.01.26-.05.64.31 1.26.94 1.51.22.08.53.22.89.4-.06.04-.12.08-.17.13l-3.94 3.62c-.59.42-1.21 1.23-1.18 2.28.02.86.48 1.58 1.04 2.14l-17.43-3.23c3.92-16.13 18.55-27.7 35.27-27.7 20.02 0 36.3 16.28 36.3 36.3 0 7.14-2.08 13.8-5.66 19.42-1.89-2.13-6.04-6.44-11.07-9.45-4.64-2.77-5.78-5.54-6.05-6.56 1.02-1.58 3.96-6.52 5.48-12.91 2.03-8.52-4.39-15.25-9.38-17.12-2.14-.8-3.83-.85-5.48-.9-2.32-.08-4.72-.15-9.08-2.33-.75-.38-1.65-.07-2.02.67-.37.74-.07 1.64.67 2.01 4.96 2.47 7.81 2.56 10.33 2.64 1.52.05 2.84.09 4.52.71 3.98 1.49 9.12 6.85 7.51 13.61-1.69 7.06-5.35 12.36-5.38 12.42-.19.27-.29.6-.27.94.01.2.35 5.06 7.58 9.38 5.13 3.06 9.4 7.74 10.84 9.41-6.64 8.7-17.11 14.34-28.88 14.34z"/>
    <path d="M44.73 24.22c-.727-.083-1.97-.467-2.327-1.03-.444-.7-1.373-.906-2.07-.46-.7.443-.905 1.37-.46 2.07 1.274 2.003 4.207 2.365 4.537 2.4.053.006.106.01.158.01.756 0 1.402-.57 1.486-1.338.09-.82-.504-1.56-1.324-1.653z"/>
</svg>
