<svg xmlns="http://www.w3.org/2000/svg" viewBox="0 0 100 100">
    <path d="M45.24 30.038c0-5.27-4.288-9.56-9.56-9.56-5.27 0-9.558 4.29-9.558 9.56 0 1.487.35 2.89.96 4.148-.01.007-.02.01-.03.02C20.575 39.33 16.29 48.06 14.66 59.45c-1.22 8.53-.552 15.446-.522 15.736.05.513.483.904 1 .904h10.477c-.002.033-.01.064-.01.097v5.137c0 .924.75 1.673 1.673 1.673.924 0 1.673-.75 1.673-1.673v-5.137c0-.033-.01-.064-.01-.097h9.02c0 .033-.01.064-.01.097v5.137c0 .924.75 1.673 1.68 1.673s1.68-.75 1.68-1.673v-5.137c0-.033 0-.064-.01-.097h9.21c.54 0 .98-.42 1.01-.954 1.19-23.823-6.86-35.734-8.97-38.427 1.69-1.73 2.73-4.08 2.73-6.68zm-9.56-7.552c4.165 0 7.553 3.388 7.553 7.552s-3.388 7.552-7.552 7.552c-4.16 0-7.55-3.388-7.55-7.552s3.39-7.552 7.55-7.552zM49.53 74.08H16.067c-.3-4.824-.964-27.67 12.084-38.175 1.75 2.243 4.48 3.693 7.53 3.693 1.96 0 3.78-.592 5.29-1.602 1.9 2.478 9.45 13.823 8.57 36.085z"/>
    <path d="M77.775 40.99c-.062-.107-.144-.196-.235-.27.885-1.382 1.405-3.02 1.405-4.778 0-4.903-3.99-8.892-8.893-8.892-4.903 0-8.892 3.99-8.892 8.892 0 3.402 1.922 6.36 4.736 7.856 0 .066.007.133.02.2 2.314 11.295-4.387 28.78-4.455 28.956-.12.308-.08.657.11.93s.5.437.83.437h4.77v7.01c0 .74.6 1.34 1.34 1.34s1.34-.6 1.34-1.33v-7.01h6.73v7.01c0 .74.6 1.34 1.34 1.34s1.34-.6 1.34-1.33v-7.01h3.57c.46 0 .86-.31.98-.76 3.86-15.38-5.6-31.87-6.01-32.57zM63.17 35.942c0-3.796 3.088-6.884 6.883-6.884 3.796 0 6.885 3.09 6.885 6.884 0 3.796-3.09 6.885-6.885 6.885-3.796 0-6.884-3.09-6.884-6.885zm18.847 36.37h-18.18c1.523-4.3 5.824-17.69 4.23-27.71.64.148 1.303.233 1.987.233 2.396 0 4.57-.957 6.17-2.504 1.263 2.31 8.704 16.72 5.793 29.99z"/>
    <path d="M76.073 52.9l.6 8.405c.05.705.64 1.243 1.335 1.243.032 0 .064 0 .097-.003.737-.053 1.292-.693 1.24-1.43l-.6-8.407c-.053-.738-.682-1.282-1.432-1.24-.738.053-1.293.693-1.24 1.43z"/>
    <path d="M24.066 48.132c-.73-.046-1.377.505-1.428 1.242l-.6 8.64c-.053.736.504 1.376 1.24 1.427.032.01.064.01.095.01.697 0 1.285-.54 1.334-1.24l.6-8.64c.053-.73-.504-1.37-1.24-1.42z"/>
    <circle cx="71.171" cy="35.458" r="1.116"/>
    <circle cx="66.312" cy="35.027" r="1.116"/>
    <circle cx="34.722" cy="29.398" r="1.306"/>
    <circle cx="40.431" cy="29.529" r="1.306"/>
</svg>
