<svg xmlns="http://www.w3.org/2000/svg" viewBox="0 0 100 100">
    <path d="M89.358 32.758c-6.016-4.77-29.995-11.826-31.013-12.123-.12-.035-.244-.053-.37-.053-.145 0-3.596.03-5.62 2.558-1.204 1.506-1.622 3.504-1.248 5.95-6.484 3.8-37.885 22.52-40.758 30.597-2.34 6.568-2.62 18.097.53 22.562 1.06 1.5 2.28 1.86 3.15 1.89.1.01.26.02.45.02 1.33 0 5.69-.7 5.69-9.78-.03-.83.2-1.73.41-1.85l-.4-1.26.48 1.24c.05 0 .1.01.11.02 0 0 .11.12.11.58 0 3.92 2.01 4.34 2.88 4.34.25 0 .47-.04.64-.08 1.25-.07 2.69-1.21 2.88-5.97 2.38-1.27 11.19-5.68 22.14-7.55 13.24-2.26 31.94-11.7 32.73-12.1.48-.25.76-.76.71-1.3-.08-.8.1-2.14.59-2.36.33 0 1 .54 1.37 1.02.29.37.75.56 1.22.5 2.45-.32 4.87-3.93 5.78-7.24 1.11-4 .21-7.52-2.48-9.65zm-.052 8.943c-.708 2.56-2.14 4.43-3.06 5.08-.63-.59-1.62-1.29-2.777-1.29-.4 0-.78.09-1.14.25-1.73.79-2.06 2.83-2.1 4.06-3.63 1.79-19.84 9.55-31.24 11.5-13.27 2.28-23.23 7.98-23.65 8.22-.4.23-.65.66-.66 1.13-.03 2.77-.45 3.79-.64 4.11-.08.01-.16.04-.25.09-.09-.13-.29-.56-.29-1.69 0-2.23-1.43-3.23-2.85-3.23-.15 0-.25.01-.31.02-2.07.19-2.91 2.43-2.82 4.53 0 5.23-1.58 7.1-3.06 7.1h-.09c-.08-.01-.17-.02-.25-.02-.14 0-.57 0-1.12-.78-2.39-3.37-2.49-13.74-.21-20.16 2.05-5.75 25.29-20.9 40.41-29.68.5-.29.75-.86.62-1.42-.46-2.06-.28-3.63.55-4.67 1.03-1.3 2.86-1.53 3.41-1.58 2.39.71 24.57 7.37 29.91 11.6 2.49 1.98 2.06 5.16 1.58 6.89z"/>
    <path d="M81.635 41.138c-6.768-.978-9.32-3.17-12.02-5.49-.663-.567-1.347-1.155-2.095-1.725-4.026-3.073-11.455-3.307-11.77-3.316-.74-.013-1.328.553-1.348 1.278-.02.726.552 1.33 1.277 1.35.06.002 6.89.222 10.24 2.778.68.524 1.31 1.062 1.97 1.63 2.87 2.464 5.83 5.01 13.36 6.098.06.01.12.02.19.02.64 0 1.2-.47 1.3-1.12.1-.72-.4-1.38-1.12-1.49z"/>
    <path d="M61.266 43.01c-1.803.25-5.09 1.587-5.194 4.99-.04 1.298.45 2.083.867 2.513.57.596 1.37.91 2.31.91 1.9 0 4-1.325 4.99-3.154 1.1-2.06.65-3.4.29-4.01-.63-1.06-1.97-1.57-3.27-1.25zm.663 4.013c-.59 1.095-1.85 1.772-2.68 1.772-.2 0-.36-.042-.43-.112s-.14-.265-.13-.604c.06-2.07 2.86-2.46 2.97-2.47.06-.01.12-.02.18-.04.07-.02.14-.03.2-.03.08 0 .19.02.21.07.06.1.11.55-.35 1.41z"/>
    <path d="M50.426 47.422c-.612-.39-1.425-.21-1.815.403 0 .008-.59.85-1.96.976-.72.07-1.25.71-1.18 1.43.07.69.64 1.2 1.31 1.2h.13c2.63-.24 3.81-1.98 3.94-2.18.39-.61.21-1.42-.4-1.81z"/>
    <path d="M37.532 50.163c.105-.756-.034-1.89-1.29-3.008-.62-.553-1.427-.845-2.33-.845-2.52 0-5.32 2.257-6.813 5.488-.51 1.088-.54 1.993-.09 2.69.28.437.86.96 2.03.96 1.89 0 4.9-1.46 5.23-1.62.49-.24 2.96-1.54 3.26-3.665zm-7.982 2.6c1.193-2.484 3.125-3.824 4.363-3.824.252 0 .448.06.583.18.175.15.463.45.432.68-.072.53-1.114 1.32-1.81 1.66-.902.44-2.51 1.11-3.568 1.3z"/>
    <path d="M56.59 37.092c.25-.68-.1-1.437-.782-1.687-.167-.062-4.13-1.462-7.112 2.245-.455.566-.366 1.393.2 1.848.243.195.534.29.823.29.38 0 .76-.168 1.02-.49 1.74-2.168 3.91-1.508 4.17-1.422.68.243 1.43-.106 1.67-.784z"/>
    <path d="M46.183 42.82c-.173-.665-.808-1.377-2.07-1.377-.324 0-.673.048-.98.13-.627.134-2.715.682-3.306 2.13-.23.562-.18 1.153.136 1.62.255.38.784.83 1.862.83.897 0 2.01-.31 2.905-.81 1.71-.953 1.544-2.172 1.453-2.522z"/>
    <path d="M28.488 60.057c-.232-.292-.936-1.18-2.052-1.18-.82 0-1.404.467-1.874.842-.307.24-.596.47-.887.54-1.355.31-2.305 1.53-2.163 2.79.104.91.85 1.83 2.283 1.83.325 0 .68-.05 1.054-.15 1.89-.49 3.13-1.28 3.68-2.35.39-.78.33-1.55.15-2.02-.05-.12-.12-.23-.2-.33z"/>
    <path d="M40.716 55.59c-3.843-.697-7.23 1.77-7.373 1.876-.583.432-.706 1.255-.274 1.84.25.347.65.53 1.05.53.27 0 .54-.083.78-.257.02-.02 2.64-1.9 5.34-1.41.71.13 1.4-.35 1.53-1.06.13-.72-.35-1.4-1.06-1.53z"/>
    <path d="M72.87 45.612c-.737 0-1.623.45-2.085.718-.476.276-.89.58-1.198.88-.985.955-.67 1.782-.492 2.092.268.463.755.73 1.334.73.73 0 1.62-.45 2.08-.718 2.22-1.29 2.01-2.415 1.69-2.973-.27-.46-.76-.72-1.34-.72z"/>
    <path d="M60.68 40.735c.238 0 .478-.064.694-.198.436-.27 1.187-.573 1.452-.55.65.267 1.402-.025 1.697-.67.302-.66.01-1.44-.65-1.742-1.45-.662-3.342.39-3.887.73-.617.383-.806 1.193-.423 1.81.25.4.68.62 1.118.62z"/>
    <path d="M16.607 61.61c-.646-.33-1.44-.074-1.768.573-.06.113-1.41 2.8-1.33 6.524.01.716.6 1.285 1.31 1.285h.03c.72-.016 1.3-.618 1.28-1.344-.07-3.023 1.02-5.24 1.04-5.273.33-.646.07-1.435-.58-1.765z"/>
</svg>
