<svg xmlns="http://www.w3.org/2000/svg" viewBox="0 0 100 100">
    <path d="M64.372 29.665c-.79 0-1.467-.264-1.955-.764-.662-.678-.878-1.716-.59-2.847.248-.985.855-1.985 1.708-2.817 1.838-1.794 4.446-2.25 5.69-.974.662.678.878 1.716.59 2.847-.248.984-.855 1.984-1.708 2.816-1.117 1.09-2.513 1.74-3.735 1.74z"/>
    <path d="M52.405 57.018c-.998 0-1.83-.326-2.403-.942-1.632-1.755-.574-5.302 2.408-8.076 1.858-1.73 4.035-2.763 5.823-2.763 1 0 1.83.327 2.403.944.855.92 1.015 2.317.45 3.935-.495 1.417-1.51 2.888-2.857 4.14-1.86 1.73-4.037 2.763-5.825 2.763z"/>
    <path d="M67.774 38.688c-.733 0-1.35-.245-1.78-.71-.636-.682-.764-1.694-.36-2.85.335-.956 1.014-1.943 1.912-2.78 1.995-1.855 4.576-2.382 5.727-1.142.635.682.763 1.695.358 2.85-.333.956-1.012 1.943-1.91 2.78-1.248 1.16-2.724 1.852-3.946 1.852z"/>
    <path d="M32.254 55.755c-.978 0-1.792-.32-2.355-.925-.84-.9-.997-2.267-.443-3.85.482-1.38 1.47-2.813 2.782-4.034 1.81-1.685 3.932-2.692 5.676-2.692.978 0 1.792.32 2.355.925.84.9.997 2.266.443 3.85-.482 1.38-1.47 2.812-2.782 4.033-1.81 1.686-3.933 2.692-5.676 2.692z"/>
    <path d="M31.458 63.386c-.613 0-1.13-.21-1.497-.604-.526-.566-.64-1.426-.316-2.358.26-.744.786-1.51 1.48-2.158 1.582-1.47 3.643-1.854 4.59-.835.974 1.05.474 2.99-1.166 4.516-.968.902-2.123 1.44-3.09 1.44z"/>
    <path d="M54.252 40.592c-.612 0-1.13-.21-1.497-.604-.976-1.05-.475-2.99 1.165-4.516 1.583-1.473 3.642-1.852 4.588-.835.527.566.642 1.426.317 2.36-.26.743-.786 1.51-1.48 2.156-.97.9-2.125 1.44-3.093 1.44z"/>
    <path d="M79.925 21.08c-3.028-3.26-8.1-3.766-11.806-4.125-.602-.058-1.198-.087-1.773-.087-4.74 0-7.923 2.004-10.634 4.094-1.35-.77-4.104.026-6.02 1.397-1.528 1.09-3.104 2.713-3.396 4.006-4.585 1.616-6.208 4.996-8.05 8.864-.305.638-.62 1.296-.958 1.974-1.75 3.498-3.152 4.066-5.7 5.098-.565.23-1.183.484-1.85.785-1.44-.64-4.107.67-5.792 2.427-1.378 1.44-2.718 3.486-2.603 4.814.02.23.083.444.184.63-3.656 5.214-7.054 11.91-7.655 16.035-.352 2.414.57 5.378 2.297 7.375.438.506.91.927 1.406 1.26l-.005.01c.13.077 3.1 1.85 8.152 3.745.017.54.018 1.133-.02 1.842-.023 1.067.074 4.555 2.343 4.636.095.01.202.018.315.018.56 0 1.04-.202 1.428-.6.494-.507 1.03-1.46 1.202-4.163 3.204.925 6.457 1.636 9.694 2.09 1.67.234 3.344.35 5.016.35 9.025 0 17.94-3.364 25.056-9.57 9.948-8.68 15.4-21.735 15.35-36.772-.007-.49-.236-11.745-6.183-16.133zm-57.31 55.008c.018-.01.038-.02.056-.032.008-.005.72-.49 1.407-.49.315 0 .56.105.774.33.197.208.45.62.637 1.396-1.068-.418-2.03-.826-2.873-1.204zm7.526-2.31c-.72.74-1.03 2.086-.973 4.24.124 4.72-.514 5.752-.712 5.955-.072.075-.15.037-.24.028l-.117.008c-.29-.208-.55-1.57-.53-2.714.184-3.33-.26-5.517-1.363-6.68-.565-.596-1.3-.913-2.127-.913-1.103 0-2.064.56-2.386.768-.402.155-.803.234-1.194.234-.477 0-.914-.116-1.306-.295-.216-.117-.383-.21-.493-.274-.45-.292-.828-.652-1.116-.986-1.37-1.585-2.137-4.005-1.863-5.885.897-6.144 9.202-19.613 13.465-21.836 1.173-.612 2.2-1.03 3.107-1.395 2.67-1.082 4.602-1.864 6.665-5.992.345-.69.664-1.36.973-2.006 1.96-4.117 3.378-7.092 8.184-8.27 2.976-.73 5.24-2.54 7.427-4.292 3.365-2.69 6.544-5.223 12.4-4.66 4.385.426 8.274 1.048 10.567 3.477l-.02.032c.055.035.102.084.157.122.898 1.01 1.54 2.31 1.836 4.03.036.153 3.552 15.35-4.452 21.577-2.704 2.102-4.574 3.134-6.078 3.964-3.362 1.855-4.858 2.89-8.15 9.933-1.837 3.934-1.785 12.118-1.776 12.567.034.296-.007.826-.17 1.01-.02.022-.06.067-.227.067-.057 0-.114-.004-.09.013-.523-.327-1.39-2.898-1.855-5.5-.033-.182-.117-.357-.242-.49-.176-.19-.457-.31-.715-.31-.633 0-1.27.622-1.517.888-.553.6-1.452 1.938-1.268 4.142.083.976-.137 1.317-.162 1.43-.008-.033-1.175-3.267-3.157-3.267-.23 0-.454.045-.67.132-2.762 1.124-5.982 1.693-9.57 1.693-4.142 0-7.446-.778-8.032-.925-.182-.087-.49-.198-.868-.198-.507 0-.97.202-1.34.58zm39.392-1.202c-8.027 7.003-18.454 10.202-28.586 8.78-3.305-.464-6.63-1.198-9.9-2.166 0-.385-.002-.785-.013-1.22-.067-2.507.454-2.903.493-2.903.077.047.16.083.245.106.154.04 3.802 1.013 8.612 1.013 3.83 0 7.287-.616 10.232-1.826.36.064 1.134 1.27 1.36 1.87.197.764.946 1.318 1.78 1.318.524 0 1.014-.218 1.378-.614.548-.596.772-1.524.668-2.757-.08-.964.117-1.658.372-2.138.59 2.597 1.54 5.156 2.995 5.38.927.142 1.597-.106 2.087-.66.794-.9.644-2.312.63-2.363 0-.08-.054-8.103 1.61-11.66 3.164-6.774 4.39-7.45 7.36-9.09 1.56-.86 3.5-1.93 6.322-4.125 6.857-5.334 6.3-15.898 5.603-20.81 1.376 4.134 1.462 8.45 1.463 8.514.047 14.478-5.177 27.033-14.71 35.35z"/>
    <path d="M45.197 68.1c-.76 0-1.4-.25-1.858-.72-.696-.72-.85-1.81-.436-3.07.347-1.056 1.075-2.156 2.05-3.097 2.148-2.074 4.946-2.716 6.218-1.4 1.31 1.36.617 4.01-1.615 6.166-1.376 1.327-3.006 2.12-4.36 2.12z"/>
    <path d="M47.69 46.927c-.503 0-.917-.4-.933-.904l-.196-6.38c-.015-.515.39-.945.904-.96.51-.052.946.387.962.902l.196 6.38c.016.515-.39.945-.903.96-.01.002-.02.002-.03.002z"/>
    <path d="M46.697 34.7c-.364 0-.71-.215-.86-.572-.2-.475.024-1.022.5-1.22l6.645-2.792c.476-.2 1.02.024 1.22.498.2.475-.024 1.022-.5 1.22l-6.645 2.792c-.117.05-.24.073-.36.073z"/>
    <path d="M42.046 42.674h-.05c-.515-.028-.91-.467-.883-.982l.266-5.05c.027-.515.507-.906.98-.882.514.027.91.466.882.98l-.266 5.05c-.027.497-.438.884-.93.884z"/>
    <path d="M25.137 61.675h-.05c-.514-.028-.91-.466-.883-.98l.342-6.613c.027-.515.476-.903.98-.883.514.026.91.464.883.978l-.343 6.613c-.026.498-.437.885-.93.885z"/>
    <path d="M27.026 68.99c-.097 0-.197-.014-.295-.047l-6.38-2.127c-.487-.163-.752-.69-.59-1.18.165-.488.687-.756 1.18-.59l6.38 2.127c.49.163.754.69.59 1.18-.13.39-.493.638-.884.638z"/>
    <path d="M63.045 53.972c-.087 0-.177-.012-.266-.04-.495-.146-.776-.665-.63-1.16l1.86-6.246c.147-.494.664-.778 1.16-.628.495.147.776.666.63 1.16l-1.86 6.247c-.12.405-.493.667-.895.667z"/>
    <path d="M77.933 34.034c-.323 0-.638-.168-.81-.468l-3.058-5.316c-.256-.447-.103-1.017.344-1.273.446-.257 1.017-.103 1.273.343l3.058 5.316c.257.447.104 1.017-.343 1.273-.147.084-.307.124-.464.124z"/>
    <path d="M54.67 66.997c-.142 0-.287-.033-.423-.1-.46-.235-.64-.797-.407-1.255l3.59-7.044c.232-.46.794-.64 1.254-.408.46.234.64.796.407 1.254l-3.59 7.044c-.162.323-.49.51-.83.51z"/>
    <path d="M71.884 43.106c-.4 0-.767-.257-.89-.658-.153-.492.124-1.015.616-1.166l5.183-1.595c.49-.15 1.014.124 1.166.617.15.492-.126 1.015-.618 1.166l-5.183 1.595c-.093.027-.185.04-.276.04z"/>
    <path d="M65.27 42.807c-.202 0-.407-.066-.578-.202l-3.19-2.525c-.403-.32-.47-.906-.152-1.31.318-.402.906-.474 1.31-.152l3.19 2.525c.403.32.47.906.152 1.31-.183.232-.457.354-.732.354z"/>
    <path d="M60.555 33.87c-.29 0-.58-.137-.76-.393l-3.69-5.184c-.3-.42-.2-1.002.22-1.3.42-.3 1.002-.202 1.3.218l3.69 5.185c.3.42.2 1.002-.22 1.3-.165.118-.353.174-.54.174z"/>
    <path d="M42.21 58.69c-.088 0-.18-.013-.27-.04-.492-.15-.77-.67-.622-1.162l1.962-6.496c.148-.492.667-.774 1.162-.623.493.148.772.668.623 1.16l-1.962 6.497c-.12.403-.49.663-.892.663z"/>
    <path d="M34.034 67.908c-.27 0-.54-.118-.725-.346-.325-.4-.263-.988.137-1.31l4.987-4.036c.398-.324.986-.263 1.31.138.325.4.263.988-.137 1.31L34.62 67.7c-.172.14-.38.208-.586.208z"/>
</svg>
