<svg xmlns="http://www.w3.org/2000/svg" viewBox="0 0 100 100">
    <path d="M29.63 65.146c.347 0 .627-.28.627-.626v-3.547c0-.346-.28-.626-.626-.626s-.62.28-.62.626v3.547c0 .346.28.626.63.626z"/>
    <path d="M29.63 58.053c.347 0 .627-.28.627-.626V53.88c0-.346-.28-.626-.626-.626s-.62.28-.62.626v3.547c0 .346.28.626.63.626z"/>
    <path d="M29.628 72.24c.345 0 .625-.28.626-.624l.003-3.548c0-.346-.28-.626-.626-.626s-.62.28-.62.626v3.545c0 .346.28.627.63.628z"/>
    <path d="M42.59 85.702c-1.17-.228-2.28-.544-3.296-.938-.32-.124-.685.035-.81.358-.125.323.035.685.358.81 1.086.42 2.266.757 3.508 1 .04.007.08.01.12.01.293 0 .555-.206.614-.505.067-.34-.155-.668-.494-.735z"/>
    <path d="M30.69 74.983c-.082-.336-.42-.54-.757-.46-.336.082-.542.42-.46.757.297 1.218.724 2.382 1.267 3.46.11.217.33.343.56.343.095 0 .19-.02.28-.067.31-.156.434-.533.278-.84-.5-.994-.893-2.068-1.168-3.193z"/>
    <path d="M33.744 80.978c-.228-.26-.623-.285-.884-.057-.26.23-.285.63-.057.89.807.92 1.74 1.74 2.776 2.44.1.08.22.11.35.11.2 0 .39-.09.51-.27.19-.28.12-.67-.17-.87-.95-.64-1.8-1.38-2.54-2.22z"/>
    <path d="M31.51 47.823h-1.88c-.345 0-.625.28-.625.626v1.87c0 .34.28.62.626.62s.63-.28.63-.63v-1.25h1.25c.35 0 .63-.28.63-.63s-.28-.63-.62-.63z"/>
    <path d="M36.336 49.075h4.827c.346 0 .626-.28.626-.626s-.28-.63-.63-.63h-4.83c-.35 0-.63.28-.63.62s.28.62.62.62z"/>
    <path d="M45.99 49.075h3.178c.346 0 .626-.28.626-.626s-.28-.63-.626-.63H45.99c-.346 0-.626.28-.626.62s.28.62.626.62z"/>
    <path d="M53.995 49.075h4.827c.346 0 .626-.28.626-.626s-.28-.63-.626-.63h-4.827c-.346 0-.626.28-.626.62s.28.62.62.62z"/>
    <path d="M63.65 47.823c-.347 0-.627.28-.627.626s.28.62.626.62h1.25v1.25c0 .34.28.62.62.62s.62-.28.62-.63v-1.87c0-.35-.28-.63-.63-.63h-1.87z"/>
    <path d="M64.9 64.514c0 .346.28.626.627.626s.626-.28.626-.626v-3.547c0-.346-.28-.626-.626-.626s-.626.28-.626.63v3.55z"/>
    <path d="M66.154 68.06c0-.346-.28-.626-.626-.626s-.626.28-.626.626v3.407l.002.142c0 .34.28.62.626.62h.002c.346 0 .625-.28.624-.63 0-.1-.002-.16-.002-.17v-3.38z"/>
    <path d="M65.527 58.046c.346 0 .626-.28.626-.626v-3.547c0-.346-.28-.626-.626-.626s-.626.28-.626.626v3.547c0 .346.29.626.63.626z"/>
    <path d="M61.417 80.974c-.736.84-1.59 1.588-2.534 2.226-.287.194-.362.583-.168.87.12.178.318.275.52.275.12 0 .24-.035.35-.107 1.033-.698 1.967-1.518 2.774-2.438.22-.26.2-.655-.06-.884-.26-.227-.66-.202-.89.058z"/>
    <path d="M55.87 84.762c-1.016.394-2.125.71-3.295.94-.34.065-.56.394-.494.734.06.3.32.506.62.506.04 0 .08-.004.12-.012 1.25-.243 2.43-.58 3.51-1 .32-.125.48-.488.36-.81-.12-.323-.49-.484-.81-.358z"/>
    <path d="M65.226 74.518c-.334-.08-.674.124-.757.46-.28 1.125-.67 2.2-1.17 3.193-.16.31-.03.69.28.85.09.05.18.07.28.07.23 0 .45-.12.56-.34.54-1.08.97-2.24 1.26-3.46.08-.33-.13-.67-.46-.75z"/>
    <path d="M49.134 86.124c-.506.03-1.03.04-1.554.044-.525-.005-1.05-.015-1.554-.044-.34-.017-.64.244-.66.59-.02.344.243.64.588.66.405.023.826.027 1.243.035.032 0 .06.01.094.01.1 0 .2-.01.29-.01h.29c.04 0 .06-.02.1-.02.42-.01.84-.01 1.25-.04.35-.02.61-.32.59-.66-.02-.35-.31-.61-.66-.59z"/>
    <path d="M71.523 10.686c-.322-.292-.773-.396-1.19-.275l-6.012 1.74.29-1.56c.01-.06.02-.12.02-.19l.01-.04c0-.12-.02-.24-.06-.35v-.03c0-.02-.01-.04-.02-.05l-.03-.08c-.02-.04-.04-.08-.07-.12-.01-.02-.02-.05-.04-.07-.03-.04-.06-.08-.1-.12-.01-.02-.02-.03-.04-.05-.05-.05-.11-.09-.17-.13l-.05-.03c-.05-.03-.1-.05-.15-.08l-.06-.02c-.05-.02-.11-.04-.16-.05-.01 0-.02-.01-.03-.01h-.02c-.06-.01-.12-.01-.18-.01h-.08L29.4 10.78c-.333.017-.647.166-.87.415-.223.25-.338.577-.317.91l1.86 30.708h-4.897c-.692 0-1.252.56-1.252 1.252v28.38c-.013.317-.28 7.83 5.324 13.687 4.047 4.23 10.04 6.45 17.824 6.603.165.02.338.008.507.007l.36.002c.05 0 .09-.003.14-.01 7.78-.152 13.77-2.37 17.82-6.602 5.6-5.857 5.33-13.37 5.32-13.632V44.066c0-.692-.56-1.252-1.25-1.252h-3.84l5.77-30.97c.08-.428-.07-.866-.39-1.158zM30.79 13.22l28.215-1.39-4.892 3.34c-.026.017-.047.04-.07.058-.026.02-.053.04-.077.064-.035.033-.066.07-.097.105l-.06.068c-.04.047-.07.096-.09.147l-.03.053c-.04.072-.06.146-.08.223l-.01.01-1.4 5.497-.71.547-.5-4.69c-.04-.342-.26-.638-.58-.768-.32-.13-.69-.076-.95.142l-5.48 4.487-.58-2.32c-.08-.295-.29-.536-.57-.646-.29-.11-.61-.076-.86.092l-5.14 3.39.93-4.08c.12-.51-.2-1.01-.71-1.13-.51-.12-1.01.2-1.13.7l-1.46 6.37c-.09.37.06.76.38.98.31.22.73.22 1.05.01l5.99-3.97.61 2.47c.08.31.31.56.62.66.3.1.64.04.89-.17l5.28-4.33.49 4.64c.03.34.25.63.56.77.11.05.24.07.36.07.21 0 .41-.07.58-.2l.13-.11-1.04 4.1-15.05.68c-.52.02-.92.46-.9.98.02.5.44.9.94.9h.04l14.48-.66-.78 3.06h-.03l-13.77.94c-.52.03-.91.48-.87 1 .03.5.44.88.93.88h.06l13.19-.9-.78 3.05-12.57 1.07c-.52.04-.9.49-.86 1.01.04.49.45.86.93.86h.08l11.93-1-.64 2.49H32.58L30.79 13.2zm37.94 59.336c.003.067.24 6.753-4.63 11.845-3.647 3.82-9.204 5.78-16.522 5.84-7.302-.06-12.852-2.02-16.5-5.81-4.868-5.07-4.655-11.81-4.652-11.93V45.32H68.73l.002 27.24zm-5.14-29.742H49.356l.957-3.768 11.34-.616c.518-.028.915-.47.887-.99-.027-.517-.468-.926-.988-.886l-10.754.584.786-3.095 11.544-.832c.517-.03.906-.48.87-1s-.484-.9-1.005-.87l-10.923.79 1.382-5.44 4.55-4.05v2.86c0 .33.17.64.45.81.28.17.628.19.92.04l3.8-1.95c.462-.24.644-.8.407-1.26-.24-.46-.81-.64-1.27-.4l-2.44 1.25v-3.42c0-.37-.22-.7-.56-.86-.34-.15-.73-.09-1.01.16l-4.04 3.6 1.58-6.22 13.22-3.83-5.49 29.43z"/>
</svg>
