<svg version="1" xmlns="http://www.w3.org/2000/svg" width="682.667" height="682.667" viewBox="0 0 512.000000 512.000000">
    <path id="top" d="M358.5 26.1c-34.3 10.5-60.3 24.5-75.9 40.7C266.1 84 260 99.1 258 128.5c-2.6 36.7-4.2 44.8-10.9 53.3s-16.7 13.8-32.3 17c-4.3.9-7.8 1.9-7.8 2.2.1 1 12.7 8 26 14.4 44.5 21.2 114.6 38.5 156.6 38.6h11.1l2.5-5.3c7.9-16.3 10.6-46.2 5.8-65.2-6.4-25.4-18.5-46.6-42.2-73.9-14.8-17-19.5-23.1-22.5-28.9-7.3-14.5-1.8-28.5 19.1-48.4 5.3-5.1 9.6-9.5 9.6-9.8 0-.8-.5-.6-14.5 3.6z"/>
    <path id="bottom" d="M123.8 207.9c-4.8 1.1-11.2 3-14.2 4.4-14.3 6.6-26.9 18.6-33.6 32.2-5.4 11-7.2 18.9-7.1 31 .2 31.6 16.1 52.6 56.4 74.4 5.3 2.9 9.7 5.4 9.7 5.6 0 .7-22.1-7.8-31.8-12.4-16.5-7.6-27.5-9.8-41.9-8.1-26.8 3-49.3 21-58 46.4C.7 388.8.5 390.7.5 404c0 13.2.3 15.2 2.7 21.8 7 19.4 18.9 32.2 39.6 42.6C70 482.1 112.7 495.6 152 503c34.8 6.5 63.8 9 104 9s69.2-2.5 104-9c50.5-9.5 106.7-29.5 126-44.8 12-9.6 21.6-24.8 24.6-39.2 1.9-8.9 1.4-27.9-.9-35-7.1-21.5-22.6-38.1-42.1-45.1l-6.4-2.3-2.7-7.1c-7.4-18.9-23.5-34.4-42.5-40.8-3-1-15.6-3.4-28-5.3-98.6-15.1-164.9-35.1-207-62.4-5.8-3.7-12.7-7.7-15.5-8.9-13.6-5.6-28.3-7.1-41.7-4.2z"/>
</svg>
