<svg xmlns="http://www.w3.org/2000/svg" viewBox="0 0 100 100">
    <path d="M87.043 72.61c0-5.172-5.252-7.32-7.988-8.087-.706-.198-1.025-.987-.702-1.645 1.25-2.54.747-6.312.747-6.312-.376-5.075-5.918-8.064-8.2-9.085-.532-.237-.792-.835-.624-1.394 2.264-7.495-4.8-9.883-7.82-10.55-.64-.14-1.044-.782-.87-1.415 2.33-8.433-10.796-16.114-16.243-18.894-.827-.422-1.78.257-1.667 1.18.457 3.666-1.963 5.78-1.963 5.78-2.99 2.93-2.474 6.494-2.045 8.056.133.485-.05.997-.47 1.275-1.904 1.265-6.958 4.82-8.55 7.94-1.293 2.535-.674 5.07-.092 6.518.24.6-.036 1.278-.637 1.517-2.47.98-6.24 4.347-7.335 8.13-.86 2.97-.105 5.82.51 7.417.254.66-.13 1.39-.82 1.547-2.715.62-8.384 2.842-8.384 10.597 0 10.196 10.237 9.722 10.237 9.722h51.14C89.11 84.9 87.042 72.61 87.042 72.61zm-46.16-24.5c-1.07 0-1.936-.868-1.936-1.938 0-1.07.867-1.937 1.937-1.937s1.937.867 1.937 1.937-.865 1.937-1.935 1.937zm17.37 6.533c-.056.176-1.41 4.252-7.45 4.372-.023.002-.047.003-.07.003h-.203c-.024 0-.048 0-.072-.003-6.04-.12-7.393-4.196-7.45-4.372-.156-.5.12-1.032.62-1.19.5-.157 1.032.12 1.19.62.04.114 1.074 3.006 5.813 3.047 4.81-.04 5.805-3.018 5.814-3.048.158-.5.69-.776 1.19-.62.5.158.778.69.62 1.19zm1.626-6.534c-1.07 0-1.94-.87-1.94-1.94 0-1.07.868-1.936 1.938-1.936s1.936.867 1.936 1.937-.867 1.938-1.937 1.938z"/>
</svg>
