<svg xmlns="http://www.w3.org/2000/svg" viewBox="0 0 100 100">
    <path d="M28.078 16.215c-5.49 15.864-1.09 24.584 1.054 27.596 1.81 2.54 4.15 4.132 6.136 4.178.115.016.308.035.55.035.623 0 1.57-.13 2.357-.788.548-.46 1.202-1.346 1.202-2.97 0-.02 0-.043-.002-.065-.008-.13-.728-13.037 5.076-19.208 2.006-2.132 4.606-3.212 7.73-3.212h.028c.042 0 4.078-.08 6.16 1.952.82.8 1.218 1.81 1.218 3.095 0 .29.118.567.325.77.21.2.492.31.78.302.922-.024 3.555.143 4.67 1.228l.048.047c-1.488.026-3.616.27-4.796 1.345-.608.553-.93 1.276-.93 2.09 0 10.25 1.74 15.235 5.313 15.235 2.003 0 4.387-1.6 6.222-4.178 2.145-3.012 6.543-11.732 1.054-27.597-.192-.56-.804-.857-1.363-.663-.56.194-.856.804-.663 1.364 5.162 14.923 1.178 22.91-.774 25.652-1.612 2.264-3.41 3.277-4.475 3.277-1.145 0-2.112-1.86-2.652-5.103-.515-3.092-.515-6.524-.515-7.99 0-.21.066-.355.228-.502.812-.74 3.276-.88 4.766-.743.3.028.6-.072.822-.275.223-.203.35-.49.35-.793 0-1.048-.395-1.985-1.142-2.71-1.42-1.375-3.81-1.725-5.192-1.81-.196-1.41-.8-2.612-1.802-3.586-2.686-2.61-7.324-2.562-7.693-2.554-3.733.003-6.854 1.31-9.277 3.888-6.332 6.732-5.71 19.824-5.656 20.773-.004.617-.148 1.05-.426 1.288-.387.33-1.048.31-1.26.276-.064-.012-.127-.018-.19-.018-1.067 0-2.864-1.013-4.476-3.277-1.953-2.742-5.937-10.73-.774-25.65.194-.56-.103-1.17-.663-1.365s-1.172.105-1.365.665z"/>
    <path d="M74.57 19.73c.143.457.566.75 1.022.75.106 0 .214-.015.32-.048.566-.177.88-.78.704-1.344L73.58 9.404c-.177-.565-.78-.88-1.344-.703-.565.178-.88.78-.703 1.345l3.036 9.684z"/>
    <path d="M78.517 22.498c.037.004.075.006.112.006.542 0 1.007-.41 1.064-.962l.867-8.383c.062-.59-.366-1.117-.955-1.178-.586-.058-1.116.367-1.177.956l-.867 8.383c-.06.59.368 1.117.957 1.178z"/>
    <path d="M79.954 26.15c.202.17.45.256.696.256.303 0 .604-.128.816-.376l5.058-5.926c.385-.45.33-1.127-.12-1.512-.45-.384-1.126-.33-1.51.12l-5.06 5.925c-.384.45-.33 1.128.12 1.512z"/>
    <path d="M81.698 29.824c.18.395.57.63.977.63.148 0 .3-.032.443-.097l4.77-2.168c.538-.246.777-.882.532-1.42-.245-.54-.88-.778-1.42-.534l-4.77 2.168c-.54.245-.777.88-.532 1.42z"/>
    <path d="M87.34 33.078l-3.903-.145c-.585-.023-1.09.44-1.11 1.032-.023.592.44 1.09 1.03 1.11l3.903.146c.014.002.027.002.04.002.575 0 1.05-.454 1.072-1.033.02-.592-.442-1.09-1.033-1.112z"/>
    <path d="M86.53 39.578l-3.035-1.734c-.514-.293-1.17-.115-1.463.4-.294.513-.115 1.168.4 1.462l3.034 1.734c.168.096.35.14.53.14.373 0 .735-.193.933-.54.293-.513.115-1.168-.4-1.462z"/>
    <path d="M81.147 42.96c-.403-.435-1.082-.46-1.515-.057-.434.403-.46 1.082-.056 1.515l1.88 2.023c.21.23.497.344.785.344.262 0 .524-.095.73-.287.434-.403.46-1.082.056-1.515l-1.88-2.023z"/>
    <path d="M75.907 48.014l.867 2.023c.174.407.57.65.986.65.14 0 .284-.028.422-.087.545-.233.797-.864.563-1.408l-.867-2.023c-.234-.545-.864-.798-1.408-.564-.544.233-.796.863-.563 1.408z"/>
    <path d="M72.586 49.44c-.575.145-.924.727-.78 1.3l.434 1.735c.122.487.56.813 1.04.813.086 0 .174-.01.26-.032.576-.144.925-.726.78-1.3l-.433-1.734c-.144-.575-.727-.925-1.3-.78z"/>
    <path d="M68.19 51.303c-.585.097-.98.65-.883 1.234l.29 1.734c.086.526.54.897 1.055.897.06 0 .118-.005.178-.015.584-.097.98-.65.882-1.234l-.29-1.734c-.096-.584-.65-.976-1.233-.88z"/>
    <path d="M24.528 20.43c.107.035.215.05.32.05.457 0 .88-.293 1.024-.752l3.035-9.684c.177-.565-.137-1.167-.703-1.344-.566-.178-1.167.137-1.344.703l-3.035 9.684c-.176.565.138 1.167.703 1.344z"/>
    <path d="M20.747 21.542c.057.552.523.962 1.065.962.037 0 .074-.002.112-.006.59-.06 1.017-.588.956-1.177l-.867-8.382c-.06-.59-.586-1.017-1.177-.956-.59.06-1.017.588-.956 1.177l.867 8.382z"/>
    <path d="M18.975 26.03c.212.248.513.376.816.376.247 0 .495-.084.697-.257.45-.386.504-1.063.12-1.513l-5.06-5.926c-.383-.45-1.06-.503-1.51-.118-.452.385-.505 1.062-.12 1.512l5.058 5.926z"/>
    <path d="M12.554 28.19l4.77 2.167c.143.065.294.096.442.096.407 0 .797-.234.977-.63.245-.538.007-1.174-.533-1.42l-4.77-2.167c-.538-.245-1.174-.007-1.42.533-.244.538-.005 1.174.534 1.42z"/>
    <path d="M18.116 33.966c-.022-.592-.51-1.057-1.11-1.032l-3.903.145c-.592.02-1.054.518-1.032 1.11.022.578.498 1.033 1.072 1.033h.04l3.903-.146c.59-.022 1.053-.52 1.03-1.11z"/>
    <path d="M18.41 38.243c-.295-.514-.95-.692-1.464-.4L13.91 39.58c-.513.294-.692.95-.398 1.463.198.347.56.54.932.54.18 0 .363-.045.53-.14l3.036-1.734c.514-.294.693-.95.4-1.463z"/>
    <path d="M20.81 42.903c-.435-.403-1.113-.378-1.517.056l-1.88 2.022c-.402.434-.377 1.113.057 1.515.207.192.468.287.73.287.287 0 .574-.115.785-.343l1.88-2.022c.404-.433.378-1.112-.056-1.515z"/>
    <path d="M22.563 47.17l-.867 2.022c-.233.544.02 1.175.563 1.408.137.06.28.087.42.087.417 0 .813-.244.987-.65l.867-2.023c.233-.544-.02-1.175-.563-1.408-.543-.234-1.174.02-1.407.563z"/>
    <path d="M26.555 50.222l-.434 1.734c-.142.575.207 1.157.78 1.3.088.022.176.032.262.032.48 0 .918-.325 1.04-.813l.434-1.734c.143-.574-.206-1.156-.78-1.3-.574-.143-1.157.207-1.3.782z"/>
    <path d="M31.018 52.184l-.29 1.734c-.096.584.298 1.137.883 1.234.06.01.12.015.18.015.514 0 .968-.372 1.055-.896l.29-1.733c.096-.584-.298-1.137-.883-1.234-.584-.097-1.137.297-1.234.88z"/>
    <path d="M41.9 66.5c.546-.23.8-.858.57-1.404-.23-.545-.857-.8-1.404-.57l-4.12 1.737c1.16-6.47.98-11.416.97-11.632-.023-.59-.532-1.048-1.113-1.028-.592.023-1.052.522-1.03 1.114.005.108.185 5.668-1.225 12.558L30.03 69.18c-1.295-2.45-4.296-5.603-9.01-4.57-.58.127-.946.7-.82 1.277.128.58.7.945 1.278.818 4.93-1.083 6.922 4.026 7.003 4.24.01.028.027.052.04.078-.19.074-.35.2-.467.357-1.67-3.018-5.194-3.12-6.904-2.72-.578.135-.936.71-.802 1.288.135.577.712.934 1.288.8.14-.032 3.483-.777 4.7 1.99.178.402.57.64.983.64.143 0 .29-.028.43-.09.072-.032.138-.07.2-.116.023.814-.085 1.987-.77 2.805-.606.722-1.62 1.073-3.017 1.038-.582-.017-1.083.455-1.098 1.047-.014.592.455 1.083 1.047 1.098l.233.003c1.973 0 3.48-.612 4.487-1.82 1.805-2.168 1.153-5.408 1.124-5.545-.017-.082-.045-.158-.078-.23l.024-.007 4.053-1.708c-1.526 5.983-4.316 12.546-9.404 17.28-.433.402-.457 1.08-.054 1.515.21.227.498.342.785.342.263 0 .525-.096.73-.288 6.084-5.66 9.01-13.654 10.42-19.893l5.47-2.31z"/>
    <path d="M78.857 64.61c-4.714-1.035-7.716 2.12-9.012 4.57l-3.898-1.645c-1.47-7.01-1.284-12.71-1.28-12.82.024-.59-.436-1.09-1.028-1.113-.59-.02-1.09.437-1.115 1.03-.01.218-.194 5.29 1.018 11.89l-4.732-1.997c-.546-.23-1.174.026-1.404.57-.23.547.026 1.176.57 1.406l6.094 2.57c2.4 10.442 6.904 16.417 10.36 19.63.206.193.468.288.73.288.286 0 .573-.115.784-.342.403-.434.38-1.112-.055-1.516-5.014-4.663-7.796-11.1-9.337-17.012l3.42 1.442.023.007c-.034.073-.06.15-.078.23-.03.137-.68 3.377 1.124 5.546 1.005 1.208 2.514 1.82 4.487 1.82.076 0 .154-.002.232-.004.592-.015 1.06-.507 1.047-1.1-.015-.59-.512-1.06-1.1-1.046-1.395.037-2.41-.316-3.015-1.038-.686-.82-.794-1.99-.77-2.805.06.046.127.085.2.117.14.062.286.09.43.09.412 0 .805-.238.982-.64.502-1.14 1.38-1.8 2.683-2.02 1.06-.176 1.993.025 2.02.03.578.134 1.15-.225 1.285-.8.135-.577-.224-1.154-.8-1.288-1.71-.4-5.235-.3-6.904 2.717-.116-.157-.275-.283-.465-.357.012-.025.027-.047.036-.073.006-.014.546-1.416 1.716-2.63 1.466-1.52 3.245-2.063 5.29-1.614.578.128 1.15-.24 1.276-.818.13-.576-.236-1.148-.815-1.275z"/>
    <path d="M60.748 76.445c-.108-.583-.67-.966-1.25-.858-.582.108-.966.668-.858 1.25.08.428 2.003 10.532 6.852 14.775.203.178.455.265.706.265.298 0 .596-.124.808-.366.39-.445.345-1.122-.1-1.512-4.29-3.75-6.14-13.455-6.158-13.553z"/>
    <path d="M65.655 79.443c-.13-.578-.7-.943-1.28-.813-.577.128-.942.7-.813 1.28.05.226 1.276 5.597 4.703 8.4.2.164.44.243.68.243.31 0 .617-.134.83-.393.374-.458.307-1.134-.152-1.51-2.848-2.33-3.958-7.158-3.968-7.207z"/>
    <path d="M57.585 80.193c-.034-.59-.536-1.045-1.132-1.01-.59.035-1.043.54-1.01 1.133.014.22.336 5.44 2.556 8.136.21.257.518.39.827.39.24 0 .48-.08.68-.244.458-.376.524-1.052.147-1.51-1.47-1.786-1.992-5.582-2.07-6.895z"/>
    <path d="M52.612 79.76c-.592 0-1.072.48-1.072 1.072v5.492c0 .592.48 1.072 1.072 1.072.592 0 1.072-.48 1.072-1.072v-5.492c0-.59-.48-1.072-1.072-1.072z"/>
    <path d="M42.113 75.587c-.58-.108-1.142.276-1.25.858-.018.098-1.868 9.8-6.156 13.553-.446.39-.49 1.068-.1 1.513.21.243.508.367.807.367.25 0 .502-.087.706-.265 4.85-4.243 6.773-14.347 6.852-14.775.107-.582-.277-1.14-.86-1.25z"/>
    <path d="M37.235 78.63c-.58-.13-1.15.236-1.28.814-.01.048-1.108 4.868-3.967 7.207-.458.376-.526 1.052-.15 1.51.21.26.52.393.83.393.238 0 .478-.08.678-.242 3.427-2.803 4.653-8.174 4.703-8.4.128-.58-.237-1.152-.815-1.28z"/>
    <path d="M45.158 79.184c-.585-.037-1.098.417-1.132 1.008-.077 1.312-.598 5.108-2.07 6.896-.376.457-.31 1.133.146 1.51.2.164.44.245.68.245.31 0 .617-.133.83-.39 2.22-2.697 2.54-7.916 2.554-8.137.034-.59-.417-1.098-1.008-1.132z"/>
    <path d="M49 79.76c-.593 0-1.073.48-1.073 1.072v5.492c0 .592.48 1.072 1.072 1.072.59 0 1.07-.48 1.07-1.072v-5.492c0-.59-.48-1.072-1.07-1.072z"/>
    <path d="M55.852 26.345c0-.592-.48-1.072-1.072-1.072-.592 0-1.072.48-1.072 1.072 0 .02-.012 1.787-1.023 1.95-.996-.16-1.023-1.878-1.023-1.95 0-.592-.48-1.072-1.072-1.072s-1.072.48-1.072 1.072c0 .097.01.977.348 1.89.438 1.182 1.235 1.925 2.283 2.147.118.046.247.07.382.07h.31c.134 0 .263-.025.382-.07 1.047-.222 1.845-.965 2.283-2.147.335-.912.345-1.792.345-1.89z"/>
</svg>
