<svg xmlns="http://www.w3.org/2000/svg" viewBox="0 0 100 100">
    <path d="M92.627 62.226c-.802-.723-2.04-.66-2.763.145-3.347 3.718-6.97 5.59-10.765 5.52-7.04-.1-12.683-6.64-12.736-6.704-.364-.432-.897-.685-1.46-.694-.566-.012-1.107.225-1.485.644-1.358 1.5-2.736 2.778-4.132 3.847-2.152-7.59-1.46-15.102-.89-18.755 2.266 1.543 5.3 4.93 6.105 7.863.606 2.204 1.654 3.667 3.116 4.35 1.338.624 2.54.366 3.1.176.933-.198 1.71-.696 2.256-1.45 1.082-1.49.84-3.422.78-3.794-2.235-14-16.852-18.384-17.473-18.564-.67-.193-1.402-.007-1.906.475-.215.205-5.35 4.976-12.89.254-.004-.003-.01-.004-.013-.007-.087-.054-.18-.096-.274-.136-.025-.01-.048-.026-.074-.035-.097-.037-.2-.06-.302-.08-.022-.005-.044-.014-.066-.018-.077-.012-.156-.012-.235-.015-.05-.002-.097-.01-.146-.008-.05 0-.103.013-.155.02-.077.008-.155.015-.23.033-.007.002-.013 0-.02.003-.628.158-15.408 4.027-17.65 18.074-.06.372-.303 2.304.78 3.795.545.753 1.322 1.25 2.255 1.45.56.19 1.762.446 3.1-.178 1.463-.68 2.51-2.144 3.117-4.348.806-2.934 3.84-6.32 6.104-7.864.55 3.523 1.21 10.633-.674 17.944-1.237-1.03-1.94-1.822-1.96-1.843-.385-.446-.954-.692-1.54-.676-.59.02-1.14.303-1.497.773-3.485 4.587-8.295 6.755-14.298 6.447-4.66-.24-8.333-1.937-8.384-1.96-.976-.46-2.14-.045-2.602.93-.463.978-.046 2.144.93 2.607.174.082 4.308 2.015 9.712 2.323 6.553.375 12.153-1.79 16.328-6.28.545.493 1.227 1.063 2.02 1.653-1.293 3.243-3.183 6.405-5.918 9.184-1.493 1.56-2.775 4.822-.187 7.41.033.034.067.066.103.097.148.128 1.425 1.182 3.276 1.182.12 0 .245-.005.372-.014 1.01-.077 2.513-.522 3.96-2.19.577-.588 4.81-5.01 7.864-11.337 1.086.21 2.22.343 3.404.356.07.002.142.002.213.002.738 0 1.47-.046 2.2-.133 3.046 6.208 7.18 10.53 7.75 11.11 1.448 1.67 2.95 2.114 3.96 2.19.128.01.252.015.374.015 1.85 0 3.128-1.054 3.276-1.182.036-.03.07-.064.104-.097 2.588-2.588 1.306-5.85-.206-7.43-2.53-2.573-4.34-5.475-5.616-8.467 1.437-1.005 2.85-2.19 4.236-3.57 2.455 2.327 7.683 6.428 14.135 6.53 4.994.09 9.613-2.212 13.757-6.813.723-.8.658-2.038-.145-2.76zM41.04 42.986c-.244-.975-1.186-1.606-2.183-1.46-3.92.58-9.706 6.614-11.057 11.526-.308 1.12-.705 1.68-.973 1.827-.07.037-.132.04-.177.036-.162-.093-.236-.095-.414-.12-.06-.184-.087-.554-.052-.808 1.596-10 11.212-13.783 14-14.678 4.953 2.812 9.16 2.457 11.87 1.62 1.84-.57 3.223-1.414 4.077-2.038 2.993 1.133 12.21 5.375 13.758 15.078.037.27.01.646-.05.83-.16.028-.314.077-.46.144-.037.016-.07-.036-.107-.053-.258-.12-.675-.675-.996-1.838-1.35-4.913-7.138-10.945-11.057-11.525-.995-.148-1.94.483-2.184 1.46-.17.67-3.005 12.392.773 24.195-.828.414-1.66.757-2.498 1.023-.44-1.147-.818-2.34-1.105-3.568-.49-2.04-1.79-4.217-3.968-4.217-.068 0-.132.013-.198.02-.066-.007-.13-.02-.198-.02-2.18 0-3.48 2.18-3.97 4.23-.25 1.06-.567 2.096-.933 3.1-.887-.35-1.718-.757-2.48-1.188 3.49-11.594.75-22.916.584-23.576zM34.5 81.1c-.038.038-.073.076-.107.116-.755.886-1.456 1.115-2.09.68-.575-.67-.057-1.447.323-1.866 2.94-2.993 5.02-6.328 6.478-9.737.71.377 1.463.734 2.262 1.055-2.904 5.727-6.815 9.7-6.867 9.753zm14.297-12.18h-.132c-.66-.006-1.306-.06-1.935-.15.366-1.04.69-2.115.947-3.22.067-.28.213-.666.36-.96.14.278.283.643.36.948.268 1.155.608 2.277.995 3.363-.198.01-.396.02-.595.02zm14.655 11.113c.242.254.96 1.118.317 1.864-.103.063-.412.23-.758.204-.51-.038-1.005-.502-1.33-.884-.035-.04-.07-.078-.107-.115-.052-.05-3.763-3.804-6.64-9.303.764-.262 1.524-.575 2.278-.937 1.444 3.214 3.46 6.347 6.24 9.173z"/>
    <path d="M47.948 35.672c4.575 0 8.298-3.722 8.298-8.297s-3.722-8.297-8.298-8.297-8.298 3.722-8.298 8.297 3.722 8.297 8.298 8.297zm0-12.68c2.418 0 4.384 1.966 4.384 4.383s-1.967 4.384-4.384 4.384c-2.417 0-4.384-1.968-4.384-4.385s1.966-4.384 4.384-4.384z"/>
</svg>
