<svg xmlns="http://www.w3.org/2000/svg" viewBox="0 0 100 100">
    <path d="M57.035 50.788c0 5.44 4.426 9.867 9.867 9.867 5.44 0 9.866-4.426 9.866-9.867s-4.426-9.867-9.866-9.867c-5.44 0-9.867 4.428-9.867 9.87zm9.867-4.912c2.708 0 4.91 2.203 4.91 4.912 0 2.708-2.202 4.912-4.91 4.912-2.71 0-4.912-2.203-4.912-4.912 0-2.71 2.203-4.912 4.912-4.912z"/>
    <path d="M33.526 60.654c5.44 0 9.867-4.426 9.867-9.867s-4.426-9.867-9.867-9.867-9.866 4.426-9.866 9.867 4.426 9.867 9.866 9.867zm0-14.778c2.71 0 4.912 2.203 4.912 4.912 0 2.708-2.203 4.912-4.912 4.912-2.708 0-4.91-2.203-4.91-4.912 0-2.71 2.202-4.912 4.91-4.912z"/>
    <path d="M73.757 66.373H25.785c-1.368 0-2.477 1.11-2.477 2.477 0 1.368 1.11 2.477 2.477 2.477h47.972c1.368 0 2.477-1.11 2.477-2.477 0-1.368-1.11-2.477-2.477-2.477z"/>
    <path d="M86.502 47.7h-1.12V35.343c0-1.368-1.11-2.477-2.477-2.477H68.493v-7.27c1.3-.76 2.175-2.168 2.175-3.782 0-2.42-1.96-4.38-4.38-4.38s-4.382 1.96-4.382 4.38c0 1.378.637 2.605 1.632 3.408v7.644h-3.333V28.15c0-1.367-1.11-2.476-2.477-2.476-1.368 0-2.477 1.11-2.477 2.477v4.718H43.16V28.15c0-1.367-1.11-2.476-2.478-2.476s-2.477 1.11-2.477 2.477v4.718H35.34v-7.364c1.215-.78 2.023-2.138 2.023-3.688 0-2.42-1.96-4.38-4.38-4.38s-4.383 1.96-4.383 4.38c0 1.446.704 2.724 1.784 3.522v7.53h-13.63c-1.368 0-2.477 1.11-2.477 2.477V47.7h-1.12c-.777 0-1.407.63-1.407 1.406v14.23c0 .778.63 1.408 1.407 1.408h1.12V81.29c0 1.367 1.11 2.476 2.477 2.476h66.15c1.37 0 2.478-1.11 2.478-2.477V64.744h1.12c.777 0 1.407-.63 1.407-1.407V49.106c0-.777-.63-1.407-1.41-1.407zm-6.074 31.11H19.232V37.82h61.196v40.99z"/>
</svg>
