<svg xmlns="http://www.w3.org/2000/svg" viewBox="0 0 100 100">
    <path d="M88.03 44.033c-.177-.943-.95-1.614-1.857-1.72-.508-.26-1.116-.325-1.696-.118-4.48 1.6-7.777-4.783-7.807-4.843-.47-.94-1.55-1.4-2.554-1.084-2.886.905-5.208.814-6.903-.27-2.734-1.75-3.265-5.63-3.27-5.66-.114-.954-.85-1.715-1.8-1.86-3.124-.477-5.325-1.715-6.54-3.68-1.7-2.748-1.275-6.393-.895-8.244.59-.327 1.02-.926 1.095-1.648.124-1.175-.73-2.228-1.904-2.352-1.36-.142-2.74-.215-4.11-.215-21.46 0-38.91 17.45-38.91 38.9s17.45 38.91 38.91 38.91 38.9-17.46 38.9-38.91c0-2.43-.23-4.85-.67-7.22zm-38.24 41.84c-19.094 0-34.628-15.534-34.628-34.628S30.697 16.618 49.79 16.618c.185 0 .37.012.556.015-.42 2.648-.574 6.852 1.6 10.39 1.687 2.742 4.4 4.556 8.077 5.404.427 1.577 1.364 4.028 3.33 5.94-.437.516-.702 1.18-.702 1.91 0 1.628 1.33 2.95 2.95 2.95 1.39 0 2.55-.96 2.87-2.25 1.61.29 3.36.24 5.27-.18 1.81 2.734 5.1 5.95 9.27 5.95.37 0 .74-.034 1.12-.085.2 1.514.31 3.05.31 4.583 0 19.094-15.53 34.628-34.62 34.628z"/>
    <path d="M50.34 48.807c-.012 0-.024-.004-.036-.004h-.118c-.013 0-.024.003-.036.004-11.942.08-17.783 9.163-19.205 13.977-.334 1.13.31 2.314 1.44 2.652.204.06.41.09.612.09.92 0 1.77-.598 2.05-1.523.135-.445 3.437-10.884 15.2-10.92C61.997 53.12 65.302 63.536 65.444 64c.277.93 1.127 1.53 2.05 1.53.2 0 .404-.03.606-.09 1.134-.334 1.782-1.524 1.447-2.657-1.423-4.813-7.264-13.897-19.207-13.976z"/>
    <circle cx="38.821" cy="40.276" r="2.95"/>
</svg>
