<svg xmlns="http://www.w3.org/2000/svg" viewBox="0 0 100 100">
    <path d="M69.633 23.862c-2.125 0-4.113-.818-5.598-2.302-3.118-3.118-3.056-8.255.14-11.45 1.573-1.574 3.652-2.44 5.85-2.44 2.126 0 4.114.817 5.6 2.302 1.512 1.513 2.33 3.54 2.3 5.706-.028 2.16-.895 4.2-2.44 5.744-1.573 1.573-3.652 2.44-5.852 2.44zm.394-14.755c-1.815 0-3.532.717-4.834 2.02-2.633 2.633-2.696 6.856-.14 9.413 1.214 1.213 2.84 1.88 4.58 1.88 1.816 0 3.533-.716 4.836-2.018 1.27-1.278 1.99-2.963 2.01-4.745.02-1.774-.65-3.432-1.88-4.67-1.22-1.212-2.84-1.88-4.58-1.88z"/>
    <path d="M60.185 22.193c.008 0 1.068-.115 2.186.935.02.012.03.015.05.026l.06.06c1.96 1.96 4.57 3.038 7.34 3.038 2.77 0 5.38-1.08 7.34-3.04 4.05-4.045 4.05-10.63 0-14.676-1.96-1.96-4.56-3.04-7.34-3.04-2.77 0-5.38 1.08-7.34 3.04-2.27 2.272-3.26 5.344-2.98 8.317-.02.04-.05.074-.06.12 0 .01-.34 1.124-1.13 1.856-1.44 1.32-4.82 3.16-5.3 3.42-1.21-.91-2.67-1.4-4.2-1.4-1.88 0-3.66.73-4.99 2.07-1.86 1.86-2.46 4.51-1.8 6.88-2.29 1.23-4.46 3.55-4.94 4.09-.7-.24-1.45-.36-2.22-.36-1.88 0-3.65.73-4.99 2.06-1.33 1.33-2.06 3.1-2.06 4.99 0 .9.17 1.78.5 2.6-2.25 2.25-3.36 4.61-3.61 5.19-1.49.13-2.87.77-3.94 1.84-2.44 2.44-2.49 6.39-.14 8.89-.84 2.62-.57 5.14-.4 6.16-.35.23-.68.5-.99.81-2.49 2.49-2.49 6.55 0 9.05.91.91 2.05 1.51 3.28 1.75.81 2.85 2.76 5.11 3.41 5.8-.09.38-.14.78-.14 1.19 0 1.42.55 2.75 1.56 3.76 1.01 1 2.34 1.56 3.76 1.56.55 0 1.07-.11 1.58-.27 2.57 1.77 5.4 2.51 6.26 2.7.26.66.65 1.28 1.18 1.81 1 1 2.34 1.56 3.76 1.56s2.76-.55 3.76-1.56c.34-.34.61-.73.84-1.14.17.01.34.02.51.02 2.57 0 5.19-1.11 5.92-1.44.55.27 1.14.42 1.77.42 1.08 0 2.1-.43 2.87-1.19.75-.75 1.13-1.73 1.17-2.71 2.18-1.59 4.28-3.89 4.81-4.49 1-.05 1.93-.45 2.64-1.16.77-.76 1.19-1.78 1.19-2.87 0-.55-.12-1.09-.33-1.58 1.51-1.99 2.23-4.29 2.47-5.17.45-.17.86-.42 1.21-.77 1.24-1.23 1.31-3.18.25-4.51.55-1.34 1.03-4.07 1.2-5.04.32-.16.63-.36.9-.63 1.33-1.32 1.33-3.48 0-4.81-1.28-1.28-3.52-1.28-4.8 0-.64.64-.99 1.5-.99 2.4 0 .78.27 1.5.75 2.1-.13.88-.54 3.56-1.25 5.09-.3.15-.59.34-.84.58-1.05 1.06-1.26 2.63-.63 3.9-.01.04-.03.08-.04.12 0 .02-.31 2.38-2.12 4.27-1.01.05-1.95.45-2.67 1.17-1.09 1.09-1.41 2.65-1 4.03-.41.53-1.94 2.44-3.53 3.35-.39-.12-.79-.2-1.21-.2-1.08 0-2.1.42-2.87 1.19-.51.51-.84 1.13-1.02 1.79-.75.28-2.88.99-4.38.72h-.02c-.22-.36-.46-.69-.76-.99-1.01-1.01-2.34-1.56-3.76-1.56s-2.76.55-3.76 1.56c-.15.14-.26.31-.38.47-.53-.12-2.17-.56-3.41-1.47.07-.35.1-.7.1-1.05 0-1.43-.55-2.76-1.56-3.77s-2.34-1.56-3.76-1.56c-.6 0-1.17.12-1.72.3-.56-.7-1.47-2.05-1.7-3.21.21-.16.41-.34.6-.53 2.5-2.49 2.5-6.55 0-9.05-.8-.8-1.79-1.36-2.86-1.65-.02-.58-.04-2.09.39-3.32 1.51-.12 2.92-.76 4-1.85 2.42-2.42 2.49-6.3.22-8.81.31-.74 1.06-2.37 2.1-3.38.86.36 1.79.55 2.75.55 1.89 0 3.66-.74 5-2.07 1.33-1.33 2.07-3.11 2.07-4.99 0-1.01-.21-1.98-.61-2.87.52-.75 1.94-2.54 4.17-3.59 1.02.55 2.16.83 3.34.83 1.89 0 3.66-.74 5-2.07 2.01-2.02 2.55-4.95 1.62-7.46 1.97-1.8 4.08-3.31 4.64-3.25h.17zm11 35.257c.37-.37.862-.574 1.386-.574s1.02.204 1.39.574c.77.764.77 2.007 0 2.77-.74.74-2.03.74-2.77 0-.37-.37-.57-.86-.57-1.384 0-.524.21-1.016.58-1.386zm.04 4.503c.414.18.862.277 1.327.28-.205 1.14-.53 2.742-.86 3.74-.42-.19-.873-.297-1.333-.313.41-1.247.7-2.714.86-3.707zM68.85 67.63c.37-.37.862-.574 1.386-.574s1.016.204 1.386.574c.763.764.763 2.008 0 2.772-.74.74-2.03.74-2.772 0-.764-.765-.764-2.008 0-2.772zm-.488 4.222c.45.3.967.47 1.51.527-.284.89-.84 2.35-1.763 3.7l-.01-.01c-.41-.41-.88-.71-1.39-.91.93-1.21 1.41-2.46 1.65-3.32zM63.38 77.09c.495-.496 1.153-.768 1.853-.768s1.357.272 1.852.767.767 1.15.767 1.85-.272 1.36-.767 1.85c-.99.99-2.715.99-3.705 0-1.02-1.02-1.02-2.69 0-3.71zm-1.284 4.397c.088.11.164.224.265.325.41.402.88.703 1.4.905-.76.814-2.02 2.083-3.35 3.132-.19-.52-.49-1.01-.91-1.43-.07-.08-.16-.13-.23-.2 1.19-.86 2.24-2.02 2.84-2.75zm-7.327 3.958c.49-.494 1.15-.767 1.85-.767.7 0 1.36.273 1.85.767 1.02 1.02 1.02 2.684 0 3.705-.99.99-2.72.99-3.71 0-1.02-1.02-1.02-2.683 0-3.705zm-5.72 2.993c1.28 0 2.67-.366 3.56-.656.09.77.4 1.512.93 2.137-1.04.4-2.84.99-4.57 1 .09-.4.15-.8.15-1.21 0-.44-.07-.87-.18-1.29h.09zm-7.99-1.465c.73-.733 1.7-1.136 2.74-1.136s2.01.404 2.74 1.136c.73.733 1.13 1.707 1.13 2.743 0 1.036-.41 2.01-1.14 2.743-.74.73-1.71 1.13-2.75 1.13s-2.01-.41-2.74-1.14c-1.52-1.52-1.52-3.98 0-5.49zM63.48 9.555c1.688-1.688 3.933-2.617 6.32-2.617 2.388 0 4.633.93 6.32 2.617 3.485 3.485 3.485 9.156 0 12.64-1.687 1.69-3.932 2.618-6.32 2.618-2.387 0-4.632-.93-6.32-2.617C60 18.71 60 13.04 63.483 9.556zm-24.6 78.158c-.31.76-.41 1.577-.353 2.385-1-.277-2.724-.854-4.404-1.872.237-.17.47-.35.68-.56.39-.39.69-.84.937-1.315 1.126.74 2.384 1.16 3.145 1.37zm-7.84-7.688c1.036 0 2.01.404 2.743 1.136.733.74 1.136 1.71 1.136 2.75s-.41 2.01-1.14 2.75c-.35.35-.76.62-1.2.82-.08.02-.16.04-.23.09-.42.15-.86.24-1.32.24-1.04 0-2.01-.4-2.75-1.13-.73-.73-1.14-1.7-1.14-2.74s.4-2.01 1.13-2.74c.73-.73 1.7-1.13 2.74-1.13zm-3.03-.483c-.257.18-.505.375-.73.6-.325.325-.583.692-.81 1.076-.706-.84-1.84-2.383-2.47-4.207.818-.03 1.605-.22 2.333-.55.377 1.24 1.166 2.41 1.677 3.09zm-.802-12.42c1.933 1.932 1.933 5.08 0 7.012-.2.2-.42.37-.646.53-.086.038-.162.09-.227.154-.787.494-1.69.768-2.637.768-1.323 0-2.57-.516-3.505-1.452-1.934-1.934-1.934-5.08 0-7.013.936-.93 2.18-1.45 3.506-1.45 1.32 0 2.57.52 3.5 1.45zm-5.438-6.978c.754.487 1.6.803 2.492.938-.325 1.183-.36 2.438-.343 3.157-.08-.01-.15-.02-.22-.02-.76 0-1.49.13-2.18.38-.13-.97-.22-2.67.24-4.47zm6.965-1.874c-.94.936-2.186 1.452-3.51 1.452-1.324 0-2.57-.516-3.506-1.452-1.94-1.933-1.94-5.08 0-7.013.93-.936 2.18-1.452 3.5-1.452 1.32 0 2.57.516 3.5 1.452 1.93 1.933 1.93 5.08 0 7.013zm.09-8.795c-.784-.536-1.673-.883-2.614-1.028.42-.83 1.31-2.378 2.75-3.91.25.373.54.725.87 1.05.3.293.61.55.95.785-.89.987-1.55 2.255-1.93 3.103zm9.96-4.906c-1.06 1.06-2.473 1.64-3.974 1.64s-2.91-.59-3.97-1.65c-1.06-1.07-1.64-2.48-1.64-3.98s.59-2.91 1.65-3.98c1.06-1.06 2.47-1.65 3.97-1.65s2.91.58 3.98 1.64c.37.37.68.79.93 1.23.03.13.09.24.17.34.36.74.55 1.56.55 2.41 0 1.5-.58 2.91-1.64 3.97zm1.68-8.19c-.203-.27-.42-.54-.663-.78-.423-.42-.894-.78-1.394-1.08.74-.78 2.4-2.42 4.09-3.38.327.63.75 1.22 1.278 1.74.105.1.22.2.33.3-1.734.98-2.95 2.29-3.64 3.18zm12.274-4.5c-1.06 1.06-2.47 1.64-3.98 1.64s-2.91-.59-3.98-1.65c-.54-.54-.95-1.16-1.23-1.83-.01-.06-.02-.13-.04-.19-.02-.03-.04-.05-.06-.08-.21-.6-.33-1.23-.33-1.89 0-1.5.58-2.92 1.64-3.98s2.47-1.64 3.97-1.64 2.91.58 3.97 1.64 1.64 2.47 1.64 3.97-.59 2.91-1.65 3.97zm1.96-7.78c-.19-.29-.39-.56-.62-.82 1.12-.62 3.82-2.16 5.16-3.4.27-.25.5-.53.69-.8.19.57.42 1.14.71 1.68-.27-.03-.48-.03-.59-.02-1.36-.04-3.87 2.01-5.36 3.35z"/>
</svg>
