<svg xmlns="http://www.w3.org/2000/svg" viewBox="0 0 100 100">
    <path d="M73.675 29.032c1.356-1.356 1.356-3.554 0-4.91-1.355-1.356-3.555-1.356-4.91 0l-4.152 4.152c-3.92-2.976-8.786-4.765-14.075-4.765-12.872 0-23.344 10.47-23.344 23.34 0 5.29 1.79 10.15 4.764 14.07l-3.748 3.75c-1.35 1.35-1.35 3.55 0 4.91.68.68 1.57 1.01 2.46 1.01s1.777-.34 2.455-1.02l3.807-3.8c3.837 2.76 8.53 4.41 13.61 4.41 12.873 0 23.346-10.47 23.346-23.35 0-5.08-1.65-9.78-4.418-13.61l4.21-4.21zM34.138 46.854c0-9.043 7.357-16.4 16.4-16.4 3.372 0 6.51 1.025 9.118 2.777l-22.74 22.75c-1.753-2.61-2.778-5.74-2.778-9.11zm32.8 0c0 9.043-7.357 16.4-16.4 16.4-3.162 0-6.107-.915-8.614-2.47L64.467 38.24c1.557 2.507 2.47 5.452 2.47 8.614z"/>
    <path d="M49.37 5.284c-22.788 0-41.327 18.54-41.327 41.327 0 11.14 4.283 21.47 12.058 29.16L18.66 93.5c-.034.41.152.806.49 1.042.197.138.43.21.663.21.164 0 .33-.036.483-.107l17.917-8.228c3.557 1.074 6.83 1.522 11.156 1.522 22.78 0 41.32-18.54 41.32-41.33S72.15 5.28 49.37 5.28zm0 80.338c-4.31 0-7.365-.433-10.9-1.544-.05-.016-.102-.007-.154-.016-.09-.016-.178-.034-.27-.028-.074.005-.14.03-.21.05-.066.017-.133.017-.196.046l-16.514 7.584L22.45 75.43c.003-.02-.006-.038-.006-.058.003-.082-.014-.16-.028-.24-.013-.07-.02-.14-.044-.204-.024-.064-.065-.12-.1-.18-.044-.07-.083-.14-.14-.2-.013-.015-.018-.034-.032-.047-7.572-7.29-11.742-17.19-11.742-27.89 0-21.51 17.5-39.01 39.01-39.01C70.88 7.6 88.38 25.1 88.38 46.61c0 21.51-17.5 39.013-39.01 39.013z"/>
</svg>
