<svg xmlns="http://www.w3.org/2000/svg" viewBox="0 0 100 100">
    <path d="M16.857 54H5.564c-.446 0-.807-.554-.807-1s.36-1 .807-1h11.292c.446 0 .807.554.807 1s-.36 1-.806 1z"/>
    <path d="M8.736 67.79c-.36 0-.685-.24-.78-.604-.113-.43.145-.872.577-.985l10.873-2.84c.438-.11.87.15.983.58.11.43-.15.87-.58.99L8.94 67.77c-.07.016-.14.025-.21.025z"/>
    <path d="M16.643 80.985c-.216 0-.43-.086-.59-.255-.303-.325-.286-.835.04-1.14l7.488-7.02c.33-.303.84-.288 1.15.037.31.325.29.835-.04 1.14l-7.49 7.02c-.15.146-.35.218-.55.218z"/>
    <path fill="none" d="M43.235 41.44l-6.24.11 4.747-5.728c.285-.343.238-.86-.106-1.145-.345-.285-.852-.255-1.136.087l-5.868 7.038c-.202.243-.243.505-.106.79.134.28.416.305.726.305h.014l7.997.007c.446-.008.8-.225.792-.67-.007-.446-.316-.808-.82-.794z"/>
    <path fill="none" d="M66.507 46.253c-.077-.21-.306-.317-.517-.24-.21.075-.318.306-.243.516l.804 2.21-6.08 2.39-1.69-4.89c-.07-.21-.3-.32-.51-.25-.21.07-.32.3-.25.51l1.71 4.91-6.68 2.62-1.72-4.85c-.07-.21-.3-.33-.51-.25-.21.07-.32.3-.24.51l1.74 4.87-4.59 1.8c-.2.08-.31.31-.22.52.06.16.22.25.38.25.05 0 .1-.01.15-.03l4.57-1.8 2.02 5.7-5.71 2.9c-.2.1-.28.34-.18.54.07.14.22.22.36.22.06 0 .13-.02.19-.04l5.62-2.85 2.56 7.19c.06.17.22.27.38.27.05 0 .09-.01.14-.02.21-.08.32-.31.24-.52l-2.6-7.29 2.26-1.14-.27-.77-2.26 1.15-2-5.63 6.64-2.6.29.82c.29.04.63.16.98.36l-.51-1.48 6.09-2.4 1.55 4.33-4.98 2.52.34.73 4.77-2.42.51-1.49-1.44-3.97 3.21-1.26.34-1-3.82 1.51-.8-2.2z"/>
    <path d="M53.31 54.824l1.997 5.623 2.26-1.146-.4-1.14c-.53-1.18-.823-3.82 1.97-5.07.086-.03.33-.11.7-.11.124 0 .272.02.428.04l-.284-.82-6.67 2.63z"/>
    <path d="M66.827 49.506l-6.094 2.397.514 1.483c.643.377 1.34 1.082 1.917 2.41l.246.544 4.98-2.524-1.563-4.31z"/>
    <path d="M57.838 60.07l-2.257 1.144 2.6 7.292c.08.21-.03.44-.24.514-.04.017-.09.024-.13.024-.16 0-.32-.103-.38-.27l-2.56-7.194-5.62 2.85c-.05.03-.12.045-.18.045-.14 0-.28-.08-.36-.22-.1-.2-.02-.442.18-.543l5.72-2.895-2.02-5.695L48 56.917c-.048.02-.098.028-.147.028-.16 0-.314-.097-.375-.256-.082-.21.02-.44.227-.53l4.59-1.81-1.733-4.88c-.078-.21.033-.44.242-.52.214-.08.44.03.513.24l1.724 4.85 6.68-2.63-1.7-4.92c-.07-.21.04-.44.25-.51.21-.08.44.04.52.25l1.69 4.88 6.08-2.4-.8-2.22c-.08-.21.03-.44.24-.52.21-.08.44.03.52.24l.8 2.2 3.83-1.51.11-.32c.03-.09.8-2.44 3.12-2.44.36 0 .74.06 1.13.18-.03-.02 1.21.17 1.92 1.21.47.68.59 1.55.36 2.58-.18.81-1.79 6.85-2.99 11.36l3-5.98C81.47 38.59 73.19 26 73.19 26s-9.2-16.72-29.22-10.31c-20.072 6.43-15.43 28.97-15.43 28.97-1.422 5.765-2.184 16.664-2.184 16.664l6.63.023c4.15 12.12 13.54 13.64 13.54 13.64 5.644 1.57 10.53.79 14.34-.698-1.2-5.96-2.93-13.89-2.948-13.98l-.09-.26zM43.264 42.904l-7.997-.007h-.014c-.31 0-.592-.026-.726-.306-.137-.28-.096-.54.106-.78l5.867-7.04c.29-.34.797-.37 1.14-.08.345.29.39.8.108 1.15L37 41.55l6.24-.11c.503-.012.812.35.82.796.007.444-.347.662-.793.67z"/>
    <path d="M66.003 62.063l2.51-7.404-4.768 2.41"/>
    <path d="M69.016 53.173l1.77-5.225-3.207 1.262"/>
    <path d="M94.862 64.73c-.852-1.144-1.75-1.383-2.35-1.383-.862 0-1.456.467-1.532.53l-5.36 4.67 7.767-11.295c.033-.035.804-.865.72-2.062-.064-.895-.574-1.728-1.515-2.478-.704-.56-1.42-.843-2.13-.843-1.55 0-2.444 1.34-2.464 1.37l-6.338 8.61c2.185-4.63 5.102-10.94 5.415-12.32.458-2.02-.762-3.27-1.428-3.62-.548-.36-1.118-.55-1.692-.55-1.835 0-3.006 1.86-3.078 1.98l-3.107 6.19-2.992 5.97c1.207-4.52 2.812-10.56 2.995-11.37.23-1.03.108-1.89-.364-2.58-.72-1.04-1.96-1.23-1.92-1.21-.39-.12-.77-.18-1.13-.18-2.32 0-3.09 2.35-3.12 2.44l-.11.32-.34 1-1.77 5.22-.51 1.49L66 62.05l-2.26-4.987-.335-.734-.25-.55c-.58-1.33-1.277-2.03-1.92-2.41-.355-.21-.69-.32-.98-.37-.158-.03-.306-.05-.43-.05-.37 0-.614.08-.7.11-2.79 1.24-2.5 3.89-1.97 5.07l.4 1.14.27.77.09.25c.02.08 1.75 8.02 2.947 13.97.1.5.2.99.29 1.46 1.2 6.09 8.69 9.98 13.32 9.98.357 0 .7-.03 1.023-.07 3.88-.53 12.94-11.43 13.92-12.63 3.267-3.24 5.068-5.06 5.35-5.41 1.037-1.28.15-2.81.088-2.92zm-.913 2.248c-.15.182-1.03 1.115-5.31 5.368-2.7 3.282-10.34 11.888-13.28 12.284-.28.04-.58.058-.88.058-4.18 0-11.2-3.64-12.28-9.124-1.19-6.028-3.22-15.367-3.26-15.522l-.8-2.27c-.12-.264-1.06-2.605 1.37-3.69 0 0 .12-.037.31-.037.52 0 1.52.283 2.35 2.186l3.29 7.27c.05.13.16.23.28.28l.16.07c.13.06.29.05.42-.01.13-.06.23-.17.28-.31l5.61-16.55c0-.01.56-1.71 2.1-1.71.25 0 .53.05.9.15.01 0 .83.14 1.27.78.29.44.36 1.02.2 1.74-.29 1.27-4.29 16.2-4.33 16.35-.07.27.07.54.32.64.25.1.54-.01.66-.26l8.43-16.78c.01-.01.92-1.43 2.15-1.43.36 0 .73.13 1.15.4.01 0 1.33.73.93 2.46-.38 1.65-5.24 11.94-7.75 17.15-.12.25-.03.55.2.69.23.14.54.08.7-.14l9.67-13.15c0-.01.62-.92 1.59-.92.46 0 .95.21 1.46.61.69.56 1.07 1.13 1.11 1.71.06.73-.43 1.27-.48 1.34L83.16 70.2c-.09.137-.12.3-.073.458.05.155.16.28.31.34l.39.158c.186.08.4.04.55-.09l7.284-6.35c.01 0 .36-.273.85-.273.52 0 1.03.32 1.47.91.01.008.55.946-.03 1.66z"/>
</svg>
