<svg xmlns="http://www.w3.org/2000/svg" viewBox="0 0 100 100">
    <path d="M76.668 35.252l7.698-1.953c1.125-.29 1.806-1.43 1.52-2.56-.284-1.13-1.428-1.81-2.553-1.52l-9.905 2.51-4.404-21.29c-.26-1.26-1.51-2.06-2.766-1.77l-43.55 10.16c-1.215.28-1.98 1.48-1.724 2.7l4.53 21.56c-.157.3-.316.6-.463.9l-11.93 3.03c-1.12.28-1.8 1.43-1.52 2.55.24.95 1.1 1.58 2.04 1.58.17 0 .35-.02.52-.07l9.06-2.3c-.85 2.88-1.31 5.92-1.31 9.06 0 17.68 14.39 32.07 32.07 32.07s32.06-14.39 32.06-32.07c0-8.82-3.58-16.82-9.36-22.62zM53.963 86.67c-15.88 0-28.797-12.918-28.797-28.797 0-3.52.638-6.894 1.8-10.014L72.9 36.2c6.036 5.283 9.858 13.034 9.858 21.666 0 15.88-12.92 28.797-28.797 28.797z"/>
    <circle cx="70.696" cy="48.065" r="2.747"/>
    <circle cx="45.518" cy="55.127" r="2.747"/>
    <path d="M61.306 55.25l4.085.758-3.82 2.114c-.79.437-1.07 1.432-.63 2.222.3.54.86.843 1.43.843.27 0 .54-.066.79-.205l7.81-4.32c.61-.334.94-1.01.83-1.692-.11-.68-.63-1.22-1.31-1.345l-8.56-1.59c-.88-.167-1.74.42-1.9 1.307-.16.89.42 1.742 1.31 1.907z"/>
    <path d="M75.902 67.455c-.247-.868-1.153-1.37-2.02-1.124L49.83 73.19c-.868.247-1.372 1.152-1.124 2.02.205.72.86 1.187 1.57 1.187.15 0 .3-.02.45-.063l9.075-2.587c1.28 2.132 3.7 4.698 6.86 4.698.7 0 1.44-.126 2.21-.41 4.12-1.52 4.83-5.515 4.59-8.178l1.33-.38c.87-.247 1.37-1.152 1.13-2.02zm-8.177 7.512c-2.046.758-3.684-.843-4.63-2.16l2.316-.66.31.967c.22.697.87 1.142 1.56 1.142.17 0 .33-.025.5-.077.86-.28 1.34-1.2 1.07-2.06l-.28-.88 1.67-.48c.02 1.38-.35 3.4-2.49 4.19z"/>
</svg>
