<svg xmlns="http://www.w3.org/2000/svg" viewBox="0 0 100 100">
    <path d="M50.26 40.954c-7.568 0-13.725 6.157-13.725 13.725 0 7.56 6.157 13.72 13.725 13.72s13.725-6.16 13.725-13.73-6.157-13.73-13.725-13.73zm0 26.05c-6.796 0-12.324-5.53-12.324-12.325 0-6.8 5.528-12.33 12.324-12.33s12.324 5.53 12.324 12.32S57.054 67 50.26 67z"/>
    <circle cx="55.974" cy="51.543" r="1.129"/>
    <circle cx="45.093" cy="51.543" r="1.129"/>
    <path d="M53.343 53.825c-.383.036-.666.377-.632.76.01.01.09 1.004-.48 1.62-.32.354-.83.533-1.5.533-.68 0-1.2-.184-1.55-.546-.6-.63-.56-1.633-.56-1.643.02-.39-.27-.72-.66-.74-.4-.02-.71.27-.74.66 0 .06-.07 1.6.94 2.67.62.66 1.49.99 2.58.99s1.95-.34 2.55-1c.98-1.08.84-2.62.84-2.69-.04-.39-.38-.67-.76-.63z"/>
    <path d="M68.213 54.228c-.026-.023-2.545-2.384-.918-5.85.083-.176.088-.38.014-.56-.08-.182-.23-.324-.41-.393-.16-.06-3.83-1.48-2.97-5.06.05-.234-.01-.48-.18-.652-.17-.173-.42-.248-.65-.198-.03.005-2.28.462-3.85-.604-.77-.51-1.25-1.33-1.44-2.43-.04-.22-.19-.42-.4-.51-.21-.09-.46-.08-.65.04-.15.09-3.74 2.18-6.06-.62-.16-.19-.4-.26-.63-.23-.24-.03-.48.05-.64.24-.1.12-2.39 2.84-5.65.58-.17-.12-.38-.15-.58-.1-.2.06-.37.2-.45.38-.02.04-1.59 3.3-5.58 2.54-.24-.04-.48.04-.65.22-.17.18-.23.43-.16.67.05.18 1.16 4.32-2.97 5.7-.2.07-.35.21-.43.4-.08.19-.07.4.02.59.02.04 1.9 3.8-.96 6.13-.16.14-.26.34-.26.55 0 .2.08.39.22.52.11.09 2.54 2.41.92 5.85-.08.17-.09.38-.01.56.07.18.22.32.4.39.16.06 3.83 1.48 2.96 5.06-.06.23.01.48.17.65.16.17.41.25.64.2.02 0 2.3-.46 3.86.61.76.52 1.24 1.34 1.43 2.43.03.23.18.42.39.52.2.1.45.09.65-.03.15-.09 3.74-2.17 6.05.63.14.17.34.25.54.25.03 0 .06-.01.09-.01s.06.02.09.02c.2 0 .4-.08.54-.25.09-.11 2.38-2.83 5.64-.58.17.12.38.15.58.1.2-.05.36-.19.45-.38.06-.13 1.61-3.28 5.57-2.54.23.04.48-.04.64-.22.16-.18.22-.43.15-.66-.05-.17-1.17-4.32 2.97-5.69.19-.06.35-.21.42-.4.08-.18.07-.4-.02-.58-.08-.15-1.88-3.81.96-6.13.16-.13.26-.34.26-.55-.01-.19-.09-.38-.23-.51zm-2.542 7.124c-3.05 1.367-3.57 4.183-3.35 6.13-3.16-.2-4.95 1.72-5.69 2.777-2.78-1.55-5.2-.4-6.44.75-2.07-2.03-4.84-1.62-6.58-.88-.34-1.05-.95-1.88-1.81-2.46-1.32-.9-2.93-.99-3.94-.93.22-2.83-1.76-4.64-3.33-5.44.99-2.73-.02-5.03-1-6.27 2.02-2.1 1.72-4.93 1.09-6.65 3.05-1.37 3.58-4.19 3.36-6.13 3.16.18 4.96-1.72 5.7-2.78 2.79 1.54 5.2.39 6.45-.76 2.08 2.02 4.85 1.61 6.58.87.35 1.05.95 1.87 1.81 2.45 1.32.89 2.93.98 3.94.93-.22 2.82 1.77 4.63 3.33 5.44-.98 2.73.02 5.03 1.01 6.26-2.02 2.1-1.71 4.92-1.08 6.64z"/>
    <path d="M77.623 54.657c-.364 0-.67-.282-.698-.65-.07-.958-1.968-23.425-25.84-23.474-23.87.05-25.768 22.517-25.838 23.474-.027.386-.357.676-.75.648-.384-.028-.675-.363-.647-.748.017-.247 2.04-24.658 27.134-24.775h.203c25.093.116 27.117 24.528 27.134 24.775.03.386-.26.72-.64.748l-.05.002z"/>
    <path d="M20.347 54.842c-.017 0-.033 0-.05-.002-.386-.027-.677-.362-.65-.748.02-.286 2.352-28.56 31.246-28.696h.23c28.894.135 31.226 28.41 31.246 28.696.02.386-.27.72-.65.748-.38.027-.72-.263-.75-.65-.08-1.116-2.28-27.335-29.97-27.393-11.62.024-20.19 4.624-25.47 13.675-3.97 6.792-4.49 13.65-4.5 13.72-.03.368-.34.65-.7.65z"/>
    <path d="M16.456 54.716c-.017 0-.033 0-.05-.002-.386-.027-.677-.362-.65-.748.023-.322 2.633-32.157 35.046-32.305h.255c32.413.15 35.023 31.99 35.045 32.31.027.39-.264.72-.65.75-.365.03-.72-.26-.747-.65-.09-1.26-2.564-30.93-33.776-31-31.25.07-33.76 30.7-33.78 31.01-.03.37-.33.65-.7.65z"/>
    <path d="M12.566 54.93c-.016 0-.033 0-.05-.003-.385-.026-.676-.36-.65-.747.026-.362 2.912-36.09 38.77-36.255h.28c35.857.165 38.744 35.895 38.77 36.255.026.386-.265.72-.65.747-.393.017-.72-.264-.748-.65-.006-.088-.673-8.884-5.65-17.546C76.02 25.22 65.3 19.36 50.775 19.33c-34.7.072-37.49 34.602-37.513 34.95-.025.37-.333.653-.697.653z"/>
    <path d="M81.194 68.61c-2.708 0-4.026-1.233-4.536-1.89-2.14.036-4.388-.308-5.5-2.584-.664-1.364-.4-3.265-.25-4.04-.966-1.337-1.34-3.4-.078-5.273 1.652-2.455 4.86-1.893 4.996-1.867.38.07.632.436.56.816-.07.38-.434.633-.815.56-.02-.004-2.44-.414-3.57 1.273-1.07 1.6-.38 3.182.21 3.864.15.17.2.4.15.62-.15.6-.43 2.39.08 3.43.78 1.59 2.39 1.87 4.58 1.79.3-.01.53.14.65.38.03.05.9 1.6 3.83 1.51.05 0 3.16-.04 3.92-1.87.14-.33.5-.51.84-.41.03.01 3.03.83 4.53-.78 2.05-2.2 1.12-3.59 1.08-3.65-.13-.19-.17-.44-.09-.66l.07-.17c.07-.19.21-.34.4-.41.43-.18 1.8-.93 1.22-3.32-.39-1.62-2.37-1.59-2.39-1.59-.35.02-.71-.3-.72-.68-.01-.39.3-.71.69-.72 1.06-.04 3.27.49 3.79 2.66.58 2.39-.36 3.93-1.51 4.67.33.88.54 2.64-1.5 4.82-1.63 1.75-4.23 1.51-5.37 1.3-1.37 2.17-4.76 2.19-4.91 2.19h-.3z"/>
    <path d="M16.368 68.61c-2.708 0-4.026-1.233-4.536-1.89-2.145.04-4.388-.31-5.5-2.584-.665-1.363-.4-3.265-.25-4.04-.967-1.337-1.34-3.4-.08-5.273 1.654-2.455 4.86-1.893 4.998-1.867.38.07.632.436.56.816-.07.38-.436.633-.815.56-.022-.004-2.445-.414-3.58 1.274-1.077 1.6-.378 3.18.204 3.864.14.172.2.406.14.625-.15.6-.43 2.39.07 3.427.78 1.596 2.39 1.868 4.58 1.79.29-.016.53.14.65.386.03.057.9 1.602 3.83 1.51.05 0 3.16-.033 3.91-1.865.13-.328.49-.504.84-.407.03.008 3.02.832 4.53-.78 2.05-2.197 1.12-3.59 1.08-3.647-.13-.19-.17-.44-.09-.66l.06-.17c.06-.19.21-.34.39-.41.43-.18 1.8-.93 1.22-3.32-.39-1.62-2.37-1.59-2.39-1.59-.35.02-.71-.3-.72-.68-.01-.39.29-.71.68-.72 1.06-.04 3.26.49 3.79 2.66.57 2.39-.36 3.93-1.51 4.66.32.88.53 2.64-1.5 4.82-1.63 1.74-4.23 1.51-5.37 1.3-1.37 2.17-4.76 2.19-4.92 2.19h-.31z"/>
</svg>
