<svg xmlns="http://www.w3.org/2000/svg" viewBox="0 0 100 100">
    <path d="M90.564 20.8H8.834c-1.042 0-1.886.845-1.886 1.886 0 1.04.844 1.885 1.885 1.885H26.47c-.044 4.08.492 15.99 7.734 23.75 4.168 4.46 9.817 6.76 16.79 6.83.022 0 .044.01.067.01h.14l.14.01c.03 0 .05-.01.07-.01 6.98-.07 12.62-2.36 16.79-6.82 7.24-7.75 7.78-19.66 7.74-23.74h14.64c1.04 0 1.89-.84 1.89-1.88s-.84-1.88-1.88-1.88zM65.43 45.74c-3.467 3.71-8.257 5.604-14.236 5.632-5.972-.028-10.758-1.917-14.224-5.62-6.286-6.718-6.748-17.64-6.722-21.18h19.08v21.424c0 1.04.843 1.885 1.884 1.885 1.04 0 1.885-.84 1.885-1.88V24.57h19.046c.03 3.535-.418 14.43-6.713 21.17z"/>
    <path d="M51.095 61.24s-15.234 26.145.27 26.55c15.31-.402.048-26.55.048-26.55h-.318z"/>
</svg>
