<svg xmlns="http://www.w3.org/2000/svg" viewBox="0 0 100 100">
    <path d="M65.222 60.802c-5.31-5.31-5.975-12.147-6.68-19.386-.29-2.97-.588-6.04-1.208-9.137-1.147-5.74-3.59-8.19-5.735-9.22.86-2.24 2.37-7.07 1.3-11.16-.05-.18-.51-1.71-1.98-2.32-.71-.29-1.87-.45-3.44.44-2.1 1.19-4.29 6.04-2.84 13.24-2.04 1.12-4.52 3.83-4.63 10.46C39.79 46 32.89 61.6 30.49 66.1c-.903 1.693-3.02 6.15-3.19 10.977-.175 4.93 1.775 8.703 5.64 10.91 1.975 1.13 4.01 1.703 6.042 1.703 4.38 0 7.682-2.646 9.27-3.918.276-.22.497-.4.665-.512.287-.19.76-.29 1.362-.29 2.87 0 7.18 2.136 7.22 2.158.04.024.09.044.14.06 1.33.47 2.63.71 3.86.71 3.82 0 6.95-2.274 8.59-6.24 2.32-5.606 1.38-14.573-4.91-20.86zM48.72 12.212c.533-.303.974-.412 1.24-.307.303.12.496.55.53.658.917 3.5-.585 7.982-1.313 9.833-.227-.02-.435-.03-.62-.03-.644 0-1.14.09-1.393.15-.035 0-.075.004-.12.01-1.14-6.112.75-9.785 1.675-10.313zm19.1 68.496c-.725 1.754-2.508 4.696-6.288 4.696h-.002c-.93 0-1.928-.183-2.968-.542-.644-.315-5.003-2.385-8.27-2.385-1.115 0-2.04.24-2.746.71-.235.157-.5.37-.84.64-1.47 1.18-4.21 3.372-7.713 3.372-1.594 0-3.21-.47-4.805-1.38-8.475-4.85-2.227-17.16-1.486-18.55 2.473-4.64 9.583-20.74 9.807-33.49.08-4.81 1.5-6.99 2.77-7.98.51 1.72 1.23 3.54 2.19 5.47.22.43.66.69 1.11.69.19 0 .38-.05.55-.14.61-.31.86-1.06.56-1.68-.94-1.87-1.61-3.61-2.08-5.21.01-.01.03-.01.05-.01 0 0 .34-.1.87-.1.32 0 .69.03 1.09.13 1.78.44 4.1 2.16 5.22 7.77.6 2.98.89 5.98 1.17 8.89.29 2.97.58 5.88 1.16 8.68-.31 5.13-1.89 8.73-1.91 8.78-.15.31-.01.68.31.82.08.03.17.05.26.05.24 0 .46-.14.57-.37.06-.16 1.07-2.43 1.66-5.94 1.03 3.17 2.64 6.16 5.35 8.87 5.51 5.51 6.37 13.3 4.36 18.14z"/>
    <path d="M46.756 56.475c-.775-4.584-1.428-8.47-1.4-12.063v-.01c.002-.005 0-.01 0-.015.025-2.956.51-5.717 1.78-8.504.144-.314.006-.684-.308-.827-.313-.143-.683-.004-.827.31-.47 1.044-.83 2.09-1.12 3.143-2.15 2.83-5.79 15.25-5.94 15.78-.09.33.1.67.43.77.06.01.12.02.18.02.27 0 .52-.18.6-.45.91-3.12 2.59-8.43 4.06-12.03-.04.53-.06 1.08-.07 1.62-1.41 11.78-5.84 15.16-5.9 15.21-.28.2-.34.59-.14.86.13.17.32.26.51.26.13 0 .25-.04.36-.12.17-.12 3.56-2.63 5.51-10.85.27 2.23.66 4.57 1.08 7.07.34 2.01.71 4.16 1.04 6.45 1.58 9.88-2.28 15.24-2.32 15.29-.2.28-.15.67.13.88.12.08.25.12.38.12.19 0 .37-.09.5-.25.1-.13 1.49-2.06 2.32-5.66.18 6.4-1.03 8.24-1.84 8.76-.7.45-1.42.05-1.46.03-.29-.18-.67-.08-.85.21-.18.3-.08.68.22.86.04.03.61.36 1.38.36.42 0 .89-.1 1.37-.39 2.11-1.31 2.87-5.75 2.26-13.19-.42-5.19-1.19-9.7-1.86-13.69z"/>
    <path d="M48.205 53.66c.028 0 .056 0 .085-.005.34-.046.58-.36.534-.702-.004-.03-.4-3.167 1.07-7.962 1.56-5.07 1.014-9.83.99-10.03-.04-.34-.338-.58-.693-.54-.34.04-.58.35-.54.7.01.05.54 4.7-.94 9.53-1.56 5.09-1.13 8.36-1.11 8.5.05.31.31.54.62.54z"/>
    <path d="M50.964 57.042c.11-.347 2.68-8.56 1.67-13.143-.074-.34-.41-.56-.743-.48-.33.07-.55.4-.47.74.94 4.25-1.61 12.41-1.65 12.55-2.33 10.62 1.69 14.18 1.87 14.32.12.1.26.15.41.15.18 0 .36-.08.48-.22.22-.27.19-.66-.07-.88-.04-.03-3.62-3.21-1.46-13.05z"/>
    <path d="M54.94 43.17c-.05-.342-.365-.58-.707-.53-.34.047-.578.363-.53.704.01.078 1.07 7.848-1.39 15.792-.058.14-1.387 3.47-.01 7.348.09.256.33.416.587.416.07 0 .14-.012.208-.036.325-.115.495-.472.38-.797-1.21-3.413-.022-6.43.008-6.51 2.562-8.26 1.5-16.06 1.453-16.387z"/>
</svg>
