<svg xmlns="http://www.w3.org/2000/svg" viewBox="0 0 100 100">
    <path d="M89.534 12.064c-.077-.416-.434-.722-.857-.732-.45-.014-.795.28-.89.69l-7 30.418c-.01.024-.82 2.292-4.27 3.565-1.83-1.29-10-6.515-23.05-7.387-.112-.052-.235-.084-.367-.084h-1.2c-.7-.027-1.404-.053-2.132-.053-.743 0-1.462.03-2.177.06h-.98c-.12 0-.24.03-.34.07-12.85.82-21.03 5.87-23.11 7.31-3.22-1.26-4.05-3.38-4.06-3.39l-7.02-30.5c-.09-.41-.47-.7-.89-.69-.42.01-.78.32-.85.73-.63 3.49-6.14 34.14-4.71 38.25.59 2.36 2.64 7.89 9.1 10.77-3.99 13.77-3.36 23.62-3.33 24.04.03.38.29.7.65.8.16.05 16.35 4.44 37.75 4.44s37.58-4.39 37.75-4.44c.37-.1.63-.42.65-.8.03-.41.66-10.21-3.3-23.92 6.68-2.84 8.78-8.49 9.39-10.92 1.42-4.07-4.09-34.72-4.72-38.2zm-14.402 35.16c-1.036 1.64-2.946 5.618-.613 9.94 2.19 4.058 5.75 4.664 7.68 4.664.37 0 .7-.02.98-.05l.18.68c-6.59 2.21-9.96-4.32-10.13-4.65-2.56-4.52-.48-9.605.46-11.46.59.345 1.08.648 1.42.876zm-27.635-6.906h4.526c.062.002.123.006.186.01v35.587c0 .91-.27 1.52-.81 1.866-.48.31-1.06.35-1.37.35-.12 0-.2 0-.32-.01-2.09 0-2.22-1.67-2.23-2.01V40.32zm-21.72 6.06c.942 1.874 2.992 6.94.426 11.474-.143.29-3.476 6.792-10.045 4.627.062-.23.116-.44.18-.66.368.05.834.1 1.362.1 1.775 0 5.073-.57 7.204-4.4 2.53-4.55.567-8.64-.498-10.31.336-.23.802-.52 1.372-.85zM7.334 49.873c-.027-.103-.045-.17-.055-.194-.87-2.47 1.71-19.74 4.02-33l6.06 26.33c.04.13 1.06 3 5.12 4.58.21.25 3.5 4.31.85 9.06-1.6 2.87-3.96 3.48-5.65 3.48-.3 0-.56-.02-.79-.05-.08-.07-.17-.13-.27-.16-6.72-2.39-8.75-7.83-9.31-10.06zm79.078 34.48c-3.148.79-17.84 4.213-36.642 4.213-18.79 0-33.494-3.423-36.643-4.215-.016-.53-.026-1.4.003-2.54 4.123.93 19.644 4.14 36.724 4.14h.024c1.213 0 22.29-.07 36.52-4.53.044 1.35.032 2.36.015 2.95zm-.103-4.797C72.26 84.11 50.17 84.16 49.85 84.16c-17.405 0-33.176-3.37-36.652-4.166.2-3.697.806-9.212 2.488-15.773 1.092.36 2.115.52 3.062.52 5.948 0 9.007-6.01 9.024-6.04 3.016-5.32.663-11.05-.428-13.17 3.666-1.9 9.976-4.44 18.363-5.09v35.68c0 .17.03 1.63 1.11 2.72.71.71 1.67 1.08 2.76 1.08h.03s.16.02.423.02c.5 0 1.47-.08 2.327-.63.745-.47 1.63-1.44 1.63-3.37v-35.5c8.26.67 14.496 3.17 18.145 5.05-1.085 2.1-3.476 7.84-.464 13.16.038.08 3.1 6.09 9.05 6.09.965 0 2.008-.16 3.12-.53 1.62 6.31 2.24 11.66 2.467 15.36zm6.26-29.878c-.01.026-.03.092-.06.195-.56 2.23-2.6 7.675-9.31 10.06-.04.012-.06.038-.09.054-.24.028-.54.056-.91.056-1.88 0-4.46-.647-6.12-3.728-2.17-4.015.22-7.718.83-8.567 4.41-1.543 5.5-4.608 5.57-4.824l6.04-26.24c2.31 13.262 4.89 30.527 4.03 32.993z"/>
</svg>
