<svg xmlns="http://www.w3.org/2000/svg" viewBox="0 0 100 100">
    <path d="M49.708 91.514c-22.96 0-41.638-18.68-41.638-41.637 0-22.96 18.68-41.638 41.638-41.638s41.638 18.678 41.638 41.637c0 22.96-18.678 41.637-41.638 41.637zm0-81.43c-21.943 0-39.794 17.85-39.794 39.793 0 21.942 17.85 39.793 39.794 39.793s39.794-17.85 39.794-39.793c0-21.943-17.85-39.794-39.794-39.794z"/>
    <path d="M76.828 44.09l-3.538-3.538 3.31-3.31c.404-.404.404-1.06 0-1.464-.403-.405-1.06-.405-1.464 0l-3.31 3.31-3.31-3.31c-.403-.405-1.06-.405-1.464 0-.404.404-.404 1.06 0 1.464l3.31 3.31-3.538 3.538c-.404.404-.404 1.06 0 1.464.202.203.467.303.732.303.265 0 .53-.1.732-.303l3.538-3.538 3.538 3.538c.202.203.467.303.732.303s.53-.1.732-.303c.404-.404.404-1.06 0-1.464z"/>
    <path d="M33.928 44.09l-3.538-3.538 3.31-3.31c.404-.404.404-1.06 0-1.464-.403-.405-1.06-.405-1.464 0l-3.31 3.31-3.31-3.31c-.403-.405-1.06-.405-1.464 0-.404.404-.404 1.06 0 1.464l3.31 3.31-3.538 3.538c-.404.404-.404 1.06 0 1.464.202.203.467.303.732.303.265 0 .53-.1.732-.303l3.538-3.538 3.538 3.538c.202.203.467.303.732.303s.53-.1.732-.303c.405-.404.405-1.06 0-1.464z"/>
    <path d="M73.315 57.08c-2.243 0-3.404.836-4.43 1.575-.914.658-1.703 1.226-3.352 1.226-1.648 0-2.438-.567-3.353-1.225-1.024-.737-2.187-1.574-4.43-1.574-2.24 0-3.402.837-4.427 1.575-.914.658-1.703 1.226-3.35 1.226-1.646 0-2.433-.567-3.346-1.225-1.024-.737-2.184-1.574-4.424-1.574s-3.4.837-4.424 1.575c-.914.658-1.702 1.226-3.346 1.226-1.646 0-2.434-.567-3.347-1.225-1.024-.737-2.185-1.574-4.425-1.574-.51 0-.922.413-.922.923s.412.922.922.922c1.645 0 2.433.568 3.346 1.226.31.223.635.453.995.667V74.65c0 3.154 2.004 2.874 2.004 2.874 2.247 0 2.55-2.663 2.55-2.663v-7.568c0-2.663 2.187-2.663 2.187-2.663 2.55 0 2.365 2.662 2.365 2.662v5.704c0 .84.67 2.138 1.854 2.138 1.184 0 1.71-.97 1.913-2.208.243-1.472-.73-4.022 2.186-4.022 2.308 0 2.126 2.944 2.126 5.957 0 2.896 2.01 2.816 2.17 2.806.16.01 2.17.09 2.17-2.805 0-3.013-.18-5.956 2.127-5.956 2.915 0 1.943 2.55 2.186 4.022.205 1.24.73 2.208 1.913 2.208 1.184 0 1.855-1.297 1.855-2.138v-5.704s-.184-2.663 2.366-2.663c0 0 2.186 0 2.186 2.662v7.57s.304 2.662 2.55 2.662c0 0 2.005.28 2.005-2.874V60.323l.242-.172c.914-.657 1.703-1.225 3.352-1.225.51 0 .922-.412.922-.922.003-.51-.41-.922-.92-.922z"/>
</svg>
