<svg xmlns="http://www.w3.org/2000/svg" viewBox="0 0 100 100">
    <path d="M34.158 25.6c-.547 0-.99-.442-.99-.99 0-.363.196-.682.49-.853.295-.3 1.112-1.482 1.16-2.866.037-1.1-.42-2.14-1.36-3.08-1.286-1.28-1.92-2.69-1.883-4.19.057-2.37 1.842-4.02 1.918-4.09.404-.36 1.03-.34 1.398.07.37.41.34 1.03-.06 1.4-.01.01-1.24 1.17-1.27 2.69-.01.93.42 1.85 1.31 2.73 2.62 2.62 2.03 5.37 1.44 6.78-.04.1-1.01 2.42-2.14 2.42z"/>
    <path d="M51.894 25.6c-.547 0-.99-.442-.99-.99 0-.363.196-.682.49-.853.295-.3 1.112-1.482 1.16-2.866.037-1.1-.42-2.14-1.36-3.08-1.286-1.28-1.92-2.69-1.883-4.19.06-2.37 1.85-4.02 1.92-4.09.41-.36 1.03-.34 1.4.07.37.41.34 1.03-.06 1.4-.01.01-1.24 1.17-1.27 2.69-.01.93.42 1.85 1.31 2.73 2.62 2.62 2.03 5.37 1.44 6.78-.04.1-1.01 2.42-2.14 2.42z"/>
    <path d="M69.384 25.6c-.547 0-.99-.442-.99-.99 0-.363.196-.682.49-.853.295-.3 1.112-1.482 1.16-2.866.037-1.1-.42-2.14-1.36-3.08-1.286-1.28-1.92-2.69-1.883-4.19.06-2.37 1.85-4.02 1.92-4.09.41-.36 1.03-.34 1.4.07.37.41.34 1.03-.06 1.4-.01.01-1.24 1.17-1.27 2.69-.01.93.42 1.85 1.31 2.73 2.62 2.62 2.03 5.37 1.44 6.78-.04.1-1.01 2.42-2.14 2.42z"/>
    <path d="M39.54 49.01c.083.03.17.045.255.045.303 0 .586-.186.697-.486.364-.99.702-1.99 1.003-2.98.12-.39-.1-.81-.492-.93-.393-.12-.807.1-.927.49-.295.96-.624 1.93-.978 2.9-.14.38.056.81.44.95z"/>
    <path d="M65.062 51.35c.42.914.88 1.845 1.37 2.767.133.25.39.394.656.394.117 0 .237-.02.347-.08.363-.19.5-.64.307-1-.477-.89-.924-1.8-1.33-2.69-.172-.37-.614-.53-.985-.36-.372.17-.536.61-.365.99z"/>
    <path d="M62.867 45.564c.286.96.622 1.948.998 2.935.113.29.395.47.694.47.08 0 .17-.02.26-.05.38-.15.57-.58.43-.96-.37-.96-.69-1.91-.97-2.83-.12-.4-.53-.62-.93-.5-.4.11-.62.53-.5.92z"/>
    <path d="M39.197 50.704c-.013-.015-.027-.03-.042-.043l-.014-.01h-.01c-.05-.05-.11-.1-.19-.13-.38-.16-.81.01-.97.39-.4.94-.83 1.87-1.29 2.78-.18.37-.03.82.33 1 .11.06.22.08.33.08.28 0 .54-.15.67-.41.3-.59.57-1.2.85-1.81.17.14.35.31.57.51.15.14.33.21.51.21.2 0 .4-.08.54-.23.28-.3.27-.77-.03-1.05-.56-.54-1.07-1.08-1.23-1.25z"/>
    <path d="M43.756 58.83c.076 0 .155-.01.23-.036.39-.128.603-.547.476-.937-.342-1.046-.908-2.12-1.68-3.195-.238-.333-.7-.408-1.035-.17-.334.24-.41.703-.17 1.036.684.95 1.18 1.89 1.474 2.79.11.314.4.513.71.513z"/>
    <path d="M44.146 60.703c-.4-.016-.76.295-.778.705-.054 1.094-.232 2.16-.53 3.17-.114.392.11.805.504.92.07.02.14.03.21.03.32 0 .617-.21.713-.532.33-1.12.527-2.303.587-3.515.02-.4-.296-.75-.706-.77z"/>
    <path d="M94.044 29.347c-.174-.14-.4-.195-.622-.15-8.226 1.74-40.55 2.084-40.868 2.088-17.093 0-41.507-2.08-41.752-2.1-.21-.024-.413.05-.566.19-.154.142-.24.34-.24.548v9.51c-.56-.036-1.813-.15-4.032-.528-.214-.038-.436.024-.604.164-.166.14-.263.34-.263.56v8.54c0 .2.083.39.23.54.147.14.33.2.548.2 1.523-.07 3.38.06 4.12.36v12.27c0 .06.012.12.026.17.01.01.01.02.01.03.02.07.05.14.09.2.12.17 11.72 17.48 29.5 22.31.23 1.77.98 6.33 2.85 7.18.1.04.2.07.31.07h18.78c.11 0 .21-.03.31-.07 1.87-.85 2.63-5.41 2.85-7.18 17.78-4.83 29.38-22.14 29.5-22.31.08-.12.13-.27.13-.41V29.92c0-.224-.1-.436-.27-.577zM9.996 47.74c-1.08-.287-2.47-.336-3.414-.328v-6.9c1.848.29 2.91.382 3.414.41v6.817zm29.617 34.97c-15.203-4.317-25.713-18.023-27.85-21 1.407-.978 5.366-3.443 10.54-4.2 6.67-.98 12.54 2.362 15.297 8.718 2.376 5.476 2.16 13.766 2.013 16.48zm-.65-17.07c-3.036-7-9.51-10.673-16.875-9.598-4.943.724-8.764 2.857-10.606 4.065v-.75c1.334-.904 5.6-3.48 11.404-3.854 7.437-.478 12.8 2.45 15.987 8.706 1.574 3.09 2.054 6.56 2.04 9.7-.295-2.81-.87-5.79-1.95-8.28zM64.61 82.734c-.147-2.77-.345-10.984 2.015-16.423 2.756-6.35 8.62-9.69 15.298-8.71 5.196.76 9.17 3.25 10.56 4.22C90.18 65 79.69 78.5 64.61 82.74zm28.224-22.488c-1.806-1.196-5.673-3.388-10.696-4.123-7.375-1.082-13.84 2.598-16.876 9.597-1.177 2.716-1.72 6.008-1.945 9.04-.108-3.35.307-7.178 2.026-10.55 3.188-6.257 8.568-9.184 15.987-8.707 5.943.384 10.296 3.09 11.504 3.922v.822zm0-2.604c-1.85-1.156-5.91-3.267-11.41-3.622-4.575-.293-8.51.678-11.682 2.836-.172-.273-.346-.548-.51-.817-.213-.36-.67-.47-1.02-.25-.35.21-.462.66-.25 1.02.19.31.39.62.59.94-1.806 1.5-3.33 3.42-4.53 5.78-4.27 8.37-1.27 18.94-.76 20.24-.3 2.65-1.086 5.64-1.91 6.24H42.965c-.835-.61-1.634-3.69-1.924-6.37l.03-.29c.53-1.8 2.04-7.83 1-14.03.18-.22.44-.56.75-1.05.22-.35.11-.81-.23-1.03-.31-.2-.69-.12-.93.14-.34-1.32-.8-2.62-1.44-3.88-1.13-2.22-2.55-4.06-4.22-5.52.19-.3.37-.61.54-.91.21-.36.08-.81-.27-1.02-.36-.21-.81-.09-1.01.27-.14.24-.29.48-.43.72-3.23-2.32-7.27-3.37-12-3.06-5.43.35-9.44 2.43-11.31 3.6V40.3c2.86.164 15.04.824 29.57 1.155-.04.21-.09.45-.17.75-.09.4.16.8.55.893.06.01.12.02.18.02.34 0 .64-.23.72-.57.11-.46.19-.81.24-1.06 4.63.09 9.47.15 14.3.15 1.71 0 3.41-.01 5.1-.03.04.24.09.534.16.91.07.355.38.6.73.6.05 0 .1-.004.14-.014.41-.08.67-.47.59-.87-.05-.25-.08-.46-.11-.647 11.43-.15 22.22-.72 29.37-2.064v18.09zm0-21.084c-21.05 4.067-75.353 1.122-81.352.78v-6.61c4.382.36 25.675 2.04 41.08 2.04 1.293-.014 30.767-.33 40.273-1.95v5.74z"/>
</svg>
