<svg xmlns="http://www.w3.org/2000/svg" viewBox="0 0 100 100">
    <path d="M67.84 86.536H51.95v-34.29c5.09-.495 9.408-2.62 12.856-6.333 10.19-10.978 9.246-32.013 9.2-32.904-.044-.89-.773-1.58-1.657-1.58H27.96c-.883 0-1.612.69-1.657 1.57-.01.22-.265 5.51.71 12.19 1.324 9.09 4.18 16.06 8.49 20.7 3.51 3.78 7.92 5.91 13.125 6.35v34.27h-16.03c-.916 0-1.66.74-1.66 1.66 0 .92.744 1.66 1.66 1.66H67.84c.92 0 1.66-.74 1.66-1.66 0-.92-.74-1.66-1.66-1.66zm2.88-71.782c.004 2.79-.19 8.89-1.713 15.185H35.22l-3.92-.03c-1.516-6.29-1.713-12.38-1.71-15.16h41.13z"/>
</svg>
