<svg xmlns="http://www.w3.org/2000/svg" viewBox="0 0 100 100">
    <path d="M21.78 31.56v6.28h67.25v-6.28H21.78zm66.235 5.396h-4.55v-4.49h4.55v4.49z"/>
    <path d="M86.06 34.566v.502h.533v.534h.534v.566h-.566v-.534h-.532V35.1h-.502v.534h-.534v.534h-.565v-.566h.534v-.534h.534v-.502h-.534v-.534h-.535v-.566h.566V34h.536v.534h.502V34h.534v-.534h.567v.566h-.535v.534h-.534z"/>
    <path d="M90.372 29.373h-4.375v-4.375c0-.414-.336-.75-.75-.75h-70c-.414 0-.75.336-.75.75l.03 13.25h-3.03c-.414 0-.75.336-.75.75v39.75c0 .414.336.75.75.75h70c.414 0 .75-.336.75-.75v-8.125h8.125c.414 0 .75-.336.75-.75v-39.75c0-.414-.336-.75-.75-.75zm-74.375-3.625h68.5v3.625h-.594v-2.938h-67.25v3.906h2.97v7.908h-3.626v-12.5zm65.44 2.592v.534h-.534v.5H80.4v-.5h-.534v-.534H79.3v.566h.534v.467H78.34v-2.03h4.55v2.03h-1.42v-.467h.533v-.566h-.566zm-.69 49.658h-68.5v-38.25h2.284v.002l.018-.002h66.2v38.25zm8.875-8.875h-7.375V38.998c0-.414-.336-.75-.75-.75H21.122v-7.375h68.5v38.25z"/>
    <path d="M12.904 40.435v6.28h67.25v-6.28h-67.25zM79.14 45.83h-4.55v-4.49h4.55v4.49z"/>
    <path d="M77.184 43.44v.503h.534v.534h.534v.566h-.566v-.534h-.534v-.536h-.502v.534h-.534v.533h-.566v-.565h.534v-.534h.534v-.5h-.534v-.534h-.534v-.567h.566v.533h.534v.534h.502v-.534h.534v-.534h.566v.565h-.534v.534h-.534z"/>
    <path d="M56.25 57.176V58.5h1.408v1.408h1.408V61.4h-1.492v-1.407h-1.408v-1.408h-1.324v1.408h-1.408V61.4H51.94v-1.49h1.41V58.5h1.407v-1.324H53.35v-1.408h-1.41v-1.493h1.494v1.408h1.408v1.408h1.324v-1.406h1.408v-1.408h1.492v1.493h-1.408v1.407H56.25z"/>
    <path d="M39.14 57.176V58.5h1.407v1.408h1.408V61.4h-1.492v-1.407h-1.408v-1.408H37.73v1.408h-1.407V61.4H34.83v-1.49h1.408V58.5h1.408v-1.324h-1.408v-1.408H34.83v-1.493h1.493v1.408h1.408v1.408h1.326v-1.406h1.408v-1.408h1.492v1.493h-1.408v1.407H39.14z"/>
    <path d="M36.81 66.956h1.48v1.48h-1.48z"/>
    <path d="M38.29 66.956h1.478v1.48h-1.48z"/>
    <path d="M39.768 66.956h1.48v1.48h-1.48z"/>
    <path d="M41.247 66.956h1.48v1.48h-1.48z"/>
    <path d="M42.726 66.956h1.48v1.48h-1.48z"/>
    <path d="M44.195 66.956h1.48v1.48h-1.48z"/>
    <path d="M45.648 66.956h1.48v1.48h-1.48z"/>
    <path d="M47.117 66.956h1.48v1.48h-1.48z"/>
    <path d="M51.508 66.956h1.48v1.48h-1.48z"/>
    <path d="M48.586 66.956h1.48v1.48h-1.48z"/>
    <path d="M50.04 66.956h1.478v1.48h-1.48z"/>
    <path d="M52.96 66.956h1.48v1.48h-1.48z"/>
    <path d="M54.42 66.956h1.478v1.48h-1.48z"/>
    <path d="M55.878 66.956h1.48v1.48h-1.48z"/>
    <path d="M57.362 68.487h1.48v1.48h-1.48z"/>
    <path d="M58.84 69.972h1.48v1.48h-1.48z"/>
    <path d="M35.28 68.487h1.478v1.48h-1.48z"/>
    <path d="M33.8 69.972h1.478v1.48h-1.48z"/>
</svg>
