<svg xmlns="http://www.w3.org/2000/svg" viewBox="0 0 100 100">
    <path d="M19.59 90.335c1.203 1.276 2.952 1.924 5.2 1.924h53.353c1.04 0 1.882-.845 1.882-1.884V20.35c0-1.04-.843-1.882-1.882-1.882h-2.725v-3.56c0-.534-.228-1.043-.626-1.4s-.927-.528-1.46-.47l-2.126.234V9.73c0-.576-.263-1.12-.713-1.476-.45-.357-1.04-.49-1.6-.357L24.096 18.43c-.028.007-.053.02-.08.028-1.087.045-2.857.326-4.215 1.555-.783.71-1.717 2.014-1.717 4.198v62.187c-.014.453.028 2.372 1.507 3.94zm47.85-76.65l-12.625 1.39 12.626-2.97v1.58zm4.214 4.783H58.38l13.273-1.46v1.46zM21.842 86.502c.006-.06.002-.012.002-.074V24.21c0-.965.356-1.292.473-1.4.636-.585 1.904-.62 2.297-.587.028.002.055-.002.083 0 .03 0 .06.008.092.008h51.47v66.265H24.79c-.79 0-1.855-.125-2.44-.718-.514-.52-.508-1.267-.508-1.274z"/>
    <path d="M33.257 35.58H66.87c1.038 0 1.88.843 1.88 1.882s-.842 1.882-1.88 1.882H33.256c-1.04 0-1.882-.843-1.882-1.882s.842-1.882 1.882-1.882z"/>
    <path d="M33.257 43.132H66.87c1.038 0 1.88.843 1.88 1.882s-.842 1.882-1.88 1.882H33.256c-1.04 0-1.882-.843-1.882-1.882s.842-1.882 1.882-1.882z"/>
    <path d="M33.612 50.246h20c1.038 0 1.88.843 1.88 1.882s-.842 1.882-1.88 1.882h-20c-1.04 0-1.882-.843-1.882-1.882s.843-1.882 1.882-1.882z"/>
</svg>
